<?xml version="1.0" encoding="UTF-8"?>
<svg width="102px" height="103px" viewBox="0 0 102 103" version="1.1" xmlns="http://www.w3.org/2000/svg" xmlns:xlink="http://www.w3.org/1999/xlink">
    <!-- Generator: Sketch 48.2 (47327) - http://www.bohemiancoding.com/sketch -->
    <title>beneficio-made-in-japan</title>
    <desc>Created with Sketch.</desc>
    <defs>
        <path d="M50.6312251,0.840345406 C25.7374427,0.840345406 5.04372992,18.8257261 0.83868792,42.5112011 L0.633159655,59.0661714 C4.32438099,83.3632587 25.3048389,101.983457 50.6312251,101.983457 C78.5615218,101.983457 101.202781,79.3421977 101.202781,51.411901 C101.202781,23.4816043 78.5615218,0.840345406 50.6312251,0.840345406 Z" id="path-1"></path>
    </defs>
    <g id="Escuelas-libres-de-mercurio-v2" stroke="none" stroke-width="1" fill="none" fill-rule="evenodd" transform="translate(-263.000000, -3536.000000)">
        <g id="5---beneficios-de-los-ecoproyectores" transform="translate(-29.500000, 3322.011719)">
            <g id="Group-18" transform="translate(182.000000, 188.000000)">
                <g id="1" transform="translate(15.000000, 25.000000)">
                    <g id="beneficio-made-in-japan" transform="translate(95.115379, 0.260938)">
                        <g id="Group-3" transform="translate(0.657486, 0.817804)" fill="#AFCA0B">
                            <path d="M50.6323853,0.840013909 C78.562682,0.840013909 101.203941,23.4812728 101.203941,51.4115695 C101.203941,79.3418662 78.562682,101.983125 50.6323853,101.983125 C22.7020886,101.983125 0.0608297365,79.3418662 0.0608297365,51.4115695 C0.0608297365,23.4812728 22.7020886,0.840013909 50.6323853,0.840013909" id="Fill-1"></path>
                        </g>
                        <g id="Group-6" transform="translate(0.657486, 0.817804)">
                            <mask id="mask-2" fill="white">
                                <use xlink:href="#path-1"></use>
                            </mask>
                            <g id="Clip-5"></g>
                            <polygon id="Fill-4" fill="#3EB49A" mask="url(#mask-2)" points="104.073381 109.393248 -1.65765176 106.182697 -1.65765176 62.7598789 103.610942 62.7598789"></polygon>
                        </g>
                        <g id="Group-83" transform="translate(21.000000, 9.817804)" fill="#FFFFFF">
                            <path d="M29.9524072,30.737564 C23.1567145,30.682867 16.3643369,30.62817 9.56698676,30.5718154 C7.52827897,30.5568981 5.4879137,30.5436382 3.45086339,30.5237483 C3.19561055,30.5204334 2.93704273,30.505516 2.69007732,30.4557914 C2.43482447,30.4044093 2.18454408,30.3198776 1.95581101,30.1905937 C1.7088456,30.0480499 1.47679756,29.8905887 1.27955672,29.6850604 C1.04087874,29.4364375 0.853582819,29.1530074 0.725956397,28.8331126 C0.57512517,28.4634932 0.532030534,28.0756415 0.535345506,27.6811598 C0.551920366,25.4849909 0.568495226,23.2888219 0.590042544,21.0909955 C0.59170003,20.8589474 0.60827489,20.618612 0.656341985,20.3882214 C0.714353995,20.1147362 0.818775613,19.8545109 0.967949354,19.605888 C1.13204047,19.3373753 1.34254119,19.1086422 1.58453415,18.9097439 C1.78508996,18.7439953 2.01050805,18.6180263 2.25250101,18.5152622 C2.66687251,18.3428837 3.1061063,18.2915016 3.55362753,18.2948166 C5.03376253,18.3047615 6.51555502,18.3180214 7.99569003,18.3296238 C14.6173466,18.3843208 21.2406607,18.4373604 27.8606598,18.4903999 C32.345817,18.5268646 36.8276591,18.5633293 41.3111588,18.599794 C46.3847234,18.6412312 51.4616031,18.6810108 56.5351678,18.7207905 C56.9843465,18.7241055 57.4235803,18.7904049 57.8313218,18.9743858 C58.0832597,19.0870949 58.3219377,19.2213513 58.5258084,19.4119621 C58.7280217,19.5992581 58.9086877,19.7964989 59.0512315,20.0318619 C59.2468149,20.3534142 59.3760988,20.6948563 59.407591,21.0694482 C59.4258234,21.2932088 59.4357683,21.5219418 59.4341108,21.7473599 C59.4208509,23.8457372 59.4026185,25.942457 59.3843862,28.0358618 C59.3827287,28.25465 59.3678113,28.4767531 59.3429491,28.6905688 C59.3015119,29.0502433 59.165598,29.3850555 58.9700147,29.6983203 C58.8092386,29.9602031 58.5987378,30.1789912 58.3584024,30.3712596 C58.1528741,30.5303783 57.9175111,30.6646347 57.6639157,30.7591114 C57.2594891,30.914915 56.8368302,30.9596672 56.4075413,30.9563522 C52.2207317,30.91823 48.0322645,30.8834228 43.8454549,30.8502731 C39.2160965,30.8121509 34.5834231,30.7756862 29.9524072,30.737564 M29.9341748,29.847494 C38.1039234,29.9137935 46.2703569,29.9800929 54.4401054,30.0463924 C55.0649777,30.0513648 55.6898499,30.0563373 56.3163796,30.0563373 C56.6031247,30.0563373 56.8865548,30.0298175 57.1500951,29.8939037 C57.5346318,29.7032928 57.8180619,29.4198627 57.9871255,29.0386409 C58.0799447,28.8264827 58.1379567,28.6043795 58.1445867,28.377304 C58.1495591,28.1949805 58.1495591,28.019287 58.1512166,27.8369635 C58.1644765,26.4281004 58.1760789,25.0208948 58.1860238,23.6136892 C58.1926538,22.9158876 58.1992837,22.2197434 58.1959687,21.5235993 C58.1943112,21.3363034 58.1810514,21.1456925 58.1296693,20.966684 C58.0053578,20.5108754 57.7070104,20.1611458 57.2992688,19.8959481 C57.1351777,19.789869 56.9495393,19.7202545 56.7572709,19.6804749 C56.5799199,19.6473252 56.3975964,19.6340653 56.2185879,19.6324078 C55.8904057,19.6307503 55.560566,19.6489826 55.2307263,19.6456677 C53.3726845,19.6257778 51.5129852,19.609203 49.6549433,19.5893131 C48.930622,19.5810257 48.2063006,19.5760533 47.4819792,19.5694233 C43.8222501,19.5395886 40.1608635,19.5097538 36.5027919,19.4782616 C32.1170839,19.4417969 27.7330334,19.4020172 23.3489829,19.3721825 C18.9649324,19.3406902 14.5808819,19.312513 10.1968314,19.2859932 C8.46144359,19.2743908 6.72605574,19.254501 4.98901041,19.2395836 C4.8829313,19.2379261 4.7768522,19.2329537 4.66911561,19.2312962 C4.34922081,19.2230087 4.02932601,19.2014614 3.70611624,19.2080914 C3.38456395,19.2097489 3.06964161,19.2644459 2.79615642,19.4517418 C2.75306178,19.486549 2.70002223,19.5114113 2.65195514,19.5395886 C2.18785906,19.8495385 1.91768884,20.2705399 1.85801934,20.8075654 C1.83481454,21.0147511 1.83481454,21.2302243 1.83149956,21.4423825 C1.82652711,21.979408 1.82652711,22.5197484 1.82155465,23.0617463 C1.80995225,24.5385664 1.79669236,26.0170439 1.78674744,27.4955214 C1.78508996,27.6795024 1.78674744,27.8717707 1.79337739,28.0590666 C1.8033223,28.2828273 1.87625169,28.4916705 1.97735833,28.6839389 C2.1000123,28.9176444 2.2773633,29.1148852 2.47626162,29.2922362 C2.58731318,29.3883704 2.71162463,29.4596423 2.85416843,29.5110244 C3.12765362,29.6104735 3.4143987,29.6336784 3.70280127,29.6353358 C12.44604,29.7032928 21.1909361,29.7778796 29.9341748,29.847494" id="Fill-7"></path>
                            <path d="M5.86134529,17.4226474 C5.94753457,17.2154617 6.02046395,17.0364532 6.09836579,16.8574447 C6.53262713,15.8447208 6.97020343,14.8303393 7.40777974,13.8159579 C7.44921689,13.7181662 7.50225644,13.6187171 7.56192594,13.5258978 C8.26138503,12.4568194 8.96250161,11.3893984 9.66361819,10.3252924 C9.72163021,10.2374456 9.78627216,10.1562288 9.85588657,10.0783269 C10.7409841,9.13355992 11.6293966,8.18879289 12.5178091,7.24568335 C12.5824511,7.17606894 12.6570379,7.11142699 12.7332823,7.05507246 C13.7509787,6.28434147 14.7670176,5.51692545 15.788029,4.75116691 C15.9156554,4.65171775 16.0548842,4.56884345 16.197428,4.49425658 C17.3212035,3.90419156 18.4449791,3.31744152 19.5687546,2.73400644 C19.6781487,2.67765192 19.7908577,2.62626985 19.9068817,2.59146264 C21.1499962,2.17709114 22.3914532,1.76934958 23.6329103,1.35995054 C23.8682733,1.28370618 24.1135812,1.26050138 24.3572317,1.2223792 C25.2903963,1.07652043 26.2252184,0.930661665 27.1567255,0.784802896 C27.3838011,0.748338204 27.6108767,0.710216026 27.8379523,0.68369625 C27.983811,0.663806418 28.1313273,0.65054653 28.2788435,0.652204016 C29.5468203,0.660491446 30.8131397,0.670436362 32.0811164,0.68369625 C32.2352626,0.68369625 32.3943813,0.698613624 32.54687,0.7251334 C33.549649,0.892539487 34.5524281,1.07154798 35.5552071,1.24061155 C35.7889126,1.28370618 36.0242757,1.3168559 36.2596387,1.35995054 C36.4369897,1.3881278 36.6126832,1.43122244 36.7834042,1.48923445 C38.003314,1.91355087 39.2248811,2.3362098 40.4447908,2.75886873 C40.5458975,2.79036097 40.6420317,2.83677057 40.7365084,2.88483767 C41.8785162,3.50142246 43.0221816,4.12629469 44.1641894,4.74950943 C44.2619811,4.80089149 44.3614303,4.86221847 44.449277,4.92851792 C45.4669734,5.72245371 46.4846699,6.518047 47.4990513,7.31695525 C47.6250202,7.41474693 47.7393868,7.53077095 47.8471233,7.65176743 C48.6775238,8.55841227 49.5029519,9.47168706 50.3300374,10.3882768 C50.4145692,10.481096 50.492471,10.5838602 50.5604279,10.6899393 C51.2383397,11.7573603 51.9129365,12.8214663 52.5842184,13.8855723 C52.6604627,14.0082263 52.7201322,14.1358527 52.7731718,14.2684516 C53.2389253,15.3955421 53.7013639,16.5292625 54.16546,17.656353 C54.1820349,17.7011051 54.1969522,17.7425422 54.2184996,17.8022117 C54.1737474,17.8254165 54.1339678,17.8618812 54.0941881,17.8618812 C53.8240179,17.8718261 53.5555052,17.9331531 53.2836775,17.9066334 C53.2339529,17.9000034 53.1842283,17.9000034 53.1361612,17.8983459 C53.040027,17.8867435 52.9704126,17.8403339 52.9339479,17.7475147 C52.8709634,17.595026 52.804664,17.4392223 52.740022,17.2900486 C52.3471979,16.3618564 51.9560312,15.4320067 51.5549195,14.5071296 C51.4786752,14.3264636 51.3709386,14.154085 51.2648595,13.9899939 C50.9880593,13.5573901 50.6996568,13.1264437 50.4178841,12.6954973 C50.1758912,12.322563 49.9272683,11.9512861 49.6952202,11.5733793 C49.4731171,11.2137049 49.2112343,10.8871801 48.9211743,10.5755727 C48.5051453,10.1230791 48.0891163,9.6689279 47.6697723,9.21477673 C47.4145195,8.93797657 47.1576092,8.66449138 46.9023563,8.38603373 C46.7117454,8.18050546 46.4979297,8.00315446 46.2691967,7.83409089 C46.0205738,7.65176743 45.7852108,7.45784156 45.5415603,7.26888816 C45.107299,6.93739096 44.6730376,6.59926381 44.2371188,6.26776661 C44.033248,6.10864795 43.8310348,5.95118678 43.6221915,5.79704058 C43.5277148,5.7241112 43.4232932,5.65781176 43.3155566,5.59979975 C42.8779803,5.36609422 42.4387465,5.13901864 41.9995127,4.90531311 C41.8287917,4.81249389 41.6613856,4.71304473 41.489007,4.61856803 C41.0663481,4.39149245 40.6436892,4.16441687 40.2160578,3.9472862 C40.005557,3.84286458 39.7867689,3.75501782 39.5630083,3.67545849 C38.822112,3.42020565 38.0745858,3.16826778 37.3320321,2.91798739 C37.0834092,2.83179812 36.8331288,2.75555376 36.5911359,2.65941957 C36.2679261,2.53013566 35.926484,2.4787536 35.5883568,2.42405656 C34.8358582,2.29145768 34.085017,2.16217377 33.3308609,2.03288986 C32.9512966,1.97156288 32.5700748,1.91520835 32.1871956,1.85719634 C32.0993488,1.84559394 32.0081871,1.838964 31.9186828,1.838964 C30.8396594,1.82901908 29.7622935,1.82238914 28.6865851,1.80415679 C28.2970759,1.80249931 27.9141966,1.84062148 27.5329748,1.90029098 C26.7705313,2.016315 26.0064302,2.13233902 25.2439867,2.25002053 C24.8876272,2.30471757 24.5296102,2.35444215 24.1749082,2.42902902 C23.9428601,2.47709611 23.720757,2.5616279 23.4936814,2.63455728 C22.9483685,2.80859331 22.4030556,2.97765688 21.8577428,3.15500789 C21.5013833,3.27434688 21.1466813,3.39700084 20.7836918,3.50307995 C20.3643479,3.6273914 19.9814686,3.81302983 19.6002468,4.02021558 C19.1295208,4.27546843 18.6422199,4.50254401 18.1648639,4.74785194 C17.7007678,4.98652993 17.2383292,5.22189294 16.7825206,5.47383081 C16.6283744,5.56002008 16.4924605,5.67935908 16.3532317,5.78709567 C15.8211787,6.17991985 15.2940982,6.57937398 14.7637026,6.97717062 C14.4106581,7.24402587 14.0526411,7.50922363 13.7012541,7.77773636 C13.6051199,7.85232323 13.5172732,7.93188256 13.4343989,8.01641435 C12.8526213,8.62471171 12.2725012,9.23300908 11.6940386,9.84130644 C11.4686205,10.0799844 11.2382299,10.3153474 11.0194417,10.5589979 C10.8802129,10.7131441 10.7525865,10.8755777 10.63822,11.0446413 C10.3547899,11.4507254 10.0879346,11.8634394 9.81444942,12.2711809 C9.46471987,12.789974 9.10836038,13.3071097 8.76857575,13.8341902 C8.65255173,14.0131987 8.56801994,14.2137545 8.48183067,14.4060229 C8.06248671,15.3458175 7.64811521,16.2938995 7.23042874,17.2386665 C7.08788494,17.5552463 7.07462505,17.5386715 6.75473025,17.530384 C6.50113489,17.5220966 6.24919702,17.4972343 5.99725915,17.475687 C5.955822,17.4707145 5.92101479,17.4458522 5.86134529,17.4226474" id="Fill-9"></path>
                            <path d="M5.75128822,31.4385149 C5.82090264,31.4202825 5.87394219,31.3921053 5.92698174,31.3904478 C6.20709688,31.3887903 6.48721201,31.3921053 6.76732715,31.3954202 C6.91815837,31.3954202 7.00600513,31.4733221 7.06401714,31.602606 C7.2115334,31.9490206 7.36733708,32.2937776 7.51651082,32.6435072 C7.80822836,33.3297064 8.09331595,34.024193 8.38669097,34.7137072 C8.43807304,34.8363612 8.50437248,34.9540427 8.57398689,35.0684092 C8.73476304,35.336922 8.89885415,35.5938323 9.06626024,35.8540576 C9.20714655,36.0728457 9.35963526,36.2883189 9.50052157,36.5120795 C9.73754207,36.8767265 9.96959011,37.2430309 10.2066106,37.6126502 C10.3226346,37.7916587 10.4386587,37.9723247 10.5662851,38.1447033 C10.7668409,38.4314483 11.0204362,38.6800712 11.2591142,38.9369816 C11.5872965,39.2883686 11.9055338,39.6447281 12.2320585,39.9977726 C12.4326143,40.2165608 12.6364851,40.4303765 12.8403559,40.6491646 C12.8768206,40.6889443 12.9199152,40.725409 12.9547224,40.7668461 C13.1536207,41.0337014 13.417161,41.2342572 13.6757288,41.438128 C14.0668955,41.7497353 14.4646922,42.0530553 14.8591738,42.3596902 C15.0050326,42.4707417 15.1558638,42.5817933 15.3017226,42.6945023 C15.6216174,42.9414678 15.9381972,43.1900907 16.261407,43.4287686 C16.4022933,43.5381627 16.5531245,43.6359544 16.7089282,43.7204862 C17.0006458,43.8812623 17.2989932,44.0320936 17.5940257,44.1878972 C17.915578,44.3619333 18.2354728,44.5392843 18.5570251,44.7166353 C18.8288528,44.8608366 19.1006805,45.0066953 19.3741657,45.1459241 C19.6211311,45.2702356 19.869754,45.3962045 20.1216919,45.5105711 C20.2261135,45.5553232 20.3355076,45.5884729 20.4449017,45.6282526 C20.4747364,45.6348825 20.5078861,45.639855 20.5393784,45.6497999 C20.879163,45.7691389 21.2156327,45.8967653 21.5537598,46.0127893 C21.6233742,46.0409666 21.6946461,46.0591989 21.7642605,46.0857187 C21.9101193,46.1354433 22.0576356,46.1818529 22.2034943,46.2382074 C22.2731087,46.2597547 22.3427232,46.2862745 22.4123376,46.3111368 C22.7073701,46.410586 23.01069,46.4818579 23.2957776,46.6028543 C23.6421922,46.7437407 24.0002092,46.8150126 24.3648561,46.8763395 C25.3361429,47.0404307 26.3090872,47.2045218 27.2787165,47.3669554 C27.6102137,47.4266249 27.9450259,47.4630896 28.2848105,47.4630896 C29.3605189,47.471377 30.4395423,47.4796644 31.5169082,47.4879519 C31.8235431,47.4912668 32.1235481,47.4431998 32.4252105,47.4017626 C33.2191463,47.2774512 34.0163971,47.1647421 34.8119904,47.0288283 C35.2296769,46.9542414 35.6589657,46.9210917 36.0650498,46.7934652 C36.1926762,46.7536856 36.3153302,46.7139059 36.4396417,46.6724688 C36.570583,46.6310316 36.7031819,46.587937 36.8357808,46.5431849 C37.1241834,46.4520231 37.4125859,46.3625189 37.7009885,46.2696997 C37.8501622,46.2232901 37.996021,46.1735655 38.1435373,46.1254984 C38.2446439,46.0923487 38.3440931,46.0591989 38.4435422,46.0227342 C38.5545938,45.9895845 38.6606729,45.9514623 38.770067,45.9133402 C38.8927209,45.8735605 39.0186899,45.8337808 39.1430013,45.7923437 C39.2059858,45.7757688 39.2639978,45.7442766 39.3286398,45.7310167 C39.7280939,45.639855 40.066221,45.4310117 40.4126356,45.2370859 C40.717613,45.0696798 41.0358503,44.9188486 41.3474577,44.7580724 C41.6226004,44.6188436 41.901058,44.4862447 42.1745432,44.3420434 C42.443056,44.2044721 42.6999663,44.0503259 42.971794,43.9226995 C43.203842,43.8099904 43.3977679,43.6575017 43.6016387,43.5099855 C43.803852,43.3657842 44.0044078,43.2132955 44.2016486,43.0624642 C44.6027602,42.7641168 44.9988994,42.4624543 45.3983535,42.1624493 C45.6569213,41.9685235 45.9138317,41.7762551 46.174057,41.5856442 C46.40942,41.4132657 46.6215782,41.2160248 46.8088741,40.9988942 C46.876831,40.9243073 46.9530754,40.8497204 47.0243473,40.776791 C47.3956242,40.3872818 47.7635861,39.9961151 48.1315479,39.6115784 C48.4348679,39.2883686 48.7415028,38.9734463 49.0431653,38.6552089 C49.1359845,38.5541023 49.2188588,38.4480232 49.2917882,38.3353141 C49.5238362,37.993872 49.7459393,37.6458 49.9746724,37.3010429 C50.0873814,37.1336368 50.2100354,36.9645732 50.3260594,36.7921947 C50.6210919,36.3529609 50.9210969,35.9120696 51.2128144,35.4695208 C51.378563,35.214268 51.4912721,34.9341529 51.6106111,34.6623252 C51.9918329,33.78883 52.3763696,32.9186499 52.7592489,32.0468122 C52.7741663,32.0086901 52.7940561,31.9722254 52.8122884,31.9374182 C52.868643,31.8280241 52.9614622,31.7716696 53.0890886,31.7700121 C53.3741762,31.7700121 53.6625788,31.7749845 53.9509813,31.7816145 C53.9957334,31.7816145 54.0404856,31.8097917 54.0819227,31.8213941 C54.1051275,31.9175283 54.052088,31.9821703 54.0205957,32.0517847 C53.5879919,33.0661661 53.1487581,34.0772326 52.7194692,35.0932715 C52.5736104,35.4363711 52.3995744,35.7579234 52.1907312,36.0695308 C51.5774614,36.994408 50.9741365,37.9292301 50.3608666,38.8541073 C50.2713624,38.9933361 50.1652833,39.12262 50.0509167,39.245274 C49.2155438,40.1452889 48.3785134,41.0337014 47.5398254,41.9254288 C47.4271164,42.0414529 47.3077774,42.1508469 47.1818085,42.2469811 C46.1657695,43.0193696 45.1497306,43.7867856 44.1320342,44.5558591 C44.0408725,44.6254735 43.9463958,44.685143 43.8436316,44.7348676 C42.6933364,45.33985 41.5380686,45.9398599 40.3861158,46.5398699 C40.2850092,46.5912519 40.1789301,46.6376616 40.069536,46.6724688 C38.8512838,47.0768953 37.6297166,47.4730345 36.4114644,47.8724886 C36.1761014,47.9537054 35.9341084,47.9835402 35.690458,48.0233199 C34.5965172,48.1940409 33.4992615,48.3564745 32.4069782,48.538798 C31.9992366,48.6050974 31.5881801,48.5951525 31.1787811,48.5918376 C30.0682654,48.5868651 28.9577498,48.5785777 27.8472342,48.5653178 C27.7046904,48.5636603 27.5654616,48.5553729 27.4278902,48.5321681 C26.3455519,48.3481871 25.261556,48.1608912 24.1775602,47.9735953 C24.023414,47.945418 23.8709253,47.9222132 23.7167791,47.8990084 C23.5311406,47.8658587 23.3488172,47.8244215 23.1698087,47.7614371 C22.0029385,47.358668 20.8344109,46.9509264 19.6691982,46.5531298 C19.4835598,46.4851728 19.3045513,46.4122435 19.1305153,46.3177668 C18.0465194,45.7243868 16.9592086,45.1376367 15.8752128,44.5459142 C15.726039,44.4663549 15.5818377,44.3685632 15.4508963,44.2674566 C14.4514323,43.4884381 13.4519682,42.7077622 12.4558191,41.9254288 C12.3762598,41.8591294 12.2967005,41.7911725 12.2287435,41.7132706 C11.4182329,40.8265156 10.6143522,39.9364456 9.80218403,39.0513481 C9.58505336,38.8143276 9.40107241,38.5557598 9.23035135,38.2889045 C8.62702645,37.3325351 8.01872908,36.3678783 7.41374669,35.4131663 C7.34247479,35.2954848 7.27949032,35.1778033 7.22645077,35.0568068 C6.76401217,33.9313738 6.30323106,32.8125708 5.84410744,31.6904527 C5.81261521,31.6125509 5.78775292,31.5313341 5.75128822,31.4385149" id="Fill-11"></path>
                            <path d="M18.3927683,17.5360195 C18.4458078,17.4647476 18.480615,17.4067356 18.5237096,17.350381 C18.8668093,16.9210922 19.2115663,16.4901458 19.5546659,16.0608569 C19.6358828,15.9630653 19.7237295,15.870246 19.8165487,15.7840568 C20.2309202,15.4011775 20.6436343,15.0216132 21.0629782,14.6453639 C21.1624274,14.5525447 21.2718214,14.4663554 21.3845305,14.393426 C21.8552565,14.0768462 22.32764,13.7652388 22.801681,13.448659 C22.9011302,13.3856745 23.0088668,13.326005 23.1182609,13.271308 C23.6552863,13.0177126 24.1923118,12.7657748 24.7309947,12.5171519 C24.8271289,12.4723997 24.9282356,12.4309626 25.0293422,12.4044428 C25.59123,12.2320643 26.1564327,12.0580282 26.7232929,11.8989096 C26.952026,11.8392401 27.1890465,11.8060904 27.4244095,11.7696257 C27.9117104,11.7000112 28.4006688,11.6353693 28.8879697,11.5690699 C28.9940488,11.5541525 29.1001279,11.54918 29.206207,11.54918 C29.799587,11.54918 30.3913095,11.5458651 30.983032,11.5640974 C31.2382848,11.5723848 31.4885652,11.6171369 31.7421606,11.6502867 C32.0819452,11.7033262 32.4217298,11.7696257 32.7631719,11.8127203 C33.1228464,11.8607874 33.469261,11.9519491 33.8140181,12.0613432 C34.2482794,12.2105169 34.6875132,12.3381434 35.1250895,12.4757147 C35.2477435,12.5171519 35.3703974,12.5685339 35.4880789,12.6215735 C36.0002421,12.8701964 36.5140628,13.1204768 37.0245685,13.3724146 C37.1405925,13.4304266 37.2533015,13.4950686 37.3593806,13.5663405 C37.8218192,13.8812628 38.2809429,14.1978427 38.738409,14.51608 C38.851118,14.5972968 38.9588546,14.6801711 39.0599613,14.7746478 C39.4809627,15.1707869 39.9003067,15.5652686 40.3179932,15.9647227 C40.39258,16.0409671 40.4655094,16.115554 40.5301514,16.1934558 C40.8848534,16.6542369 41.2395554,17.1166755 41.5925999,17.5774566 C41.6274071,17.6205513 41.6506119,17.6686184 41.6754742,17.7133705 C41.6572419,17.7332603 41.6489544,17.7548076 41.637352,17.7548076 C41.3207722,17.7979023 40.9992199,17.7962448 40.6793251,17.7862999 C40.5550137,17.7862999 40.457222,17.7332603 40.3793201,17.647071 C40.3014183,17.5559093 40.221859,17.4664051 40.1456146,17.3769008 C39.8820743,17.063636 39.6185341,16.7520286 39.3516788,16.4437362 C39.2837219,16.3674918 39.2141075,16.28959 39.1362056,16.2199756 C38.7317791,15.870246 38.3273525,15.5304614 37.9245834,15.1840468 C37.7389449,15.0265857 37.5367316,14.8956443 37.3278884,14.7696753 C37.0063361,14.5823794 36.6864413,14.3884536 36.3731765,14.1845828 C36.0582541,13.9823695 35.7101821,13.8381682 35.3637675,13.6939669 C35.0272978,13.5481081 34.6858557,13.4138518 34.3427561,13.2779379 C34.1985548,13.2215834 34.0543535,13.1702013 33.9035223,13.1337366 C33.4029615,13.0044527 32.8990858,12.8900862 32.398525,12.7624598 C32.0603979,12.6762705 31.7156408,12.6696406 31.3725412,12.6348334 C30.979717,12.5950537 30.5852353,12.558589 30.1907537,12.5420141 C29.9553906,12.5304117 29.7150552,12.5519591 29.4780347,12.5652189 C29.1349351,12.5851088 28.7885205,12.613286 28.4454209,12.6364908 C28.1885106,12.6547232 27.9382302,12.6878729 27.6896073,12.7458849 C27.306728,12.8370467 26.9221912,12.9182635 26.5376545,13.0061102 C26.2409645,13.0707522 25.949247,13.145339 25.6707893,13.267993 C25.3326622,13.4088793 24.9879051,13.5365057 24.643148,13.6641322 C24.2171741,13.8215933 23.8359523,14.0503264 23.4497581,14.274087 C23.2773795,14.3801661 23.1066585,14.4845877 22.9293075,14.5840369 C22.6143851,14.7613879 22.3210101,14.9586287 22.0491824,15.1873618 C21.7541499,15.4359847 21.4574599,15.6862651 21.1574549,15.9249431 C20.9535841,16.0873767 20.7762331,16.2730151 20.6071696,16.4652835 C20.3436293,16.763631 20.080089,17.063636 19.8182062,17.3636409 C19.7916864,17.3951332 19.7635092,17.4233104 19.7403044,17.4548027 C19.6557726,17.5625393 19.544721,17.6172363 19.4021772,17.6139213 C19.1701292,17.6072914 18.9413961,17.6056339 18.7110056,17.5907165 C18.6165289,17.5874015 18.5137647,17.6072914 18.3927683,17.5360195" id="Fill-13"></path>
                            <path d="M18.2681253,31.5112785 C18.3576295,31.5029911 18.4040392,31.4897312 18.4504488,31.4897312 C18.7322214,31.4913887 19.010679,31.4980186 19.2907942,31.4947036 C19.4101332,31.4913887 19.494665,31.5361408 19.5659368,31.6173576 C19.7316855,31.812941 19.8990915,32.0052093 20.0631827,32.1991352 C20.262081,32.4328407 20.4460619,32.6731762 20.6565626,32.8936218 C20.8438586,33.0892052 21.0543593,33.2632412 21.2632025,33.4439072 C21.5300578,33.6742977 21.8052004,33.8964009 22.0720557,34.1301064 C22.2411193,34.2825951 22.4333876,34.4019341 22.6273135,34.5212731 C22.9654407,34.7234864 23.3068828,34.9290147 23.6416949,35.1362004 C23.9533023,35.3384137 24.2914295,35.4726701 24.6312141,35.6135564 C24.9693412,35.7577577 25.3091259,35.898644 25.650568,36.0312428 C25.7947693,36.0909123 25.940628,36.1406369 26.0931167,36.1771016 C26.6251698,36.308043 27.1588802,36.4356694 27.6942482,36.5599809 C27.8550244,36.5931306 28.0191155,36.6146779 28.1815491,36.6295953 C28.5810032,36.6677175 28.9837723,36.6958947 29.384884,36.7307019 C29.6633416,36.7572217 29.9401418,36.7688241 30.2219144,36.7522493 C30.7622548,36.7108121 31.3025953,36.6743474 31.8445932,36.6362252 C31.92581,36.6295953 32.0070268,36.6146779 32.0865861,36.5964456 C32.6716787,36.4655042 33.2551138,36.3395352 33.8385489,36.2036214 C33.941313,36.1771016 34.0424196,36.1406369 34.1402113,36.1008573 C34.4203264,35.9914632 34.7004416,35.8804116 34.9805567,35.7693601 C35.2225497,35.6748834 35.4695151,35.5837216 35.7098506,35.482615 C35.837477,35.4262605 35.9551585,35.3583035 36.076155,35.2903466 C36.3910773,35.1047082 36.6993697,34.9091248 37.0225795,34.7400612 C37.5877822,34.4383988 38.0435909,34.0074524 38.5342067,33.6146282 C38.5971912,33.5682186 38.6568607,33.5118641 38.7215026,33.4621395 C39.1640514,33.1306423 39.4889187,32.696381 39.8535656,32.2919544 C40.0408615,32.0880836 40.2016376,31.8543781 40.4320282,31.6753696 C40.7966751,31.6770271 41.164637,31.6803421 41.525969,31.683657 C41.5723786,31.7400116 41.5458588,31.7797912 41.5143666,31.8212284 C41.348618,32.0317291 41.1778969,32.2438873 41.0104908,32.4560455 C40.8961243,32.6002468 40.7751278,32.7394756 40.6673912,32.8853344 C40.4336857,33.2085442 40.1502556,33.4903168 39.8502506,33.760487 C39.5635055,34.0157399 39.2784179,34.2759652 38.9966453,34.5395054 C38.8507865,34.6754193 38.6933254,34.8030457 38.5242618,34.9140973 C38.0601657,35.2240472 37.5977271,35.533997 37.1303161,35.8439469 C37.0557292,35.892014 36.9778274,35.9384236 36.8966105,35.9748883 C36.3446677,36.2301412 35.7927249,36.4903665 35.2391245,36.7472768 C35.1429903,36.7920289 35.0418837,36.8301511 34.9407771,36.8599858 C34.3855192,37.0273919 33.8269465,37.1898256 33.2716886,37.3605466 C33.0197508,37.4351335 32.754553,37.4566808 32.4976427,37.498118 C32.0103418,37.5693899 31.5230409,37.6307168 31.0340825,37.6970163 C30.9445783,37.7053037 30.855074,37.7169061 30.7655698,37.7152486 C30.1721898,37.7152486 29.5804673,37.7102762 28.9887448,37.6986738 C28.8163663,37.6970163 28.6439877,37.668839 28.4749241,37.6456342 C27.9959107,37.5693899 27.5185547,37.491488 27.0411987,37.4202161 C26.837328,37.3854089 26.6384296,37.3439718 26.4411888,37.2843023 C25.9107933,37.1135812 25.3803978,36.9494901 24.8500022,36.782084 C24.7339782,36.7472768 24.6179542,36.6992097 24.5102176,36.6478276 C23.9731921,36.3876023 23.4378242,36.1323495 22.9074286,35.8671517 C22.7632274,35.7925649 22.6273135,35.7014031 22.4947146,35.6102414 C22.0538233,35.3102364 21.616247,35.0036015 21.1786707,34.7002816 C21.0858515,34.6356396 20.9980048,34.5627102 20.9167879,34.4864659 C20.4758967,34.0754094 20.0416353,33.6577229 19.604059,33.2433514 C19.5311296,33.170422 19.4631727,33.0908627 19.4018457,33.0096459 C19.0637186,32.573727 18.7305639,32.1361507 18.3974092,31.6985744 C18.3576295,31.6505073 18.3261373,31.5974678 18.2681253,31.5112785" id="Fill-15"></path>
                            <path d="M15.9851041,40.7545807 C15.9254346,40.6982262 15.87571,40.656789 15.8326154,40.6070645 C15.756371,40.5275051 15.6834416,40.4429734 15.6154847,40.3683865 C15.6270871,40.2672798 15.698359,40.2192127 15.7513986,40.1595432 C16.3729558,39.476659 16.9994855,38.7888023 17.6243577,38.1042606 C17.8431459,37.8622676 18.065249,37.6169597 18.2840372,37.3782817 C18.3205019,37.3351871 18.3486791,37.2887775 18.4050336,37.2158481 C18.0519891,37.2655727 17.7519842,37.3666793 17.4453493,37.4412662 C17.1420293,37.5158531 16.8420243,37.5920974 16.5420194,37.6699993 C16.2320695,37.7512161 15.9204621,37.8291179 15.6138272,37.9086772 C15.3105073,37.9849216 15.0088448,38.061166 14.7071824,38.1407253 C14.39889,38.2186271 14.0905976,38.2948715 13.7773327,38.3760883 C13.740868,38.3329937 13.7093758,38.2948715 13.682856,38.2617218 C14.2679486,36.8777209 14.8497262,35.503665 15.4315038,34.1213217 C15.4331612,34.1196642 15.4298463,34.1113768 15.4265313,34.1047469 C15.3801217,34.0583373 15.3337121,34.0831995 15.2955899,34.1097193 C15.1431012,34.200881 14.99227,34.2920428 14.8414387,34.3914919 C13.9165615,34.974927 12.9933418,35.5600196 12.0684646,36.1451121 C12.0005077,36.1848918 11.9308933,36.223014 11.851334,36.2710811 C11.6971878,36.158372 11.5828212,36.0241157 11.4783996,35.8782569 C11.5877937,35.7870952 16.4392552,32.7472658 16.6099763,32.6610765 C16.6315236,32.6494741 16.6563859,32.6527891 16.6961656,32.6494741 C16.7027955,32.6859388 16.7193704,32.7257185 16.711083,32.7572107 C16.6945081,32.8251677 16.6679883,32.8931246 16.6398111,32.9577665 C16.2436719,33.8826437 15.8442178,34.8075209 15.4447636,35.7373706 C15.2674126,36.1517421 15.0867467,36.5594836 14.9127106,36.9738551 C14.8762459,37.0583869 14.8414387,37.1478912 14.8198914,37.2390529 C14.7900567,37.3699943 14.8679585,37.4594985 15.0105023,37.4396087 C15.1397862,37.4213764 15.2690701,37.3948566 15.3950391,37.3633643 C16.8536267,36.9887725 18.3138719,36.6108657 19.7741171,36.2346164 C19.8304716,36.219699 19.8835112,36.2080966 19.9431807,36.2014667 C19.9597555,36.1981517 19.9829603,36.2180415 19.9978777,36.2246715 C20.019425,36.2992583 19.964728,36.3307506 19.9299208,36.3738452 C19.4558798,36.9009258 18.9801813,37.4313213 18.5044828,37.9600593 C17.7204919,38.8335544 16.9348436,39.7053921 16.1508527,40.5805447 C16.1027856,40.6352417 16.053061,40.6849663 15.9851041,40.7545807" id="Fill-17"></path>
                            <path d="M25.2792911,45.0050378 C25.2726612,44.988463 25.2627163,44.9768606 25.2627163,44.9652582 C25.2627163,44.9155336 25.2594013,44.8674665 25.2643737,44.8227144 C25.4616146,42.9928498 25.6588554,41.1663002 25.8594112,39.3414082 C25.8610687,39.3215183 25.8743286,39.2983135 25.8842735,39.2717937 C26.0102424,39.2187542 26.1411838,39.235329 26.2721252,39.245274 C26.8671627,39.3148884 27.4638577,39.3762154 28.0572377,39.4607471 C28.3008881,39.4922394 28.5412236,39.5552238 28.7732716,39.6347832 C29.5307427,39.9032959 30.0644532,40.3889393 30.3677732,41.1066307 C30.4887696,41.3884034 30.5484391,41.6867509 30.5782739,41.9950432 C30.6147386,42.3646626 30.5898763,42.7259946 30.5152894,43.092299 C30.381033,43.7503209 30.0528508,44.3088937 29.5058804,44.7381826 C29.1230012,45.0365301 28.66885,45.1939912 28.1699467,45.2221685 C27.7091656,45.2470308 27.250042,45.227141 26.7925758,45.1757589 C26.3616295,45.1260343 25.9257107,45.0912271 25.4947643,45.0514474 C25.4201774,45.04316 25.3439331,45.0514474 25.2792911,45.0050378 M26.3898067,39.9430756 C26.3715744,40.0508122 26.3549995,40.125399 26.3483696,40.2016434 C26.2870426,40.7370114 26.2306881,41.2756943 26.1726761,41.8110623 C26.1047191,42.4326196 26.0384197,43.0558343 25.9721203,43.679049 C25.9538879,43.8232503 25.9422855,43.9707666 25.9290256,44.1182828 C25.9190807,44.2425943 25.9555454,44.2939763 26.0781994,44.3287835 C26.1395264,44.3470159 26.2058258,44.3586183 26.2721252,44.3602758 C26.59865,44.3901105 26.9268322,44.4133153 27.253357,44.4365201 C27.301424,44.4398351 27.3528061,44.4431501 27.4025307,44.4481225 C27.6146889,44.4729848 27.8268471,44.4812723 28.0406628,44.4414926 C28.2577935,44.4116578 28.4782391,44.3785081 28.6953698,44.3437009 C28.7500668,44.333756 28.8031064,44.3022638 28.8511735,44.2774015 C28.9241028,44.2392793 28.9920598,44.1928697 29.0583592,44.1497751 C29.3401318,43.9657941 29.5738374,43.7337461 29.7213536,43.440371 C30.029646,42.8088689 30.0793706,42.1574769 29.8257752,41.5044274 C29.6964913,41.1762452 29.4893056,40.89613 29.204218,40.6690544 C28.846201,40.3806519 28.4235421,40.2414231 27.9776783,40.1535763 C27.6975632,40.0972218 27.4108181,40.0541271 27.127388,40.0193199 C26.892025,39.9845127 26.6550045,39.9679379 26.3898067,39.9430756" id="Fill-19"></path>
                            <path d="M21.0838625,12.0560392 C21.0573428,12.1902956 20.9927008,12.2980322 20.8866217,12.375934 C20.7904875,12.4521784 20.727503,12.4521784 20.6230814,12.375934 C20.3396513,12.1753782 20.0611937,11.966535 19.7777636,11.7659792 C19.1545488,11.3201155 18.5313341,10.8659643 17.9081193,10.4234155 C17.8368474,10.3687185 17.7572881,10.3256239 17.6760713,10.2908166 C17.5699922,10.2427496 17.4788305,10.3223089 17.5036928,10.4350179 C17.5268976,10.5328096 17.5600473,10.6322588 17.596512,10.7267355 C17.8882295,11.4692892 18.1816045,12.205213 18.4733221,12.9427943 C18.6042635,13.2759489 18.7401773,13.6024737 18.8711187,13.9306559 C18.8943235,13.9903254 18.9208433,14.0483374 18.9341032,14.1096644 C18.9523355,14.1975112 18.8777487,14.2604956 18.7849294,14.2356333 C18.6821653,14.2074561 18.5827161,14.1726489 18.4816095,14.1378417 C17.893202,13.9356284 17.3081094,13.7334151 16.7180444,13.5361742 C16.1594716,13.3505358 15.6008988,13.1698698 15.0390111,12.9925188 C14.9478493,12.9593691 14.8517151,12.9378218 14.748951,12.9593691 C14.6992264,12.972629 14.6660767,13.0223536 14.6925965,13.0654482 C14.7373486,13.1416926 14.7854157,13.214622 14.8401127,13.2809214 C15.342331,13.8925337 15.8478642,14.4991736 16.3500825,15.1091285 C16.5589257,15.3610663 16.767769,15.6096892 16.9732972,15.8665996 C17.064459,15.9793086 17.0628015,16.0538955 16.9699823,16.1566596 C16.8937379,16.2461639 16.7893163,16.287601 16.6699773,16.3124633 C16.5688707,16.2826286 16.525776,16.1947818 16.4661065,16.1218524 C16.0915147,15.6643863 15.7202378,15.2052627 15.3489609,14.746139 C14.5798874,13.808002 13.8157864,12.8682074 13.0500279,11.9250978 C12.9969883,11.8621134 12.9290314,11.8007864 12.9058266,11.7195696 C12.9621811,11.6516127 13.0168781,11.6847624 13.0682602,11.7046522 C13.3085957,11.7842115 13.5472737,11.8670858 13.7892666,11.9483027 C15.1119405,12.4041113 16.4329568,12.856605 17.7556306,13.3107562 C17.82856,13.333961 17.9014894,13.385343 17.9943086,13.3621382 C18.0241434,13.2858939 17.9744188,13.2278819 17.9495565,13.1632399 C17.6313192,12.3494143 17.3064519,11.5405611 16.9848996,10.7300504 C16.7362767,10.1018632 16.4859964,9.4670461 16.2373734,8.84217388 C16.2108537,8.77255946 16.1495267,8.70128757 16.1975938,8.61841326 C16.2158261,8.61841326 16.235716,8.61675578 16.2456609,8.61841326 C17.8401624,9.74218878 19.431349,10.8643068 21.027508,11.9897398 C21.0507128,12.0046572 21.0656302,12.0328344 21.0838625,12.0560392" id="Fill-21"></path>
                            <path d="M27.4466198,9.67588934 C27.4433048,9.65434202 27.4350174,9.62450727 27.4333599,9.59633001 C27.3902653,7.71176842 27.3455132,5.82554934 27.304076,3.94264524 C27.304076,3.94264524 27.3156784,3.91446798 27.3272808,3.88463323 C27.3587731,3.88297574 27.3968952,3.86971585 27.4350174,3.86971585 C27.9687279,3.86308591 28.5024384,3.85314099 29.0378064,3.85148351 C29.4256581,3.85479848 29.8118524,3.88463323 30.1847867,3.98573987 C30.3654527,4.03877943 30.5428037,4.10507887 30.7068948,4.18795317 C31.1825933,4.43989104 31.5356378,4.7995655 31.7710008,5.27029153 C32.1356477,5.99129794 32.1986322,6.75042653 32.0560884,7.53441742 C31.9616117,8.04989556 31.751111,8.51730662 31.4080114,8.93333561 C31.099719,9.30295499 30.7068948,9.53666051 30.2262239,9.64936956 C29.8781518,9.72892889 29.5267648,9.75876364 29.1753777,9.76870855 C28.722884,9.78362593 28.2703904,9.78362593 27.8195542,9.79025587 C27.6836403,9.79522833 27.5543564,9.7869409 27.4466198,9.67588934 M27.9737004,9.05598957 C28.0499447,9.06096203 28.0963543,9.06924946 28.1444214,9.06759197 C28.4726037,9.06096203 28.8007859,9.05433208 29.1289681,9.03444225 C29.374276,9.01786739 29.6212415,8.99632007 29.8632344,8.95985538 C30.5577211,8.85046131 31.0450219,8.47752695 31.3367395,7.87585953 C31.5207204,7.49629524 31.577075,7.09684111 31.5372953,6.68578458 C31.4958581,6.26644062 31.3864641,5.87195895 31.1063489,5.53383181 C30.7748517,5.13106271 30.3671102,4.85094757 29.8284272,4.75647087 C29.3079766,4.66530914 28.7825535,4.65370674 28.255473,4.66365165 C28.2239808,4.66365165 28.190831,4.66365165 28.1593388,4.67193908 C27.9836453,4.70343132 27.842759,4.74321098 27.8742512,5.00012131 C27.8775662,5.01669617 27.8759087,5.02995606 27.8775662,5.0481884 C27.9024285,6.16367649 27.9272908,7.28247954 27.955468,8.39962511 C27.958783,8.60846835 27.9670704,8.82062656 27.9737004,9.05598957" id="Fill-23"></path>
                            <path d="M42.9484235,33.202743 C43.0312978,33.0237345 43.1721841,32.9143404 43.3213578,32.8115763 C43.4241219,32.8215212 43.4738465,32.8894781 43.5351735,32.9392027 C44.4733106,33.7231936 45.4131051,34.5104994 46.3512422,35.2961478 C46.8269407,35.692287 47.3026392,36.0933986 47.7783377,36.4911952 C47.8197748,36.5260024 47.8661844,36.5608096 47.9026491,36.6039043 C47.919224,36.6237941 47.9341414,36.6602588 47.922539,36.6867786 C47.912594,36.7083259 47.8811018,36.7348457 47.8512671,36.7381606 C47.7882826,36.7464481 47.7203257,36.7464481 47.6540262,36.7464481 C47.1534655,36.7414756 46.6495897,36.7381606 46.1490289,36.7365031 C44.8081228,36.7331882 43.4688741,36.7315307 42.1279679,36.7265582 C42.0550385,36.7249007 41.9837666,36.7331882 41.9075222,36.7381606 C41.8959198,36.8260074 41.9671917,36.8525272 42.0102864,36.8923068 C42.3666459,37.1939693 42.7246628,37.4923168 43.0843373,37.7923217 C43.7307568,38.3359771 44.3804914,38.8779751 45.0285684,39.423288 C45.0932103,39.4796425 45.1744272,39.5243946 45.2075769,39.6221863 C45.0948678,39.7663876 44.9705564,39.9122463 44.8213826,40.0415302 C44.7700006,40.0050655 44.7219335,39.9735733 44.6788388,39.9387661 C43.2650033,38.7536636 41.8495102,37.5718761 40.4373322,36.3851161 C40.3693752,36.3287616 40.3047333,36.2690921 40.2417488,36.2077651 C40.2085991,36.1746154 40.2301464,36.1000285 40.2782135,36.0917411 C40.3329105,36.0801387 40.39258,36.0735087 40.4472771,36.0751662 C40.8036366,36.0735087 41.1550236,36.0768237 41.5080681,36.0768237 C42.8323994,36.0784812 44.1567308,36.0851111 45.4810621,36.0884261 C45.5970861,36.0900836 45.7131101,36.0867686 45.8258192,36.0834537 C45.8755437,36.0817962 45.9252683,36.0768237 45.9733354,36.0668788 C46.0379774,36.0569339 46.1092493,36.040359 46.135769,35.9740596 C46.1622888,35.9011302 46.0976469,35.859693 46.0512373,35.8182559 C45.8307916,35.6293025 45.6086885,35.4453215 45.3849279,35.2563681 C44.6141969,34.6132636 43.8418084,33.9651865 43.0710774,33.322082 C43.0279828,33.2839598 42.9915181,33.2408652 42.9484235,33.202743" id="Fill-25"></path>
                            <path d="M44.0854589,14.9049262 C44.1782781,14.9049262 44.2213727,14.8386268 44.2744123,14.7922171 C44.8628198,14.3098887 45.4495698,13.8192729 46.0363199,13.3269995 C46.4705812,12.9656676 46.9015276,12.6043356 47.3357889,12.2463186 C47.3971159,12.1965941 47.4617579,12.1501844 47.5363447,12.0938299 C47.6706011,12.2131689 47.7783377,12.3374804 47.8761294,12.4568194 C47.8728144,12.4783667 47.8728144,12.4866541 47.8694994,12.496599 C47.8678419,12.5015715 47.861212,12.5115164 47.8562395,12.5148314 C46.3678171,13.7579459 44.8793947,15.0010604 43.3893147,16.2425174 C43.3644524,16.2673797 43.3379327,16.2789821 43.3114129,16.2972144 C43.2964955,16.3088168 43.2799207,16.3088168 43.2633458,16.3137893 C43.1937314,16.3005294 43.1705266,16.2557773 43.1771565,16.1927928 C43.1920739,16.0717963 43.2136212,15.9491424 43.2351685,15.8231734 C43.4125195,14.8601741 43.598158,13.8872298 43.772194,12.9176005 C43.8583833,12.445217 43.9329701,11.9794634 44.010872,11.5070799 C44.0257894,11.4076307 44.0324193,11.3065241 44.0324193,11.2021025 C44.0307618,11.1059683 43.9346276,11.0496137 43.8401509,11.0860784 C43.7672215,11.1192282 43.6959496,11.1606653 43.6346227,11.2120474 C43.3710824,11.4242056 43.1075421,11.6413362 42.8489743,11.8551519 C42.1975823,12.3954924 41.5511627,12.9391478 40.9014282,13.4778307 C40.8517037,13.5209254 40.7970066,13.5557326 40.7406521,13.6004847 C40.5202065,13.5391577 40.4273872,13.389984 40.3826351,13.1811407 C40.4389896,13.1264437 40.4936867,13.0684317 40.5566711,13.0220221 C41.9837666,11.8286322 43.410862,10.6385572 44.8379575,9.45345472 C44.8860246,9.41036008 44.9307767,9.33743069 45.0020486,9.37058042 C45.0932103,9.40373014 45.0517732,9.48991941 45.0434858,9.5495889 C44.9871312,9.8694837 44.9324342,10.184406 44.8727647,10.4993284 C44.7434808,11.2021025 44.6108819,11.9015615 44.481598,12.6010206 C44.3473416,13.325342 44.2164002,14.0480059 44.0871163,14.7723273 C44.0788289,14.8154219 44.0854589,14.8601741 44.0854589,14.9049262" id="Fill-27"></path>
                            <path d="M35.2152567,39.0516796 C35.2616663,39.2572079 35.3296233,39.4511337 35.3163634,39.6616344 C35.004756,39.7345638 34.6964636,39.7809734 34.3914862,39.8356705 C34.0848513,39.8870525 33.7765589,39.9417496 33.4715815,40.0030766 C33.1682615,40.0677185 32.8599691,40.0925808 32.5566492,40.1903725 C32.5566492,40.3312588 32.5947714,40.4605427 32.6229486,40.5914841 C32.702508,40.9577885 32.7489176,41.3290654 32.8533392,41.6821099 C33.0041704,41.7467518 33.1450567,41.723547 33.2809706,41.7003422 C33.8146811,41.6091805 34.3483916,41.5113888 34.8804446,41.4185696 C35.0196734,41.3953648 35.1572447,41.3738175 35.2948161,41.3506127 C35.4075251,41.3290654 35.5218916,41.3307229 35.6395732,41.3622151 C35.652833,41.4003373 35.6727229,41.4318295 35.6810103,41.4732667 C35.7158175,41.6307278 35.7439948,41.7931615 35.7771445,41.9473077 C35.717475,42.0185795 35.6379157,42.0185795 35.5699587,42.0285245 C34.8008852,42.1694108 34.0351267,42.3086396 33.2693682,42.4445535 C33.1964388,42.4544984 33.1251669,42.4743882 33.0406351,42.4959355 C33.0373201,42.5390302 33.0207453,42.5837823 33.0290327,42.6268769 C33.1400843,43.1887647 33.2527933,43.7489949 33.3671598,44.3059102 C33.3737898,44.3440324 33.3969946,44.3821546 33.4185419,44.4186193 C33.4748964,44.4285642 33.5329084,44.4451391 33.5876055,44.4368516 C33.7848463,44.4202768 33.9804297,44.397072 34.172698,44.3639223 C34.4478407,44.3191701 34.7196684,44.2661306 34.9931536,44.2147485 C35.1870795,44.1766263 35.3793479,44.1418191 35.5716162,44.1119844 C35.662778,44.093752 35.7522822,44.0854646 35.8384715,44.0655748 C35.9677554,44.032425 36.0821219,44.0672323 36.1964885,44.1202718 C36.2627879,44.3241426 36.3025676,44.5280134 36.3224574,44.7534315 C36.2478705,44.7733213 36.1799136,44.7948686 36.1086417,44.8081285 C35.1323824,44.987137 34.1577807,45.161173 33.1831789,45.3401815 C33.1168795,45.3501264 33.053895,45.3501264 32.9759931,45.3534414 C32.9561033,45.2970869 32.9362135,45.2473623 32.9246111,45.1943227 C32.6047163,43.5865613 32.283164,41.9705125 31.9616117,40.3644085 C31.925147,40.1787701 31.8837099,39.9931316 31.8489027,39.8091507 C31.8389577,39.7561111 31.8389577,39.7030716 31.8323278,39.6483746 C31.9433794,39.5688152 32.0660333,39.5505829 32.1853723,39.5273781 C32.5483618,39.4577637 32.9113512,39.3947792 33.2743406,39.3317947 C33.766614,39.240633 34.2605448,39.1527862 34.7511607,39.063282 C34.8970194,39.0367622 35.0412207,39.0118999 35.2152567,39.0516796" id="Fill-29"></path>
                            <path d="M33.965678,9.33262399 C34.2375057,9.44699052 34.5192784,9.50334504 34.7911061,9.59450677 C35.0645913,9.68069605 35.3397339,9.75362543 35.6148766,9.83484225 C35.8900193,9.91605906 36.1635045,9.99727587 36.4485921,10.0801502 C36.4403046,10.2972808 36.3408555,10.4779468 36.2861584,10.6652427 C36.1751069,10.7448021 36.0640553,10.7381721 35.9496888,10.7033649 C35.5949868,10.5972858 35.2419423,10.4994941 34.8872403,10.393415 C34.4314316,10.2624736 33.9772804,10.1282173 33.5214718,9.99064593 C33.4004753,9.9591537 33.2861088,9.91274409 33.2247818,9.80003504 C33.2231243,9.7934051 33.2198093,9.78346018 33.2181518,9.77683024 L33.2181518,9.75196795 C33.791642,7.97514295 34.3701046,6.19997543 34.9435948,4.42480792 C34.9551972,4.38502825 34.9684571,4.35022105 34.9833744,4.31209887 C34.9883469,4.29552401 35.0032643,4.28723658 35.0132092,4.27397669 C35.2502297,4.31044138 37.9022073,5.09277478 38.0696134,5.18062154 C38.0812158,5.29664556 38.0165738,5.40272466 37.9850816,5.51211874 C37.9651918,5.58339064 37.9436445,5.64969008 37.9154672,5.71433203 C37.8723726,5.81875365 37.7795533,5.87510817 37.6651868,5.86516326 C37.6187772,5.86516326 37.5707101,5.85356086 37.522643,5.84195845 C36.9972199,5.68449728 36.4717969,5.5286936 35.9463738,5.3745474 C35.8137749,5.33476774 35.6762036,5.30161802 35.5402897,5.27178327 C35.3413914,5.23366109 35.2651471,5.27509824 35.2054776,5.45576421 C35.0844811,5.81378119 34.9684571,6.17014068 34.855748,6.52815766 C34.8441456,6.56296487 34.8474606,6.60440202 34.8408306,6.65578408 C35.1110009,6.76517816 35.391116,6.82484766 35.6629437,6.91103693 C35.9380864,6.99391123 36.2132291,7.07181307 36.4883717,7.15468737 C36.7618569,7.23093173 37.0353421,7.31380603 37.3204297,7.3999953 C37.3154573,7.44640491 37.3204297,7.48618457 37.3088273,7.52099178 C37.2690476,7.65193317 37.225953,7.791162 37.1762284,7.92376088 C37.1331338,8.0397849 37.0635194,8.08785199 36.9342355,8.07459211 C36.8215264,8.05801725 36.7104749,8.03315496 36.5994233,8.00000524 C36.2148865,7.88895367 35.8303498,7.77458714 35.4441556,7.65856312 C35.278407,7.61215351 35.1126584,7.56905887 34.9485672,7.52264927 C34.9071301,7.51104686 34.8690079,7.49944446 34.8292282,7.494472 C34.6137551,7.46297977 34.5358532,7.50607441 34.4761837,7.69171284 C34.3187226,8.19558858 34.152974,8.69449187 33.9921978,9.19339516 C33.975623,9.2364898 33.975623,9.28124192 33.965678,9.33262399" id="Fill-31"></path>
                            <path d="M22.3205128,42.1198519 C22.1647092,42.0104579 20.2867775,41.107128 19.9735127,40.9894465 C19.9121857,41.0325411 19.8375988,41.0789507 19.7663269,41.1369627 C19.3204632,41.465145 18.8745994,41.7966422 18.4287357,42.1314543 C18.3707237,42.1728915 18.3110542,42.2159861 18.2497272,42.2574233 C18.0458564,42.1828364 17.8585605,42.0883597 17.6596622,41.9806231 C17.6994419,41.9259261 17.7243041,41.877859 17.7640838,41.8463668 C17.8502731,41.7701224 17.9414348,41.7054804 18.0325965,41.639181 C19.582346,40.4772833 21.1287804,39.3153856 22.6785298,38.1584604 C22.7498017,38.1037633 22.8210736,38.0507238 22.894003,38.0043142 C22.9619599,37.962877 23.0498067,38.0043142 23.0614091,38.0805585 C23.0630666,38.1103933 23.0630666,38.1452005 23.0630666,38.1783502 C23.0431767,38.9192465 23.0232869,39.6584852 23.0033971,40.401039 C22.9801923,41.3922156 22.9536725,42.3867072 22.9254952,43.3795413 C22.9188653,43.6646289 22.9089204,43.9563464 22.897318,44.244749 C22.8956605,44.3077335 22.897318,44.3707179 22.829361,44.425415 C22.6370927,44.3624305 22.4613992,44.2696113 22.2774182,44.1701621 C22.2741032,43.477333 22.3022805,42.7894763 22.3205128,42.1198519 M22.3950997,39.2043341 C22.3122254,39.2441137 22.2741032,39.2573736 22.245926,39.2772634 C21.7669125,39.6336229 21.2895565,39.9916399 20.8138581,40.3463419 C20.7840233,40.3645743 20.765791,40.4043539 20.7425862,40.4308737 C20.9066773,40.6082247 21.2547493,40.7922057 21.9857007,41.0938681 C22.0884648,41.1353053 22.1895715,41.1982897 22.3420602,41.1601675 C22.3437176,40.5253504 22.3685799,39.8888758 22.3950997,39.2043341" id="Fill-33"></path>
                            <path d="M26.5734562,9.70738157 C26.4889244,9.82009062 26.3911327,9.90462241 26.2552189,9.95103201 C26.1342224,9.99744162 26.0314583,9.98915419 25.9369816,9.90627989 C25.7264808,9.71732649 25.5126651,9.53168806 25.3021644,9.34604962 C25.1447033,9.21013577 24.9905571,9.06593449 24.8347534,8.93333561 C24.7783988,8.88195354 24.7187293,8.84217388 24.6640323,8.79907924 C24.5579532,8.71288997 24.4402717,8.69465762 24.3159602,8.73609477 C24.1502116,8.78416187 23.9894355,8.84051639 23.8270019,8.90350086 C23.4789298,9.03775722 23.1292003,9.17698605 22.7827857,9.31952985 C22.6319545,9.38085683 22.4827807,9.44715627 22.336922,9.51511319 C22.2441027,9.55489286 22.210953,9.62782224 22.2092955,9.7272714 C22.1993506,10.1996549 22.1827758,10.6770109 22.1711734,11.1543669 C22.1678584,11.2223238 22.1628859,11.2952532 22.1662009,11.3648676 C22.1744883,11.5156988 22.0932715,11.5952581 21.9606726,11.6516127 C21.8280738,11.7063097 21.6954749,11.7195696 21.5579035,11.6814474 C21.5678484,11.3632101 21.5811083,11.0632051 21.5827658,10.7598852 C21.6026557,9.14217884 21.6192305,7.52281501 21.6341479,5.90510867 C21.6341479,5.81560443 21.6358054,5.72112772 21.6358054,5.62830851 C21.7120497,5.58852884 21.7783492,5.55537912 21.8545935,5.51725694 C21.9192355,5.56698153 21.9838774,5.61339113 22.0468619,5.66311571 C22.8175929,6.26644062 23.5369418,6.91617514 24.2596057,7.56922462 C24.9772972,8.21067171 25.6900161,8.86206371 26.4027351,9.51014074 C26.4657196,9.56981023 26.541964,9.61953481 26.5734562,9.70738157 M22.1877482,8.72946483 C22.4131663,8.67808276 23.759045,8.14105729 23.933081,8.03497819 C23.9082187,8.00348596 23.8866714,7.96867875 23.8601516,7.94381646 C23.3546184,7.49629524 22.8490851,7.04380156 22.3435519,6.59959531 C22.3153746,6.5763905 22.2822249,6.54655576 22.2374728,6.56313062 C22.2026656,6.7305367 22.159571,8.52559405 22.1877482,8.72946483" id="Fill-35"></path>
                            <path d="M31.4446418,17.6079544 C31.2838657,17.5300525 31.1678417,17.4438633 31.0501601,17.3643039 C30.834687,17.2184452 30.6241862,17.0676139 30.412028,16.9234127 C30.3722484,16.8935779 30.3324687,16.8654006 30.2910316,16.8388809 C30.1236255,16.7278293 29.9595344,16.7344592 29.7904708,16.8488258 C29.4970958,17.0477241 29.2004058,17.2433075 28.9020583,17.4355758 C28.8291289,17.4869579 28.7528845,17.528395 28.6534354,17.5880645 C28.6650378,17.3875087 28.7495696,17.23502 28.8026091,17.0742439 C28.8556487,16.9018653 28.9202906,16.7344592 28.9799601,16.5620807 C29.0363147,16.3996471 29.0943267,16.2388709 29.1473662,16.0863822 C29.112559,15.990248 29.0379721,15.9537833 28.9733302,15.9073737 C28.6119982,15.6471484 28.2506663,15.3869231 27.8909918,15.1316703 C27.8561846,15.103493 27.8280074,15.0686858 27.7749678,15.0189612 C27.9141966,14.9791816 28.0269057,15.0007289 28.1379572,14.9990714 C28.2539813,14.9957564 28.3683478,15.0007289 28.4843718,15.0023864 C28.5887934,15.0023864 28.6981875,15.0040439 28.8042666,15.0040439 C28.9202906,15.0057013 29.0329997,15.0073588 29.1490237,15.0073588 C29.2633902,15.0090163 29.3777568,15.0090163 29.473891,15.0106738 C29.5683677,14.9476893 29.5749976,14.8615001 29.5998599,14.7902282 C29.7390887,14.4090064 29.8716876,14.0228121 30.0076015,13.6382754 C30.0241763,13.5902083 30.0440661,13.5537436 30.0739009,13.4808142 C30.1965549,13.7476695 30.2628543,14.0029223 30.3473861,14.2498877 C30.4335754,14.4985106 30.5114772,14.7405036 30.5910365,14.9758666 C30.6689384,15.0338786 30.7451827,15.0173037 30.8181121,15.0189612 C31.244086,15.0239337 31.6717174,15.0272487 32.0976913,15.0305636 C32.1706207,15.0322211 32.2418926,15.0388511 32.308192,15.0388511 C32.3363693,15.1167529 32.2816723,15.1333278 32.2452076,15.1581901 C31.8971355,15.406813 31.544091,15.6504634 31.1943614,15.8941138 C31.1164596,15.9521259 31.0435302,16.0101379 30.9672858,16.0698074 C31.0286128,16.3466075 31.1330344,16.5886005 31.2092788,16.8471683 C31.2838657,17.0858463 31.3866298,17.3261818 31.4446418,17.6079544" id="Fill-37"></path>
                            <path d="M32.161836,34.2557438 C32.0242647,34.2723187 31.8866933,34.2557438 31.7507795,34.2590588 C31.6032632,34.2623738 31.4574045,34.2557438 31.3065732,34.2557438 C31.1656869,34.2540863 31.0264581,34.2524289 30.8872293,34.2524289 C30.7496579,34.2507714 30.6104291,34.2590588 30.4745153,34.2574013 C30.4082158,34.3369606 30.3899835,34.4214924 30.3618062,34.4993943 C30.2325223,34.8690137 30.1015809,35.2436055 29.972297,35.6148824 C29.9557221,35.6596345 29.9308598,35.7093591 29.8977101,35.780631 C29.7717412,35.5170907 29.7120717,35.2568654 29.6225675,35.0082425 C29.5363782,34.7612771 29.4568189,34.5143117 29.3805745,34.2872361 C29.2993577,34.2275666 29.2231133,34.239169 29.1501839,34.2375115 C28.7225525,34.2341965 28.2949212,34.2308815 27.8689473,34.2275666 C27.7976754,34.2259091 27.7264035,34.2192791 27.660104,34.2192791 C27.6402142,34.1397198 27.6965687,34.123145 27.7346909,34.0982827 C28.1009953,33.8463448 28.4689572,33.5977219 28.8352616,33.3474415 C28.8932736,33.3043469 28.9496281,33.2612522 29.0159276,33.2082127 C28.9894078,33.1220234 28.966203,33.0374916 28.9396832,32.9612473 C28.8170293,32.5899704 28.6910603,32.2137211 28.5717213,31.8407867 C28.5551465,31.7927196 28.5452015,31.7380226 28.5253117,31.6534908 C28.6015561,31.6965854 28.6512807,31.7164753 28.6927178,31.7446525 C29.0126126,31.9684131 29.3291924,32.1905163 29.6457723,32.4142769 C29.733619,32.4689739 29.8247807,32.5220135 29.9225724,32.5833405 C30.0203641,32.523671 30.1131833,32.4772613 30.1993726,32.4192493 C30.5242398,32.2037762 30.8408197,31.9833305 31.1640294,31.7645424 C31.2071241,31.7380226 31.2568487,31.7181328 31.336408,31.6750381 C31.2701085,31.9684131 31.1607145,32.2087486 31.0778402,32.4573715 C30.9982808,32.7043369 30.9087766,32.9479874 30.8275598,33.1783779 C30.862367,33.2894295 30.9485563,33.3258942 31.0181707,33.3789337 C31.339723,33.6060093 31.6645902,33.8330849 31.9878,34.058503 C32.0540994,34.1065701 32.1154264,34.1579522 32.1767534,34.2060193 C32.1717809,34.2225941 32.165151,34.239169 32.161836,34.2557438" id="Fill-39"></path>
                            <path d="M42.5809588,41.8374163 C42.4500174,41.9534403 42.2925562,42.0329997 42.1466975,42.1258189 C42.0555357,42.112559 42.0323309,42.0379721 41.9925513,41.9816176 C41.6046995,41.4396197 41.2185053,40.8926493 40.8306536,40.3523089 C40.1643442,39.4091993 39.4963773,38.4710622 38.8284105,37.5296102 C38.7786859,37.4599958 38.7355913,37.3903814 38.6875242,37.3157945 C38.8118356,37.1517034 38.9775842,37.0721441 39.1648801,36.9975572 C39.2129472,37.0605417 39.2593568,37.1152387 39.300794,37.1715932 C40.7527517,39.1754938 42.493112,41.6517779 42.5809588,41.8374163" id="Fill-41"></path>
                            <path d="M39.4156578,12.3465965 C39.15709,12.3416241 39.0725582,12.2836121 38.9648216,12.0366467 C40.1151169,10.4835823 41.2670696,8.92720291 42.4206799,7.36916606 C42.4389123,7.34430377 42.4554871,7.31944148 42.4704045,7.29955165 C42.5897435,7.32109897 42.6510705,7.38739841 42.7273148,7.43215053 C42.7952717,7.47358768 42.8565987,7.52828472 42.9162682,7.5664069 C42.9195832,7.58629673 42.9212407,7.59458416 42.9212407,7.59458416 C42.9212407,7.60618656 42.9212407,7.61613148 42.9146107,7.62276142 C41.7726029,9.16919587 40.6289375,10.7156303 39.4869297,12.2587498 C39.4637249,12.290242 39.4355476,12.3184193 39.4156578,12.3465965" id="Fill-43"></path>
                            <path d="M23.991756,16.3689836 C23.7431331,16.1551679 23.4679904,15.9993642 23.2027926,15.7888635 C23.2508597,15.7689736 23.275722,15.7507413 23.3022418,15.7507413 C23.5144,15.7507413 23.7282157,15.7557138 23.9420314,15.7540563 C24.0232482,15.7540563 24.104465,15.7557138 24.1972843,15.7557138 C24.3448005,15.4639962 24.4094425,15.1557038 24.5453563,14.8457539 C24.5751911,14.897136 24.6000534,14.9203408 24.6099983,14.9534905 C24.6762977,15.1374715 24.7376247,15.3264249 24.8006092,15.5104058 C24.8254714,15.5833352 24.8519912,15.6579221 24.8834835,15.7407964 C24.9514404,15.7507413 25.0160823,15.7606862 25.0790668,15.7606862 C25.3094574,15.7673162 25.5398479,15.7640012 25.7702385,15.7706311 C25.8166481,15.7722886 25.8680301,15.7573712 25.9044948,15.8037809 C25.9044948,15.8037809 25.9078098,15.8220132 25.9044948,15.8253282 C25.8216205,15.9015725 25.7437187,15.9778169 25.6558719,16.0474313 C25.5547653,16.1269906 25.4453712,16.1982625 25.3409496,16.2745069 C25.29454,16.3093141 25.2514454,16.3424638 25.2083507,16.3789285 C25.1470237,16.4303106 25.1287914,16.49661 25.1519962,16.5728544 C25.1884609,16.6839059 25.2265831,16.7933 25.2613903,16.9060091 C25.3011699,17.025348 25.3409496,17.1413721 25.3774143,17.2573961 C25.3194023,17.2988332 25.291225,17.2607111 25.2647052,17.2408212 C25.1089016,17.1397146 24.9530979,17.0336355 24.8022666,16.9225839 C24.6829277,16.8363946 24.5586162,16.8446821 24.4343048,16.9076665 C24.349773,16.9540761 24.2668987,17.0087732 24.1840244,17.0601552 C24.0414806,17.1463445 23.9005943,17.2408212 23.7381606,17.2955183 C23.7099834,17.1977266 23.7099834,17.1977266 23.7829127,16.9955133 L23.8923068,16.6822484 C23.927114,16.5778268 23.9586063,16.4783777 23.991756,16.3689836" id="Fill-45"></path>
                            <path d="M34.7176794,17.3757406 C34.7309393,17.3144136 34.7375693,17.2746339 34.7475142,17.2381692 C34.8104987,17.0508733 34.8685107,16.8652349 34.9430975,16.6829114 C34.9845347,16.5768323 34.9613299,16.500588 34.8751406,16.4342885 C34.7624316,16.3464418 34.6430926,16.2602525 34.5303835,16.1707483 C34.416017,16.0795865 34.3082804,15.9884248 34.1723665,15.8773732 C34.2403235,15.8574834 34.2734732,15.842566 34.3082804,15.8409085 C34.5237536,15.8392511 34.7359118,15.8442235 34.9497275,15.842566 C35.0309443,15.8442235 35.1154761,15.8442235 35.2066378,15.845881 C35.2331576,15.791184 35.2663073,15.7480893 35.2845397,15.6967073 C35.3508391,15.5127263 35.415481,15.3304029 35.483438,15.1414494 C35.5016703,15.0884099 35.5298476,15.0320554 35.5513949,14.9773583 C35.6226668,14.9790158 35.6226668,15.0303979 35.6342692,15.0618901 C35.6972537,15.2475286 35.7569232,15.4348245 35.8232226,15.6204629 C35.8480849,15.6917348 35.8547148,15.7779241 35.9458766,15.8475385 C36.2442241,15.849196 36.5624614,15.8508535 36.8724112,15.8541684 C36.902246,15.9221254 36.8624663,15.9370427 36.8309741,15.96522 C36.663568,16.0762716 36.4961619,16.1906381 36.3304133,16.3033471 C36.2574839,16.3547292 36.189527,16.4077688 36.1099677,16.4674383 C36.1613498,16.6298719 36.2143893,16.7889905 36.2607989,16.9414793 C36.3038935,17.090653 36.3867678,17.2315393 36.3851104,17.4122053 C36.3337283,17.3890005 36.2956061,17.3790556 36.2641139,17.3591657 C36.0834479,17.2497716 35.9011244,17.14535 35.7254309,17.0276685 C35.5696272,16.9249044 35.4237685,16.9232469 35.2696223,17.026011 C35.1453108,17.1155153 35.0143694,17.2000471 34.886743,17.2845789 C34.8419909,17.3160711 34.7939238,17.3359609 34.7176794,17.3757406" id="Fill-47"></path>
                            <path d="M23.6128547,31.8487427 C23.6542918,31.8736049 23.6973865,31.8901798 23.7355086,31.9166996 C23.9078872,32.0343811 24.0835807,32.1504051 24.2576167,32.2680866 C24.4415977,32.3890831 24.4747474,32.3907406 24.6504409,32.2747166 C24.7979572,32.1736099 24.9421585,32.0741608 25.0896747,31.9747116 C25.1360843,31.9399044 25.1858089,31.9200146 25.233876,31.8934948 C25.2719982,31.9631092 25.2289035,32.0111763 25.2139862,32.0609009 C25.1576316,32.2332794 25.0929897,32.4006855 25.0349777,32.5747215 C24.9769657,32.7487576 24.9835956,32.7719624 25.1427143,32.8913014 C25.3150928,33.0222427 25.4941013,33.1465542 25.6697948,33.2741806 C25.7062595,33.3040154 25.7394092,33.3404801 25.7990787,33.3852322 C25.7377517,33.4001496 25.704602,33.4183819 25.6697948,33.4183819 C25.5139911,33.4216969 25.3581875,33.4200394 25.2023838,33.4200394 C25.1360843,33.4183819 25.0714424,33.4183819 25.0034854,33.4183819 C24.7266853,33.4150669 24.7432601,33.401807 24.6570709,33.647115 C24.5891139,33.8377259 24.521157,34.0333092 24.4532001,34.2272351 C24.4432552,34.2504399 24.4266803,34.2753022 24.3985031,34.3250267 C24.3073413,34.1708806 24.282479,34.0200493 24.227782,33.8775055 C24.16977,33.7333042 24.1449077,33.5741856 24.0570609,33.4283268 C23.7388236,33.3819172 23.4122989,33.4266693 23.0658843,33.3868897 C23.1305263,33.2791531 23.2332904,33.2377159 23.3128497,33.1830189 C23.402354,33.1134045 23.4984882,33.0553925 23.5913074,32.9907505 C23.6774966,32.9360535 23.7636859,32.869754 23.8548476,32.8084271 C23.8399303,32.7421276 23.8283279,32.6808006 23.8100955,32.6211311 C23.7471111,32.4272053 23.6808116,32.2332794 23.6178271,32.0376961 C23.5979373,31.9846565 23.5664451,31.928302 23.6128547,31.8487427" id="Fill-49"></path>
                            <path d="M36.284501,31.9273075 C36.2099141,32.2936119 36.0557679,32.580357 35.984496,32.8903069 C36.2298039,33.1140675 36.519864,33.2599262 36.7800893,33.4886593 C36.6524629,33.525124 36.5480412,33.5052342 36.4452771,33.5102066 C36.3292531,33.5118641 36.2148865,33.5085491 36.10052,33.5068917 L35.7739953,33.5068917 C35.6364239,33.7936367 35.571782,34.0936417 35.4441556,34.3654694 C35.3778561,34.3754143 35.3761986,34.3306622 35.3629387,34.295855 C35.2982968,34.1102166 35.2369698,33.9229206 35.1756428,33.7389397 C35.149123,33.6643528 35.1192883,33.5963959 35.0894535,33.5184941 C34.7463539,33.4687695 34.4098843,33.5184941 34.0833595,33.4836869 C34.0502098,33.4223599 34.0866745,33.3991551 34.1198242,33.3759503 C34.2772854,33.2648987 34.439719,33.1588196 34.5971802,33.0461105 C34.9104451,32.8206924 34.8756379,32.8554997 34.7728737,32.5273174 C34.7165192,32.3516239 34.6386174,32.1775879 34.6038101,31.9952644 C34.6585072,31.9637722 34.6866844,31.9969219 34.7148617,32.0184692 C34.8673504,32.1228908 35.0181817,32.2322849 35.1706704,32.3367065 C35.3828286,32.4875378 35.4010609,32.4908527 35.626479,32.344994 C35.7822827,32.2422298 35.9364289,32.1378082 36.0922326,32.0350441 C36.1369847,32.0068668 36.1883668,31.980347 36.284501,31.9273075" id="Fill-51"></path>
                            <path d="M46.9908661,21.3502263 C47.0422481,21.3435963 47.0986027,21.3303365 47.1532997,21.3270215 C47.4649071,21.3104466 48.1709961,21.3303365 48.3433747,21.3568562 C48.3814968,21.4331006 48.364922,21.5209473 48.364922,21.6054791 C48.3566345,22.6845025 48.3483471,23.7618684 48.3400597,24.8425493 C48.3301148,25.8917379 48.3218273,26.9392691 48.3135399,27.9851428 C48.3135399,28.0680171 48.3085675,28.1542063 48.3052525,28.2536555 C48.2273506,28.2619429 48.1627087,28.2752028 48.1013817,28.2752028 C47.8212666,28.2735453 47.5411514,28.2669154 47.2610363,28.2685729 C47.1102051,28.2735453 46.9858936,28.2271357 46.8980469,28.1127692 C46.768763,27.9519931 46.642794,27.7829295 46.5217975,27.6188384 C46.2516273,27.245904 45.9864296,26.8679972 45.7179168,26.4917479 C45.2936004,25.8933954 44.872599,25.298358 44.4466251,24.701663 C44.3223136,24.527627 44.1897147,24.3602209 44.0571158,24.1894998 C44.0189937,24.1414327 43.9841865,24.0834207 43.8946822,24.0801057 C43.8830798,24.1033105 43.8615325,24.1298303 43.8582175,24.1546926 C43.8515876,24.2259645 43.8515876,24.2955789 43.8515876,24.3668508 C43.8416427,25.5635557 43.8316977,26.7602606 43.8217528,27.955308 C43.8217528,28.0448123 43.8333552,28.1276866 43.7968905,28.2138758 C43.7620833,28.2221633 43.7322486,28.2403956 43.7007564,28.2403956 C43.331137,28.2370806 42.9615176,28.2337657 42.5918982,28.2304507 C42.5504611,28.2304507 42.5123389,28.2122184 42.4659293,28.200616 C42.4178622,28.1127692 42.4228346,28.01995 42.4244921,27.9287882 C42.4244921,27.5608264 42.4261496,27.1945219 42.4294646,26.8265601 C42.444382,25.1591291 42.4576418,23.4966707 42.4742167,21.8292397 C42.4742167,21.6684636 42.4858191,21.502715 42.4941065,21.3270215 C42.5620635,21.3137616 42.615103,21.2905568 42.6681426,21.2905568 C42.9880374,21.2888993 43.3079322,21.2905568 43.6294845,21.2888993 C43.7239612,21.2872418 43.7786582,21.3353089 43.8283828,21.4032658 C44.0852931,21.7662553 44.3455184,22.1309022 44.6040862,22.4922341 C45.2803405,23.4452886 45.9599098,24.3950281 46.639479,25.346425 C46.6759437,25.3961496 46.7173809,25.4409017 46.7521881,25.4839964 C46.82346,25.4806814 46.8300899,25.4342718 46.8350624,25.3994646 C46.8450073,25.2734957 46.8566097,25.1475267 46.8566097,25.0232153 C46.8665546,24.0585584 46.8764995,23.098874 46.8864445,22.1375321 C46.8881019,21.9916734 46.8914169,21.8424996 46.8914169,21.6933259 C46.8947319,21.5756444 46.9195942,21.4612778 46.9908661,21.3502263" id="Fill-53"></path>
                            <path d="M17.1692121,28.0118283 C17.1708696,27.9703911 17.1658971,27.9471863 17.1741845,27.9239815 C18.1570737,25.6565407 19.1416204,23.3957298 20.1278246,21.1249739 C20.3499277,21.0802218 20.5620859,21.111714 20.7725867,21.1133715 C20.9764574,21.115029 21.1836432,21.0868518 21.3775691,21.1332614 C21.4836482,21.3122699 24.1505431,27.7234257 24.2533073,28.0383481 C24.228445,28.051608 24.2035827,28.0731553 24.1770629,28.0781277 C24.051094,28.0930451 23.0068778,28.0731553 22.8543891,28.0532654 C22.7317351,27.8444222 22.6670932,27.5991143 22.570959,27.3670662 C22.4748248,27.1366757 22.386978,26.9013127 22.2925013,26.6609772 C22.2295169,26.6543473 22.1748198,26.6361149 22.1201228,26.6361149 C21.2250803,26.6278275 20.3267229,26.6245125 19.4316805,26.6129101 C19.2758768,26.6095951 19.1847151,26.6659497 19.130018,26.800206 C19.0156515,27.0770062 18.8996275,27.3504914 18.781946,27.6239766 C18.7421663,27.7184533 18.6974142,27.8112725 18.6576345,27.9057492 C18.6161974,27.9919385 18.5482404,28.0366906 18.4438188,28.0350331 L18.3708894,28.0350331 C18.0178449,28.0317181 17.6648004,28.0284032 17.3100984,28.0267457 C17.2703187,28.0267457 17.2305391,28.0217732 17.1692121,28.0118283 M20.8173388,23.2266662 C20.6996573,23.2681033 20.6615351,23.3460052 20.6234129,23.423907 C20.5173338,23.6360652 20.4112547,23.8449085 20.3118056,24.0603817 C20.1576594,24.3902214 20.0084856,24.7184036 19.8593119,25.0515583 C19.8278196,25.1162002 19.8112448,25.1824997 19.7946699,25.2487991 C19.7797525,25.3117836 19.8211897,25.3565357 19.8874891,25.3664806 C19.9189814,25.3697956 19.9537886,25.3714531 19.9852808,25.3714531 C20.5272787,25.3764255 21.0709341,25.3797405 21.6129321,25.3830555 C21.6609992,25.3830555 21.7057513,25.3714531 21.7505034,25.3664806 C21.7538184,25.3366459 21.7637633,25.3184135 21.7571334,25.3051536 C21.4687308,24.6504467 21.1803282,23.9957397 20.8902682,23.3393752 C20.8736933,23.304568 20.848831,23.2730758 20.8173388,23.2266662" id="Fill-55"></path>
                            <path d="M35.9510148,21.2603905 C36.1532281,21.2255833 36.9703687,21.2322133 37.1941293,21.2769654 C38.1339238,23.5394338 39.0786909,25.8168196 40.0218004,28.0892329 C40.0334028,28.1174102 40.0350603,28.1472449 40.0450052,28.1903395 C39.9952806,28.195312 39.9571585,28.2085719 39.9190363,28.2085719 C39.5494169,28.2052569 39.1764825,28.2035994 38.8085207,28.2052569 C38.6842092,28.2035994 38.6063074,28.1605048 38.5648702,28.0494532 C38.4935983,27.8505549 38.414039,27.6533141 38.3361371,27.4560732 C38.2681802,27.2770647 38.1952508,27.1030287 38.1272939,26.9289927 C38.0792268,26.8129687 37.9963525,26.7599291 37.8620961,26.7615866 C37.4112599,26.7632441 36.9604238,26.7549567 36.5062726,26.7516417 C36.0703538,26.7483267 35.6344349,26.7433543 35.1985161,26.7400393 C35.1156418,26.7400393 35.0360825,26.7450117 34.9416058,26.7499842 C34.7311051,27.2124228 34.5653565,27.6848063 34.3614857,28.1373 C34.1741898,28.1721072 33.5758373,28.1787371 33.1183712,28.1538748 C33.0703041,28.1538748 33.025552,28.1373 32.9890873,28.1356425 C32.9774849,28.1091227 32.9741699,28.1058078 32.9741699,28.1058078 C32.9708549,28.0908904 32.9708549,28.0809455 32.9741699,28.0743155 C33.0106346,27.9881262 33.0437843,27.898622 33.080249,27.8157477 C34.0266735,25.6394686 34.973098,23.4698194 35.9195225,21.2951977 C35.9261525,21.2802804 35.9410699,21.2719929 35.9510148,21.2603905 M35.4753163,25.4836649 C35.5598481,25.4886373 35.6095727,25.4952673 35.6559823,25.4969248 C36.2062676,25.5018972 36.7582105,25.5068697 37.3068383,25.5118422 C37.3383306,25.5118422 37.3714803,25.5118422 37.40463,25.5101847 C37.4808744,25.4985823 37.520654,25.4455427 37.4991067,25.3742708 C37.4759019,25.289739 37.4460672,25.2118372 37.4096025,25.1322779 C37.2869485,24.8488477 37.1642945,24.5687326 37.0383256,24.290275 C36.9156716,24.0234197 36.7946752,23.7615369 36.6687062,23.4996541 C36.6355565,23.4267248 36.5974343,23.3438505 36.5013001,23.3488229 C36.4134534,23.3521379 36.401851,23.4399846 36.3720162,23.5013116 C36.0919011,24.1046365 35.8151009,24.702989 35.5366433,25.3029989 C35.5134385,25.351066 35.5034936,25.4024481 35.4753163,25.4836649" id="Fill-57"></path>
                            <path d="M26.7652273,21.1819915 C26.8298693,21.173704 26.8862238,21.1621016 26.9409208,21.1621016 C27.5823679,21.1720465 28.223815,21.177019 28.8652621,21.2035388 C29.2100192,21.2167987 29.5531188,21.2632083 29.877986,21.3875197 C30.358657,21.5781306 30.6951266,21.9013404 30.8774501,22.3687514 C31.0498287,22.8129577 31.0697185,23.2671089 30.9371196,23.7229175 C30.8028632,24.1936435 30.4912559,24.5301132 30.0536796,24.7754211 C29.761962,24.9361973 29.4486972,25.0174141 29.1172,25.0422764 C28.871892,25.0605087 28.6265841,25.0704536 28.3796187,25.0787411 C28.046464,25.0920009 28.0298891,25.1052608 28.0282317,25.4185257 C28.0199442,26.214119 28.0149718,27.0130272 28.0083418,27.806963 C28.0083418,27.8914948 28.0066843,27.9809991 28.0066843,28.0721608 C27.9586172,28.0887356 27.9221526,28.1086255 27.8840304,28.1119405 C27.5243559,28.1086255 27.163024,28.1053105 26.8000345,28.103653 C26.7685423,28.0986806 26.7387075,28.0837632 26.7105303,28.0754758 C26.6806955,27.8931523 26.7287626,21.4405593 26.7652273,21.1819915 M28.0514365,23.8173942 C28.104476,23.8256816 28.1343108,23.8422565 28.1674605,23.8422565 C28.4459181,23.8356266 28.7243758,23.8339691 29.0028334,23.8207092 C29.0923377,23.8190517 29.1818419,23.7991619 29.2680312,23.7660121 C29.6840602,23.6267833 29.8531238,23.1361675 29.6111308,22.7814655 C29.5100242,22.6356067 29.3608504,22.5543899 29.1934443,22.5129527 C28.878522,22.4333934 28.5586272,22.4284209 28.2370749,22.4483108 C28.2122126,22.4483108 28.1890078,22.4549407 28.1674605,22.4632281 C28.107791,22.483118 28.0680113,22.5245551 28.0613814,22.5842246 C28.053094,22.6389217 28.0514365,22.6919612 28.049779,22.7466582 C28.046464,23.0350608 28.043149,23.3234634 28.043149,23.6135234 C28.0414915,23.6748504 28.0481215,23.7378349 28.0514365,23.8173942" id="Fill-59"></path>
                            <path d="M7.13595203,23.5556772 C7.39949231,23.572252 7.64645772,23.5656221 7.89342314,23.5739095 C8.13044364,23.5772245 8.36912162,23.572252 8.60779961,23.578882 C8.85310754,23.5821969 9.09675798,23.5689371 9.33377848,23.5971143 C9.37190066,23.6584413 9.33709345,23.7031934 9.30062876,23.7280557 C9.16305742,23.8374498 9.04537591,23.9700487 8.8812848,24.0512655 C8.82327279,24.0827577 8.77686318,24.1308248 8.72382363,24.1639745 C8.62437447,24.2319315 8.51663788,24.2932584 8.4188462,24.3612154 C8.20005805,24.523649 7.96303755,24.6678503 7.75419431,24.8418863 C7.65143018,24.9297331 7.613308,25.0291822 7.65143018,25.1551512 C7.73098951,25.417034 7.81054884,25.6789167 7.89508063,25.9407995 C7.96801001,26.1662176 8.0525418,26.3833483 8.12049872,26.6120814 C8.17188079,26.7828024 8.19011313,26.9618109 8.14867598,27.1391619 C8.09232146,27.1772841 8.03928191,27.1689967 7.98955733,27.1341895 C7.91662794,27.0828074 7.84204107,27.0314253 7.77076917,26.9833582 C7.31330304,26.6634634 6.85915187,26.3402537 6.40168573,26.0187014 C6.33704378,25.9722918 6.26742937,25.9325121 6.20941736,25.8943899 C6.17626764,25.9026774 6.15969278,25.9026774 6.14643289,25.9142798 C5.95416451,26.0468786 5.76355362,26.1827925 5.57128524,26.3170489 C5.51161575,26.3568285 5.44863128,26.3899782 5.3873043,26.4314154 C5.33757972,26.4579352 5.27956771,26.4761675 5.23813056,26.5159472 C5.02762983,26.7065581 4.76408956,26.8176096 4.51215168,26.9502085 C4.44087979,26.9866732 4.37458035,27.0314253 4.30662342,27.0778349 C4.25026889,27.1142996 4.19391437,27.1408194 4.12264247,27.1225871 C4.06794543,27.07452 4.11104007,27.0231379 4.12595744,26.9734133 C4.33645817,26.3734034 4.54861638,25.7733934 4.75580213,25.171726 C4.7823219,25.0971392 4.80718419,25.0258673 4.830389,24.9579103 C4.79392431,24.8684061 4.71436498,24.8352564 4.64972302,24.7871893 C4.1425323,24.4258573 3.63036913,24.0744703 3.12317841,23.7147958 C3.05853646,23.6733587 3.00052444,23.6219766 2.91599266,23.5523622 C3.01544182,23.5225274 3.08505623,23.5357873 3.15798562,23.5357873 C3.22262757,23.5308149 3.28726952,23.5357873 3.35356896,23.5357873 C3.42815583,23.5374448 3.50108522,23.5374448 3.57567209,23.5391023 C3.65025896,23.5391023 3.72484583,23.5391023 3.79611773,23.5407598 C3.87401957,23.5407598 3.94694896,23.5407598 4.01987834,23.5424173 C4.08617778,23.5424173 4.15247722,23.5424173 4.21711917,23.5440748 C4.29170604,23.5440748 4.36463543,23.5440748 4.4392223,23.5457322 C4.51215168,23.5457322 4.58839604,23.5473897 4.66132542,23.5473897 C4.73591229,23.5473897 4.80884168,23.5490472 4.88342855,23.5490472 C4.94972799,23.5490472 5.01602743,23.5523622 5.08066938,23.5507047 C5.15525625,23.5457322 5.22818564,23.5440748 5.31437491,23.5407598 C5.34255217,23.4777753 5.37404441,23.4147909 5.39724921,23.3484914 C5.60443496,22.7650563 5.80830574,22.1783063 6.01383401,21.5965287 C6.03703881,21.5252568 6.06024361,21.4622723 6.09173585,21.3976304 C6.11825563,21.3363034 6.21438981,21.3329884 6.25251199,21.3843705 C6.25914194,21.3926579 6.26577188,21.3992879 6.26742937,21.4075753 C6.30555154,21.563379 6.4050007,21.6860329 6.49781992,21.8153169 C6.52931215,21.860069 6.55251696,21.911451 6.57074931,21.9644906 C6.7132931,22.3871495 6.85252193,22.8114659 6.99672321,23.2341249 C7.03153042,23.3385465 7.08456997,23.4379957 7.13595203,23.5556772" id="Fill-61"></path>
                            <path d="M53.9211466,21.7460339 C54.1813719,22.4736703 54.3985025,23.2129091 54.6670153,23.9455179 C54.9405005,23.9571203 55.2023833,23.9504903 55.4659235,23.9587778 C55.7178614,23.9620927 55.9747717,23.9620927 56.2300246,23.9654077 C56.4935649,23.9670652 56.7554476,23.9687227 57.0156729,23.9703802 C57.0372203,24.0582269 56.9709208,24.0764593 56.9294837,24.102979 C56.473675,24.4112714 56.0195239,24.7195638 55.5637152,25.0295137 C55.4244864,25.1256479 55.2852576,25.2250971 55.1476862,25.3129438 C55.1244814,25.415708 55.1725485,25.4919523 55.1990683,25.5715116 C55.3880217,26.1499743 55.5802901,26.7218069 55.7725584,27.2952971 C55.7957632,27.3715415 55.8173106,27.4444708 55.8372004,27.5124278 C55.7858183,27.5588374 55.7394087,27.5555224 55.6929991,27.5306601 C55.6581919,27.5157427 55.6217272,27.4925379 55.590235,27.4693331 C55.4791834,27.3864588 55.3681319,27.311872 55.2272455,27.2720923 C55.1808359,27.2638049 55.1377413,27.2356276 55.1012766,27.2057928 C54.9288981,27.0847964 54.7598345,26.9621424 54.5907709,26.8411459 C54.5277865,26.7980513 54.4697744,26.7566141 54.4084475,26.718492 C54.3471205,26.6787123 54.284136,26.6422476 54.222809,26.6008105 C54.0703203,26.4963888 53.9194891,26.3919672 53.7786028,26.2875456 C53.6708662,26.2941755 53.6111967,26.3555025 53.5482122,26.4002547 C53.0542814,26.7350668 52.5570356,27.073194 52.0631048,27.4096636 C52.0150377,27.4394984 51.9702855,27.4759631 51.9189035,27.4975104 C51.8857538,27.5140852 51.8426591,27.5140852 51.7863046,27.5240302 C51.7763597,27.3417067 51.7564698,27.1726431 51.8144819,27.005237 C51.9189035,26.7019171 52.029955,26.4019121 52.1360341,26.1002497 C52.2039911,25.8980364 52.2620031,25.6908506 52.326645,25.4936098 C52.3713972,25.357696 52.3216726,25.2549318 52.1957036,25.173715 C51.9586831,25.0079664 51.7299501,24.8289579 51.4945871,24.6582369 C51.2890588,24.5140356 51.0802156,24.3731493 50.8746873,24.2355779 C50.7669507,24.1609911 50.6774465,24.0748018 50.6277219,23.9438604 C50.7172261,23.9057382 50.8001004,23.9223131 50.8796597,23.9223131 C51.44652,23.925628 52.0166951,23.9306005 52.5818979,23.935573 C52.6714021,23.935573 52.7609064,23.928943 52.8636705,23.925628 C52.9067651,23.8361238 52.9515173,23.7532495 52.984667,23.6703752 C53.1089784,23.3289331 53.2283174,22.984176 53.3509714,22.6493638 C53.4023535,22.510135 53.4537355,22.3675912 53.5084326,22.2300199 C53.5250074,22.1869252 53.5415823,22.1372006 53.5763895,22.1090234 C53.6642362,22.0278066 53.7056734,21.9266999 53.7388231,21.8239358 C53.7653429,21.7526639 53.8183824,21.7261441 53.9211466,21.7460339" id="Fill-63"></path>
                            <path d="M13.5230744,21.0994486 C13.6390984,21.0364642 13.7319176,21.0513816 13.8197644,21.053039 C14.1810963,21.062984 14.5407708,21.0381217 14.8938153,21.0779013 C14.9800046,21.2187876 14.9833195,21.359674 14.981662,21.4972453 C14.9783471,22.359138 14.9733746,23.2177158 14.9634297,24.077951 C14.9584572,24.6862484 14.9601147,25.2962032 14.9402249,25.909473 C14.9319375,26.2177654 14.8971303,26.5310303 14.8507207,26.8393227 C14.8159134,27.0829731 14.7230942,27.3067337 14.5639756,27.5039746 C14.3750222,27.7409951 14.1396592,27.9216611 13.8446266,28.0211102 C13.0523483,28.282993 12.3097946,28.1769139 11.6269104,27.7078454 C11.4114372,27.5570141 11.2307712,27.3796631 11.0633651,27.1741349 C11.1048023,27.1326977 11.137952,27.0862881 11.1810466,27.0531384 C11.4213821,26.8393227 11.6650325,26.628822 11.908683,26.4166638 C11.9302303,26.3984314 11.9567501,26.3735691 11.9832699,26.3569943 C12.089349,26.2774349 12.1291286,26.2807499 12.2368652,26.3719116 C12.3479168,26.4680458 12.4556534,26.5658375 12.5650475,26.6569992 C12.682729,26.7564484 12.8153278,26.8376652 12.969474,26.8791024 C13.1899197,26.9354569 13.3357784,26.8658425 13.4070503,26.6536843 C13.4335701,26.5741249 13.450145,26.4879357 13.4584324,26.4000889 C13.4733498,26.2525726 13.4816372,26.1050564 13.4816372,25.9542252 C13.4965546,24.4309955 13.508157,22.9061084 13.5214169,21.3812213 C13.5214169,21.2884021 13.5230744,21.1955828 13.5230744,21.0994486" id="Fill-65"></path>
                            <polygon id="Fill-67" points="5.71648102 68.8297417 2.60869475 59.6572141 0.932976399 68.8297417 0.374403615 68.8297417 2.16614599 59.0638342 2.95510933 59.0638342 6.02808839 68.1054203 9.06957521 59.0638342 9.87511341 59.0638342 11.6685133 68.8297417 11.0933656 68.8297417 9.41598979 59.5909147 6.32477838 68.8297417"></polygon>
                            <path d="M17.3560108,59.5745056 L15.1200621,65.3773641 L19.641684,65.3773641 L17.3560108,59.5745056 Z M14.9228213,65.8712949 L13.7891009,68.8299075 L13.2122957,68.8299075 L17.0444034,59.0639999 L17.7173427,59.0639999 L21.5809426,68.8299075 L21.0057949,68.8299075 L19.8389248,65.8712949 L14.9228213,65.8712949 Z" id="Fill-69"></path>
                            <path d="M24.2612632,68.3701208 C24.6888946,68.4181879 25.116526,68.4513377 25.5922245,68.4513377 C28.9138264,68.4513377 30.8696599,66.873411 30.8696599,63.7672822 C30.8696599,61.1037022 29.0944924,59.4429012 25.3452591,59.4429012 C24.9839271,59.4429012 24.6723197,59.4594761 24.2612632,59.4926258 L24.2612632,68.3701208 Z M23.7026904,59.0484195 C24.4253543,58.9655452 24.9839271,58.9489704 25.3452591,58.9489704 C29.6696401,58.9489704 31.4282327,60.9545284 31.4282327,63.7672822 C31.4282327,66.7424696 29.6696401,68.9452685 25.5922245,68.9452685 C24.9176277,68.9452685 24.3607124,68.8955439 23.7026904,68.8143271 L23.7026904,59.0484195 Z" id="Fill-71"></path>
                            <polygon id="Fill-73" points="39.4512937 68.3361424 39.4512937 68.8300732 34.1407086 68.8300732 34.1407086 59.0641657 39.4015691 59.0641657 39.4015691 59.5580965 34.7009388 59.5580965 34.7009388 63.5692126 39.1231115 63.5692126 39.1231115 64.0631434 34.7009388 64.0631434 34.7009388 68.3361424"></polygon>
                            <polygon id="Fill-75" points="45.6817836 68.8305705 46.2403564 68.8305705 46.2403564 59.0646629 45.6817836 59.0646629"></polygon>
                            <polygon id="Fill-77" points="56.6962754 68.0237063 56.6962754 59.0649944 57.2382733 59.0649944 57.2382733 68.8292445 56.6797005 68.8292445 50.2022452 59.8705326 50.2022452 68.8292445 49.6602473 68.8292445 49.6602473 59.0649944 50.2188201 59.0649944"></polygon>
                            <path d="M8.413045,81.4390665 C9.03791723,82.095431 9.74400627,82.4252707 10.4351779,82.4252707 C11.5357486,82.4252707 12.0296795,81.8832728 12.0296795,80.5523115 L12.0296795,73.0389274 L12.5882523,73.0389274 L12.5882523,80.6335283 C12.5882523,82.211455 11.7827141,82.9341189 10.4351779,82.9341189 C9.59649001,82.9341189 8.84067639,82.5744444 8.413045,82.1120058 L8.413045,81.4390665 Z" id="Fill-78"></path>
                            <path d="M18.4907257,73.5481071 L16.2547771,79.3509656 L20.7763989,79.3509656 L18.4907257,73.5481071 Z M16.0575362,79.8448965 L14.9238158,82.803509 L14.3470107,82.803509 L18.1791183,73.0376014 L18.8520576,73.0376014 L22.7156575,82.803509 L22.1405099,82.803509 L20.9736397,79.8448965 L16.0575362,79.8448965 Z" id="Fill-79"></path>
                            <path d="M25.3958124,78.4299007 C25.5930532,78.448133 25.8234438,78.4647079 26.1350511,78.4647079 C28.2566332,78.4647079 29.3903537,77.6094451 29.3903537,75.8342776 C29.3903537,74.485084 28.5682406,73.4010881 26.1682009,73.4010881 C25.9378103,73.4010881 25.5764784,73.417663 25.3958124,73.4325804 L25.3958124,78.4299007 Z M25.3958124,82.8040062 L24.8372396,82.8040062 L24.8372396,73.0215238 C25.1654218,72.9552244 25.7737192,72.9071573 26.1682009,72.9071573 C28.63454,72.9071573 29.9655013,73.9265112 29.9655013,75.8342776 C29.9655013,77.7735362 28.6511149,78.9553237 26.1350511,78.9553237 C25.8400186,78.9553237 25.5764784,78.9404064 25.3958124,78.9238315 L25.3958124,82.8040062 Z" id="Fill-80"></path>
                            <path d="M34.8479578,73.5481071 L32.6120092,79.3509656 L37.133631,79.3509656 L34.8479578,73.5481071 Z M32.4147684,79.8448965 L31.281048,82.803509 L30.7042428,82.803509 L34.5363505,73.0376014 L35.2092898,73.0376014 L39.0728897,82.803509 L38.497742,82.803509 L37.3308719,79.8448965 L32.4147684,79.8448965 Z" id="Fill-81"></path>
                            <polygon id="Fill-82" points="48.2300026 81.9974735 48.2300026 73.0387617 48.7720005 73.0387617 48.7720005 82.8030117 48.2134278 82.8030117 41.7359724 73.8442999 41.7359724 82.8030117 41.1939745 82.8030117 41.1939745 73.0387617 41.7525473 73.0387617"></polygon>
                        </g>
                    </g>
                </g>
            </g>
        </g>
    </g>
</svg>