<?xml version="1.0" encoding="UTF-8"?>
<svg width="1440px" height="816px" viewBox="0 0 1440 816" version="1.1" xmlns="http://www.w3.org/2000/svg" xmlns:xlink="http://www.w3.org/1999/xlink">
    <!-- Generator: Sketch 48.2 (47327) - http://www.bohemiancoding.com/sketch -->
    <title>bg-ciudad</title>
    <desc>Created with Sketch.</desc>
    <defs>
        <polygon id="path-1" points="0.470268643 0.486816406 1441.66162 0.486816406 1441.66162 815.790527 0.470268643 815.790527"></polygon>
    </defs>
    <g id="Escuelas-libres-de-mercurio-v2" stroke="none" stroke-width="1" fill="none" fill-rule="evenodd" opacity="0.14">
        <g id="1---heroshot" transform="translate(-2.000000, -1.000000)">
            <g id="bg-ciudad" transform="translate(0.414642, 0.537109)">
                <mask id="mask-2" fill="white">
                    <use xlink:href="#path-1"></use>
                </mask>
                <g id="Clip-2"></g>
                <path d="M1470.13189,-14.8040941 L1470.13189,-16.0002464 L1466.81199,-16.0002464 L1470.13189,-14.8040941 Z M1044.85727,-4.26908495 L1103.65105,27.6857956 L1092.09974,54.3842584 L1033.24684,38.6630485 L1037.66188,22.8802447 L1044.85727,-4.26908495 Z M1176.18888,16.3907185 L1193.52384,22.2951033 L1180.61131,58.982854 L1156.13023,50.7342079 L1176.18888,16.3907185 Z M928.999274,27.551521 L974.093351,40.3679658 L967.708534,62.0268212 L922.896557,47.4660391 L928.999274,27.551521 Z M544.427091,10.7462596 L582.456355,41.0886136 L543.865355,67.512368 L544.427091,10.7462596 Z M758.336313,-1.99873627 L804.779295,13.0880572 L786.200131,72.2637162 L740.474102,57.0771408 L758.336313,-1.99873627 Z M1297.45235,11.7970504 L1367.15316,36.0847306 L1353.89448,72.8919733 L1285.64481,49.6526202 L1297.45235,11.7970504 Z M808.312317,14.2373981 L839.646332,24.4126993 L821.584557,84.0121239 L789.729458,73.4364628 L808.312317,14.2373981 Z M627.885503,23.6932833 L680.957213,41.3152789 L667.852509,84.6329898 L615.160217,67.1945438 L627.885503,23.6932833 Z M1197.04455,23.4974149 L1273.9038,49.6674027 L1260.25091,85.8143595 L1184.13694,60.1691512 L1197.04455,23.4974149 Z M1106.93523,29.4720167 L1143.93342,49.5824032 L1121.92594,91.2358487 L1086.61296,76.4397781 L1106.93523,29.4720167 Z M449.180851,13.3541425 L447.713686,91.4896153 L410.350867,91.4896153 L411.103544,62.2140665 L449.180851,13.3541425 Z M389.62331,19.0811371 L407.404218,61.8876191 L406.641687,91.4896153 L363.206947,91.4896153 L389.62331,19.0811371 Z M262.637769,40.4665159 L262.637769,91.4896153 L224.622055,91.4896153 L262.637769,40.4665159 Z M238.306973,11.0690113 L264.340222,34.0151779 L219.931069,91.4896153 L178.200015,91.4896153 L238.306973,11.0690113 Z M1032.21945,42.3241859 L1090.57222,57.9123532 L1075.47557,92.8064914 L1022.46422,77.2060054 L1032.21945,42.3241859 Z M843.185514,25.564504 L875.683652,36.1204551 L857.403834,95.9058931 L825.111419,85.1836386 L843.185514,25.564504 Z M684.485308,42.4855618 L735.854564,59.5433579 L722.774498,102.80933 L671.381836,85.8020407 L684.485308,42.4855618 Z M1154.20481,54.088608 L1179.3511,62.5651513 L1163.18149,108.501832 L1132.28726,95.5757501 L1154.20481,54.088608 Z M879.217906,37.2710279 L918.248686,49.9531981 L899.853072,110.001026 L860.934393,97.0786397 L879.217906,37.2710279 Z M1284.47576,53.26941 L1352.60716,76.4681113 L1339.61333,112.554706 L1270.83519,89.384338 L1284.47576,53.26941 Z M739.378963,60.7136407 L785.063109,75.8891292 L771.544495,118.95061 L726.298897,103.974685 L739.378963,60.7136407 Z M1021.4393,80.8671428 L1073.95543,96.3185718 L1060.37892,127.698166 L1011.74812,115.514906 L1021.4393,80.8671428 Z M488.292935,102.259913 L450.719465,128.608523 L451.209752,102.259913 L488.292935,102.259913 Z M788.592436,77.0581802 L820.484491,87.6436963 L807.398265,130.816046 L775.077517,120.120893 L788.592436,77.0581802 Z M613.35059,33.664093 L584.519749,132.232704 L514.271982,101.503541 L613.35059,33.664093 Z M1182.87673,63.7489848 L1258.9057,89.3695555 L1239.60219,140.470263 L1166.62212,109.940664 L1182.87673,63.7489848 Z M606.91773,95.3786499 L620.193665,97.9187795 L605.34216,141.342432 L594.820701,136.738909 L606.91773,95.3786499 Z M824.00889,88.8201385 L856.292681,99.5374655 L843.118992,142.63467 L810.928823,131.983865 L824.00889,88.8201385 Z M773.929408,123.74261 L780.850091,126.033901 L775.915193,144.811396 L767.905531,142.579236 L773.929408,123.74261 Z M1130.50966,98.9437009 L1161.91882,112.082897 L1150.04845,145.820303 L1113.86824,130.441555 L1130.50966,98.9437009 Z M859.824472,100.712676 L898.743151,113.630134 L885.549752,156.68176 L846.647087,143.806185 L859.824472,100.712676 Z M447.503035,102.259913 L446.96101,133.013714 L408.696457,158.954572 L410.071231,102.259913 L447.503035,102.259913 Z M755.840531,117.755689 L770.397618,122.576023 L756.445383,166.199239 L742.729668,161.861801 L755.840531,117.755689 Z M510.577584,104.595551 L582.802512,135.902464 L573.520322,166.531846 L510.577584,145.463059 L510.577584,104.595551 Z M766.745103,146.200953 L774.949402,148.486085 L769.229799,170.24349 L759.990724,167.321479 L766.745103,146.200953 Z M921.785404,51.0976115 L966.636801,65.6682486 L934.981267,173.03985 L889.080311,157.845883 L921.785404,51.0976115 Z M1269.49368,92.9370703 L1338.32479,116.129612 L1317.78324,173.176588 L1249.91053,144.783063 L1269.49368,92.9370703 Z M1165.35945,113.521729 L1238.26314,144.0193 L1225.4738,177.876198 L1153.47677,147.272686 L1165.35945,113.521729 Z M1085.10761,79.9247572 L1120.14711,94.6050313 L1082.81016,165.269172 L1041.64947,180.367052 L1085.10761,79.9247572 Z M741.646848,165.504461 L755.28865,169.818493 L751.716208,180.99531 L738.317086,176.710843 L741.646848,165.504461 Z M784.388041,127.204183 L818.589864,138.523898 L805.380451,181.677769 L772.777603,171.363266 L784.388041,127.204183 Z M623.880672,98.6246449 L639.426955,101.600859 L621.296194,182.280157 L585.06547,170.090737 L593.746505,140.408669 L607.528741,146.439937 L623.880672,98.6246449 Z M758.83276,170.938268 L768.264007,173.921874 L765.268083,185.326588 L755.257853,182.128636 L758.83276,170.938268 Z M614.090948,70.8445943 L666.749979,88.2719534 L636.736536,187.472517 L624.832912,183.468918 L643.90729,98.5839929 L607.991926,91.7113531 L614.090948,70.8445943 Z M958.588951,106.123078 L999.904862,116.470842 L979.922591,187.912297 L938.513057,174.207669 L958.588951,106.123078 Z M1112.09187,133.803347 L1148.78701,149.403833 L1135.05775,188.403816 L1092.74525,170.425808 L1112.09187,133.803347 Z M822.117959,139.691717 L842.009072,146.272402 L828.910527,189.118304 L808.928256,182.797545 L822.117959,139.691717 Z M406.359587,102.259913 L404.925682,162.485131 L361.522972,192.032924 L362.225142,102.259913 L406.359587,102.259913 Z M771.814276,175.045345 L804.27053,185.310573 L800.790479,196.684491 L768.81096,186.462378 L771.814276,175.045345 Z M1010.7232,119.179739 L1058.84523,131.233652 L1036.82297,182.134795 L998.283713,196.274276 L987.541748,202.041922 L1010.7232,119.179739 Z M807.815871,186.432813 L827.796911,192.756036 L824.297149,204.201402 L804.332124,197.814122 L807.815871,186.432813 Z M670.280538,89.4397725 L721.674432,106.447062 L691.5957,205.928493 L640.263399,188.657582 L670.280538,89.4397725 Z M845.53963,147.441453 L884.439831,160.314564 L868.948982,210.888029 L830.085737,197.977961 L845.53963,147.441453 Z M1248.56779,148.329636 L1316.49593,176.749031 L1304.05891,211.280997 L1235.7575,182.245664 L1248.56779,148.329636 Z M725.197599,107.614881 L752.3149,116.590334 L722.645151,216.376039 L695.116403,207.113558 L725.197599,107.614881 Z M1152.21656,150.863606 L1224.12982,181.42893 L1209.5444,220.048263 L1138.48852,189.862358 L1152.21656,150.863606 Z M737.233034,180.353502 L750.557012,184.613331 L738.67433,221.766731 L726.16955,217.561104 L737.233034,180.353502 Z M358.511034,102.259913 L357.792849,195.536382 L317.618888,222.813826 L319.87815,102.259913 L358.511034,102.259913 Z M754.098658,185.746658 L764.297364,189.007435 L754.306845,227.028077 L742.198729,222.95426 L754.098658,185.746658 Z M1090.96765,173.793759 L1133.79877,191.988577 L1120.7729,228.996615 L1073.23355,208.984779 L1086.21876,176.150339 L1090.56113,174.557522 L1090.96765,173.793759 Z M161.513014,102.259913 L163.629378,229.755451 L111.634328,231.560151 L103.677637,102.259913 L161.513014,102.259913 Z M234.921776,193.463133 L234.921776,233.807094 L222.936848,233.807094 L222.936848,193.949724 L234.921776,193.463133 Z M99.9610648,102.259913 L107.931307,232.638043 L66.6080042,235.656141 L60.7331844,128.767435 L91.0681472,102.259913 L99.9610648,102.259913 Z M767.845169,190.141994 L799.678094,200.318527 L788.033164,238.374892 L757.836171,228.216838 L767.845169,190.141994 Z M1033.48952,195.492034 L1028.82933,238.618804 L982.590836,219.74399 L983.300397,217.208788 L1002.39818,206.896748 L1033.48952,195.492034 Z M57.181684,133.93023 L62.9111424,236.736496 L24.422388,238.727209 L19.0883621,165.547576 L57.181684,133.93023 Z M803.218507,201.44939 L823.187228,207.834206 L811.442516,246.25028 L791.557563,239.559958 L803.218507,201.44939 Z M1081.5364,177.867575 L1053.51983,248.694323 L1032.403,240.074882 L1037.37485,194.067985 L1081.5364,177.867575 Z M1319.9304,178.185399 L1422.45211,221.071953 L1390.7473,248.880337 L1388.11355,247.048536 L1387.95833,246.940131 L1307.48599,212.738307 L1319.9304,178.185399 Z M507.836658,156.129879 L571.197002,177.442577 L547.597941,253.395165 L503.675379,238.990831 L507.836658,156.129879 Z M1234.41476,185.799629 L1302.77406,214.854671 L1288.77994,253.710525 L1219.82687,224.416498 L1234.41476,185.799629 Z M316.165273,102.259913 L313.8592,226.339457 L270.514388,255.845367 L269.01889,102.259913 L316.165273,102.259913 Z M1137.22954,193.447119 L1208.20412,223.598532 L1194.45022,260.011574 L1124.20861,230.441607 L1137.22954,193.447119 Z M828.974585,201.614461 L867.835366,214.515905 L853.752552,260.485847 L814.968147,247.437809 L828.974585,201.614461 Z M981.562219,223.422374 L1028.40556,241.384367 L1025.6905,265.346832 L1006.76026,265.346832 L973.648643,250.551993 L981.562219,223.422374 Z M691.816206,217.861682 L766.481482,243.148414 L763.84157,257.991296 L748.693183,267.657832 L735.541668,238.422936 L723.665145,238.422936 L702.563098,250.554457 L698.069211,262.511052 L680.274753,255.903265 L691.816206,217.861682 Z M887.97039,161.482383 L933.909534,176.686205 L904.199133,277.457411 L857.278183,261.672144 L887.97039,161.482383 Z M1426.31897,222.688175 L1452.27954,233.549632 L1433.32588,278.482333 L1393.93047,251.095251 L1426.31897,222.688175 Z M447.078038,148.536591 L449.285561,227.844811 L449.304039,228.061621 C449.33114,228.256258 451.883589,247.754401 439.26794,262.982861 C431.779362,272.018676 420.548342,277.801105 405.781837,280.26609 L408.355227,175.689617 L447.078038,148.536591 Z M1306.20114,216.313213 L1386.18812,250.308082 L1387.82405,251.446336 L1353.76636,281.316881 L1292.21195,255.165371 L1306.20114,216.313213 Z M404.578293,178.33692 L402.059105,280.808116 C398.390577,281.266374 394.528643,281.539851 390.456059,281.617459 L360.834353,282.174267 L361.415799,208.600434 L404.578293,178.33692 Z M357.68814,211.220635 L357.1301,282.243252 L316.5373,283.009479 L317.354034,239.494668 L357.68814,211.220635 Z M313.595579,242.132116 L312.826888,283.077233 L270.764459,283.871793 L270.648663,272.242877 L313.595579,242.132116 Z M266.965352,274.828587 L267.05651,283.939546 L253.608113,284.193313 L266.965352,274.828587 Z M733.217116,242.268855 L745.638129,269.926949 L728.119611,284.501282 L713.904986,286.010331 L700.861876,266.211609 L705.470326,253.333571 L724.539777,242.268855 L733.217116,242.268855 Z M765.366633,261.550188 L774.440637,270.287889 L773.187818,279.546674 L749.266005,287.380178 L746.642108,275.177208 L749.061514,273.341711 L765.366633,261.550188 Z M1107.9811,264.955095 L1044.213,289.710888 L1029.27527,269.039998 L1031.978,244.003337 L1055.56967,253.631685 L1071.83784,212.509178 L1119.51146,232.577681 L1108.10059,265.001906 L1107.9811,264.955095 Z M265.310941,102.259913 L266.071009,259.316796 L222.936848,290.793708 L222.936848,238.422936 L240.914856,238.422936 L240.914856,189.529751 L222.936848,190.141994 L222.936848,102.259913 L265.310941,102.259913 Z M503.479511,242.926677 L546.470774,257.023041 L535.704172,291.663413 L501.400103,284.305414 L503.479511,242.926677 Z M937.438861,177.856488 L978.89767,191.573434 L962.715738,249.428522 L949.301833,292.6329 L907.725996,278.643709 L937.438861,177.856488 Z M1218.48659,227.965535 L1287.49632,257.282967 L1274.38916,293.667676 L1204.74378,264.344084 L1218.48659,227.965535 Z M1122.94593,234.025136 L1193.1087,263.560611 L1181.29624,294.828104 L1111.54984,266.40871 L1122.94593,234.025136 Z M770.039142,244.345799 L808.112753,257.152388 L796.308911,295.76433 L776.84526,280.171236 L778.374019,268.85768 L767.538432,258.421221 L770.039142,244.345799 Z M743.377635,277.65328 L745.719433,288.535678 L720.894654,296.664832 L720.770235,296.435703 L716.262798,289.59386 L729.512863,288.183361 L743.377635,277.65328 Z M679.173455,259.866213 L696.705524,266.695737 L703.591715,277.145747 L695.793935,307.777592 L668.176492,296.239835 L679.173455,259.866213 Z M1026.41731,270.732597 L1040.6036,290.741969 L996.119305,308.197661 L959.872567,295.909692 L972.538722,255.012619 L1005.93613,270.732597 L1026.41731,270.732597 Z M581.771432,181.001469 L633.436339,198.383249 L599.081763,311.946262 L546.55331,294.342745 L581.771432,181.001469 Z M1290.9234,258.739045 L1350.60167,284.093531 L1318.51498,312.238217 L1277.82486,295.110204 L1290.9234,258.739045 Z M218.442962,102.259913 L218.442962,293.395432 L175.169599,322.778154 L172.641788,102.259913 L218.442962,102.259913 Z M1040.49889,303.367473 L1031.05286,326.48487 L1006.53359,316.558408 L1040.49889,303.367473 Z M1203.40473,267.894353 L1273.10554,297.236423 L1262.1135,327.759863 L1191.6403,299.042354 L1203.40473,267.894353 Z M746.914353,292.146309 L755.908284,309.562581 L751.442731,328.428772 L737.411656,328.428772 L738.033754,327.727834 L722.711672,300.072203 L746.914353,292.146309 Z M853.941029,272.571788 L945.922795,303.518994 L940.745218,320.198604 C939.465298,321.657146 936.657851,324.852634 932.776208,329.142028 L846.220858,297.769826 L853.941029,272.571788 Z M636.963202,199.569546 L688.297966,216.845384 L653.985273,330.349268 L602.606162,313.130096 L636.963202,199.569546 Z M1043.39504,306.120717 L1052.67476,335.242282 L1034.50335,327.88305 L1043.39504,306.120717 Z M1276.54248,298.681414 L1315.3429,315.018563 L1288.54095,338.527697 L1265.56276,329.16297 L1276.54248,298.681414 Z M667.072731,299.892349 L694.846622,311.495395 L687.211451,341.485433 L657.510904,331.529405 L667.072731,299.892349 Z M135.947878,352.628989 L119.053921,353.796808 L111.870848,238.020112 L163.694667,235.337085 L165.321977,332.263604 L135.966356,352.847031 L135.947878,352.628989 Z M706.359741,281.340287 L717.610471,298.416561 L733.972257,329.079203 L725.016513,354.154052 L690.743241,342.668034 L706.359741,281.340287 Z M108.170291,238.209821 L115.352132,354.05427 L73.3180364,356.960267 L66.8235826,240.350823 L108.170291,238.209821 Z M63.1205614,240.5393 L69.6187108,357.214034 L33.2389293,359.73199 L24.6970965,242.528781 L63.1205614,240.5393 Z M845.106009,301.407557 L930.01434,332.185996 C922.481414,340.446961 912.096694,351.51414 901.464367,361.893933 L833.250429,340.095876 L845.106009,301.407557 Z M1187.64779,309.70671 L1252.25356,336.028219 L1224.77163,362.54806 L1176.40692,340.042905 L1187.64779,309.70671 Z M130.27139,356.837079 L119.700656,364.252977 L119.287978,357.599611 L130.27139,356.837079 Z M774.494839,282.575859 L795.12015,299.368801 L773.068326,370.264535 L727.704468,355.336654 L734.548775,333.809609 L734.548775,329.966154 L754.396772,329.966154 L759.820725,307.940199 L750.441216,289.904293 L774.494839,282.575859 Z M1088.07027,298.938876 L1086.53905,302.411537 L1164.93076,338.884941 L1151.45279,375.243781 L1057.15387,337.054372 L1045.7664,301.322558 L1107.88501,277.20734 L1177.30496,305.491228 L1166.25133,335.31989 L1088.07027,298.938876 Z M1391.00846,253.663714 L1431.83038,282.038761 L1390.48614,380.064114 L1292.44231,340.113122 L1391.00846,253.663714 Z M811.635921,258.336222 L850.415398,271.385491 L815.744229,384.561696 L777.015259,371.580179 L811.635921,258.336222 Z M1175.08142,343.61042 L1221.84592,365.370289 L1193.82935,392.403822 L1161.80548,379.434625 L1175.08142,343.61042 Z M1256.06006,337.580384 L1298.63002,354.927671 L1252.20675,394.344028 L1227.69364,364.952683 L1256.06006,337.580384 Z M115.58742,357.853378 L116.136837,366.749991 L75.4504149,395.277791 L73.5299192,360.76307 L115.58742,357.853378 Z M147.59404,358.525982 L124.530845,396.469015 L121.562022,376.782394 L147.59404,358.525982 Z M1001.3708,318.560208 L1029.61896,330.000646 L1001.83644,397.976832 L937.066834,369.654756 L956.493529,307.075422 L994.521561,319.867229 L996.382927,320.496718 L1001.3708,318.560208 Z M832.139276,343.732376 L898.363733,364.892321 C889.557047,373.32698 880.760216,381.057006 873.45026,386.057194 C869.27543,388.917611 863.962345,393.325266 857.977889,398.718422 L819.26986,385.745529 L832.139276,343.732376 Z M708.290092,374.109222 L703.381064,384.349813 C700.496008,385.948789 686.017762,393.896857 673.203781,399.450157 L689.703537,346.324244 L724.107388,357.857073 C723.166235,365.354275 722.064937,373.172996 721.453926,376.285948 L708.290092,374.109222 Z M727.698309,359.058153 L772.378475,374.031614 L764.605334,399.463707 L724.964775,377.480869 C725.484627,375.156317 726.305056,370.161057 727.698309,359.058153 Z M656.407143,335.165905 L686.18037,345.145338 L668.736996,401.311522 C666.847298,402.05804 665.036439,402.729413 663.353695,403.282525 C661.824936,403.785131 660.340525,404.0081 658.91278,404.0081 C648.860666,404.009332 641.528537,392.934761 639.805141,390.082967 L656.407143,335.165905 Z M710.403992,378.314849 L718.440756,379.646508 C713.937015,383.312573 705.402573,390.089126 699.56471,394.696345 L698.897033,395.226052 L698.176385,406.550694 C696.041542,407.241777 693.448442,407.786266 691.330846,407.786266 C689.802087,407.786266 688.522167,407.501703 687.845867,406.783519 C685.731967,404.539039 684.266033,400.928409 683.558936,398.883494 C694.846622,393.470628 705.009605,387.77443 705.673586,387.403635 L706.187279,387.116608 L710.403992,378.314849 Z M545.423679,297.968158 L597.980465,315.582762 L568.664264,412.48218 L515.20944,395.201414 L545.423679,297.968158 Z M401.966715,284.642948 L398.772458,414.694631 L396.819934,417.994828 L359.832837,409.907558 L360.808484,285.985693 L390.526276,285.42519 C394.523716,285.348813 398.331447,285.079032 401.966715,284.642948 Z M69.8305936,361.018069 L71.8779726,397.78466 L37.7611485,421.707704 L33.5197972,363.528633 L69.8305936,361.018069 Z M462.150049,275.917565 L421.080513,417.924611 L418.066111,422.652554 L400.642447,418.8362 L402.188452,416.240636 L402.44961,415.807015 L405.686982,284.126792 C421.697683,281.578039 433.93145,275.320105 442.124662,265.407194 C455.435089,249.301638 453.236189,229.50538 452.992278,227.631696 L450.011136,145.987839 L499.341637,110.910151 L499.341637,153.742502 L503.48567,154.899234 L497.373098,283.517013 L462.150049,275.917565 Z M357.096839,286.054679 L356.124888,410.161324 L313.807461,427.922522 L316.463388,286.819674 L357.096839,286.054679 Z M601.506096,316.767827 L652.885207,333.986999 L623.767339,430.295117 L572.203446,413.625362 L601.506096,316.767827 Z M1033.06575,331.396363 L1054.17642,339.944355 L1084.14059,433.966109 L1005.24874,399.468635 L1033.06575,331.396363 Z M723.022105,380.730559 L763.474471,403.165497 L753.899094,434.47241 L701.325061,415.490423 L702.489185,397.190895 C709.322405,391.795275 719.555604,383.679672 723.022105,380.730559 Z M464.909452,280.365872 L497.53201,287.359236 L491.49951,407.507862 L474.357946,434.955306 L422.011812,423.506244 L424.410275,419.7946 L424.565492,419.555616 L464.909452,280.365872 Z M501.209162,288.146405 L534.574541,295.303608 L490.06191,438.55485 L478.222344,435.825011 L494.887171,409.136403 L495.153256,408.713869 L501.209162,288.146405 Z M935.934739,373.298647 L1000.40254,401.488913 L984.619737,440.111942 L922.836195,415.500278 L935.934739,373.298647 Z M1274.33126,380.498966 L1250.10271,441.553237 L1219.07543,427.419916 L1274.33126,380.498966 Z M1302.56217,356.52911 L1386.06001,390.552312 L1364.42579,441.847656 L1270.11824,401.210509 L1280.36869,375.376823 L1302.56217,356.52911 Z M312.754207,286.891123 L310.068716,429.490701 L272.347421,445.32278 L270.798952,287.678292 L312.754207,286.891123 Z M668.005262,405.660047 C667.460772,411.982038 666.631719,425.611521 669.126269,429.881206 C670.827491,432.801986 671.325169,440.807952 671.411401,445.69727 L627.302825,431.440762 L638.388483,394.769026 C641.825419,399.653416 649.042984,407.852788 658.752636,407.852788 C660.577045,407.852788 662.49015,407.563297 664.483326,406.907938 C665.610493,406.537143 666.793095,406.117073 668.005262,405.660047 Z M697.918923,410.591249 L697.077551,423.828996 L685.49791,450.25275 L675.1329,446.900814 C675.119349,442.90707 674.838481,432.263655 672.306975,427.923754 C670.566333,424.945076 671.097272,412.075661 671.872122,404.136216 C674.573628,403.020135 677.382307,401.778404 680.176203,400.480006 C681.031125,402.87847 682.694159,406.789678 685.178854,409.433285 C686.706381,411.053203 689.033396,411.58291 691.424469,411.58291 C693.756411,411.58291 696.148716,411.079073 697.918923,410.591249 Z M514.082273,398.830523 L567.564198,416.121144 L556.170571,453.791932 L500.959091,441.065414 L514.082273,398.830523 Z M818.157476,389.37587 L854.766386,401.645361 C838.596773,416.557228 818.384141,437.533624 802.160325,454.848882 L800.572436,446.777626 L818.157476,389.37587 Z M35.1815988,437.34761 L36.5292718,455.844238 L10.1486332,454.896925 L35.1815988,437.34761 Z M118.164506,379.159916 L121.525066,401.416232 L87.3380246,457.671112 L40.2544669,455.979745 L38.7170848,434.870306 L118.164506,379.159916 Z M122.398466,407.182647 L130.255376,459.217117 L91.6163323,457.82756 L122.398466,407.182647 Z M360.480804,413.943186 L394.781178,421.444083 L371.716751,460.445298 L360.480804,413.943186 Z M165.556033,345.934971 L167.481456,460.556167 L134.028614,459.352623 L125.401782,402.231734 L155.214429,353.183333 L165.556033,345.934971 Z M218.442962,307.230638 L218.442962,462.468039 L177.463353,460.955295 L174.818514,338.222191 L218.442962,307.230638 Z M266.707889,287.749741 L268.457154,446.872481 L226.754434,464.414404 L226.000525,463.766437 L223.836118,462.608473 L222.936848,462.601082 L222.936848,304.63261 L247.262716,288.109449 L266.707889,287.749741 Z M701.074991,419.439819 L752.790405,438.10891 L743.357925,468.958797 L689.059266,451.403323 L700.737456,424.761527 L701.074991,419.439819 Z M921.706564,419.136778 L983.182137,443.625254 L972.363796,470.094588 L913.093282,446.890959 L921.706564,419.136778 Z M911.964883,450.526227 L970.92866,473.610364 L968.376211,479.854746 L910.103518,456.509452 L911.964883,450.526227 Z M775.904106,375.216679 L814.629381,388.192036 L796.747459,446.564512 L799.030127,458.193427 C790.419309,467.416488 783.17341,475.344846 778.620394,480.357352 L746.897107,470.101979 L775.904106,375.216679 Z M398.623401,422.282991 L415.905399,426.064852 L377.690121,485.177685 L372.976961,465.653672 L398.623401,422.282991 Z M1268.71883,404.73614 L1362.95246,445.341258 L1346.10778,485.281163 L1253.49406,443.099243 L1268.71883,404.73614 Z M268.693674,450.969702 L269.159324,498.634706 L230.202456,467.123301 L268.693674,450.969702 Z M1373.2103,449.761231 L1409.76131,465.512006 L1392.36722,506.34995 L1356.27692,489.911787 L1373.2103,449.761231 Z M1224.98967,367.56303 L1249.34757,396.772057 L1112.21998,513.209039 L1160.48491,382.99598 L1190.83835,395.288877 L1167.97472,417.35302 L1170.51116,420.128438 L1224.98967,367.56303 Z M1002.83057,402.979483 L1082.86436,438.408256 L1082.86436,514.123091 L974.358204,471.449652 L1002.83057,402.979483 Z M499.825764,444.708073 L555.063114,457.438287 L537.349959,515.994312 L475.021928,524.531217 L499.825764,444.708073 Z M1413.181,466.982867 L1451.70425,483.582405 L1433.96276,525.294981 L1395.75857,507.895955 L1413.181,466.982867 Z M972.914445,474.96666 L1082.86436,518.200603 L1082.86436,526.499756 L970.847356,481.23568 L972.914445,474.96666 Z M356.685392,414.041736 L369.004159,465.030343 L332.161192,527.331273 L314.014417,431.949527 L356.685392,414.041736 Z M1252.09465,446.626105 L1290.96529,464.328173 L1264.05617,528.729453 L1227.48299,508.64124 L1252.09465,446.626105 Z M1058.35987,341.756445 L1149.98809,378.805136 L1094.48219,527.960762 L1092.21554,529.696476 L1087.35948,527.986631 L1087.35948,437.368552 L1088.47433,437.18993 L1058.35987,341.756445 Z M40.9960566,467.441125 L80.5380655,468.862711 L43.4351724,529.912054 L40.9960566,467.441125 Z M571.10338,417.263093 L622.667273,433.93408 L593.099769,531.746319 L543.654704,515.31678 L543.254344,515.183737 L541.399138,515.437504 L571.10338,417.263093 Z M476.088733,439.236077 L488.928584,442.195045 L462.825117,526.199178 L417.936764,532.348706 L476.088733,439.236077 Z M419.806752,426.917311 L472.218177,438.378691 L413.123821,533.006529 L345.210461,542.309661 L419.806752,426.917311 Z M310.51096,433.419156 L329.299542,532.160229 L323.25226,542.390965 L272.899301,501.658963 L272.386841,449.420002 L310.51096,433.419156 Z M370.263137,470.235022 L374.911008,489.476935 L340.322375,542.97857 L326.346734,544.892906 L326.18659,544.764791 L370.263137,470.235022 Z M626.203991,435.077262 L670.933432,449.538262 L640.098328,547.366515 L596.624169,532.921529 L626.203991,435.077262 Z M908.977582,460.149647 L966.941075,483.365595 L940.626957,547.759483 L888.794515,525.161938 L908.977582,460.149647 Z M1162.46084,475.493903 L1161.7944,498.781299 L1140.08627,548.63042 L1104.39141,534.334492 L1109.54928,520.42414 L1162.46084,475.493903 Z M273.042199,516.317064 L310.971681,547.001879 L273.389588,552.146196 L273.042199,516.317064 Z M1306.30708,507.803564 L1304.66745,511.22079 L1329.79158,523.963322 L1315.79992,557.145152 L1267.34036,530.531688 L1294.35172,465.87541 L1344.63446,488.774765 L1331.2686,520.466024 L1306.30708,507.803564 Z M222.936848,477.025126 L267.880636,513.29527 L267.880636,552.656193 L222.936848,558.847605 L222.936848,477.025126 Z M674.472614,450.681443 L705.253516,460.631311 L679.036717,560.307379 L643.623959,548.541725 L674.472614,450.681443 Z M557.5552,545.35486 L548.067286,560.999694 L529.655658,554.260097 L540.189435,519.447262 L542.910651,519.074004 L591.999704,535.386514 L586.285028,554.276111 L557.5552,545.35486 Z M1215.88117,430.133741 L1248.70206,445.082564 L1223.51881,508.537763 L1180.19371,564.699019 L1143.54784,550.019977 L1165.33235,499.98977 L1165.47894,499.647309 L1166.26241,472.263922 L1215.88117,430.133741 Z M178.227116,472.392038 L219.153755,473.897391 L218.442962,474.02181 L218.442962,559.35637 L179.208922,564.887497 L178.227116,472.392038 Z M708.798857,461.778188 L775.821571,483.448131 C774.604476,484.792108 773.819771,485.667972 773.558613,485.956231 L700.334633,567.383279 L682.567276,561.477662 L708.798857,461.778188 Z M130.27139,470.6477 L167.672397,471.99291 L169.260286,566.410096 L132.578695,571.432457 L130.27139,470.6477 Z M88.1781645,469.134956 L126.55605,470.515889 L128.881833,571.93999 L88.0204843,577.537638 L88.1781645,469.134956 Z M1354.80483,493.407853 L1390.88404,509.841088 L1360.46284,581.266529 L1325.65986,562.512438 L1354.80483,493.407853 Z M84.4640564,469.593214 L84.3076081,578.045171 L45.5207396,583.357023 L43.7000259,536.672594 L84.4640564,469.593214 Z M970.397721,484.751456 L1071.79349,525.362734 L1025.9221,584.944912 L944.040488,549.24759 L970.397721,484.751456 Z M410.493765,537.212155 L379.063664,587.535549 L330.408231,548.179553 L410.493765,537.212155 Z M40.2101193,542.408211 L41.8288052,583.863325 L12.5852852,587.869387 L40.2101193,542.408211 Z M536.140257,520.00407 L514.514662,591.47509 L460.208611,572.199916 L473.775269,528.543439 L536.140257,520.00407 Z M898.008953,455.004099 L781.231973,593.014936 L776.151713,590.712559 L729.669312,551.598011 L780.364732,495.228567 L824.86874,539.912429 L827.46184,537.189982 L782.885151,492.430975 C792.22524,482.088139 856.248334,411.568128 879.621962,395.564818 C895.688097,384.567855 917.699269,362.104584 932.786063,345.840117 L898.704963,455.626196 L898.008953,455.004099 Z M1225.62778,511.940206 L1282.45795,543.149801 L1260.05873,596.682233 L1224.05221,582.264349 L1248.76982,525.52411 L1245.38585,523.96825 L1220.5931,580.879719 L1183.8068,566.145243 L1225.62778,511.940206 Z M681.601484,565.158509 L697.566606,570.461738 L673.027623,597.752734 L681.601484,565.158509 Z M824.510264,557.211673 L802.160325,602.497923 L784.782241,594.622535 L896.567657,462.506227 L868.283769,553.630608 L826.056269,556.173201 L826.164674,558.069059 L824.510264,557.211673 Z M1394.27416,511.387093 L1432.47958,528.787351 L1400.8918,603.055963 L1363.75318,583.042895 L1394.27416,511.387093 Z M1092.17735,535.172168 L1066.83395,603.548714 L1054.85395,598.061935 L1077.62642,547.522963 L1092.17735,535.172168 Z M1285.7372,544.9545 L1314.31921,560.651073 L1293.47216,610.070269 L1263.51415,598.069326 L1285.7372,544.9545 Z M559.200988,549.843819 L585.186194,557.910147 L569.176725,610.879612 L518.020583,592.72175 L528.556824,557.90522 L549.636697,565.616767 L559.200988,549.843819 Z M1103.0733,537.894615 L1138.57352,552.110472 L1107.97124,622.395195 L1077.00925,608.208903 L1103.0733,537.894615 Z M867.07653,557.515947 L846.829405,622.748743 L805.551682,604.037769 L827.336189,559.908251 L867.07653,557.515947 Z M315.033179,550.288526 L317.435338,552.228732 L274.1127,625.481046 L273.43024,555.983492 L315.033179,550.288526 Z M595.527798,536.559261 L638.955146,550.989464 L614.954493,627.129297 L572.681414,612.125039 L595.527798,536.559261 Z M461.575994,530.212632 L433.683843,619.974557 L430.543789,629.176676 L381.988139,589.90568 L415.312866,536.55187 L461.575994,530.212632 Z M1324.18161,566.013432 L1358.9735,584.760131 L1337.64602,634.838381 L1303.53166,614.973138 L1324.18161,566.013432 Z M642.480777,552.162211 L678.069694,563.984531 L667.593815,603.792625 L638.952682,635.64526 L618.457951,628.374724 L642.480777,552.162211 Z M942.602888,552.759671 L1023.53718,588.04185 L984.330246,638.966399 L919.489186,609.320056 L942.602888,552.759671 Z M1142.0314,553.497565 L1178.15249,567.96842 L1147.67586,640.583853 L1111.3589,623.947359 L1142.0314,553.497565 Z M887.663652,528.811989 L939.191821,551.272796 L900.111766,646.902149 L857.062604,627.387991 L887.663652,528.811989 Z M41.9766304,587.685838 L44.3319786,647.983737 L-9.69813167,624.543587 L10.0353005,592.062696 L41.9766304,587.685838 Z M320.372132,554.600095 L373.032396,597.198389 L337.971954,653.328849 L285.592558,613.403727 L320.372132,554.600095 Z M1362.26631,586.531569 L1399.40985,606.543406 L1377.50586,658.049401 L1340.88832,636.725616 L1362.26631,586.531569 Z M1181.60667,569.350586 L1219.07543,584.359771 L1186.77809,658.496572 L1151.05982,642.136018 L1181.60667,569.350586 Z M84.3051443,581.89109 L84.1844204,665.270662 L48.1052168,649.619669 L45.6685648,587.178305 L84.3051443,581.89109 Z M128.968064,575.772359 L131.109066,669.172015 L89.5110551,667.581662 L87.8899054,666.878261 L88.013093,581.378629 L128.968064,575.772359 Z M169.326808,570.243696 L171.016942,670.692151 L134.821942,669.313681 L132.664926,575.264825 L169.326808,570.243696 Z M218.442962,563.199825 L218.442962,672.590473 L180.417393,671.11838 L179.270516,568.72356 L218.442962,563.199825 Z M918.055281,612.832136 L981.957651,642.049787 L958.012433,673.147281 L903.503122,648.438299 L918.055281,612.832136 Z M268.964687,556.489793 L270.458954,631.650284 L244.927078,673.537786 L222.936848,672.730907 L222.936848,562.69106 L268.964687,556.489793 Z M459.080212,575.830257 L513.414596,595.114054 L488.842352,676.334146 L439.777937,636.648008 L444.236098,623.601202 L459.080212,575.830257 Z M1222.537,585.7444 L1258.59157,600.186922 L1226.5677,676.724651 L1190.16698,660.048737 L1222.537,585.7444 Z M1402.55976,608.65361 C1407.24582,612.435472 1420.0598,623.731781 1429.65982,641.107401 L1412.93463,678.680871 L1380.75062,659.937868 L1402.55976,608.65361 Z M775.172372,592.347259 L774.422159,594.091596 L778.684452,596.021947 L706.967057,680.778757 L654.256286,635.459247 L727.148892,554.404226 L773.997161,593.820584 L775.172372,592.347259 Z M435.891366,648.04533 L478.333212,682.377733 L422.592025,686.993575 L435.891366,648.04533 Z M1075.40658,526.811421 L1089.53744,532.46943 L1073.45406,546.129711 L1073.91232,546.704997 L1050.76166,598.076717 L991.976504,688.544507 L961.517122,674.737634 L1075.40658,526.811421 Z M392.666046,613.082207 L426.651059,640.573998 L410.460504,687.997554 L400.334478,688.83523 L392.666046,613.082207 Z M1262.05068,601.572783 L1292.00253,613.567566 L1259.07939,691.61804 L1229.95413,678.276815 L1262.05068,601.572783 Z M375.956871,599.567288 L388.602085,609.798024 L396.64008,689.140736 L347.70378,693.192378 L343.140908,657.267159 L340.959255,655.604126 L375.956871,599.567288 Z M1431.85995,645.322883 C1438.48991,658.782367 1442.89264,675.455818 1440.57917,694.77534 L1416.17323,680.565642 L1431.85995,645.322883 Z M283.658512,616.673128 L335.967691,656.540352 L311.477983,695.757145 L249.493645,674.437056 L283.658512,616.673128 Z M338.954992,658.815628 L339.668248,659.361349 L344.004454,693.496652 L315.838826,695.831058 L338.954992,658.815628 Z M782.235952,597.630778 L800.478814,605.901598 L756.024081,695.966564 L749.189629,692.902887 C746.922976,691.646373 732.197122,683.842434 716.490695,683.842434 C713.90129,683.842434 711.287248,684.054317 708.69538,684.543372 L782.235952,597.630778 Z M1053.05911,601.40648 L1065.51338,607.113765 L1029.09418,705.369479 L995.420831,690.104063 L1053.05911,601.40648 Z M1302.05095,618.490146 L1336.15052,638.346765 L1304.8547,711.822049 L1269.27687,696.191998 L1302.05095,618.490146 Z M1109.84616,625.570973 L1146.205,642.846811 L1115.57069,714.60609 L1070.80922,714.60609 L1109.84616,625.570973 Z M516.918053,596.361945 L568.074195,614.517343 L537.490393,715.686446 L491.962696,678.859493 L516.918053,596.361945 Z M1075.69115,611.773954 L1106.45603,625.874014 L1066.83888,716.870279 L1040.68121,706.224401 L1075.69115,611.773954 Z M803.872634,607.441444 L845.692383,626.398794 L845.309269,627.642989 L812.426785,721.249601 L759.425292,697.492859 L803.872634,607.441444 Z M1149.59143,645.630852 L1185.26781,661.972928 L1156.24726,728.585426 L1119.21088,718.029475 L1149.59143,645.630852 Z M571.58258,615.764003 L636.205598,638.702778 L564.732114,718.188387 L554.019714,729.057235 L540.611969,718.211793 L571.58258,615.764003 Z M1339.39036,640.232769 L1376.01282,661.559017 L1346.80379,730.245996 L1308.26453,713.317547 L1339.39036,640.232769 Z M855.93051,631.035577 L898.675398,650.415461 L860.854321,742.960195 L822.645202,725.829718 L855.809786,631.418691 L855.93051,631.035577 Z M1379.25635,663.44502 L1411.38739,682.158459 L1382.92242,746.110104 L1350.21363,731.743958 L1379.25635,663.44502 Z M651.74449,638.25807 L704.531636,683.655189 L702.18368,686.428143 C698.177617,688.030815 694.339089,690.452684 690.886139,693.995562 C674.824931,710.489158 641.983099,748.83871 632.575257,759.882485 L564.592912,734.396189 L572.645689,726.221455 L651.74449,638.25807 Z M1414.62599,684.044462 L1439.9891,698.815895 C1438.76462,706.194836 1436.56325,713.944572 1433.12139,722.028147 C1427.14063,736.085091 1421.57132,749.053057 1416.47258,760.843349 L1386.33102,747.605602 L1414.62599,684.044462 Z M902.069218,651.951611 L956.14614,676.465957 L917.496009,768.349173 L864.2543,744.480331 L902.069218,651.951611 Z M47.2737001,653.391675 L83.5253664,669.119044 L36.1141294,771.199736 L3.85127971,756.574896 L47.2737001,653.391675 Z M490.918064,692.557962 L546.049472,737.153128 L504.439143,779.400339 L494.522535,769.556412 L490.918064,692.557962 Z M482.622607,685.847929 L487.058595,689.435154 L490.775167,768.731055 L402.817941,780.16287 L410.987747,720.97982 L421.248048,690.924493 L482.622607,685.847929 Z M1267.80231,699.688064 L1303.36905,715.309492 L1274.0393,784.18002 L1239.07618,767.799756 L1267.80231,699.688064 Z M409.114063,691.930936 L400.127523,718.259836 L391.379967,781.647282 L359.468202,785.793778 L348.18298,696.973008 L409.114063,691.930936 Z M86.945056,670.603456 L88.382656,671.224322 L88.693089,671.359828 L130.164217,672.944021 L77.83656,790.11397 L39.5054858,772.737118 L86.945056,670.603456 Z M344.484886,697.282209 L355.787354,786.275442 L319.065111,791.044037 L307.059241,709.885539 L313.322102,699.860526 L344.484886,697.282209 Z M182.215933,674.929807 L243.482087,677.267908 L243.2739,677.61653 L243.139625,677.849354 L212.703648,793.113589 C201.956756,756.207797 191.19385,718.412589 182.417961,687.025603 L182.215933,674.929807 Z M1188.65424,663.523861 L1225.103,680.221949 L1177.67206,793.576775 L1160.26564,729.733535 L1159.86035,729.617739 L1188.65424,663.523861 Z M716.565839,695.286568 C730.146048,695.286568 743.842052,702.919276 744.037921,703.030145 L744.269514,703.161956 L750.984473,706.172662 L706.308003,796.682336 L640.886729,767.4807 C650.082688,756.694388 683.10191,718.150199 698.754135,702.077904 C703.691497,697.011196 710.115733,695.286568 716.565839,695.286568 Z M959.53996,678.005803 L1027.6652,708.885255 L987.071171,799.537826 L920.898453,769.874236 L959.53996,678.005803 Z M1306.78012,716.808685 L1345.31692,733.737135 L1315.58681,803.646135 L1277.40972,785.76175 L1306.78012,716.808685 Z M247.52141,677.77421 L309.409662,699.065966 L303.560711,708.430692 L303.186221,709.035544 L315.386727,791.524469 L216.00631,804.437 C215.578849,802.972298 215.148924,801.505133 214.718999,800.034273 L246.579025,679.365794 L247.52141,677.77421 Z M134.175207,673.096774 L171.084696,674.506041 L171.283028,686.670823 L116.917847,807.83082 L81.2340758,791.653816 L134.175207,673.096774 Z M1036.38196,716.769265 L1062.42507,727.362173 L1025.99478,817.127793 L995.525541,807.995891 L1036.38196,716.769265 Z M1348.72922,735.233865 L1381.37641,749.575373 L1350.10769,819.821907 L1318.95722,805.227865 L1348.72922,735.233865 Z M754.38938,707.698958 L808.643692,732.018667 L775.135415,827.411499 L709.715373,798.206168 L754.38938,707.698958 Z M175.672204,704.205355 C181.593835,725.217476 193.137751,765.911289 205.441736,808.036543 L166.876605,830.475177 L127.100539,812.441734 L175.672204,704.205355 Z M1384.78871,751.073335 L1414.96599,764.327096 C1397.94515,803.631352 1386.54906,828.9612 1383.58763,835.508625 L1353.48303,821.403637 L1384.78871,751.073335 Z M818.862109,736.601248 L856.548912,753.493972 L818.443271,846.745804 L785.356296,831.976834 L818.862109,736.601248 Z M1228.49313,681.775345 L1257.60607,695.116569 L1192.75269,848.885573 L1179.26487,799.41587 L1228.49313,681.775345 Z M1114.76258,728.619919 L1151.24584,739.020654 L1151.45279,739.780721 L1103.58699,853.092432 L1068.73597,838.298825 L1114.76258,728.619919 Z M835.445633,814.984328 L849.43236,820.530236 L836.805625,854.943943 L821.843251,848.264708 L835.445633,814.984328 Z M555.842892,743.276787 L571.928737,749.305592 L519.107098,860.084564 L466.646399,833.835736 L555.842892,743.276787 Z M390.841636,785.557258 L381.469519,853.468155 L329.337731,860.512025 L319.620687,794.811116 L390.841636,785.557258 Z M315.943536,795.291547 L325.661811,861.010935 L284.841114,866.529743 L273.665529,800.784485 L315.943536,795.291547 Z M492.061246,772.403279 L501.802927,782.078438 L456.495735,828.077945 L390.477001,869.637768 L402.280843,784.069151 L492.061246,772.403279 Z M1170.05413,810.766382 L1144.43972,869.92849 L1107.01284,854.289816 L1153.04068,745.595179 L1170.67869,809.785808 L1170.05167,810.766382 L1170.05413,810.766382 Z M859.948891,755.017804 L913.085891,778.837371 L874.076053,871.582901 L840.210532,856.461615 L854.197259,818.338728 L836.880769,811.46732 L859.948891,755.017804 Z M269.982217,801.263685 L281.161498,867.027421 L236.465317,873.06608 C230.454991,853.399169 223.832422,831.146549 217.091593,808.140021 L269.982217,801.263685 Z M1237.59916,771.298286 L1272.5512,787.673622 L1233.65715,878.987711 L1199.03033,862.744186 L1237.59916,771.298286 Z M37.9052781,776.177749 L54.395179,783.654009 L12.45717,882.130229 L-6.9732205,872.798763 L37.9052781,776.177749 Z M452.848148,843.774517 L454.548138,884.516374 L411.778612,869.626681 L452.848148,843.774517 Z M206.535642,811.777753 C207.179914,813.977884 207.824185,816.181712 208.472152,818.384307 C215.095953,840.949824 220.700992,859.712537 225.468354,875.331501 L192.083265,885.105211 L175.387641,829.902354 L206.535642,811.777753 Z M575.430963,750.618772 L629.871288,771.029737 L570.794179,885.947815 L522.441788,861.750061 L575.430963,750.618772 Z M1172.25057,816.058524 L1185.73715,865.522068 L1184.48557,868.482267 L1187.83873,870.054142 L1181.07819,885.99093 L1147.86557,871.89087 L1172.25057,816.058524 Z M935.090904,788.699775 L948.321259,794.634957 L908.486064,886.944403 L894.321946,880.622412 L900.950674,861.754989 L914.830228,851.914758 L912.723719,848.774704 L897.863591,859.314641 L890.918271,879.102276 L877.476032,873.100573 L916.485871,780.362434 L931.690924,787.178408 L919.962227,815.753019 L923.383148,817.233734 L935.090904,788.699775 Z M57.7865355,785.191391 L76.2893229,793.576775 L32.4554557,891.731475 L15.8164977,883.742755 L57.7865355,785.191391 Z M1275.92407,789.251656 L1314.10116,807.140969 L1275.24901,898.499406 L1237.03126,880.570673 L1275.92407,789.251656 Z M463.854966,836.676444 L517.476093,863.503022 L499.926778,900.311496 L458.316449,885.825859 L456.462474,841.499241 L462.857146,837.473468 L463.407795,837.132238 L463.854966,836.676444 Z M951.715079,796.155093 L982.420837,809.920083 L941.354997,901.619749 L911.887275,888.46577 L951.715079,796.155093 Z M380.929957,857.383059 L378.133597,877.620328 L336.347109,907.901088 L329.897003,864.280336 L380.929957,857.383059 Z M79.684375,795.114157 L115.363219,811.28993 L70.9762389,910.220712 L35.8135515,893.344002 L79.684375,795.114157 Z M1317.47527,808.720235 L1348.56784,823.288408 L1308.2054,913.956994 L1278.62312,900.079904 L1317.47527,808.720235 Z M520.814479,865.174678 L569.060928,889.31207 L553.773339,919.056963 L503.468424,901.543373 L520.814479,865.174678 Z M783.695726,835.385437 L817.009367,850.257884 L784.607315,929.540234 L744.710526,912.651205 L783.695726,835.385437 Z M125.547143,815.905771 L159.867227,831.464374 L117.299729,932.461013 L81.0554537,915.060756 L125.547143,815.905771 Z M326.217387,864.778014 L332.961912,910.356219 L296.752129,936.597655 L285.477994,870.283271 L326.217387,864.778014 Z M1110.77623,726.145079 L1022.45067,937.790112 L986.973853,921.401225 L1065.98026,726.145079 L1110.77623,726.145079 Z M820.408114,851.775556 L835.49614,858.511458 L806.096171,938.636411 L788.034396,930.992616 L820.408114,851.775556 Z M638.325657,770.484015 L704.643737,800.092171 L633.900756,946.946651 L557.332231,920.293768 L633.389527,772.347845 L635.930889,773.302549 L638.325657,770.484015 Z M407.662912,872.216085 L454.719369,888.597581 L457.167108,947.302663 L407.645666,929.567335 C406.480311,926.42605 405.342057,923.372227 404.239527,920.409564 L431.206539,904.478935 L429.357492,901.172578 L402.89555,916.811252 C397.214134,901.604967 392.590901,889.466054 390.196133,883.211816 L407.662912,872.216085 Z M172.083748,831.82285 L188.51575,886.149842 L186.033519,886.877881 L157.802601,951.903723 L120.662752,934.07354 L163.262279,833.000524 L167.08356,834.731311 L172.083748,831.82285 Z M458.485216,889.908298 L498.280991,903.763215 L474.552583,953.527336 L460.931723,948.649105 L458.485216,889.908298 Z M910.385617,891.94459 L939.804064,905.080091 L917.334634,955.260587 L900.853356,947.9765 L893.997962,929.919652 L910.385617,891.94459 Z M1067.26881,841.792428 L1102.1112,856.584802 L1060.20892,955.78167 L1025.84942,940.481762 L1067.26881,841.792428 Z M281.800842,870.780949 L293.580047,940.080171 L279.084554,960.551497 C270.617866,952.839949 263.845008,947.072302 260.804736,944.971953 C257.566133,939.844882 248.72249,913.056492 237.594948,876.756783 L281.800842,870.780949 Z M708.051108,801.617234 L773.469918,830.821334 L704.753374,967.011458 L702.720778,970.902956 L637.444865,948.183455 L708.051108,801.617234 Z M501.826332,904.99386 L552.017915,922.466798 L526.488503,972.12621 L478.076982,954.79001 L501.826332,904.99386 Z M1105.53952,858.039649 L1142.92205,873.908684 L1099.51564,973.28787 L1063.61383,957.296879 L1105.53952,858.039649 Z M896.152514,946.07325 L897.960909,950.841845 L915.784933,958.72216 L909.007147,973.85946 L892.015873,964.580965 L886.914671,967.212254 L896.152514,946.07325 Z M1146.34913,875.365994 L1179.59625,889.482069 L1136.97208,989.96132 L1102.92055,974.800614 L1146.34913,875.365994 Z M742.995753,916.042561 L783.172179,933.052314 L758.428704,993.59782 L713.2447,974.920106 L714.596069,972.339325 L742.995753,916.042561 Z M1274.16742,910.553319 L1303.45898,924.292439 L1253.68254,996.623309 L1240.23784,990.339506 L1274.16742,910.553319 Z M602.234135,939.947128 L632.241418,950.390978 L607.749247,1001.22683 L530.03138,973.395043 L555.57927,923.704834 L598.720823,938.723874 L590.450003,966.161463 L593.989184,967.28863 L602.234135,939.947128 Z M786.598028,934.508392 L804.78915,942.207622 L782.453994,1003.08081 L761.880422,994.991073 L786.598028,934.508392 Z M226.569652,878.948291 C248.595607,950.912062 251.79479,952.796833 254.460572,954.360085 C256.822079,955.750874 263.714429,961.663881 272.538362,969.78934 L255.836578,993.376082 C252.785219,995.279332 241.961951,1001.76516 228.836305,1006.60521 L193.182099,888.740479 L226.569652,878.948291 Z M1191.21284,871.638335 L1229.19899,889.457431 L1178.51589,1008.46041 L1140.37576,991.478992 L1191.21284,871.638335 Z M189.617048,889.787574 L225.320529,1007.84324 C217.669343,1010.39446 209.424393,1012.24227 201.594585,1012.24227 C197.257147,1012.24227 191.138416,1012.24474 183.876503,1012.46771 L160.744323,954.484504 L188.716546,890.048732 L189.617048,889.787574 Z M34.2687782,896.806807 L69.4216105,913.683517 L25.0173845,1012.6451 L-10.1366798,996.237732 L34.2687782,896.806807 Z M838.899815,860.031593 L872.605192,875.077735 L813.611851,1015.33552 L785.9168,1004.44326 L838.899815,860.031593 Z M158.65506,959.296215 L179.919715,1012.60691 C166.550158,1013.13662 149.958011,1014.46212 133.283328,1017.73644 L158.65506,959.296215 Z M635.785528,951.625319 L700.940716,974.304168 L673.581967,1026.65153 L611.255168,1002.53509 L635.785528,951.625319 Z M1232.57064,891.040393 L1270.79454,908.970357 L1236.10736,990.532911 L1235.37809,992.252611 L1251.50458,999.786768 L1229.8137,1031.3031 L1181.91464,1009.97316 L1232.57064,891.040393 Z M876.005172,876.599103 L906.983174,890.426918 L889.982044,929.827261 L894.25912,941.097701 L881.670572,969.923614 L870.626798,975.622276 L846.648319,1031.85868 L817.01183,1016.85688 L876.005172,876.599103 Z M79.5020572,918.521097 L115.82394,935.960775 L73.8896271,1035.45206 L35.1483381,1017.37181 L79.5020572,918.521097 Z M119.1845,937.574533 L156.289857,955.385006 L128.820239,1018.65789 C111.190852,1022.50134 93.8189277,1028.66073 80.4259647,1038.49972 L77.2649692,1037.02517 L119.1845,937.574533 Z M12.7380379,1040.01124 L24.9878194,1040.01124 L33.5937098,1020.83092 L72.4187664,1038.94443 L71.9678996,1040.01124 L100.038673,1040.01124 C113.781489,1033.46874 131.620295,1028.8763 153.430671,1026.26226 L154.27697,1040.01124 L157.993542,1040.01124 L157.122605,1025.85944 C170.529119,1024.41568 185.333813,1023.66793 201.594585,1023.66793 C210.671052,1023.66793 220.033315,1021.59838 228.625654,1018.75274 L235.054819,1040.01124 L238.936462,1040.01124 L232.137735,1017.53072 C248.837055,1011.46373 261.849368,1003.00443 262.69074,1002.45378 L263.573995,1001.87234 L280.819036,977.523062 C292.829834,988.910529 306.624389,1002.62378 317.455048,1014.43748 C312.478267,1019.83433 302.251227,1029.90738 287.085593,1040.01124 L293.730336,1040.01124 C306.491346,1030.93477 315.320206,1022.24758 319.986555,1017.21906 C328.532083,1026.73407 334.769075,1034.69446 335.963995,1038.67711 C336.085951,1039.08487 336.183269,1039.53204 336.260877,1040.01124 L347.470955,1040.01124 C347.315738,1038.40241 347.048421,1036.82807 346.595091,1035.32025 C342.953663,1023.15793 311.558055,990.924648 287.393562,968.237175 L303.208395,945.906947 L380.727929,889.713661 C389.884468,913.719242 420.906818,995.793024 434.112536,1040.01124 L445.736524,1040.01124 C437.749036,1012.5022 422.236013,969.09333 409.36167,934.216438 L606.096068,1004.665 L589.066605,1040.01124 L593.204479,1040.01124 L609.604453,1005.96586 L638.941596,1017.31761 L625.825805,1040.01124 L630.143532,1040.01124 L642.470922,1018.68006 L671.816688,1030.03673 L666.602154,1040.01124 L679.226426,1040.01124 L688.605935,1022.06772 L706.03699,1035.94974 L707.171548,1034.44685 L706.452132,1036.20104 L715.24034,1040.01124 L724.77137,1040.01124 L708.118861,1032.79121 L690.387229,1018.66405 L711.480653,978.29668 L756.996031,997.1099 L739.463963,1040.01124 L743.483576,1040.01124 L760.44775,998.50808 L812.14099,1018.83158 L803.23329,1040.01124 L807.271382,1040.01124 L815.537274,1020.36034 L854.366026,1040.01124 L862.760034,1040.01124 L849.979314,1033.54388 L873.487216,978.405085 L891.966598,968.87036 L907.452519,977.325961 L879.381746,1040.01124 L891.629063,1040.01124 L993.959826,811.495653 L1024.55718,820.666975 L935.535611,1040.01124 L938.420666,1040.01124 L985.546108,926.68228 L1020.98227,942.465084 L980.043315,1040.01124 L983.99148,1040.01124 L1024.38472,943.852177 L1058.73313,959.209983 L1024.61138,1040.01124 L1028.67041,1040.01124 L1062.13434,960.789249 L1098.00043,976.756834 L1070.37313,1040.01124 L1074.43586,1040.01124 L1101.40288,978.272043 L1135.49506,993.453691 L1115.74562,1040.01124 L1119.78987,1040.01124 L1138.89751,994.966435 L1177.02902,1011.94662 L1165.07488,1040.01124 L1169.11914,1040.01124 L1180.42776,1013.4606 L1227.62589,1034.47765 L1223.81692,1040.01124 L1228.35885,1040.01124 L1231.10224,1036.02612 L1240.05429,1040.01124 L1249.36851,1040.01124 L1233.28513,1032.85157 L1254.93782,1001.39067 L1337.60783,1040.01124 L1346.56235,1040.01124 L1257.11824,998.227213 L1306.89222,925.906198 L1434.52203,985.775403 L1403.38389,1040.01124 L1407.68807,1040.01124 L1437.91462,987.365756 L1470.13189,1002.48088 L1470.13189,989.924364 L1311.57705,915.542419 L1351.93826,824.868906 L1470.13189,880.242994 L1470.13189,876.055845 L1386.96297,837.090354 C1389.94904,830.485032 1401.35745,805.126851 1418.37829,765.822594 L1470.13189,788.555646 L1470.13189,784.412845 L1419.87995,762.341311 C1424.97622,750.553483 1430.54184,737.597836 1436.52014,723.554442 C1439.87947,715.656881 1442.11409,708.070984 1443.42973,700.817695 L1470.13189,716.366442 L1470.13189,711.98712 L1444.06415,696.807936 C1447.11428,674.65633 1441.65706,655.776588 1433.80508,640.95588 L1470.13189,559.347747 L1470.13189,558.762606 L1466.97336,557.279426 L1431.53597,636.891919 C1421.24117,619.348764 1408.12661,608.233541 1404.08975,605.055299 L1435.86724,530.332124 L1470.13189,545.937538 L1470.13189,541.771331 L1437.35166,526.840986 L1455.12024,485.056962 L1470.13189,491.524314 L1470.13189,487.395063 L1456.60712,481.568287 L1465.72301,460.127474 L1462.32672,458.60241 L1453.18866,480.09373 L1374.68732,446.270093 L1396.40654,394.767794 L1470.13189,424.807106 L1470.13189,412.517904 L1400.83021,384.279596 L1462.58542,237.859968 L1470.13189,241.017268 L1470.13189,236.906495 L1464.05997,234.365134 L1470.13189,219.969423 L1470.13189,191.219886 L1453.75286,230.056029 L1429.49105,219.906598 L1470.13189,184.259783 L1470.13189,179.24974 L1425.62665,218.287912 L1321.21648,174.610493 L1341.84795,117.318373 L1470.13189,160.542461 L1470.13189,156.533935 L1343.1365,113.744699 L1356.1291,77.6654954 L1470.13189,116.488088 L1470.13189,112.477098 L1357.41272,74.0955168 L1370.66155,37.3067523 L1470.13189,71.9692977 L1470.13189,67.9472204 L1371.95009,33.7367737 L1383.79828,0.832116292 L1470.13189,33.7909763 L1470.13189,29.7257833 L1385.08313,-2.74278977 L1389.85788,-16.0002464 L1385.90602,-16.0002464 L1381.60924,-4.06705718 L1350.3516,-16.0002464 L1339.70818,-16.0002464 L1380.32316,-0.497078623 L1368.43432,32.5098246 L1298.58075,8.16670992 L1306.11737,-16.0002464 L1294.44288,-16.0002464 L1288.05313,4.50187686 L1229.22117,-16.0002464 L1217.68095,-16.0002464 L1286.92104,8.12852174 L1275.09625,46.0592359 L1198.30722,19.911422 L1210.94628,-16.0002464 L1207.00304,-16.0002464 L1194.78529,18.712806 L1178.1451,13.0474052 L1195.1142,-16.0002464 L1182.1413,-16.0002464 L1145.75906,46.2674231 L1108.44675,25.9858058 L1126.60954,-16.0002464 L1122.5542,-16.0002464 L1105.1601,24.1995846 L1045.85879,-8.0349319 L1047.97023,-16.0002464 L1036.1208,-16.0002464 L1035.46298,-13.5020005 L1027.51984,-16.0002464 L1009.92618,-16.0002464 L1034.48857,-8.6521021 L1026.94579,19.8005531 L1000.92978,112.807241 L959.664379,102.4681 L994.585619,-16.0002464 L990.710135,-16.0002464 L975.168779,36.720379 L930.110426,23.9187168 L942.34173,-16.0002464 L938.452695,-16.0002464 L919.362303,46.31793 L880.330291,33.6394555 L895.503315,-16.0002464 L891.614281,-16.0002464 L876.793573,32.4876508 L844.286811,21.9304678 L855.782684,-16.0002464 L851.897345,-16.0002464 L840.750094,20.779895 L809.453035,10.613217 L817.805159,-16.0002464 L813.907501,-16.0002464 L805.913854,9.46387604 L759.436379,-5.63400429 L760.297461,-8.48949439 L761.873031,-16.0002464 L758.087474,-16.0002464 L756.715164,-9.45898132 L755.905821,-6.78088146 L727.524614,-16.0002464 L715.24034,-16.0002464 L754.805755,-3.14684532 L736.953398,55.9130173 L685.585373,38.8490619 L702.178752,-16.0002464 L698.298341,-16.0002464 L682.054815,37.678779 L631.600843,20.9277202 L682.060974,-16.0002464 L662.888046,-16.0002464 L632.953443,5.90621625 L639.175652,-16.0002464 L627.586157,-16.0002464 L620.12468,10.2682915 L588.530739,-16.0002464 L570.84715,-16.0002464 L613.748486,19.6687423 L585.709741,38.8589169 L544.475134,5.96041882 L544.694408,-16.0002464 L540.982764,-16.0002464 L540.132769,68.6235207 L504.625156,91.4896153 L498.988088,91.4896153 L500.864237,-16.0002464 L497.143969,-16.0002464 L495.278908,91.4896153 L451.422867,91.4896153 L452.978727,9.27047141 L472.718319,-16.0002464 L469.334353,-16.0002464 L409.753407,59.3228519 L377.934033,-16.0002464 L374.499561,-16.0002464 L387.490932,14.7547863 L359.252623,91.4896153 L320.088801,91.4896153 L321.176548,35.5229949 L360.511601,-16.0002464 L356.903435,-16.0002464 L321.291112,30.6349083 L322.16944,-16.0002464 L318.415912,-16.0002464 L316.382084,91.4896153 L267.880636,91.4896153 L267.880636,35.5488643 L306.753736,-16.0002464 L303.123395,-16.0002464 L266.611803,32.4445351 L240.552684,10.1980745 L259.955973,-16.0002464 L245.980333,-16.0002464 L231.991141,2.88565468 L209.870332,-16.0002464 L204.069425,-16.0002464 L229.742966,5.91976689 L166.475013,91.3393263 L122.808681,45.0318508 L137.135407,34.7666226 L137.384246,34.5892324 L173.879824,-16.0002464 L169.263982,-16.0002464 L134.765276,31.8224374 L120.193407,42.2588965 L80.1315462,-0.229761388 L91.2763343,-16.0002464 L86.6912894,-16.0002464 L78.1876448,-3.96850705 L72.0418122,-16.0002464 L59.4803659,-16.0002464 L70.1693596,4.92687431 L-7.22452333,66.853314 L-4.94801527,69.8566292 L72.3842739,7.98439217 L110.946941,48.8802335 L-19.5051017,142.326701 L-17.3813464,145.45074 L113.562215,50.2118922 L153.850741,91.4896153 L87.1372287,91.4896153 L-28.0001232,188.363164 L-28.0001232,203.934085 L15.5812093,168.093865 L20.7156712,238.741992 L-28.0001232,241.321541 L-28.0001232,245.21304 L20.9928434,242.693852 L29.5396037,359.96851 L-28.0001232,363.953631 L-28.0001232,367.777376 L29.8180078,363.784864 L34.2219669,424.188704 L-8.61900771,454.226784 L-24.4350721,453.653962 L-24.8218814,465.073458 L37.2819485,467.306851 L39.9477296,535.647672 L7.81545879,588.524746 L-6.33141276,590.460024 L-5.83989397,594.235726 L5.26547411,592.713126 L-13.1658645,623.040698 L-17.7225762,621.063536 L-19.1651038,624.571921 L-15.1528815,626.313794 L-26.2015833,644.492598 L-23.0553703,646.50918 L-11.6888443,627.81422 L43.858938,651.912191 L0.458691387,755.038746 L-1.00477808,754.373532 L-2.50643573,757.859743 L-1.01586497,758.534812 L-26.3284666,818.679958 L-22.9235595,820.187775 L2.37795522,760.072194 L34.510226,774.637903 L-10.3362438,871.186236 L-28.0001232,862.705998 L-28.0001232,866.916552 L-11.9327559,874.630564 L-12.0855086,874.955779 L-8.73849975,876.595407 L-8.57096452,876.241858 L30.9057549,895.194281 L-13.5169493,994.663393 L-28.0001232,987.900391 L-28.0001232,992.082612 L-15.058027,998.124967 L-15.8033124,999.792928 L-12.431666,1001.38328 L-11.682685,999.700537 L23.4652199,1016.10297 L12.7380379,1040.01124 Z" id="Fill-1" fill-opacity="0.25" fill="#00B000" mask="url(#mask-2)"></path>
            </g>
        </g>
    </g>
</svg>