<?xml version="1.0" encoding="UTF-8"?>
<svg width="1449px" height="230px" viewBox="0 0 1449 230" version="1.1" xmlns="http://www.w3.org/2000/svg" xmlns:xlink="http://www.w3.org/1999/xlink">
    <!-- Generator: Sketch 48.2 (47327) - http://www.bohemiancoding.com/sketch -->
    <title>bg-footer</title>
    <desc>Created with Sketch.</desc>
    <defs>
        <polygon id="path-1" points="0.423062069 0.845746765 228.015961 0.845746765 228.015961 1448.67676 0.423062069 1448.67676"></polygon>
        <polygon id="path-3" points="0.423062069 0.845746765 229.245758 0.845746765 229.245758 1448.80667 0.423062069 1448.80667"></polygon>
        <polygon id="path-5" points="0.423062069 0.686761 66.0978281 0.686761 66.0978281 1044.80667 0.423062069 1044.80667"></polygon>
    </defs>
    <g id="Page-1" stroke="none" stroke-width="1" fill="none" fill-rule="evenodd">
        <g id="bg-footer" transform="translate(4.000000, -1.000000)">
            <g transform="translate(720.000000, 115.746094) rotate(-90.000000) translate(-720.000000, -115.746094) translate(605.296552, -608.753906)" id="Group">
                <g>
                    <g id="Fill-1-Clipped">
                        <mask id="mask-2" fill="white">
                            <use xlink:href="#path-1"></use>
                        </mask>
                        <g id="path-1"></g>
                        <path d="M219.53237,790.846015 C254.208563,368.878412 177.446632,-51.7483211 82.5347421,-619.984374 C10.7025766,-410.536544 -120.634361,-184.267522 -180.187796,-25.3613046 C-242.296486,140.388794 -329.190058,625.888142 -263.575713,1058.48102 C-202.670665,1460.03996 -137.426748,1863.21172 -124.654444,2036.91718 C-124.654444,2036.91718 169.053914,1405.1281 219.53237,790.846015 Z" id="Fill-1" fill="#A2C748" fill-rule="nonzero" mask="url(#mask-2)"></path>
                    </g>
                    <g id="Fill-4-Clipped">
                        <mask id="mask-4" fill="white">
                            <use xlink:href="#path-3"></use>
                        </mask>
                        <g id="path-3"></g>
                        <path d="M-283.176298,550.649199 C-304.142698,977.474209 -213.193291,1366.48524 -99.1532359,1894.88773 C-33.8695945,1665.14474 90.6477021,1399.35195 145.258461,1223.38332 C202.210957,1039.84954 273.551537,533.371592 193.409081,128.92754 C119.013716,-246.49978 40.2099641,-622.09737 21.6677297,-788.942395 C21.6677297,-788.942395 -252.65525,-70.6990611 -283.176298,550.649199 Z" id="Fill-4" fill="#26B4B0" fill-rule="nonzero" mask="url(#mask-4)"></path>
                    </g>
                    <g id="Fill-13-Clipped" transform="translate(0.000000, 404.000000)">
                        <mask id="mask-6" fill="white">
                            <use xlink:href="#path-5"></use>
                        </mask>
                        <g id="path-5"></g>
                        <path d="M-46.0795034,0.686761 C20.011531,397.009912 69.9735724,722.09427 65.861131,1036.60773 C9.24827586,1180.63903 -57.1913379,1343.21787 -99.153931,1490.88867 C-196.565462,1039.53306 -277.128993,689.88735 -285.484966,331.498787 C-270.869462,406.329793 -255.458483,483.78342 -239.552938,564.531285 C-189.857048,378.514406 -104.420359,168.089892 -46.0795034,0.686761" id="Fill-13" fill="#24B2A3" fill-rule="nonzero" mask="url(#mask-6)"></path>
                    </g>
                </g>
            </g>
        </g>
    </g>
</svg>