<?xml version="1.0" encoding="UTF-8"?>
<svg width="133px" height="26px" viewBox="0 0 133 26" version="1.1" xmlns="http://www.w3.org/2000/svg" xmlns:xlink="http://www.w3.org/1999/xlink">
    <!-- Generator: Sketch 48.2 (47327) - http://www.bohemiancoding.com/sketch -->
    <title>logo casio</title>
    <desc>Created with Sketch.</desc>
    <defs></defs>
    <g id="Escuelas-libres-de-mercurio-v2" stroke="none" stroke-width="1" fill="none" fill-rule="evenodd" transform="translate(-1140.000000, -5318.000000)">
        <g id="7---footer" transform="translate(-1.000000, 5063.000000)" fill="#0B3490" fill-rule="nonzero">
            <g transform="translate(721.000000, 210.246094) rotate(-90.000000) translate(-721.000000, -210.246094) translate(512.000000, -510.253906)" id="logo-casio">
                <path d="M196.880155,1212.94819 C195.783957,1212.67414 195.509907,1212.12604 195.372882,1211.02984 C195.098833,1209.24852 195.098833,1204.86373 195.372882,1202.94539 C195.509907,1201.98621 196.058006,1201.43811 196.880155,1201.16406 C197.839328,1200.89001 206.608911,1200.75299 207.568084,1201.16406 C208.390232,1201.43811 208.664282,1201.98621 208.801306,1202.80836 C209.212381,1204.58968 209.212381,1209.1115 208.801306,1210.89282 C208.664282,1211.71497 208.390232,1212.12604 207.568084,1212.53712 C206.745935,1213.22224 198.113377,1213.22224 196.880155,1212.94819 Z M210.445603,1195.13498 C207.842133,1194.58688 197.839328,1194.44985 193.86561,1195.13498 C190.851066,1195.68307 188.521646,1197.87547 187.836522,1200.61597 C187.288423,1203.76753 187.288423,1210.7558 187.836522,1213.63331 C188.384621,1216.23678 190.577017,1218.56621 193.86561,1219.1143 C197.291229,1219.79943 207.431059,1219.6624 210.582628,1218.97728 C214.282296,1218.15513 215.789568,1215.41464 216.200642,1213.63331 C216.748741,1210.89282 216.748741,1203.90456 216.200642,1200.61597 C215.515518,1197.73845 213.049073,1195.68307 210.445603,1195.13498 Z M176.052395,1195.272 L183.588755,1195.272 L183.588755,1218.97728 L176.052395,1218.97728 L176.052395,1195.272 Z M163.994218,1209.93365 C165.227441,1210.2077 165.50149,1211.16687 165.50149,1211.98902 C165.50149,1212.81117 165.364466,1213.77034 163.994218,1213.90736 C162.486946,1214.18141 157.417031,1214.18141 155.498685,1213.90736 C154.676536,1213.77034 153.717363,1213.77034 153.443314,1212.26307 L153.443314,1211.85199 L145.906953,1211.85199 C145.906953,1211.98902 145.906953,1212.40009 146.043978,1212.94819 C146.318028,1216.09976 147.55125,1218.29216 151.113893,1218.97728 C153.991413,1219.52538 164.816367,1219.6624 168.10496,1218.97728 C171.941653,1218.15513 172.900826,1214.72951 172.900826,1211.71497 C172.900826,1208.28935 171.667603,1205.95993 168.653059,1205.00076 C167.830911,1204.72671 165.912565,1204.58968 165.090416,1204.58968 C164.405292,1204.58968 156.320833,1204.31563 154.539512,1204.04158 C153.443314,1203.90456 153.169264,1203.21944 153.169264,1202.26026 C153.169264,1201.30109 153.306289,1200.61597 154.676536,1200.34192 C156.320833,1200.06787 162.760996,1200.06787 163.446119,1200.34192 C164.268268,1200.61597 164.542317,1201.16406 164.542317,1201.84919 L164.542317,1202.39729 L172.078678,1202.39729 C172.078678,1201.84919 171.941653,1201.43811 171.941653,1201.02704 C171.530579,1197.32737 169.475208,1195.272 165.77554,1194.99795 C162.075872,1194.58688 153.580338,1194.7239 150.976868,1195.13498 C148.510423,1195.68307 146.043978,1197.19035 146.043978,1202.26026 C146.043978,1206.371 147.962324,1208.42638 151.250918,1209.1115 C152.210091,1209.24852 154.950586,1209.38555 155.36166,1209.38555 C156.320833,1209.52257 163.446119,1209.79662 163.994218,1209.93365 Z M134.259851,1209.79662 L125.901342,1209.79662 L129.463985,1200.34192 L130.697208,1200.34192 L134.259851,1209.79662 Z M135.904148,1214.72951 L137.548445,1218.97728 L145.632904,1218.97728 L135.493073,1195.13498 L124.531095,1195.13498 L114.528289,1218.97728 L122.612748,1218.97728 L124.257045,1214.59249 L135.904148,1214.72951 Z M92.8783811,1211.16687 C93.0154058,1212.53712 93.7005295,1212.81117 94.3856531,1212.94819 C95.481851,1213.22224 103.292261,1213.22224 104.662508,1212.94819 C105.621681,1212.81117 106.306805,1212.12604 106.44383,1211.30389 C106.44383,1210.89282 106.580855,1210.2077 106.580855,1209.93365 L114.391264,1209.93365 C114.391264,1210.48175 114.391264,1211.85199 114.25424,1213.08522 C113.843165,1215.96274 112.198869,1218.29216 108.636226,1219.1143 C106.16978,1219.6624 94.2486284,1219.6624 91.5081337,1219.1143 C88.6306143,1218.42918 86.1641691,1216.64786 85.4790454,1213.63331 C84.9309465,1210.89282 84.9309465,1203.76753 85.4790454,1200.75299 C85.8901196,1198.56059 87.9454906,1195.95712 91.371109,1195.272 C94.5226779,1194.7239 105.621681,1194.58688 108.636226,1195.272 C112.609943,1196.23117 113.843165,1199.79382 113.98019,1201.02704 C114.117215,1202.39729 114.117215,1203.35646 114.117215,1203.90456 L106.306805,1203.90456 C106.306805,1203.35646 106.44383,1201.84919 105.073582,1201.43811 C104.251434,1201.16406 96.5780489,1201.16406 94.6597026,1201.30109 C93.7005295,1201.43811 93.1524305,1201.84919 93.0154058,1202.80836 C92.6043316,1204.72671 92.6043316,1209.38555 92.8783811,1211.16687 Z" transform="translate(150.839844, 1207.117919) rotate(-270.000000) translate(-150.839844, -1207.117919) "></path>
            </g>
        </g>
    </g>
</svg>