<?xml version="1.0" encoding="UTF-8"?>
<svg width="72px" height="45px" viewBox="0 0 72 45" version="1.1" xmlns="http://www.w3.org/2000/svg" xmlns:xlink="http://www.w3.org/1999/xlink">
    <!-- Generator: Sketch 48.2 (47327) - http://www.bohemiancoding.com/sketch -->
    <title>footer-logo-tco</title>
    <desc>Created with Sketch.</desc>
    <defs></defs>
    <g id="Escuelas-libres-de-mercurio-v2" stroke="none" stroke-width="1" fill="none" fill-rule="evenodd" transform="translate(-443.000000, -5176.000000)">
        <g id="7---footer" transform="translate(-1.000000, 5063.000000)">
            <g transform="translate(725.500000, 209.746094) rotate(-90.000000) translate(-725.500000, -209.746094) translate(516.000000, -515.253906)" id="logos">
                <g transform="translate(255.296875, 368.933188)">
                    <g id="footer-logo-tco" transform="translate(6.304383, 74.864550)">
                        <g id="Group-14" transform="translate(11.032670, 28.369724)" fill="#FFFFFF">
                            <path d="M1.26396135,24.4189371 C1.49046079,24.4189371 1.69579061,24.4243201 1.90070635,24.4177725 C2.28067262,24.4055832 2.53416463,24.211097 2.63706245,23.8491171 C2.72903903,23.5255428 2.70867168,23.2025637 2.59964035,22.8858216 C2.51113166,22.6286288 2.32653151,22.4579778 2.06444744,22.4166997 C1.80637472,22.3760685 1.54048632,22.3852817 1.26396135,22.3719277 L1.26396135,24.4189371 Z M0.533505836,25.0254805 L0.533505836,21.786994 C0.607754795,21.7809899 0.673566961,21.7713108 0.739379127,21.7711038 C1.13549435,21.7698357 1.53160957,21.7681794 1.92767304,21.7714144 C2.75367654,21.778169 3.26182513,22.2189785 3.39275071,23.0384603 C3.44378555,23.3579456 3.42380639,23.6744289 3.33902438,23.9852186 C3.17329056,24.5926678 2.75590219,24.9746785 2.13062192,25.018053 C1.60940406,25.0542587 1.08365724,25.0254805 0.533505836,25.0254805 Z" id="Fill-18" transform="translate(1.977030, 23.402930) rotate(-270.000000) translate(-1.977030, -23.402930) "></path>
                            <path d="M1.34470325,7.26398769 L1.34470325,8.1471854 C1.65655405,8.1471854 1.94938325,8.16216977 2.2398574,8.14252705 C2.48131533,8.12622282 2.59081248,7.95976436 2.58514482,7.6847663 C2.57989124,7.42902276 2.46431234,7.27964493 2.22469187,7.26748145 C1.93496824,7.25273 1.64389886,7.26398769 1.34470325,7.26398769 M1.32692387,8.69728505 L1.32692387,9.93547509 L0.611142159,9.93547509 L0.611142159,6.7138104 C0.658062119,6.70599472 0.706560742,6.69106211 0.755137005,6.69090684 C1.29858556,6.68925053 1.84213763,6.68389343 2.38548267,6.69139855 C3.03366651,6.70035294 3.43438832,7.22014742 3.28840074,7.85021544 C3.23299223,8.08939595 3.09350046,8.26718973 2.84619371,8.39899522 C3.2200006,8.60564491 3.25897548,8.94474707 3.28529517,9.29303655 C3.30144413,9.50651848 3.33242217,9.71888758 3.35793959,9.94217794 L2.68051165,9.94217794 C2.66006665,9.83759793 2.63563619,9.73182745 2.61928019,9.62484063 C2.58804335,9.42075304 2.57075569,9.21410335 2.53002099,9.01203438 C2.49453987,8.83602631 2.37813282,8.71050959 2.19449022,8.70106349 C1.91335866,8.68664848 1.63090724,8.69728505 1.32692387,8.69728505" id="Fill-20" transform="translate(1.984541, 8.314841) rotate(-270.000000) translate(-1.984541, -8.314841) "></path>
                            <polygon id="Fill-22" transform="translate(1.977146, 20.123821) rotate(-270.000000) translate(-1.977146, -20.123821) " points="3.17262149 18.5070363 3.17262149 19.095438 1.48140669 19.095438 1.48140669 19.7788959 3.01633377 19.7788959 3.01633377 20.3485606 1.48502985 20.3485606 1.48502985 21.1288605 3.19645673 21.1288605 3.19645673 21.7406057 0.757835182 21.7406057 0.757835182 18.5070363"></polygon>
                            <path d="M3.4883835,1.20119551 L2.80603841,1.20119551 C2.72984847,0.97857803 2.6015885,0.801120687 2.38145548,0.705650345 C1.98378747,0.533187791 1.52333523,0.704097561 1.3402361,1.11025412 C1.15853448,1.51333099 1.15353969,1.93128871 1.3231296,2.33995561 C1.44442791,2.63221545 1.66927105,2.80335814 1.99362177,2.83216229 C2.37690064,2.86627178 2.64022695,2.69921809 2.76833163,2.33286456 C2.79076936,2.26868282 2.80678892,2.20224954 2.82940781,2.12442917 L3.49324889,2.12442917 C3.52052613,2.77856535 2.98924105,3.36223102 2.3108038,3.43195102 C1.1746058,3.54877215 0.387835975,2.75229742 0.487395315,1.5810065 C0.499739949,1.43610586 0.525542045,1.28960068 0.566923741,1.15034183 C0.914462701,-0.019215151 2.13658142,-0.168334184 2.83411792,0.210234579 C3.21527466,0.417065421 3.43276795,0.737560058 3.4883835,1.20119551" id="Fill-24" transform="translate(1.986582, 1.734131) rotate(-270.000000) translate(-1.986582, -1.734131) "></path>
                            <path d="M3.16883165,6.34248825 L3.16883165,6.43436131 C3.11220679,6.47224924 3.11031757,6.51005954 3.16890929,6.54784395 C3.16896105,6.5795725 3.16903869,6.61132694 3.16909044,6.64308137 C3.04215034,6.6618183 2.91536552,6.69546196 2.78824427,6.6966783 C2.19433023,6.70229421 1.60031267,6.69975799 1.00634688,6.69792053 C0.932926067,6.69771349 0.859557019,6.68441131 0.792140309,6.67776022 C0.741700706,6.23883991 0.761472823,3.74543097 0.816544899,3.55469732 L3.07817494,3.55469732 C3.08824215,3.60213488 3.09934456,3.63427751 3.10136318,3.66693773 C3.12351623,4.02798592 3.09988803,4.05741117 2.74569798,4.05347745 C2.38506387,4.04944022 2.02453329,4.03512872 1.66392506,4.02777888 C1.59627543,4.02640725 1.52520968,4.02594142 1.46167493,4.04493714 C1.41219288,4.05974035 1.33672757,4.09229706 1.41302103,4.16921163 C1.41286575,4.23372981 1.41271047,4.29819623 1.41252932,4.36274029 C1.39304187,4.39925659 1.35849243,4.43489299 1.35639617,4.47234096 C1.33525243,4.84852879 1.3827935,4.83763342 1.67720136,4.8336997 C2.03001979,4.82904135 2.38294174,4.83134465 2.73581192,4.83362206 C2.80121001,4.83403614 2.86650458,4.84858055 2.93154036,4.85657739 C2.93943368,4.90957909 2.94763755,4.9430157 2.94893154,4.976737 C2.96070682,5.28066861 2.9431086,5.30002665 2.6421014,5.30106184 C2.28923122,5.30227818 1.93633515,5.29994901 1.58349084,5.30240758 C1.51048411,5.3028993 1.4375809,5.31757311 1.35228129,5.32714861 C1.35228129,5.54295972 1.35057323,5.73175239 1.35269537,5.92049329 C1.35536098,6.16008788 1.37557305,6.18037759 1.6230092,6.1813869 C2.03610153,6.1830432 2.44934914,6.18692516 2.86231207,6.17869541 C3.00397774,6.1759004 3.11231031,6.20188365 3.16883165,6.34248825" id="Fill-26" transform="translate(1.966085, 5.127406) rotate(-270.000000) translate(-1.966085, -5.127406) "></path>
                            <path d="M0.860108721,14.1267805 L3.12794989,14.1267805 L3.12794989,14.7187794 L1.58502598,14.7187794 L1.58502598,15.4528581 L2.9125011,15.4528581 L2.9125011,16.0254472 L1.5746482,16.0254472 L1.5746482,17.3647494 L0.881123066,17.3647494 C0.828535444,17.1881202 0.809022124,14.6088164 0.860108721,14.1267805" id="Fill-28" transform="translate(1.979118, 15.745765) rotate(-270.000000) translate(-1.979118, -15.745765) "></path>
                            <path d="M1.61518681,10.310712 L0.653677013,10.310712 L0.653677013,9.71607338 L3.303089,9.71607338 L3.303089,10.3058208 L2.35058535,10.3058208 L2.35058535,12.9487111 L1.62649625,12.9487111 C1.60809576,12.0883393 1.62649625,11.2223516 1.61518681,10.310712" id="Fill-30" transform="translate(1.978383, 11.332392) rotate(-270.000000) translate(-1.978383, -11.332392) "></path>
                            <path d="M2.19398439,15.2527115 L1.53027271,15.2527115 C1.47131867,15.0665068 1.44781988,12.6879521 1.49898411,12.0167612 L2.19398439,12.0167612 L2.19398439,15.2527115 Z" id="Fill-32" transform="translate(1.970849, 13.634736) rotate(-270.000000) translate(-1.970849, -13.634736) "></path>
                            <path d="M2.06280226,19.5229069 L1.61622155,19.5229069 C1.48190573,19.3752113 1.47711798,19.193225 1.47608279,19.0172169 C1.47150208,18.242093 1.47256314,17.4669173 1.47662626,16.6917675 C1.47714386,16.5922081 1.50721611,16.4927782 1.5254872,16.3818576 L2.04856841,16.3818576 C2.11026569,16.5679329 2.12449955,19.2056731 2.06280226,19.5229069" id="Fill-76" transform="translate(1.973085, 17.952382) rotate(-270.000000) translate(-1.973085, -17.952382) "></path>
                            <path d="M12.7687237,20.7949639 C12.7687237,19.9759738 12.7687495,19.1569837 12.7686978,18.3379936 C12.7686978,18.1914367 12.7757371,18.0444657 12.7669638,17.8984263 C12.7412394,17.4704272 12.4115833,17.1371739 11.9888379,17.1040737 C11.564229,17.0708183 11.1931654,17.3478867 11.1039062,17.7725214 C11.0828401,17.8725983 11.0780782,17.9776183 11.0780006,18.0803608 C11.0764219,19.8821339 11.0760078,21.6839069 11.0784147,23.4856799 C11.0785441,23.6051408 11.0885336,23.7285095 11.1191752,23.843312 C11.2277407,24.2505814 11.6410919,24.5091458 12.0532525,24.4384165 C12.4930786,24.3629512 12.7662651,24.033114 12.7677402,23.5622839 C12.7705611,22.6398267 12.7685684,21.7174212 12.7687237,20.7949639 M16.0017237,20.8333953 C16.0016202,22.4804334 15.9994463,24.1274973 16.0034317,25.7745096 C16.004234,26.1097298 15.913215,26.4035942 15.6805562,26.6472777 C15.4489067,26.8898485 15.1655753,27.0146923 14.8274307,27.014123 C14.0858469,27.0128549 13.3442113,27.0139936 12.6026275,27.0140195 C11.4298615,27.0140453 10.2567072,26.9954896 9.0844846,27.0206706 C8.35245042,27.0364313 7.80555986,26.4608919 7.80817371,25.7336196 C7.82010427,22.4568311 7.8127803,19.1799649 7.81376373,15.9031246 C7.81397077,15.2733413 8.17571771,14.7896231 8.74020648,14.6646499 C8.84828026,14.6407112 8.96251341,14.6368551 9.07389979,14.6367516 C10.9710138,14.6351729 12.8682312,14.6464823 14.7652158,14.629764 C15.4332494,14.6238893 16.0134731,15.1571413 16.0067961,15.866453 C15.9911906,17.5219538 16.0018013,19.1777392 16.0017237,20.8333953" id="Fill-14" transform="translate(11.907509, 20.825351) rotate(-270.000000) translate(-11.907509, -20.825351) "></path>
                            <path d="M9.65010561,7.38450579 C9.82282696,7.3848681 9.86552852,7.26160292 9.89575605,7.12643307 C9.9326088,7.10327071 9.96420795,7.08401618 9.99578123,7.06476166 C10.2371356,7.01530549 10.4788782,6.92495933 10.7218372,6.92149145 C11.8253232,6.90580833 12.9291457,6.91455568 14.0328646,6.9145298 L14.2996329,6.9145298 C14.3397465,7.02006736 14.3691459,7.09739601 14.3985453,7.17472465 C14.398597,7.84622614 14.3986488,8.51770174 14.3987264,9.18920322 C14.3385819,9.29929561 14.2630648,9.35568756 14.120364,9.35051161 C13.7373698,9.33664007 13.3530298,9.33467321 12.9702427,9.35136564 C12.7966932,9.3589484 12.5867309,9.35338426 12.5301837,9.59541154 C12.4766903,9.64315965 12.4015873,9.67644099 12.3853089,9.72820046 C12.3499572,9.84041499 12.3295381,9.96204975 12.3293569,10.0798802 C12.326329,12.0750266 12.3273642,14.070173 12.3275453,16.0653194 C12.3275453,16.1168977 12.3140879,16.1740143 12.3315826,16.2188639 C12.3601797,16.2920259 12.4091183,16.3572169 12.4494907,16.4257723 C12.4606707,16.442853 12.4778031,16.4645661 12.4949355,16.4862792 C12.6528536,16.6513919 12.8421898,16.7187568 13.0735805,16.7105271 C13.4259848,16.6979495 13.7791656,16.7072662 14.1320099,16.7072921 L14.3982865,16.7072921 L14.3982865,18.8167234 C14.3690424,18.9281357 14.3397724,19.0395997 14.306724,19.1655564 C14.244535,19.1703182 14.1777911,19.1798161 14.1110732,19.1798679 C12.9524115,19.1807478 11.7936982,19.1812912 10.6350366,19.1788327 C10.5511862,19.1786515 10.4649032,19.1637189 10.3840808,19.1405307 C10.2130416,19.0915144 10.0448492,19.0325345 9.87549222,18.9776177 C9.59241968,18.7818375 9.47161308,18.4960994 9.43183593,18.1679185 C9.42153579,18.0828 9.42502956,17.9957923 9.42502956,17.9096646 C9.42479664,14.6772857 9.424719,11.4449068 9.42534011,8.21252791 C9.42534011,8.01566076 9.41252964,7.81576569 9.52068106,7.63636737 C9.53871923,7.59915231 9.55678329,7.56193725 9.57482146,7.52474807 C9.59187621,7.492269 9.61239884,7.45432931 9.63292147,7.4164155 C9.62852191,7.40034418 9.63424133,7.38973349 9.65010561,7.38450579 Z" id="Fill-16" transform="translate(11.911593, 13.046365) rotate(-270.000000) translate(-11.911593, -13.046365) "></path>
                            <path d="M25.6855206,5.25684357 C25.6855206,5.25684357 25.687591,5.27488174 25.6875392,5.27495938 C25.7033258,5.33652727 25.7191642,5.39801752 25.7349509,5.45950777 L25.732777,5.45575521 C25.7522903,5.52751972 25.7718036,5.59928422 25.7913428,5.67104873 C25.7913428,5.67104873 25.7916534,5.68678361 25.7916275,5.68688713 C25.7844847,5.81292143 25.7324406,5.9510157 25.8852345,6.03377909 C25.8919632,6.04796119 25.9002189,6.06167745 25.9046702,6.07650653 C25.9065335,6.08276943 25.9002965,6.09143914 25.8976568,6.09907366 C25.911166,6.14689941 25.924727,6.19462165 25.9383138,6.24234388 C25.9383138,6.24234388 25.9405136,6.26219363 25.9405395,6.26229715 C25.9835775,6.51964524 26.0265896,6.77694156 26.0746483,7.06456894 L25.7521609,7.06456894 C20.8375992,7.06467245 15.9230376,7.06503477 11.0084759,7.06330083 C10.8981506,7.06327495 10.7879806,7.03788693 10.6774482,7.02763855 C10.5601871,7.01674319 10.4334023,6.97510269 10.3541845,7.11205825 C10.3541845,7.11205825 10.3469381,7.11552613 10.3469381,7.11552613 C10.1846463,7.16723384 10.2553497,7.30323185 10.2552721,7.40085021 C10.2518301,11.6604475 10.2523218,15.9199931 10.2523477,20.1795905 C10.2523477,20.239942 10.2532276,20.3003194 10.2520371,20.360671 C10.2472235,20.6039146 10.2306605,20.6238679 9.98309493,20.6242302 C8.7931706,20.6258606 7.60324627,20.6269476 6.41332193,20.6225998 C6.29898526,20.6221857 6.18480387,20.5828226 6.05957184,20.5595308 L6.05957184,20.0646068 C6.05957184,15.873979 6.05988239,11.683377 6.05768262,7.49277503 C6.05763086,7.38485654 6.02988778,7.27693804 6.01508457,7.16901955 C5.92704171,7.15056729 5.83905061,7.11630253 5.75098188,7.11604373 C4.44876537,7.11254996 3.14654887,7.11355927 1.84433237,7.11350751 C1.75072537,7.11348163 1.65714424,7.11350751 1.51907586,7.11350751 C1.81793504,6.18458031 2.10680464,5.28670878 2.39756346,4.3829108 L25.4770076,4.3829108 C25.5121005,4.54644485 25.5460806,4.7048547 25.5800866,4.8633422 C25.5796984,4.94499276 25.5337618,5.03898796 25.6421979,5.09079919 C25.6421979,5.09079919 25.6388077,5.08738307 25.6387559,5.08740895 C25.6543096,5.14393029 25.6699151,5.20037399 25.6855206,5.25684357" id="Fill-12" transform="translate(13.796862, 12.504286) rotate(-270.000000) translate(-13.796862, -12.504286) "></path>
                        </g>
                        <path d="M27.2683191,53.133077 C37.2823531,53.2833606 45.473988,45.1580555 45.4390503,35.14736 C45.4048632,25.3424083 37.4407888,17.3071388 27.5447923,17.2937331 C17.746,17.2804568 9.72299747,25.165158 9.60894548,34.9998455 C9.49315955,44.982565 17.4993661,53.0094236 27.2683191,53.133077 M26.3754423,57.2707808 L24.8226582,57.2707808 C24.4773708,57.2426236 24.1320575,57.2144924 23.786796,57.1863352 C23.2673638,57.1459369 22.7479575,57.1055128 22.2285254,57.0651145 C22.1612898,57.051683 22.0946236,57.0329978 22.0267152,57.0255962 C20.4992415,56.8586201 18.9937396,56.5718985 17.5040503,56.1983763 C17.0790016,56.0918036 16.653901,55.9854379 16.2288523,55.8789686 L16.2252291,55.8780111 L15.1934817,55.5679201 L15.1909196,55.567299 C15.1400401,55.5505289 15.0891605,55.5338106 15.038281,55.5170664 L15.0344249,55.5161089 C14.673532,55.3947329 14.3126391,55.273357 13.9517462,55.151981 L13.9505039,55.1515152 C13.7608831,55.0825974 13.5712882,55.0136797 13.3816932,54.9447879 L13.3812274,54.9445291 C13.2950738,54.9112995 13.2088943,54.8780699 13.1227147,54.8448403 L13.1185481,54.8435204 L12.7087425,54.6879315 L12.7065686,54.6872068 C12.4484441,54.5839467 12.1903196,54.4806348 11.9321952,54.3773488 L11.9302542,54.37665 C11.8447475,54.3421265 11.7592409,54.3075511 11.6737084,54.2730017 L11.6723626,54.2724841 L11.5694389,54.2248913 L11.5649617,54.2231314 C11.2313978,54.0698975 10.8990503,53.9138945 10.5638301,53.7643614 C10.3147894,53.6532338 10.0619961,53.5504913 9.81088505,53.444022 L9.80953931,53.4434785 C9.73989694,53.4104042 9.67028045,53.3773299 9.60063809,53.3442815 L9.59859359,53.343324 C9.52985701,53.3102756 9.46109455,53.2772012 9.39235798,53.2441528 L9.38746671,53.2421342 C9.11262392,53.1057739 8.83780702,52.9694394 8.56299011,52.8330791 L8.55545911,52.8296889 C8.35188911,52.7250053 8.148345,52.6203477 7.94480088,52.51569 L7.9427305,52.5146549 L7.84319704,52.4629471 L7.84053143,52.4618343 C7.80722421,52.4442879 7.77394287,52.4267155 7.74066153,52.4091691 L7.73884995,52.4083409 L7.63750491,52.3563226 L7.63618504,52.3557533 C7.54842686,52.3072805 7.46066868,52.2588078 7.3729105,52.2103609 L7.36739812,52.2074106 C7.30099072,52.1723177 7.2346092,52.1372248 7.1682018,52.102106 L7.16574322,52.1008897 C7.13297948,52.0831103 7.10018985,52.0653309 7.06740023,52.0475515 L7.06530397,52.0465681 C6.94408329,51.9791773 6.82286261,51.9118123 6.70166782,51.8444474 L6.69871753,51.8429205 C6.57835088,51.7755814 6.45793247,51.7082423 6.33753994,51.6409291 L6.3322346,51.6380306 C6.30125656,51.6193713 6.27027851,51.600712 6.23930047,51.5820269 L6.23681602,51.5808105 C6.11595765,51.5128503 5.99509929,51.444916 5.87426681,51.3769817 L5.87229995,51.3758689 C5.83976912,51.3572096 5.8072383,51.3384985 5.77470747,51.3198393 L5.77395696,51.3193993 C5.72072234,51.2874637 5.66753949,51.2555022 5.61433075,51.2235925 L5.61156162,51.2220139 C5.57926371,51.2034063 5.5469658,51.1848247 5.51466789,51.1661913 L5.51396914,51.1658031 C5.46099332,51.133764 5.4080175,51.1017249 5.35506757,51.0696857 L5.35113385,51.0675377 L5.25576702,51.0116375 L5.25447304,51.0109905 L5.09621846,50.9155202 L5.09083547,50.9127251 L4.99673676,50.8567732 L4.99531337,50.8560226 C4.94269987,50.823673 4.89008637,50.7913233 4.83747287,50.7589478 L4.83364267,50.7567997 C4.74893829,50.7051438 4.66423392,50.653462 4.57950367,50.6017801 C4.57950367,50.601806 4.57694158,50.6004085 4.57694158,50.6004085 C4.54456603,50.581801 4.51219048,50.5631676 4.47984081,50.54456 L4.47916794,50.544146 C4.34109955,50.4580958 4.20305705,50.3720198 4.06501454,50.2859697 L4.06470398,50.2857627 C4.01307391,50.2515497 3.96144384,50.2173884 3.90983965,50.1832013 L3.90867506,50.1824249 C3.85644976,50.1494024 3.80422445,50.1163798 3.75199915,50.0833573 L3.74977349,50.0820115 L3.59452096,49.9836168 L3.5901214,49.98121 L3.49742019,49.9215313 L3.49721315,49.9214278 C3.47808803,49.9086949 3.45893703,49.895988 3.43978602,49.883281 L3.43225502,49.878985 C3.40179457,49.8593682 3.37133412,49.8397772 3.34087368,49.8201863 L3.34022668,49.8198498 C3.28756142,49.7869308 3.23489616,49.7540635 3.1822309,49.7211445 L3.1801864,49.719954 C3.12956564,49.685327 3.07894488,49.6506999 3.02829824,49.6160987 L3.02648666,49.6149858 C2.9750895,49.5810834 2.92366647,49.5471809 2.87226932,49.5132785 L2.87056125,49.5122174 C2.81986285,49.4779009 2.76913857,49.4435585 2.71844017,49.4092161 L2.71621451,49.4079738 C2.66492088,49.3737608 2.61362724,49.3395737 2.56233361,49.3053866 L2.56088434,49.3044031 C2.51000479,49.2699831 2.45912523,49.2355372 2.40821979,49.201143 L2.40625293,49.2000302 C2.38818887,49.1876079 2.3701507,49.1751856 2.35208664,49.1627633 L2.34101012,49.1555947 C2.31202481,49.1357967 2.28298775,49.1159987 2.25397657,49.0962266 L2.25263082,49.0954502 C2.20084547,49.0614183 2.149086,49.0273606 2.09732653,48.9933546 L2.0966019,48.9928629 C2.04561882,48.9577958 1.99460986,48.9227806 1.94362679,48.8877394 L1.94313507,48.8873771 C1.87261279,48.8382315 1.80209052,48.78906 1.73156824,48.7399144 L1.72851443,48.7379993 C1.67872182,48.7031134 1.62890333,48.6682534 1.57908484,48.6333675 L1.57704034,48.6320994 C1.52629018,48.5972394 1.47551414,48.5624053 1.42476398,48.5275453 L1.42359939,48.526743 C1.35406054,48.4764587 1.2845217,48.4261743 1.21495697,48.37589 L1.21286071,48.3744666 C1.16260227,48.3393478 1.11234382,48.3042031 1.06208537,48.2690585 L1.06066199,48.268075 C1.04275321,48.2549022 1.02484444,48.2417295 1.00693566,48.2285826 L0.997774233,48.2229408 L0.908670306,48.1629515 L0.908100952,48.1625892 C0.889571062,48.1484848 0.871015292,48.1343803 0.852485401,48.1202759 L0.84774941,48.1171703 C0.798629673,48.0813527 0.749535816,48.0455093 0.700441959,48.0096918 L0.698940934,48.0086048 C0.68079924,47.9956132 0.662657546,47.9826474 0.644515851,47.9696558 C0.644515851,47.9696558 0.635975539,47.9640399 0.635975539,47.9640399 C0.606317363,47.9436467 0.576659186,47.9232276 0.54697513,47.9028085 C0.54700101,47.9028085 0.54702689,47.9028343 0.54702689,47.9028343 C0.528367601,47.8884452 0.509708312,47.8740561 0.491049023,47.8596411 L0.487244702,47.8571307 C0.437555611,47.8215202 0.3878924,47.7859097 0.338229188,47.7502733 L0.337219879,47.7495487 C0.319104064,47.7355477 0.301014129,47.7215209 0.282924195,47.70752 L0.277023615,47.7035345 C0.227903878,47.6680016 0.178758262,47.6324946 0.129638525,47.5969617 L0.128059861,47.595823 C0.110435761,47.5816409 0.0928116618,47.5674847 0.0751875623,47.5533285 L0.068976426,47.5489548 C0.0386971361,47.5285098 0.00839196644,47.5080131 -0.0218614437,47.4875681 L-0.0212920895,47.4880339 C-0.0397702203,47.4725579 -0.0582742308,47.4571335 -0.0767523615,47.4416833 L-0.0783569051,47.4406481 C-0.14722288,47.389458 -0.216088854,47.3382679 -0.284954829,47.2870778 L-0.286766411,47.2858356 L-0.339612829,47.2458773 L-0.3483343,47.2397696 L-0.491759791,47.1315924 L-0.493519613,47.1302984 C-0.511195472,47.1167891 -0.528871331,47.1033058 -0.54652131,47.0897966 L-0.554544028,47.0841548 C-0.602783854,47.0485184 -0.65102368,47.012882 -0.699237626,46.9772197 L-0.700997448,46.9759516 C-0.768621196,46.923571 -0.836244943,46.8712163 -0.90386869,46.8188616 L-0.905395595,46.8175935 C-0.922838536,46.8026609 -0.940307357,46.7877024 -0.957776178,46.7727439 L-0.962227493,46.7695349 C-1.01165779,46.7337691 -1.0610622,46.6980033 -1.11049249,46.6622375 L-1.11095833,46.6617975 L-1.16551281,46.6172326 L-1.16879954,46.6148776 C-1.23631977,46.5626264 -1.30381411,46.5104011 -1.37130846,46.4581499 L-1.37244717,46.4572441 C-1.44012268,46.40432 -1.50779819,46.3513701 -1.57544781,46.2984202 L-1.57531841,46.2985237 C-1.59387418,46.2835393 -1.61240407,46.2685808 -1.63093396,46.2535965 L-1.63396189,46.2514484 C-1.65109428,46.2376287 -1.66822666,46.2238089 -1.68533317,46.2099891 L-1.69333,46.2041144 C-1.74076756,46.167624 -1.78820511,46.1310818 -1.83564267,46.0945914 L-1.83714369,46.0934785 C-1.85484543,46.0785459 -1.87252129,46.0636133 -1.89022303,46.0487066 L-1.89516606,46.0450317 C-1.91162557,46.0317554 -1.92808508,46.0184791 -1.94451871,46.0051769 L-1.95417185,45.99762 L-2.09418122,45.8869324 L-2.09529405,45.8860783 C-2.11325458,45.8711199 -2.13121512,45.8561614 -2.14917566,45.8412288 L-2.15341993,45.8380973 L-2.20331606,45.7971556 L-2.21201165,45.7904786 C-2.25968212,45.7543505 -2.30732672,45.7181965 -2.35499719,45.6820684 L-2.35665349,45.6806968 C-2.37396703,45.6655571 -2.39130646,45.6503916 -2.40862,45.6352261 L-2.41338187,45.6315512 C-2.4296861,45.6179902 -2.44599034,45.6044551 -2.46229457,45.5908941 L-2.47148188,45.5836995 C-2.5180654,45.5462515 -2.56464892,45.5088036 -2.61123244,45.4713556 L-2.61159476,45.471045 C-2.62983997,45.4561124 -2.64811107,45.4412316 -2.66638216,45.4263249 L-2.66935833,45.424151 C-2.7540627,45.3545345 -2.83874119,45.284918 -2.92341969,45.2153274 L-2.92510187,45.2139816 C-2.94246717,45.1989973 -2.95980659,45.1840129 -2.97714602,45.1690285 L-2.98149381,45.1655606 C-3.04795297,45.1122743 -3.11438625,45.0590397 -3.18081953,45.0057533 L-3.18118185,45.005391 C-3.19953058,44.9908466 -3.21787931,44.9762504 -3.23620216,44.9616801 L-3.24091227,44.9584192 C-3.25729415,44.9440819 -3.27365014,44.9297445 -3.29003201,44.9154589 L-3.29686426,44.9095324 C-3.3619518,44.8555732 -3.42701345,44.8016398 -3.49204922,44.7477064 L-3.49254094,44.7472406 C-3.51039795,44.7317904 -3.52825497,44.7163661 -3.54611199,44.7009418 L-3.54924344,44.6984056 C-3.56601351,44.68324 -3.58278357,44.6680745 -3.59955364,44.652909 L-3.60397908,44.6493117 C-3.68775178,44.5790482 -3.77152448,44.5087847 -3.85529718,44.4384954 L-3.85630649,44.4376155 C-3.87372355,44.4219582 -3.89119237,44.4063269 -3.90863532,44.3906437 L-3.91117153,44.3885216 C-3.99548771,44.318284 -4.07982976,44.2479946 -4.16414594,44.1777053 L-4.16463765,44.1773171 C-4.18228763,44.1611164 -4.19993761,44.1449157 -4.21761347,44.1287408 L-4.21916626,44.1274727 C-4.23681624,44.1127989 -4.25446621,44.0980992 -4.27209031,44.0833995 L-4.27667103,44.0799058 C-4.35964146,44.0085295 -4.44258601,43.9371531 -4.52555644,43.8657768 L-4.52565996,43.8656733 C-4.54359461,43.8495761 -4.56155515,43.8334789 -4.57948981,43.8174076 L-4.58073203,43.8163207 C-4.59814909,43.8006893 -4.61556616,43.7850579 -4.63298322,43.7694266 L-4.63637346,43.7667869 C-4.65316941,43.7525012 -4.66996536,43.7382415 -4.68673543,43.7239818 L-4.69501694,43.7171754 C-4.70987191,43.7032003 -4.72475276,43.6891994 -4.73960773,43.6752244 C-4.73960773,43.6752244 -4.74778572,43.6677969 -4.74775984,43.6677969 C-4.81225214,43.6136306 -4.87671856,43.5594643 -4.9411591,43.5053239 L-4.94170258,43.5048063 C-4.95924904,43.4887867 -4.97682138,43.4727672 -4.99439372,43.4567476 L-4.99648997,43.4551172 C-5.01380352,43.4400293 -5.03111706,43.4249673 -5.04840472,43.4098794 L-5.05329599,43.4055834 C-5.06921203,43.3905473 -5.08512807,43.3754853 -5.10106998,43.3604491 L-5.10632357,43.3557649 C-5.20621935,43.2671527 -5.306141,43.1785405 -5.40603678,43.08998 L-5.40616618,43.0898506 C-5.42420435,43.0740899 -5.44221665,43.0583809 -5.46025483,43.042646 L-5.46229932,43.0408862 L-5.51351532,42.9938886 L-5.517242,42.9909124 C-5.53380503,42.9762127 -5.55039394,42.961513 -5.56695697,42.9467875 L-5.57244348,42.9416374 C-5.67200282,42.8527405 -5.77153628,42.7638695 -5.87109562,42.6749726 C-5.88871972,42.6583837 -5.9063697,42.6417689 -5.92401968,42.62518 L-5.92482195,42.6244812 C-5.94216137,42.6081252 -5.95952667,42.5917434 -5.97689197,42.5753356 L-5.97841888,42.5740675 C-5.99606886,42.5591349 -6.01371884,42.5442023 -6.03136882,42.5292956 L-6.03602717,42.5253618 C-6.05217612,42.510274 -6.06835096,42.495212 -6.08452579,42.48015 L-6.09071105,42.4748705 C-6.10621301,42.460352 -6.12168909,42.4458334 -6.13719105,42.431289 L-6.14384214,42.425259 L-6.43972515,42.1562651 L-6.43936284,42.1566274 C-6.4570387,42.1396762 -6.47468868,42.1226991 -6.49236453,42.1056961 C-6.49236453,42.1056961 -6.4922869,42.1057996 -6.49226102,42.1057996 C-6.50972984,42.0887966 -6.52719866,42.0717936 -6.54466748,42.0547647 L-6.54482276,42.0546353 L-6.59787621,42.0054121 L-6.59896316,42.0044545 C-6.6165355,41.9888749 -6.63410784,41.9732695 -6.65168018,41.9576899 L-6.65486339,41.955076 C-6.67142642,41.9394705 -6.68801533,41.9238392 -6.70457836,41.9082337 L-6.70890028,41.9040929 C-6.72497159,41.8890568 -6.74104291,41.8740466 -6.75708834,41.8590104 C-6.75711422,41.8590104 -6.7635324,41.8534463 -6.7635324,41.8534463 C-6.77893084,41.8385654 -6.7943034,41.8237105 -6.80970184,41.8088296 L-6.81661173,41.8021268 L-6.86190127,41.7596581 L-6.87139913,41.7511955 C-6.88578827,41.7381003 -6.90015152,41.7250052 -6.91451477,41.7119618 L-6.92675589,41.6997724 C-6.93992867,41.6866514 -6.95310146,41.6735304 -6.96624836,41.6604093 L-6.97711785,41.6503162 C-7.05680155,41.5774389 -7.13648526,41.5046133 -7.21614308,41.431736 L-7.21588428,41.4320466 C-7.23376718,41.4154835 -7.25165008,41.3988946 -7.26953297,41.3823057 L-7.26986941,41.3820728 C-7.28757115,41.3657168 -7.30527289,41.3493091 -7.32294875,41.3329272 L-7.32398394,41.331892 C-7.3410128,41.3152513 -7.35806755,41.2985848 -7.37512229,41.2819182 L-7.37657156,41.2806501 C-7.39349691,41.264113 -7.41042225,41.2475758 -7.4273476,41.2310645 L-7.4291333,41.2292788 C-7.44621393,41.2135181 -7.46332043,41.1977314 -7.48040106,41.1819707 L-7.48371366,41.1792016 L-7.5330922,41.1316605 L-7.53684476,41.1279338 C-7.55289019,41.111966 -7.56893563,41.0960241 -7.58495518,41.0800563 L-7.58875951,41.0762778 L-7.63720637,41.030186 L-7.64266699,41.0253207 L-7.68956107,40.9799794 L-7.69574633,40.97382 C-7.71101537,40.9591203 -7.72628442,40.9443688 -7.74155346,40.9296433 L-7.74957618,40.9227334 C-7.76437939,40.9086289 -7.77920847,40.8944986 -7.79401168,40.8803683 L-7.80319899,40.8711809 C-7.81745872,40.8571283 -7.83171846,40.8430497 -7.84597819,40.828997 L-7.85542429,40.8196544 C-7.86960639,40.805964 -7.8837626,40.7922736 -7.89791882,40.7786091 L-7.90695085,40.77025 C-8.19442294,40.4905418 -8.48186916,40.2108336 -8.76934125,39.9311513 L-8.76908246,39.9314101 C-8.78660304,39.9143813 -8.80412362,39.8973265 -8.8216442,39.8802977 L-8.82172184,39.8802459 L-8.87286019,39.8277877 L-8.87270492,39.827943 C-8.88999258,39.8106294 -8.90728024,39.7933159 -8.9245679,39.7760282 L-8.92441263,39.7761835 C-8.97624974,39.7242946 -9.02808684,39.6723799 -9.07992395,39.6204651 L-9.07953576,39.6208792 L-9.13147639,39.568628 L-9.13116583,39.5689644 C-9.14866053,39.5517803 -9.16612935,39.5345962 -9.18362405,39.517412 L-9.18344289,39.5175932 C-9.2006788,39.500202 -9.21794058,39.4828108 -9.23520236,39.4654196 L-9.23494357,39.4656784 C-9.25205007,39.4480026 -9.2691307,39.4303526 -9.2862372,39.4127285 L-9.28579724,39.4131426 C-9.30336958,39.3959584 -9.32091605,39.3787484 -9.33848839,39.3615643 L-9.33817783,39.3618748 C-9.35564665,39.3446389 -9.37308959,39.3274289 -9.39055841,39.310193 L-9.39029961,39.3104518 L-9.44198145,39.2579677 L-9.44159325,39.2583559 C-9.45893267,39.2409129 -9.47629797,39.2234959 -9.49366328,39.2060788 L-9.4932492,39.2064929 C-9.5106145,39.1891017 -9.52803156,39.1717105 -9.54542275,39.1542935 L-9.54498279,39.1547334 C-9.56237397,39.1373681 -9.57976515,39.1199769 -9.59715634,39.1026116 L-9.59679402,39.1029739 C-9.61415932,39.0855828 -9.6315505,39.0682175 -9.64891581,39.0508263 L-9.64855349,39.0512145 C-9.66586703,39.0337198 -9.68320645,39.0162251 -9.70052,38.9987562 L-9.69997652,38.9992997 C-9.71747122,38.9819603 -9.73494004,38.9646209 -9.75243475,38.9473073 L-9.75199479,38.9477214 C-10.0142859,38.6767347 -10.2765511,38.405748 -10.5388423,38.1347613 L-10.5458815,38.1278255 C-10.5602448,38.1129964 -10.5745822,38.0981415 -10.5889195,38.0833124 L-10.5957518,38.0755485 C-10.6105032,38.0602018 -10.6252547,38.0448551 -10.640032,38.0295602 L-10.6460102,38.0235302 L-10.6912998,37.9759115 L-10.6955958,37.971072 C-10.7111754,37.9548971 -10.726755,37.9387223 -10.7423605,37.9225733 L-10.7459836,37.9189243 C-10.7618738,37.9024648 -10.7777898,37.886057 -10.79368,37.8696234 L-10.7964491,37.8663884 C-10.8122358,37.8492819 -10.8280483,37.8321496 -10.8438349,37.8150172 L-10.8454654,37.8133867 C-10.8621319,37.7967202 -10.8787984,37.7800795 -10.895465,37.763413 L-10.8973542,37.7615238 C-10.9137361,37.7444431 -10.9301438,37.7273625 -10.9465257,37.7102819 L-10.9476903,37.7088326 C-10.9641498,37.6914156 -10.9805576,37.6739985 -10.9970171,37.6565556 L-10.9975347,37.656038 C-11.0145894,37.6389315 -11.0316183,37.6218508 -11.0486989,37.6047184 L-11.0491906,37.6042008 C-11.0660642,37.5867838 -11.0829378,37.5693408 -11.0998373,37.5518979 L-11.0999149,37.5517944 C-11.1168403,37.5341703 -11.1337656,37.5165462 -11.1506909,37.498948 L-11.150458,37.4991809 C-11.1674869,37.4814791 -11.1845416,37.4637774 -11.2015705,37.4460757 L-11.201027,37.446645 C-11.3078845,37.3304968 -11.4147678,37.2143226 -11.5216252,37.0981485 L-11.5277069,37.0920927 C-11.5423807,37.0769271 -11.5570545,37.0617616 -11.5717025,37.046622 L-11.5777583,37.0397897 C-11.5927945,37.0243395 -11.6078306,37.0088893 -11.6228667,36.9934391 L-11.6284567,36.9877973 C-11.6436999,36.9718813 -11.6589431,36.9559652 -11.6741862,36.9400751 L-11.6783011,36.9352097 C-11.6938031,36.9188278 -11.7093309,36.9024201 -11.7248587,36.8859864 L-11.728042,36.8825444 C-11.743518,36.8650756 -11.75902,36.8476068 -11.7744961,36.830138 L-11.7756348,36.8287146 C-11.7920943,36.8113493 -11.8085538,36.793984 -11.8250133,36.7766187 L-11.8256344,36.7759199 C-11.8424304,36.7585029 -11.8592004,36.7410599 -11.8759705,36.7236429 L-11.8761517,36.7234358 C-11.8931288,36.7059411 -11.9101318,36.6884723 -11.9271089,36.6709776 L-11.9270571,36.6710552 C-11.9438013,36.6531723 -11.9605973,36.6352895 -11.9773673,36.6173807 L-11.9769274,36.6178206 C-12.0672476,36.5206681 -12.157542,36.4234897 -12.2478623,36.3263372 C-12.2478623,36.3263372 -12.2565061,36.3163994 -12.2565061,36.3163994 C-12.2701706,36.3024502 -12.2838351,36.288501 -12.2974738,36.2745518 L-12.3073339,36.2646916 C-12.3210502,36.2493708 -12.3347665,36.2341018 -12.3484827,36.218781 L-12.3544351,36.2117935 C-12.3693159,36.1958774 -12.3841968,36.1799614 -12.3990776,36.1640195 L-12.4033219,36.1589212 C-12.4185392,36.1421511 -12.4337564,36.1253552 -12.4489737,36.1085851 L-12.451717,36.105816 C-12.4678142,36.08902 -12.4838855,36.0722241 -12.4999827,36.0554281 L-12.5018978,36.0530472 C-12.5178656,36.0357336 -12.5338593,36.0183942 -12.5498271,36.0010548 L-12.5510952,35.9997867 C-12.5678911,35.9828096 -12.5847129,35.9657807 -12.6015348,35.9488036 L-12.6023629,35.9478978 C-12.6191589,35.930636 -12.6359289,35.9133484 -12.6527249,35.8960866 L-12.6531648,35.8955949 C-12.6698055,35.8778414 -12.6864462,35.860062 -12.7030868,35.8423085 L-12.7029057,35.8425155 C-12.7199863,35.8249173 -12.7370928,35.8073191 -12.7541734,35.7897209 C-12.7541734,35.7897209 -12.753837,35.7900314 -12.7538111,35.7900314 C-12.8110571,35.7174905 -12.8780339,35.6502809 -12.9220294,35.5704419 C-12.9501089,35.5195106 -12.9441566,35.4498682 -12.9534733,35.3886109 C-12.9403781,35.3767838 -12.9273089,35.3649568 -12.9142137,35.3531297 C-12.902749,35.341665 -12.8912584,35.3302521 -12.8797678,35.3188132 L-12.8641364,35.3030783 C-12.8537069,35.2913548 -12.8433032,35.2796054 -12.8328996,35.2678819 C-12.8087538,35.242908 -12.7846339,35.217934 -12.7604881,35.1929601 C-12.7506797,35.1831775 -12.7408971,35.173395 -12.7310887,35.1635866 C-12.2405125,34.642731 -11.7501432,34.1216943 -11.2593082,33.6010458 C-8.03047482,30.1762511 -4.59421537,26.979198 -0.85024588,24.1199014 C1.77108659,22.1179745 4.51309627,20.3021747 7.42073625,18.7400997 C9.85529468,17.4321897 12.3749457,16.3228548 15.0052325,15.4696776 C16.8524504,14.8704841 18.7340365,14.4120246 20.6523719,14.1086365 C21.8794077,13.9145644 23.1148286,13.7987008 24.3553479,13.7362789 C24.9028078,13.7371846 25.4502159,13.7385822 25.99765,13.738841 C26.3311103,13.7389962 26.6645448,13.7374693 26.9980052,13.7366671 C28.420019,13.8135816 29.8318621,13.968213 31.2301442,14.24818 C34.6445352,14.9318191 37.7589284,16.3103032 40.6217188,18.2770336 C42.5331184,19.5901973 44.2739705,21.1058957 45.9170231,22.7380012 C47.8344009,24.6426203 49.6112,26.6741795 51.3308825,28.7558677 C53.1488045,30.9564475 54.9489471,33.1717528 56.7568019,35.3805881 C56.8264184,35.529526 56.6820094,35.6179053 56.6551722,35.7395659 L56.6554051,35.7392295 C56.6402137,35.7577335 56.6249705,35.7762634 56.6097532,35.7947674 L56.6080452,35.7973295 C56.5941995,35.8146948 56.5803539,35.832086 56.5665082,35.8495031 L56.5608664,35.8568011 C56.5241948,35.9045493 56.4875232,35.9523232 56.4508517,36.0000714 C56.4508517,36.0000972 56.4502305,36.000796 56.4502305,36.000796 C56.435505,36.0187565 56.4207794,36.0367429 56.4060538,36.0547035 L56.403,36.0589478 C56.3659661,36.1073946 56.3289322,36.1558415 56.2918983,36.2043142 L56.2920536,36.2041331 C56.2771728,36.2229218 56.2622919,36.2417104 56.2473852,36.2604474 L56.2460394,36.2625954 C56.1937624,36.3305815 56.1414853,36.3985675 56.0891824,36.4665536 L56.0885612,36.4673041 C56.073991,36.4852646 56.0593948,36.5032252 56.0448504,36.5211598 L56.0408131,36.5269051 C56.027925,36.5429764 56.015011,36.5590478 56.0021229,36.5751191 L55.9932203,36.5867649 C55.9569628,36.6330638 55.9207053,36.6793626 55.8844219,36.7256356 L55.8827915,36.7280683 C55.8692046,36.7457959 55.8556695,36.7635235 55.8421085,36.7811994 L55.8363374,36.7886269 C55.800054,36.8366855 55.7637447,36.8847442 55.7274613,36.9328029 L55.7268143,36.9337087 C55.7129687,36.951721 55.6991748,36.9697333 55.6853809,36.9877973 L55.6805672,36.9945519 C55.628549,37.0609076 55.5765307,37.1272373 55.5244865,37.1936189 L55.5224162,37.196388 C55.4701132,37.2639341 55.4177585,37.3314284 55.3654556,37.3989487 L55.3647309,37.3999321 C55.3503936,37.417815 55.3360303,37.4356461 55.3216671,37.453529 L55.3175781,37.4588085 C55.2808288,37.5070483 55.2440796,37.5552623 55.2073304,37.603528 L55.2070716,37.6038903 C55.191932,37.6221096 55.1767664,37.640329 55.1616268,37.6586001 L55.1592717,37.6618868 C55.1461507,37.6790709 55.1330556,37.6962292 55.1199345,37.7133875 L55.1126106,37.72273 C55.0761201,37.7700899 55.0396556,37.8174757 55.003191,37.8648615 L55.002777,37.8653533 C54.9503705,37.9334687 54.8979382,38.0015324 54.8455317,38.069622 L54.8448588,38.0705019 C54.8296933,38.0883072 54.8145019,38.1061383 54.7993364,38.1239953 L54.7969037,38.1271785 C54.7445749,38.1947764 54.6922978,38.2624001 54.639969,38.329998 L54.6394255,38.3306709 C54.6253987,38.3487608 54.611346,38.3668766 54.5973192,38.3849666 L54.5931008,38.3909448 C54.5561963,38.4390552 54.5192918,38.4871398 54.4824131,38.5352761 L54.4823096,38.5353537 C54.4674805,38.5538318 54.4527291,38.57231 54.4379259,38.5907622 L54.4351567,38.5945148 C54.4213628,38.6112849 54.4075689,38.6280808 54.393775,38.6448768 L54.3875898,38.6531324 C54.3508147,38.7005958 54.3140396,38.7480334 54.2772645,38.7954968 L54.276721,38.7961438 C54.2622542,38.8142337 54.2477875,38.8323237 54.2333466,38.8504136 L54.2299822,38.8549684 C54.1775757,38.9219452 54.1251952,38.9889219 54.0727887,39.0559246 L54.0714688,39.057762 C54.0573644,39.0751791 54.043234,39.0925703 54.0291037,39.1099615 L54.0239536,39.1166384 C53.9870233,39.1644124 53.9500929,39.2121864 53.9131366,39.2599345 L53.9129813,39.2601157 C53.8980487,39.2783868 53.8831679,39.2966838 53.8682611,39.3149548 L53.8660096,39.3182157 C53.8139137,39.3859171 53.7618437,39.4535667 53.7097478,39.5212163 L53.7085055,39.522795 C53.6936247,39.5402121 53.6787697,39.5576032 53.6638889,39.5750203 L53.6596705,39.5805844 L53.6200745,39.6287984 L53.6120518,39.6392538 C53.5754578,39.6859667 53.538838,39.7327055 53.5022441,39.7794185 L53.5010018,39.7810748 C53.4870009,39.7988283 53.473,39.8165817 53.4590249,39.8343352 L53.4544701,39.840624 C53.4327052,39.8699458 53.4109404,39.8992934 53.3891755,39.9286151 L53.3902883,39.9272694 L53.343446,39.9842824 L53.3434201,39.9843083 C53.3285393,40.0027864 53.3136067,40.0212387 53.2987258,40.0397168 L53.2967331,40.0425377 C53.2282812,40.1280961 53.1598034,40.2137063 53.0913256,40.2992906 L53.0894364,40.302215 C53.0764965,40.3192956 53.0635308,40.3363503 53.050565,40.353431 L53.0407566,40.3656462 L53.0028687,40.4059927 L52.9921027,40.4191655 C52.971606,40.4470121 52.9511092,40.4748328 52.9306383,40.5026794 L52.9302502,40.5031194 C52.9149552,40.5211317 52.8996603,40.5391698 52.8843913,40.557208 L52.8819068,40.5605982 C52.8681388,40.5776271 52.8543708,40.5946301 52.8406286,40.6116072 L52.834521,40.6195523 C52.7972283,40.6666793 52.7599615,40.7138322 52.7226688,40.760985 L52.7224876,40.7611662 C52.7071151,40.7793596 52.6917425,40.7975531 52.6763958,40.8157207 L52.6744549,40.8183087 C52.6604539,40.8355963 52.646453,40.8529099 52.6324262,40.8701975 C52.6324262,40.8701975 52.6269655,40.8772109 52.6269397,40.8772109 C52.5902163,40.9250626 52.553493,40.9729401 52.5167437,41.0208176 L52.5167179,41.0208176 C52.4315735,41.1251129 52.3464551,41.2294082 52.2613108,41.3336777 L52.2601203,41.3352564 C52.24555,41.3526475 52.2309538,41.3700646 52.2163835,41.3874558 L52.2120616,41.3928129 C52.1587235,41.4587545 52.1053854,41.5247219 52.0520472,41.5906893 L52.0511932,41.5916728 C52.0360277,41.6093227 52.0208621,41.626921 52.0056966,41.6445709 L52.0029016,41.6480388 C51.9492788,41.7146274 51.895656,41.7811901 51.8420332,41.8478045 L51.8423437,41.8473387 C51.8279805,41.8661274 51.8136172,41.884916 51.799254,41.9037306 L51.7957861,41.9082854 C51.7811382,41.9244603 51.7664385,41.940661 51.7517905,41.9568617 L51.7465111,41.9633316 C51.6930435,42.0289109 51.6396019,42.0944643 51.5861344,42.1599917 C51.5861344,42.1600176 51.5853062,42.1609752 51.5853062,42.1609752 C51.5702442,42.1785993 51.5551563,42.1961975 51.5400943,42.2138216 L51.5369887,42.2177812 L51.3748781,42.4157612 L51.3751369,42.4154765 C51.3592467,42.4337217 51.3433824,42.4519669 51.3274664,42.4701863 L51.3265865,42.4714026 C51.3117833,42.4892596 51.2969801,42.5070649 51.282151,42.524896 L51.2790195,42.5290109 C51.2247497,42.5948748 51.1704799,42.6607129 51.1162101,42.7265768 L51.1165983,42.726111 C51.1014069,42.7447702 51.0861896,42.7634036 51.0710241,42.7820888 L51.0693161,42.784418 C51.0539694,42.8015763 51.0386486,42.8187086 51.0233019,42.8358669 L51.0196528,42.8404735 C51.0059625,42.8568295 50.9922721,42.8732114 50.9786076,42.8895674 L50.9715942,42.8980559 C50.9175314,42.9624706 50.8634428,43.0268594 50.8093541,43.091274 L50.808526,43.0922057 C50.7929205,43.1098039 50.7773409,43.1274539 50.7617354,43.145078 L50.759458,43.1480024 C50.7455088,43.1651607 50.7315079,43.1823448 50.7175587,43.1995031 L50.7105712,43.2080951 C50.6974501,43.2228466 50.6843291,43.237598 50.6711822,43.2523495 L50.6621502,43.263426 C50.640877,43.2915055 50.6196557,43.319585 50.5983566,43.3476387 C50.5983566,43.3476645 50.5988742,43.3470693 50.5988742,43.3470693 C50.5823371,43.3650816 50.5658258,43.3830163 50.5492887,43.4010027 L50.5490557,43.4013391 L50.5019805,43.4550913 L50.5005312,43.4569288 C50.4127731,43.5588173 50.3250149,43.6606799 50.2372567,43.7625685 L50.2374896,43.7622838 L50.190932,43.8174076 L50.1894309,43.8192968 C50.1742137,43.8366363 50.1590223,43.8539757 50.143805,43.8713151 L50.1398713,43.8760252 L50.0968074,43.9243168 L50.0907256,43.931382 C50.036197,43.9959519 49.9816426,44.0605477 49.927114,44.1251435 L49.9271657,44.12504 C49.9111462,44.1430006 49.8951266,44.1609611 49.8790812,44.1789475 L49.8779425,44.180345 C49.8627252,44.1979432 49.8475079,44.2155156 49.8323165,44.2330879 L49.8288227,44.237384 C49.8136831,44.2536105 49.7985175,44.2698113 49.7833779,44.2860637 L49.7781502,44.2920937 C49.7644339,44.3077251 49.7507177,44.3233823 49.7369755,44.3389878 L49.7293669,44.3476834 C49.6745277,44.4114769 49.6196368,44.4752964 49.5647718,44.5390899 L49.5647459,44.5390899 C49.5485452,44.556921 49.5323445,44.5748039 49.5161696,44.592661 L49.5153156,44.5938255 C49.4996842,44.6114496 49.4841046,44.629022 49.4684992,44.6466461 L49.4655748,44.649674 C49.4500987,44.666237 49.4346485,44.6827742 49.4191724,44.6992855 L49.4159374,44.7033227 C49.3108398,44.8215413 49.2057422,44.9397082 49.1006446,45.0579009 L49.100127,45.0584703 L49.0525859,45.1110838 L49.050205,45.1138271 C49.0346513,45.1305454 49.0190717,45.1472896 49.003518,45.1640079 L49.0003606,45.1675534 C48.8783377,45.3032408 48.756263,45.4389283 48.6341883,45.5746416 L48.6334895,45.5753921 C48.6177029,45.5930421 48.6019421,45.6107438 48.5861814,45.6284197 L48.5842404,45.6308524 L48.5368546,45.681732 L48.5336455,45.6849928 C48.5176777,45.7012453 48.5017358,45.7174978 48.485768,45.7337761 L48.4821448,45.7373993 L48.4352766,45.7859238 L48.4312653,45.7906598 C48.4169797,45.8068605 48.4027199,45.8230353 48.3884343,45.8392101 L48.3809551,45.8474917 C48.3665918,45.8621655 48.3522544,45.8768134 48.3379429,45.8914613 L48.3306707,45.8988629 C48.2246415,46.0151665 48.1185863,46.1314959 48.0125312,46.2478253 L48.0125312,46.2477735 C47.9954505,46.2650612 47.9783958,46.2823488 47.9613669,46.2996365 L47.9610564,46.2999988 L47.9108756,46.3520171 L47.909918,46.3530005 C47.8935361,46.3702623 47.8771801,46.3874982 47.8608242,46.4047341 L47.859349,46.4064939 C47.8430189,46.4234193 47.8267147,46.4403705 47.8103846,46.4572959 L47.8082365,46.4594698 C47.7927605,46.4764469 47.7772844,46.493424 47.7618083,46.5104011 L47.7581592,46.5146454 L47.7117569,46.5631699 L47.7071503,46.5681388 C47.6917518,46.5838736 47.6763275,46.5995826 47.660955,46.6152916 L47.6555979,46.6206746 C47.64051,46.6361766 47.6254221,46.6517044 47.6103601,46.6671805 L47.6042525,46.6741163 C47.5896563,46.6892042 47.5750342,46.7043179 47.5604381,46.7194058 C47.5604381,46.7194058 47.5526224,46.7272474 47.5526224,46.7272215 C47.5381815,46.7419212 47.5237665,46.756595 47.5093256,46.7712947 L47.5013288,46.7801456 C47.4877419,46.7947417 47.474155,46.8092861 47.4605682,46.8239082 L47.4500869,46.8346224 C47.4364483,46.8483645 47.4227838,46.8621067 47.4091193,46.8758488 L47.3983015,46.8866407 C47.3848441,46.9003052 47.3713348,46.9139697 47.3578515,46.9276342 L47.3483536,46.9367956 C47.2961542,46.979523 47.2400728,47.0183426 47.1923765,47.065599 C46.8691386,47.3857831 46.5468324,47.7069506 46.2264154,48.0299297 C46.1671508,48.0896601 46.1178499,48.1592507 46.0639424,48.2242606 L46.0528918,48.2354148 C46.0382697,48.2480441 46.0236994,48.2606734 46.0091032,48.2733286 L46.000123,48.2810667 C45.9853198,48.2954558 45.9705424,48.3098708 45.955791,48.3242599 L45.9482082,48.3318168 C45.9330168,48.3464389 45.9178254,48.3610609 45.9026599,48.3757088 L45.8958535,48.3817906 C45.8805586,48.3968785 45.8652119,48.4119405 45.8498911,48.4270025 L45.8439905,48.4329289 C45.8281521,48.4480686 45.8123655,48.4631824 45.7965789,48.478322 L45.7916099,48.4829286 C45.7754351,48.4984306 45.7592862,48.5139325 45.7431113,48.5294086 L45.7392552,48.5330059 C45.7228734,48.5488702 45.7064656,48.5647344 45.6900837,48.5805987 L45.6868229,48.5836266 C45.66938,48.5992321 45.651937,48.6148117 45.6344682,48.6304172 L45.6330707,48.6315041 C45.6157571,48.6479637 45.5984436,48.6644491 45.5811301,48.6809603 L45.5804313,48.6816332 C45.5631954,48.6985327 45.5459854,48.715458 45.5287754,48.7323316 L45.5285166,48.732668 C45.3935796,48.8553639 45.2586168,48.9780338 45.1237057,49.1007037 L45.1186851,49.1049998 C45.102769,49.1201653 45.0868789,49.1353567 45.0709628,49.1505481 L45.0665115,49.1549477 L45.0175988,49.2017382 L45.0137169,49.2049732 C44.996041,49.2201128 44.9783652,49.2352525 44.9607411,49.250418 L44.9591624,49.2516344 C44.9414607,49.2677833 44.923733,49.2839581 44.9059795,49.300133 L44.9055913,49.3005212 L44.6603809,49.5158406 L44.6536262,49.5216376 C44.6384607,49.5363373 44.6232434,49.551037 44.6080261,49.5657108 L44.6017633,49.5719737 L44.5543516,49.617108 L44.5488651,49.6214299 C44.531448,49.6362331 44.514031,49.6510363 44.4966139,49.6658654 C44.4966139,49.6658395 44.4945435,49.6675476 44.4945435,49.6675476 C44.4768935,49.6835154 44.4592694,49.6995091 44.4416195,49.7155027 L44.4411536,49.7159686 C44.3775153,49.7706524 44.313903,49.8253104 44.2502647,49.8800202 L44.2406633,49.8887934 C44.2256789,49.9021991 44.2107205,49.9156307 44.195762,49.9290623 L44.1876616,49.9355581 L44.1370667,49.9782597 L44.1338318,49.9808477 C44.1162853,49.9963496 44.098713,50.0118775 44.0811147,50.0273794 L44.0800278,50.0282852 C43.9969538,50.0990404 43.9139058,50.1697697 43.8308059,50.2404732 L43.8252159,50.2449503 C43.8080835,50.2593912 43.7909512,50.2738062 43.7738447,50.2882213 L43.770972,50.2904987 C43.7533738,50.3061818 43.7358014,50.3218132 43.7182032,50.3374704 L43.7172716,50.3382468 C43.6514335,50.3917402 43.5855955,50.4452336 43.5197574,50.498727 L43.5145556,50.5031783 C43.4976561,50.5179815 43.4808343,50.5327589 43.4639607,50.547588 L43.4608293,50.549943 C43.4426358,50.5651344 43.4244423,50.5803517 43.4062748,50.595569 L43.4060677,50.5957502 C43.3585008,50.6327323 43.3109597,50.6696627 43.2633928,50.7066189 L43.2554736,50.712623 C43.2385482,50.7263911 43.221597,50.740185 43.2046975,50.753953 L43.201359,50.7565151 C43.1836832,50.7720688 43.1660073,50.7875707 43.1483315,50.8031245 L43.1474515,50.8038232 C43.1007127,50.8408054 43.0539481,50.8777616 43.0071834,50.9147696 L42.9978149,50.9225336 C42.981873,50.9360428 42.9659052,50.9495779 42.9499374,50.9630871 L42.9439333,50.9671243 C42.9255328,50.9813064 42.9071582,50.9955144 42.8887836,51.0097224 L42.8885248,51.0099553 C42.8408802,51.0470151 42.7932615,51.0840231 42.745591,51.121057 L42.7382671,51.1265176 C42.7207206,51.140208 42.7031741,51.1538984 42.6856277,51.1675888 L42.6832209,51.1691157 C42.6646651,51.184333 42.6460834,51.1995244 42.6275018,51.2147417 L42.6277865,51.2145087 L42.480919,51.3243682 L42.4768817,51.3272926 C42.4591541,51.3421993 42.4414006,51.3570802 42.4236212,51.371961 L42.4224825,51.3729186 C42.3538236,51.4246004 42.2851647,51.4762823 42.2165316,51.52799 L42.2155482,51.5286111 C42.1467081,51.5800082 42.077868,51.6314054 42.0090279,51.6827767 L42.0084844,51.6832166 C41.9592353,51.7193447 41.910012,51.7555246 41.860737,51.7916527 L41.8569586,51.7942924 C41.8384804,51.8087592 41.8200023,51.8232519 41.8015242,51.8377445 L41.8013948,51.8378739 L41.6521981,51.9459994 L41.6489631,51.9478887 C41.6299674,51.9620449 41.6109976,51.9762011 41.5920277,51.9903832 L41.5918983,51.9904608 C41.5614638,52.0107505 41.5310551,52.0310403 41.5006205,52.05133 L41.4947976,52.0552119 C41.4764229,52.0690835 41.4580742,52.082955 41.4396996,52.0968265 L41.438975,52.0972924 C41.3892341,52.1330582 41.3394674,52.1688757 41.2897007,52.2046674 L41.2865433,52.2063755 C41.2671335,52.2202988 41.2477237,52.2342738 41.2283139,52.248223 L41.2289868,52.2476795 C41.1976982,52.2679433 41.1663837,52.2882072 41.1350951,52.3084969 L41.1313426,52.3106967 C41.1124762,52.3248788 41.0936099,52.3390867 41.0747436,52.3532947 L41.074873,52.3531912 C41.0442572,52.3733515 41.0136156,52.3934601 40.982974,52.4135945 L40.9770476,52.4173988 L40.9223896,52.4592463 L40.9213803,52.4598933 C40.891308,52.4796137 40.861184,52.4993341 40.8311118,52.5190285 L40.8227785,52.5245668 C40.8044556,52.5375325 40.7861587,52.5505242 40.7678358,52.5635158 L40.7664901,52.5642922 L40.6752122,52.6224698 L40.667293,52.6270764 C40.6486337,52.6400163 40.6299745,52.652982 40.6113152,52.6659478 C40.6113152,52.6659478 40.6108752,52.6662842 40.6108752,52.6663101 L40.4570978,52.7708642 L40.4560368,52.7714336 C40.4248776,52.7903517 40.3937442,52.8092439 40.362585,52.828162 L40.3560892,52.8320957 L40.3004995,52.8727269 L40.3001113,52.8730633 C40.247886,52.9068364 40.1956607,52.9406094 40.1434354,52.9743566 L40.1431249,52.9745377 C40.111474,52.9941287 40.079823,53.0137197 40.0481462,53.0333106 L40.044109,53.0354069 C39.9922719,53.0681706 39.9404607,53.1009603 39.8886236,53.133724 L39.8869155,53.1346557 C39.8561704,53.1535996 39.8254253,53.1725436 39.7946801,53.1914876 L39.7870974,53.1957318 L39.7307054,53.2345514 L39.7299808,53.2349655 C39.6984593,53.2543753 39.6669119,53.2737851 39.6353645,53.293169 L39.6307061,53.2956535 C39.5781703,53.3274597 39.5256603,53.35924 39.4731503,53.3910721 L39.4717269,53.3917967 C39.4400242,53.4105854 39.4083733,53.4293482 39.3766706,53.4481628 L39.3727369,53.4503626 L39.2139648,53.5460399 L39.2127743,53.5466093 C39.1807611,53.565398 39.1487219,53.5841608 39.1167087,53.6028977 L39.1134479,53.6045799 L38.954831,53.7012407 L38.9540805,53.7016548 C38.9209285,53.7196671 38.8877507,53.7376794 38.8545729,53.7557434 L38.8528389,53.7566751 C38.7319806,53.8248423 38.6110963,53.8930354 38.490238,53.9612544 L38.4894875,53.9617202 C38.4223295,53.9972014 38.3551457,54.0326566 38.2879878,54.0681118 L38.2846235,54.0697164 L37.9187875,54.2697408 L37.9183735,54.2699479 C37.8842381,54.2874167 37.8501027,54.3048338 37.8159415,54.3223026 L37.8153204,54.3226131 C37.7812885,54.3400043 37.7472308,54.3573696 37.7131989,54.3747608 L37.7120343,54.3752525 C37.6784166,54.392799 37.6447988,54.4103454 37.6112069,54.427866 L37.6092141,54.4286942 C37.5754152,54.4456972 37.5416163,54.4626484 37.5078173,54.4795996 C37.5078173,54.4796255 37.5056434,54.4805054 37.5056434,54.4805054 C37.4722327,54.4978189 37.4388479,54.5151325 37.405463,54.5324202 L37.4026939,54.5334295 C37.3685067,54.5499149 37.3343714,54.5663744 37.3002101,54.5828598 L37.2983985,54.5835844 L37.1952937,54.6332476 L37.1942844,54.6337134 C37.1600713,54.6507682 37.1258583,54.667797 37.0916712,54.6848259 L37.0906619,54.6852917 C37.0561901,54.7021395 37.0216924,54.7189613 36.9872206,54.7358349 L36.9868583,54.7359901 C36.8689761,54.7897424 36.751068,54.8434946 36.6331599,54.8972727 L36.6287345,54.8991101 C36.558911,54.9314339 36.4890616,54.9637577 36.4192381,54.9960815 L36.4183581,54.9964697 C36.2990267,55.0490055 36.179747,55.1015414 36.0604155,55.1540773 L36.0571547,55.155216 C36.0225794,55.171132 35.988004,55.187048 35.9534546,55.20299 L35.9521865,55.2034299 C35.8667316,55.2381864 35.7813026,55.2729429 35.6958736,55.3076476 L35.693855,55.308424 C35.5726343,55.358786 35.4513877,55.4091738 35.330167,55.4595617 L35.3299859,55.4595875 C35.2795722,55.4781433 35.2291326,55.4966732 35.1787447,55.5152031 L35.1767261,55.5159018 C35.0903137,55.5494161 35.0039271,55.5829304 34.9175406,55.6164446 L34.9166348,55.616781 C34.8657552,55.6345863 34.8148756,55.6524174 34.7639961,55.6702227 L34.7625468,55.6707144 C34.6241161,55.7211023 34.4857372,55.7714901 34.3473065,55.8218779 L34.3461936,55.8222661 C34.2953141,55.840149 34.2444604,55.8580319 34.1935809,55.8759148 L34.1921057,55.8763548 C34.1407603,55.8933837 34.089389,55.9103866 34.0380436,55.9274155 L34.0367497,55.9278296 C33.9857148,55.9452984 33.9346282,55.9627413 33.8835416,55.9802102 L33.8821441,55.9806501 C33.6589055,56.0499043 33.4356669,56.1191326 33.2124025,56.1883868 L33.2093228,56.1890855 L33.0535268,56.2368595 C33.0535268,56.2368595 33.0529057,56.2370407 33.0529057,56.2370148 C32.863673,56.2891366 32.6744404,56.3412583 32.4852078,56.3933801 L32.4840691,56.3936648 C32.208217,56.4622979 31.9323649,56.5309309 31.6565128,56.5995381 L31.6553741,56.5997969 C31.5876468,56.6063962 31.5188585,56.6076385 31.4523734,56.6205007 C31.0550419,56.6973635 30.6592631,56.7824302 30.2611292,56.8545053 C29.1661835,57.052744 28.0585826,57.1404504 26.9507229,57.2246113 C26.7589541,57.2399839 26.5672112,57.2553823 26.3754423,57.2707808" id="Fill-1" stroke="#FFFFFF" transform="translate(21.911053, 35.503530) rotate(-270.000000) translate(-21.911053, -35.503530) "></path>
                    </g>
                </g>
            </g>
        </g>
    </g>
</svg>