<?xml version="1.0" encoding="UTF-8"?>
<!-- Generator: Adobe Illustrator 21.1.0, SVG Export Plug-In . SVG Version: 6.00 Build 0)  -->
<svg version="1.1" id="Layer_1" xmlns="http://www.w3.org/2000/svg" xmlns:xlink="http://www.w3.org/1999/xlink" x="0px" y="0px" viewBox="0 0 205.8 65.4" style="enable-background:new 0 0 205.8 65.4;" xml:space="preserve">
<style type="text/css">
	.st0{fill:#221815;}
	.st1{clip-path:url(#SVGID_2_);fill:url(#SVGID_3_);}
	.st2{clip-path:url(#SVGID_5_);fill:url(#SVGID_6_);}
	.st3{clip-path:url(#SVGID_8_);fill:url(#SVGID_9_);}
	.st4{clip-path:url(#SVGID_11_);fill:url(#SVGID_12_);}
	.st5{clip-path:url(#SVGID_14_);fill:url(#SVGID_15_);}
	.st6{clip-path:url(#SVGID_17_);fill:url(#SVGID_18_);}
	.st7{clip-path:url(#SVGID_20_);fill:url(#SVGID_21_);}
	.st8{clip-path:url(#SVGID_23_);fill:url(#SVGID_24_);}
	.st9{clip-path:url(#SVGID_26_);fill:url(#SVGID_27_);}
	.st10{clip-path:url(#SVGID_29_);fill:url(#SVGID_30_);}
	.st11{clip-path:url(#SVGID_32_);fill:url(#SVGID_33_);}
	.st12{clip-path:url(#SVGID_35_);fill:url(#SVGID_36_);}
	.st13{clip-path:url(#SVGID_38_);fill:url(#SVGID_39_);}
	.st14{clip-path:url(#SVGID_41_);fill:url(#SVGID_42_);}
	.st15{clip-path:url(#SVGID_44_);fill:url(#SVGID_45_);}
	.st16{clip-path:url(#SVGID_47_);fill:url(#SVGID_48_);}
	.st17{clip-path:url(#SVGID_50_);fill:url(#SVGID_51_);}
	.st18{clip-path:url(#SVGID_53_);fill:url(#SVGID_54_);}
</style>
<g>
	<path class="st0" d="M11.9,51.3c-0.6-0.9-1.8-1.3-2.8-1.3C6.7,50.1,5,52,5,54.5C5,57.2,6.6,59,9.1,59c1.3,0,2.3-0.6,3-1.4l1.7,1.2   c-1.1,1.3-2.6,2.1-4.7,2.1c-3.8,0-6.5-2.6-6.5-6.4c0-3.9,2.9-6.4,6.6-6.4c1.6,0,3.5,0.6,4.4,1.9L11.9,51.3z"/>
	<path class="st0" d="M19.3,48.5h1.9l5.2,12.1h-2.5l-1.1-2.8h-5.3l-1.1,2.8H14L19.3,48.5z M22,56l-1.9-4.9L18.2,56H22z"/>
	<path class="st0" d="M34,51c-0.5-0.6-1.4-1-2.2-1c-1,0-2.1,0.5-2.1,1.7c0,1.1,0.9,1.4,2.3,1.9c1.6,0.5,3.6,1.2,3.6,3.6   c0,2.6-2,3.9-4.4,3.9c-1.6,0-3.2-0.6-4.2-1.7l1.5-1.4c0.6,0.8,1.7,1.3,2.7,1.3c1,0,2.2-0.5,2.2-1.8c0-1.3-1.3-1.6-2.8-2.1   c-1.5-0.5-3.1-1.2-3.1-3.4c0-2.5,2.2-3.6,4.4-3.6c1.2,0,2.6,0.4,3.5,1.3L34,51z"/>
	<rect x="37.6" y="48.5" class="st0" width="2.2" height="12.1"/>
	<path class="st0" d="M48.3,48.2c3.8,0,6.6,2.5,6.6,6.4c0,3.8-2.8,6.4-6.6,6.4c-3.7,0-6.5-2.6-6.5-6.4   C41.8,50.6,44.5,48.2,48.3,48.2 M48.3,59c2.5,0,4.2-1.9,4.2-4.5c0-2.5-1.7-4.4-4.2-4.4c-2.5,0-4.2,1.9-4.2,4.4   C44.1,57.1,45.8,59,48.3,59"/>
	<path class="st0" d="M72.2,60C71,60.6,69.6,61,67.6,61c-3.9,0-6.6-2.6-6.6-6.4c0-3.9,2.8-6.3,6.6-6.3c1.9,0,3.6,0.6,4.6,1.5   l-1.5,1.6c-0.6-0.7-1.8-1.2-3.1-1.2c-2.6,0-4.2,1.9-4.2,4.4c0,2.6,1.6,4.5,4.3,4.5c0.9,0,1.7-0.1,2.4-0.4v-3.1h-2.6v-1.8h4.7V60z"/>
	<path class="st0" d="M74.6,52.4h2v1.4h0c0.4-0.9,1.3-1.6,2.4-1.6c0.2,0,0.4,0,0.5,0v1.9C79.2,54,79,54,78.9,54   c-1.9,0-2.2,1.6-2.2,2.2v4.4h-2.1V52.4z"/>
	<path class="st0" d="M88.8,57.2h-6.3c0.1,1.2,1.1,2,2.4,2c1,0,1.7-0.4,2.2-1.1l1.4,1.1c-0.8,1.1-2,1.6-3.5,1.6   c-2.5,0-4.4-1.6-4.4-4.3c0-2.7,1.9-4.4,4.4-4.4c2.3,0,4,1.5,4,4.5C88.9,56.8,88.9,57,88.8,57.2 M86.8,55.7c0-1.1-0.6-2-1.9-2   c-1.2,0-2.2,0.8-2.3,2H86.8z"/>
	<path class="st0" d="M98.7,57.2h-6.3c0.1,1.2,1.1,2,2.4,2c1,0,1.7-0.4,2.2-1.1l1.4,1.1c-0.8,1.1-2,1.6-3.5,1.6   c-2.5,0-4.4-1.6-4.4-4.3c0-2.7,1.9-4.4,4.4-4.4c2.3,0,4,1.5,4,4.5C98.8,56.8,98.8,57,98.7,57.2 M96.7,55.7c0-1.1-0.6-2-1.9-2   c-1.2,0-2.2,0.8-2.3,2H96.7z"/>
	<path class="st0" d="M100.7,52.4h2v1.3h0c0.4-0.8,1.3-1.6,2.6-1.6c2.1,0,3,1.6,3,3.3v5.1h-2.1v-4.6c0-1-0.2-2.2-1.5-2.2   c-1.3,0-1.9,1.1-1.9,2.2v4.5h-2.1V52.4z"/>
	<polygon class="st0" points="117.3,50.4 113.5,50.4 113.5,48.5 123.2,48.5 123.2,50.4 119.4,50.4 119.4,60.6 117.3,60.6  "/>
	<path class="st0" d="M131.3,57.2H125c0.1,1.2,1.1,2,2.4,2c1,0,1.7-0.4,2.2-1.1l1.4,1.1c-0.8,1.1-2,1.6-3.5,1.6   c-2.5,0-4.4-1.6-4.4-4.3c0-2.7,1.9-4.4,4.4-4.4c2.3,0,4,1.5,4,4.5C131.3,56.8,131.3,57,131.3,57.2 M129.2,55.7c0-1.1-0.6-2-1.9-2   c-1.2,0-2.2,0.8-2.3,2H129.2z"/>
	<path class="st0" d="M138.6,54.7c-0.3-0.5-1-0.8-1.7-0.8c-1.5,0-2.3,1.4-2.3,2.6c0,1.3,0.8,2.6,2.3,2.6c0.6,0,1.3-0.3,1.7-0.7   l1.3,1.3c-0.7,0.7-1.8,1.1-3,1.1c-2.4,0-4.5-1.6-4.5-4.4c0-2.7,2-4.4,4.4-4.4c1.2,0,2.5,0.5,3.1,1.3L138.6,54.7z"/>
	<path class="st0" d="M149,55.5v5.1H147v-4.5c0-1-0.2-2.2-1.5-2.2c-1.3,0-1.9,1.1-1.9,2.2v4.5h-2.1v-13h2.1v5.9h0   c0.3-0.7,1.2-1.4,2.5-1.4C148.1,52.2,149,53.8,149,55.5"/>
	<path class="st0" d="M151.3,52.4h2v1.3h0c0.4-0.8,1.3-1.6,2.6-1.6c2.1,0,3,1.6,3,3.3v5.1h-2.1v-4.6c0-1-0.2-2.2-1.5-2.2   c-1.3,0-1.9,1.1-1.9,2.2v4.5h-2.1V52.4z"/>
	<path class="st0" d="M165.2,52.2c2.5,0,4.5,1.7,4.5,4.3c0,2.6-2,4.4-4.5,4.4c-2.5,0-4.5-1.8-4.5-4.4   C160.8,53.9,162.8,52.2,165.2,52.2 M165.2,59.2c1.6,0,2.4-1.4,2.4-2.7c0-1.3-0.8-2.6-2.4-2.6c-1.6,0-2.4,1.4-2.4,2.6   C162.9,57.8,163.6,59.2,165.2,59.2"/>
	<rect x="171.7" y="47.7" class="st0" width="2.1" height="13"/>
	<path class="st0" d="M180.2,52.2c2.5,0,4.5,1.7,4.5,4.3c0,2.6-2,4.4-4.5,4.4c-2.5,0-4.5-1.8-4.5-4.4   C175.7,53.9,177.7,52.2,180.2,52.2 M180.2,59.2c1.6,0,2.4-1.4,2.4-2.7c0-1.3-0.8-2.6-2.4-2.6c-1.6,0-2.4,1.4-2.4,2.6   C177.8,57.8,178.6,59.2,180.2,59.2"/>
	<path class="st0" d="M195.1,52.4v7.5c0,3-1.4,4.9-4.6,4.9c-1.3,0-3-0.5-4.1-1.4l1.2-1.6c0.8,0.8,1.9,1.2,2.9,1.2   c2,0,2.6-1.2,2.6-2.8v-0.6h0c-0.6,0.8-1.6,1.2-2.7,1.2c-2.5,0-4.1-2-4.1-4.3c0-2.4,1.5-4.3,4-4.3c1.1,0,2.2,0.5,2.8,1.5h0v-1.2   H195.1z M188.3,56.5c0,1.3,0.9,2.6,2.4,2.6c1.5,0,2.5-1.2,2.5-2.6c0-1.4-0.9-2.6-2.4-2.6C189.2,53.8,188.3,55,188.3,56.5"/>
	<path class="st0" d="M196.4,52.4h2.3l2.3,6h0l2-6h2.1l-3.9,10c-0.6,1.5-1.3,2.4-3.1,2.4c-0.3,0-0.7,0-1.1-0.1l0.2-1.8   c0.3,0.1,0.5,0.1,0.8,0.1c0.9,0,1.1-0.4,1.5-1.3l0.4-1L196.4,52.4z"/>
	<g>
		<defs>
			<polygon id="SVGID_1_" points="46.6,7.1 46.6,31.7 59,31.7 59,27.5 51.4,27.5 51.4,7.1    "/>
		</defs>
		<clipPath id="SVGID_2_">
			<use xlink:href="#SVGID_1_" style="overflow:visible;"/>
		</clipPath>
		
			<linearGradient id="SVGID_3_" gradientUnits="userSpaceOnUse" x1="-256.7468" y1="416.6631" x2="-255.7466" y2="416.6631" gradientTransform="matrix(0 19.9216 19.9216 0 -8247.7686 5127.0703)">
			<stop offset="0" style="stop-color:#000000"/>
			<stop offset="0.1506" style="stop-color:#121111"/>
			<stop offset="0.4501" style="stop-color:#3F3C3D"/>
			<stop offset="0.5086" style="stop-color:#494546"/>
			<stop offset="0.5095" style="stop-color:#4F4C4B"/>
			<stop offset="0.5464" style="stop-color:#484645"/>
			<stop offset="0.851" style="stop-color:#141313"/>
			<stop offset="1" style="stop-color:#000000"/>
		</linearGradient>
		<rect x="46.6" y="7.1" class="st1" width="12.4" height="24.6"/>
	</g>
	<g>
		<defs>
			<path id="SVGID_4_" d="M67.3,25.6c-0.8-1.1-1.2-2.2-1.2-3.4c0-1,0.4-2,1.3-3c0.8-1,1.9-1.5,3.4-1.5c1.5,0.1,2.7,0.6,3.5,1.6     c0.8,1,1.3,2,1.3,3.1c0,1.3-0.4,2.4-1.3,3.4c-0.8,1-1.9,1.5-3.4,1.6C69.2,27.2,68,26.6,67.3,25.6 M70.7,16.2     c-1.8,0.1-3.3,0.8-4.3,2c-1,1.2-1.6,2.5-1.6,3.9c0,1.5,0.5,2.9,1.5,4.2c1,1.4,2.5,2.1,4.6,2.2c1.9-0.1,3.4-0.8,4.4-2.1     c1-1.3,1.5-2.7,1.5-4.3c0-1.4-0.5-2.7-1.6-4C74.2,17,72.7,16.3,70.7,16.2L70.7,16.2L70.7,16.2z M64,28.6     c-1.5-1.9-2.3-3.9-2.3-6.2c0-2.1,0.8-4.2,2.2-6.1c1.5-1.9,3.6-2.9,6.6-3h0.1c1.1,0,2.2,0.2,3.1,0.6c0.9,0.4,1.7,1,2.4,1.9     l1.2,1.6v-3.5H80v17.2h-2.8v-4.2L76,29.1c-0.4,0.8-1.1,1.4-1.9,1.8c-0.8,0.4-2,0.6-3.5,0.6C67.7,31.4,65.5,30.4,64,28.6 M70.5,12     c-3.4,0.1-5.9,1.3-7.6,3.5c-1.7,2.2-2.5,4.5-2.5,6.9c0,2.6,0.9,4.9,2.6,7c1.7,2.1,4.3,3.3,7.6,3.4h0h0c1.7,0,3-0.3,4.1-0.8     c0.5-0.2,0.9-0.5,1.2-0.8v1.1h5.4V12.5h-5.4v1.2c-0.5-0.4-1.1-0.8-1.7-1.1c-1.1-0.5-2.3-0.7-3.6-0.7L70.5,12z"/>
		</defs>
		<clipPath id="SVGID_5_">
			<use xlink:href="#SVGID_4_" style="overflow:visible;"/>
		</clipPath>
		
			<linearGradient id="SVGID_6_" gradientUnits="userSpaceOnUse" x1="-256.7333" y1="416.6655" x2="-255.7336" y2="416.6655" gradientTransform="matrix(13.9117 44.8266 44.8266 -13.9117 -15039.498 17313.7285)">
			<stop offset="0" style="stop-color:#000000"/>
			<stop offset="0.1506" style="stop-color:#121111"/>
			<stop offset="0.4501" style="stop-color:#3F3C3D"/>
			<stop offset="0.5086" style="stop-color:#494546"/>
			<stop offset="0.5095" style="stop-color:#4F4C4B"/>
			<stop offset="0.5464" style="stop-color:#484645"/>
			<stop offset="0.851" style="stop-color:#141313"/>
			<stop offset="1" style="stop-color:#000000"/>
		</linearGradient>
		<polygon class="st2" points="79.5,6 87.3,31 62.2,38.8 54.4,13.8   "/>
	</g>
	<g>
		<defs>
			<path id="SVGID_7_" d="M99.8,16.5c0.5-0.8,1.2-1.5,2.2-2.1c0.9-0.6,1.9-0.9,3-0.9c2,0.1,3.5,0.7,4.6,2c1.1,1.3,1.6,2.8,1.6,4.5     v11h-2.9v-9.2c0-1.4-0.3-2.7-0.9-3.8c-0.7-1.2-1.9-1.8-3.7-1.8c-1.6,0.1-2.8,0.8-3.5,2c-0.7,1.2-1,2.4-1,3.8v9h-2.9v-9.2     c0-1.5-0.3-2.8-0.9-3.8c-0.7-1.1-1.9-1.7-3.6-1.8c-1.7,0.1-2.9,0.8-3.6,2.1c-0.7,1.2-1,2.5-1,4V31h-2.8V14h2.8v3.2l1.2-1.5     c0.5-0.7,1.2-1.2,2-1.7c0.8-0.4,1.7-0.6,2.6-0.7c1.1,0,2.2,0.3,3.2,0.8c1,0.5,1.9,1.3,2.5,2.2l0.6,0.9L99.8,16.5z M101.2,13.2     c-0.8,0.5-1.5,1.1-2,1.8c-0.7-0.8-1.5-1.4-2.4-1.9c-1.2-0.6-2.5-1-3.8-1c-1.2,0-2.3,0.3-3.3,0.8c-0.4,0.2-0.9,0.5-1.2,0.8v-1.1     H83v19.7h5.4v-10c0-1.2,0.3-2.3,0.8-3.4c0.5-0.9,1.3-1.4,2.4-1.4c1.2,0,2.1,0.4,2.5,1.1c0.5,0.8,0.7,1.9,0.7,3.1v10.5h5.6V22.1     c0-1.1,0.3-2.1,0.8-3.1c0.5-0.9,1.3-1.3,2.4-1.4c1.3,0,2.1,0.4,2.5,1.2c0.5,0.8,0.7,1.9,0.7,3.1v10.5h5.6V20c0-2-0.7-3.8-1.9-5.4     c-1.3-1.6-3.2-2.4-5.6-2.5C103.6,12.2,102.4,12.5,101.2,13.2"/>
		</defs>
		<clipPath id="SVGID_8_">
			<use xlink:href="#SVGID_7_" style="overflow:visible;"/>
		</clipPath>
		
			<linearGradient id="SVGID_9_" gradientUnits="userSpaceOnUse" x1="-256.7216" y1="416.6975" x2="-255.7223" y2="416.6975" gradientTransform="matrix(13.9115 44.8257 44.8257 -13.9115 -15016.2207 17305.7129)">
			<stop offset="0" style="stop-color:#000000"/>
			<stop offset="0.1506" style="stop-color:#121111"/>
			<stop offset="0.4501" style="stop-color:#3F3C3D"/>
			<stop offset="0.5086" style="stop-color:#494546"/>
			<stop offset="0.5095" style="stop-color:#4F4C4B"/>
			<stop offset="0.5464" style="stop-color:#484645"/>
			<stop offset="0.851" style="stop-color:#141313"/>
			<stop offset="1" style="stop-color:#000000"/>
		</linearGradient>
		<polygon class="st3" points="109.8,3.8 118.2,30.6 85.6,40.7 77.3,13.9   "/>
	</g>
	<g>
		<defs>
			<path id="SVGID_10_" d="M120.8,25.8c-0.8-1-1.3-2.1-1.3-3.4c0-1.2,0.4-2.3,1.2-3.3c0.8-0.9,1.8-1.4,3.3-1.5     c1.7,0.1,2.9,0.6,3.7,1.5c0.8,1,1.2,2.1,1.2,3.2c0,1.2-0.4,2.3-1.2,3.4c-0.8,1-1.9,1.6-3.4,1.6C122.7,27.3,121.6,26.8,120.8,25.8      M124,16.2c-1.8,0.1-3.3,0.8-4.3,2c-1,1.2-1.5,2.6-1.5,4.1c0,1.6,0.5,3.1,1.6,4.3c1.1,1.3,2.6,2,4.5,2c1.9-0.1,3.4-0.8,4.5-2.1     c1-1.3,1.5-2.7,1.5-4.2c0-1.5-0.5-2.8-1.5-4.1C127.7,17,126.1,16.3,124,16.2L124,16.2L124,16.2z M119.1,15.3     c0.7-0.6,1.4-1.1,2.3-1.4c0.8-0.4,1.9-0.6,3-0.6c2.9,0.1,5.1,1.1,6.6,3c1.5,1.9,2.3,4,2.4,6.2c0,2.3-0.8,4.3-2.4,6.2     c-1.6,1.8-3.8,2.8-6.8,2.9c-1.1,0-2.1-0.2-2.9-0.5c-0.8-0.3-1.6-0.7-2.2-1.3l-1.1-1v8.4H115V13.9h2.9v2.4L119.1,15.3z      M120.8,12.7c-0.5,0.2-1.1,0.5-1.5,0.8v-0.9h-5.6v25.9h5.6v-6.9c0.5,0.3,1,0.6,1.6,0.8c1,0.4,2.1,0.5,3.4,0.5     c3.4-0.1,6-1.3,7.8-3.4c1.8-2.1,2.7-4.4,2.7-7c0-2.6-0.9-4.9-2.7-7c-1.8-2.1-4.3-3.3-7.6-3.4C123.1,12,121.9,12.2,120.8,12.7"/>
		</defs>
		<clipPath id="SVGID_11_">
			<use xlink:href="#SVGID_10_" style="overflow:visible;"/>
		</clipPath>
		
			<linearGradient id="SVGID_12_" gradientUnits="userSpaceOnUse" x1="-256.7331" y1="416.7125" x2="-255.7334" y2="416.7125" gradientTransform="matrix(13.912 44.8275 44.8275 -13.912 -14994.0225 17299.8516)">
			<stop offset="0" style="stop-color:#000000"/>
			<stop offset="0.1506" style="stop-color:#121111"/>
			<stop offset="0.4501" style="stop-color:#3F3C3D"/>
			<stop offset="0.5086" style="stop-color:#494546"/>
			<stop offset="0.5095" style="stop-color:#4F4C4B"/>
			<stop offset="0.5464" style="stop-color:#484645"/>
			<stop offset="0.851" style="stop-color:#141313"/>
			<stop offset="1" style="stop-color:#000000"/>
		</linearGradient>
		<polygon class="st4" points="132.9,6 142.2,36.1 115.6,44.4 106.2,14.3   "/>
	</g>
	<g>
		<defs>
			<path id="SVGID_13_" d="M137.7,7.8h11.9v2.9h-8.5v7h8.5v2.9h-8.5V31h-3.4V7.8z M136.3,6.5v25.9h6.1V22h8.5v-5.5h-8.5V12h8.5V6.5     H136.3z"/>
		</defs>
		<clipPath id="SVGID_14_">
			<use xlink:href="#SVGID_13_" style="overflow:visible;"/>
		</clipPath>
		
			<linearGradient id="SVGID_15_" gradientUnits="userSpaceOnUse" x1="-256.7295" y1="416.6797" x2="-255.729" y2="416.6797" gradientTransform="matrix(13.9115 44.8258 44.8258 -13.9115 -14972.6328 17292.7656)">
			<stop offset="0" style="stop-color:#000000"/>
			<stop offset="0.1506" style="stop-color:#121111"/>
			<stop offset="0.4501" style="stop-color:#3F3C3D"/>
			<stop offset="0.5086" style="stop-color:#494546"/>
			<stop offset="0.5095" style="stop-color:#4F4C4B"/>
			<stop offset="0.5464" style="stop-color:#484645"/>
			<stop offset="0.851" style="stop-color:#141313"/>
			<stop offset="1" style="stop-color:#000000"/>
		</linearGradient>
		<polygon class="st5" points="149.6,2.3 158.2,30.1 137.6,36.5 129,8.7   "/>
	</g>
	<g>
		<defs>
			<path id="SVGID_16_" d="M157.8,15.9c0.4-0.5,0.9-1,1.7-1.4c0.6-0.3,1.2-0.6,1.8-0.7v2.6c-1.3,0.2-2.4,0.6-3.1,1.4     c-0.9,0.9-1.3,2-1.3,3.3v10h-2.9V14.1h2.7v3.5L157.8,15.9z M161.9,12.3c-1.1,0.2-2.1,0.5-3,1c-0.3,0.2-0.7,0.4-0.9,0.6v-1.1h-5.3     v19.5h5.6V21c0-1,0.3-1.8,0.9-2.4c0.6-0.6,1.6-1,2.9-1.1l0.6,0v-5.4L161.9,12.3z"/>
		</defs>
		<clipPath id="SVGID_17_">
			<use xlink:href="#SVGID_16_" style="overflow:visible;"/>
		</clipPath>
		
			<linearGradient id="SVGID_18_" gradientUnits="userSpaceOnUse" x1="-256.7233" y1="416.6722" x2="-255.7237" y2="416.6722" gradientTransform="matrix(13.9116 44.826 44.826 -13.9116 -14960.4346 17288.9766)">
			<stop offset="0" style="stop-color:#000000"/>
			<stop offset="0.1506" style="stop-color:#121111"/>
			<stop offset="0.4501" style="stop-color:#3F3C3D"/>
			<stop offset="0.5086" style="stop-color:#494546"/>
			<stop offset="0.5095" style="stop-color:#4F4C4B"/>
			<stop offset="0.5464" style="stop-color:#484645"/>
			<stop offset="0.851" style="stop-color:#141313"/>
			<stop offset="1" style="stop-color:#000000"/>
		</linearGradient>
		<polygon class="st6" points="161.7,9.3 168.3,30.6 153.5,35.2 146.8,13.9   "/>
	</g>
	<g>
		<defs>
			<path id="SVGID_19_" d="M169.6,18.2c0.8-0.6,1.8-0.9,2.9-1c1.1,0,2.1,0.3,2.9,0.9c0.6,0.4,1,1,1.3,1.6h-8.4     C168.6,19.1,169,18.6,169.6,18.2 M172.5,15.9c-1.4,0-2.7,0.4-3.7,1.2c-1,0.8-1.8,1.9-2.1,3.2l-0.2,0.8h12l-0.2-0.8     c-0.3-1.3-1-2.4-2.1-3.2C175.1,16.3,173.9,15.9,172.5,15.9L172.5,15.9z M165.7,28.5c-1.5-1.9-2.3-4-2.3-6.1     c0-2.2,0.8-4.3,2.4-6.1c1.6-1.9,3.7-2.8,6.6-3c2.8,0.1,4.9,1,6.6,2.8c1.6,1.7,2.5,3.6,2.5,5.5v1.5h-15l0,0.7     c0.1,1.3,0.6,2.4,1.6,3.4c1,1,2.4,1.5,4.1,1.6c1.1,0,2.2-0.2,3-0.6c0.8-0.4,1.4-0.9,2-1.7h3.3c-0.6,1.2-1.5,2.3-2.6,3.2     c-1.4,1.1-3.3,1.7-5.6,1.8C169.4,31.4,167.3,30.4,165.7,28.5 M164.9,15.4c-1.8,2.1-2.7,4.5-2.8,7c0,2.4,0.9,4.8,2.6,6.9     c1.7,2.2,4.3,3.4,7.6,3.5h0h0c2.6-0.1,4.8-0.8,6.4-2.1c1.6-1.3,2.7-2.9,3.4-4.7l0.3-0.9h-6l-0.2,0.3c-0.5,0.7-1.1,1.2-1.7,1.5     c-0.7,0.3-1.5,0.5-2.4,0.5c-1.4,0-2.4-0.4-3.2-1.2c-0.6-0.6-0.9-1.2-1.1-1.9h14.9v-2.8c-0.1-2.3-1-4.4-2.9-6.4     c-1.9-2-4.4-3.1-7.6-3.2C169.2,12.1,166.7,13.3,164.9,15.4"/>
		</defs>
		<clipPath id="SVGID_20_">
			<use xlink:href="#SVGID_19_" style="overflow:visible;"/>
		</clipPath>
		
			<linearGradient id="SVGID_21_" gradientUnits="userSpaceOnUse" x1="-256.7429" y1="416.6829" x2="-255.7421" y2="416.6829" gradientTransform="matrix(13.9117 44.8266 44.8266 -13.9117 -14947.2646 17286.1523)">
			<stop offset="0" style="stop-color:#000000"/>
			<stop offset="0.1506" style="stop-color:#121111"/>
			<stop offset="0.4501" style="stop-color:#3F3C3D"/>
			<stop offset="0.5086" style="stop-color:#494546"/>
			<stop offset="0.5095" style="stop-color:#4F4C4B"/>
			<stop offset="0.5464" style="stop-color:#484645"/>
			<stop offset="0.851" style="stop-color:#141313"/>
			<stop offset="1" style="stop-color:#000000"/>
		</linearGradient>
		<polygon class="st7" points="181.1,6.1 188.8,31 163.9,38.7 156.2,13.8   "/>
	</g>
	<g>
		<g>
			<defs>
				<path id="SVGID_22_" d="M47.3,7.8h3.4v20.4h7.7V31H47.3V7.8z M46,6.5v25.9h13.7v-5.5H52V6.5H46z"/>
			</defs>
			<clipPath id="SVGID_23_">
				<use xlink:href="#SVGID_22_" style="overflow:visible;"/>
			</clipPath>
			
				<linearGradient id="SVGID_24_" gradientUnits="userSpaceOnUse" x1="-256.7337" y1="416.7563" x2="-255.7338" y2="416.7563" gradientTransform="matrix(13.9121 44.8279 44.8279 -13.9121 -15059.7109 17319.9746)">
				<stop offset="0" style="stop-color:#000000"/>
				<stop offset="0.1506" style="stop-color:#121111"/>
				<stop offset="0.4501" style="stop-color:#3F3C3D"/>
				<stop offset="0.5086" style="stop-color:#494546"/>
				<stop offset="0.5095" style="stop-color:#4F4C4B"/>
				<stop offset="0.5464" style="stop-color:#484645"/>
				<stop offset="0.851" style="stop-color:#141313"/>
				<stop offset="1" style="stop-color:#000000"/>
			</linearGradient>
			<polygon class="st8" points="58.5,2.6 67,30.1 47.2,36.3 38.6,8.7    "/>
		</g>
		<g>
			<defs>
				<path id="SVGID_25_" d="M66.7,26c-0.9-1.2-1.3-2.5-1.3-3.8c0-1.2,0.5-2.3,1.4-3.4c0.9-1.1,2.2-1.7,3.9-1.8      c1.7,0.1,3.1,0.7,4,1.8c0.9,1.1,1.4,2.3,1.4,3.5c0,1.4-0.5,2.7-1.4,3.8c-0.9,1.1-2.2,1.7-3.9,1.8C69,27.8,67.6,27.2,66.7,26       M70.5,12.6c-3.2,0.1-5.6,1.2-7.1,3.3c-1.6,2-2.4,4.2-2.4,6.5c0,2.4,0.8,4.6,2.5,6.6c1.6,2,4,3,7.1,3.2c1.6,0,2.9-0.2,3.8-0.7      c1-0.5,1.7-1.1,2.2-2v2.3h4.1V13.2h-4.1v2.2c-0.7-1-1.6-1.7-2.6-2.1C72.9,12.9,71.8,12.6,70.5,12.6      C70.5,12.6,70.5,12.6,70.5,12.6"/>
			</defs>
			<clipPath id="SVGID_26_">
				<use xlink:href="#SVGID_25_" style="overflow:visible;"/>
			</clipPath>
			
				<linearGradient id="SVGID_27_" gradientUnits="userSpaceOnUse" x1="-256.7524" y1="416.657" x2="-255.7523" y2="416.657" gradientTransform="matrix(0 19.9184 19.9184 0 -8228.2842 5126.3501)">
				<stop offset="0" style="stop-color:#000000"/>
				<stop offset="0.1506" style="stop-color:#121111"/>
				<stop offset="0.4501" style="stop-color:#3F3C3D"/>
				<stop offset="0.5086" style="stop-color:#494546"/>
				<stop offset="0.5095" style="stop-color:#4F4C4B"/>
				<stop offset="0.5464" style="stop-color:#484645"/>
				<stop offset="0.851" style="stop-color:#141313"/>
				<stop offset="1" style="stop-color:#000000"/>
			</linearGradient>
			<rect x="61" y="12.6" class="st9" width="19.7" height="19.6"/>
		</g>
		<g>
			<defs>
				<path id="SVGID_28_" d="M101.6,13.8c-1,0.6-1.8,1.4-2.4,2.3c-0.7-1-1.6-1.8-2.8-2.4c-1.2-0.6-2.3-0.9-3.5-0.9      c-1.1,0-2.1,0.3-2.9,0.7c-0.9,0.5-1.6,1.1-2.2,1.8v-2h-4.1v18.4h4.1v-9.4c0-1.4,0.3-2.6,0.9-3.7c0.6-1.1,1.6-1.7,3-1.8      c1.5,0,2.5,0.5,3,1.5c0.6,0.9,0.8,2.1,0.8,3.5v9.9h4.3v-9.6c0-1.2,0.3-2.4,0.9-3.5c0.6-1.1,1.6-1.6,3-1.7c1.5,0,2.5,0.5,3.1,1.5      c0.6,1,0.8,2.1,0.8,3.4v9.9h4.2V20c0-1.9-0.6-3.5-1.8-5c-1.2-1.4-2.9-2.2-5-2.3C103.7,12.8,102.6,13.2,101.6,13.8"/>
			</defs>
			<clipPath id="SVGID_29_">
				<use xlink:href="#SVGID_28_" style="overflow:visible;"/>
			</clipPath>
			
				<linearGradient id="SVGID_30_" gradientUnits="userSpaceOnUse" x1="-256.7239" y1="416.6881" x2="-255.7238" y2="416.6881" gradientTransform="matrix(0 19.9219 19.9219 0 -8203.5029 5126.6816)">
				<stop offset="0" style="stop-color:#000000"/>
				<stop offset="0.1506" style="stop-color:#121111"/>
				<stop offset="0.4501" style="stop-color:#3F3C3D"/>
				<stop offset="0.5086" style="stop-color:#494546"/>
				<stop offset="0.5095" style="stop-color:#4F4C4B"/>
				<stop offset="0.5464" style="stop-color:#484645"/>
				<stop offset="0.851" style="stop-color:#141313"/>
				<stop offset="1" style="stop-color:#000000"/>
			</linearGradient>
			<rect x="83.7" y="12.8" class="st10" width="28.1" height="18.9"/>
		</g>
		<g>
			<defs>
				<path id="SVGID_31_" d="M120.3,26.2c-0.9-1.1-1.4-2.4-1.4-3.9c0-1.4,0.5-2.6,1.4-3.7c0.9-1.1,2.2-1.7,3.8-1.8      c1.9,0.1,3.3,0.7,4.2,1.8c0.9,1.1,1.4,2.3,1.4,3.7c0,1.3-0.5,2.6-1.4,3.8c-0.9,1.2-2.2,1.8-4,1.9      C122.5,27.9,121.2,27.3,120.3,26.2 M121.1,13.3c-0.9,0.4-1.8,0.9-2.5,1.5v-1.6h-4.3v24.6h4.3v-7.5c0.7,0.7,1.5,1.1,2.5,1.5      c0.9,0.3,1.9,0.5,3.1,0.5c3.2-0.1,5.7-1.2,7.3-3.1c1.7-2,2.5-4.2,2.5-6.6c0-2.4-0.9-4.6-2.5-6.6c-1.6-2-4-3.1-7.1-3.2      C123.1,12.7,122,12.9,121.1,13.3"/>
			</defs>
			<clipPath id="SVGID_32_">
				<use xlink:href="#SVGID_31_" style="overflow:visible;"/>
			</clipPath>
			
				<linearGradient id="SVGID_33_" gradientUnits="userSpaceOnUse" x1="-256.7231" y1="416.6893" x2="-255.7229" y2="416.6893" gradientTransform="matrix(0 19.9202 19.9202 0 -8176.3179 5126.2378)">
				<stop offset="0" style="stop-color:#000000"/>
				<stop offset="0.1506" style="stop-color:#121111"/>
				<stop offset="0.4501" style="stop-color:#3F3C3D"/>
				<stop offset="0.5086" style="stop-color:#494546"/>
				<stop offset="0.5095" style="stop-color:#4F4C4B"/>
				<stop offset="0.5464" style="stop-color:#484645"/>
				<stop offset="0.851" style="stop-color:#141313"/>
				<stop offset="1" style="stop-color:#000000"/>
			</linearGradient>
			<rect x="114.4" y="12.6" class="st11" width="19.7" height="25.1"/>
		</g>
		<g>
			<defs>
				<polygon id="SVGID_34_" points="137,7.1 137,31.7 141.7,31.7 141.7,21.3 150.2,21.3 150.2,17.1 141.7,17.1 141.7,11.4       150.2,11.4 150.2,7.1     "/>
			</defs>
			<clipPath id="SVGID_35_">
				<use xlink:href="#SVGID_34_" style="overflow:visible;"/>
			</clipPath>
			
				<linearGradient id="SVGID_36_" gradientUnits="userSpaceOnUse" x1="-256.7468" y1="416.6635" x2="-255.7466" y2="416.6635" gradientTransform="matrix(0 19.9216 19.9216 0 -8156.9868 5127.0703)">
				<stop offset="0" style="stop-color:#000000"/>
				<stop offset="0.1506" style="stop-color:#121111"/>
				<stop offset="0.4501" style="stop-color:#3F3C3D"/>
				<stop offset="0.5086" style="stop-color:#494546"/>
				<stop offset="0.5095" style="stop-color:#4F4C4B"/>
				<stop offset="0.5464" style="stop-color:#484645"/>
				<stop offset="0.851" style="stop-color:#141313"/>
				<stop offset="1" style="stop-color:#000000"/>
			</linearGradient>
			<rect x="137" y="7.1" class="st12" width="13.3" height="24.6"/>
		</g>
		<g>
			<defs>
				<path id="SVGID_37_" d="M159.1,13.9c-0.9,0.5-1.5,1-1.9,1.6v-2h-4v18.2h4.3V21c0-1.2,0.4-2.1,1.1-2.9c0.8-0.7,1.9-1.2,3.3-1.2      v-4C160.9,13.1,160,13.4,159.1,13.9"/>
			</defs>
			<clipPath id="SVGID_38_">
				<use xlink:href="#SVGID_37_" style="overflow:visible;"/>
			</clipPath>
			
				<linearGradient id="SVGID_39_" gradientUnits="userSpaceOnUse" x1="-256.7502" y1="416.6592" x2="-255.7505" y2="416.6592" gradientTransform="matrix(0 19.9194 19.9194 0 -8142.0098 5126.5654)">
				<stop offset="0" style="stop-color:#000000"/>
				<stop offset="0.1506" style="stop-color:#121111"/>
				<stop offset="0.4501" style="stop-color:#3F3C3D"/>
				<stop offset="0.5086" style="stop-color:#494546"/>
				<stop offset="0.5095" style="stop-color:#4F4C4B"/>
				<stop offset="0.5464" style="stop-color:#484645"/>
				<stop offset="0.851" style="stop-color:#141313"/>
				<stop offset="1" style="stop-color:#000000"/>
			</linearGradient>
			<rect x="153.2" y="12.9" class="st13" width="8.7" height="18.8"/>
		</g>
		<g>
			<defs>
				<path id="SVGID_40_" d="M169.2,17.6c0.9-0.7,2-1.1,3.3-1.1c1.2,0,2.3,0.4,3.3,1.1c0.9,0.7,1.5,1.6,1.8,2.8h-10.3      C167.7,19.3,168.3,18.3,169.2,17.6 M165.4,15.8c-1.7,2-2.6,4.2-2.6,6.6c0,2.3,0.8,4.5,2.5,6.5c1.6,2,4,3.1,7.2,3.3      c2.5-0.1,4.5-0.7,6-1.9c1.5-1.2,2.6-2.7,3.2-4.4h-4.7c-0.6,0.8-1.2,1.4-2,1.7c-0.8,0.4-1.7,0.6-2.7,0.6c-1.5,0-2.8-0.5-3.6-1.4      c-0.9-0.9-1.3-1.9-1.4-3h15v-2.2c0-2.1-1-4.1-2.7-6c-1.8-1.9-4.1-2.9-7.1-3C169.4,12.8,167.1,13.8,165.4,15.8"/>
			</defs>
			<clipPath id="SVGID_41_">
				<use xlink:href="#SVGID_40_" style="overflow:visible;"/>
			</clipPath>
			
				<linearGradient id="SVGID_42_" gradientUnits="userSpaceOnUse" x1="-256.7173" y1="416.6964" x2="-255.7171" y2="416.6964" gradientTransform="matrix(0 19.9187 19.9187 0 -8127.5503 5125.7275)">
				<stop offset="0" style="stop-color:#000000"/>
				<stop offset="0.1506" style="stop-color:#121111"/>
				<stop offset="0.4501" style="stop-color:#3F3C3D"/>
				<stop offset="0.5086" style="stop-color:#494546"/>
				<stop offset="0.5095" style="stop-color:#4F4C4B"/>
				<stop offset="0.5464" style="stop-color:#484645"/>
				<stop offset="0.851" style="stop-color:#141313"/>
				<stop offset="1" style="stop-color:#000000"/>
			</linearGradient>
			<rect x="162.8" y="12.6" class="st14" width="19.5" height="19.6"/>
		</g>
		<g>
			<defs>
				<path id="SVGID_43_" d="M191.7,18.2c0.8-0.6,1.8-0.9,2.9-1c1.1,0,2,0.3,2.9,0.9c0.6,0.4,1,1,1.3,1.6h-8.4      C190.7,19.1,191.1,18.6,191.7,18.2 M194.6,15.9c-1.4,0-2.7,0.4-3.7,1.2c-1,0.8-1.8,1.9-2.1,3.2l-0.2,0.8h12l-0.2-0.8      c-0.3-1.4-1-2.4-2.1-3.2C197.2,16.3,196,15.9,194.6,15.9L194.6,15.9z M187.8,28.5c-1.5-1.9-2.3-4-2.3-6.1c0-2.2,0.9-4.3,2.4-6.1      c1.6-1.9,3.8-2.8,6.6-3c2.8,0.1,5,1,6.6,2.8c1.6,1.7,2.5,3.6,2.5,5.5v1.5h-15l0,0.7c0.1,1.3,0.6,2.5,1.6,3.4      c1,1,2.4,1.5,4.1,1.6c1.1,0,2.1-0.2,3-0.6c0.8-0.4,1.4-0.9,2-1.7h3.3c-0.6,1.2-1.5,2.3-2.6,3.2c-1.4,1.1-3.3,1.7-5.6,1.8      C191.5,31.4,189.3,30.4,187.8,28.5 M186.9,15.4c-1.8,2.1-2.7,4.5-2.8,7c0,2.4,0.9,4.8,2.6,6.9c1.7,2.2,4.3,3.4,7.7,3.5h0h0      c2.6-0.1,4.8-0.8,6.4-2.1c1.6-1.3,2.7-2.8,3.4-4.7l0.3-0.9h-6l-0.2,0.3c-0.5,0.7-1.1,1.2-1.7,1.5c-0.7,0.3-1.5,0.5-2.4,0.5      c-1.4,0-2.4-0.4-3.2-1.2c-0.6-0.6-0.9-1.2-1.1-1.9h14.9v-2.8c0-2.3-1-4.4-2.9-6.4c-1.9-2-4.4-3.1-7.6-3.2      C191.3,12.1,188.7,13.3,186.9,15.4"/>
			</defs>
			<clipPath id="SVGID_44_">
				<use xlink:href="#SVGID_43_" style="overflow:visible;"/>
			</clipPath>
			
				<linearGradient id="SVGID_45_" gradientUnits="userSpaceOnUse" x1="-256.7343" y1="416.6711" x2="-255.7345" y2="416.6711" gradientTransform="matrix(13.9111 44.8245 44.8245 -13.9111 -14925.9619 17278.7813)">
				<stop offset="0" style="stop-color:#000000"/>
				<stop offset="0.1506" style="stop-color:#121111"/>
				<stop offset="0.4501" style="stop-color:#3F3C3D"/>
				<stop offset="0.5086" style="stop-color:#494546"/>
				<stop offset="0.5095" style="stop-color:#4F4C4B"/>
				<stop offset="0.5464" style="stop-color:#484645"/>
				<stop offset="0.851" style="stop-color:#141313"/>
				<stop offset="1" style="stop-color:#000000"/>
			</linearGradient>
			<polygon class="st15" points="203.1,6.1 210.9,31 186,38.7 178.2,13.8    "/>
		</g>
	</g>
	<g>
		<defs>
			<path id="SVGID_46_" d="M191.3,17.6c0.9-0.7,2-1.1,3.3-1.1c1.2,0,2.3,0.4,3.3,1.1c0.9,0.7,1.5,1.6,1.8,2.8h-10.3     C189.7,19.3,190.3,18.3,191.3,17.6 M187.4,15.8c-1.7,2-2.6,4.2-2.6,6.6c0,2.3,0.8,4.5,2.5,6.5c1.6,2,4,3.1,7.2,3.3     c2.5-0.1,4.5-0.7,6-1.9c1.5-1.2,2.6-2.7,3.2-4.4H199c-0.6,0.8-1.2,1.4-2,1.7c-0.8,0.4-1.7,0.6-2.7,0.6c-1.5,0-2.8-0.5-3.6-1.4     c-0.9-0.9-1.3-1.9-1.4-3h15v-2.2c0-2.1-0.9-4.1-2.7-6c-1.8-1.9-4.1-2.9-7.1-3C191.5,12.8,189.1,13.8,187.4,15.8"/>
		</defs>
		<clipPath id="SVGID_47_">
			<use xlink:href="#SVGID_46_" style="overflow:visible;"/>
		</clipPath>
		
			<linearGradient id="SVGID_48_" gradientUnits="userSpaceOnUse" x1="-256.7173" y1="416.6964" x2="-255.7171" y2="416.6964" gradientTransform="matrix(0 19.9187 19.9187 0 -8105.5029 5125.7275)">
			<stop offset="0" style="stop-color:#000000"/>
			<stop offset="0.1506" style="stop-color:#121111"/>
			<stop offset="0.4501" style="stop-color:#3F3C3D"/>
			<stop offset="0.5086" style="stop-color:#494546"/>
			<stop offset="0.5095" style="stop-color:#4F4C4B"/>
			<stop offset="0.5464" style="stop-color:#484645"/>
			<stop offset="0.851" style="stop-color:#141313"/>
			<stop offset="1" style="stop-color:#000000"/>
		</linearGradient>
		<rect x="184.8" y="12.6" class="st16" width="19.5" height="19.6"/>
	</g>
	<g>
		<g>
			<defs>
				<path id="SVGID_49_" d="M29.6,20.2c-4.3,6.3-9.3,7.2-11.7,8c-2,0.6-6.5,1.5-10.1,5.6c3.2,2.5,7.2,4,11.5,4      c10.2,0,18.5-8.3,18.5-18.5c0-4.5-1.6-8.7-4.3-11.9C33,11.3,32,16.6,29.6,20.2"/>
			</defs>
			<clipPath id="SVGID_50_">
				<use xlink:href="#SVGID_49_" style="overflow:visible;"/>
			</clipPath>
			
				<linearGradient id="SVGID_51_" gradientUnits="userSpaceOnUse" x1="-256.7188" y1="416.7881" x2="-255.7188" y2="416.7881" gradientTransform="matrix(28.0309 -23.5208 -23.5208 -28.0309 17007.7266 5679.249)">
				<stop offset="0" style="stop-color:#006239"/>
				<stop offset="0.2431" style="stop-color:#0E7B39"/>
				<stop offset="0.5794" style="stop-color:#26A53A"/>
				<stop offset="0.8452" style="stop-color:#75B923"/>
				<stop offset="1" style="stop-color:#9EC317"/>
			</linearGradient>
			<polygon class="st17" points="-7.2,19.9 25.4,-7.4 52.7,25.2 20.2,52.5    "/>
		</g>
		<g>
			<defs>
				<path id="SVGID_52_" d="M0.8,19.2c0,5.4,2.3,10.3,6,13.7c1.4-3.7,5-10.8,12.9-13.6c6.6-2.3,8.6-4.5,9.4-6.8      c-1.5,1.6-2,2.9-11.8,5.6C10.5,20,7.5,24.9,6.2,29.2c0-3.8,0.5-8.6,2.7-11.8c4.2-6,9.9-6.8,12.8-7.5c2.1-0.5,6.5-1.2,10.1-4.3      c-3.3-3-7.7-4.9-12.5-4.9C9.1,0.7,0.8,9,0.8,19.2"/>
			</defs>
			<clipPath id="SVGID_53_">
				<use xlink:href="#SVGID_52_" style="overflow:visible;"/>
			</clipPath>
			
				<linearGradient id="SVGID_54_" gradientUnits="userSpaceOnUse" x1="-256.7245" y1="416.6872" x2="-255.7245" y2="416.6872" gradientTransform="matrix(0 32.1401 32.1401 0 -13376.0703 8251.8994)">
				<stop offset="0" style="stop-color:#0C3388"/>
				<stop offset="3.030300e-02" style="stop-color:#0C3388"/>
				<stop offset="0.2841" style="stop-color:#0C539F"/>
				<stop offset="0.45" style="stop-color:#0C6BB0"/>
				<stop offset="0.6123" style="stop-color:#3293CA"/>
				<stop offset="0.8" style="stop-color:#5BBDE5"/>
				<stop offset="1" style="stop-color:#5BBDE5"/>
			</linearGradient>
			<rect x="0.8" y="0.7" class="st18" width="31" height="32.1"/>
		</g>
	</g>
</g>
</svg>