<?xml version="1.0" encoding="UTF-8" standalone="no"?>
<svg
   xmlns:dc="http://purl.org/dc/elements/1.1/"
   xmlns:cc="http://creativecommons.org/ns#"
   xmlns:rdf="http://www.w3.org/1999/02/22-rdf-syntax-ns#"
   xmlns:svg="http://www.w3.org/2000/svg"
   xmlns="http://www.w3.org/2000/svg"
   viewBox="30 410 680.09998 170.3625"
   height="170.3625"
   width="680.09998"
   xml:space="preserve"
   version="1.1"
   id="svg2"><metadata
     id="metadata8"><rdf:RDF><cc:Work
         rdf:about=""><dc:format>image/svg+xml</dc:format><dc:type
           rdf:resource="http://purl.org/dc/dcmitype/StillImage" /></cc:Work></rdf:RDF></metadata><defs
     id="defs6"><clipPath
       id="clipPath18"
       clipPathUnits="userSpaceOnUse"><path
         id="path20"
         d="M 0,8418.9 0,0 l 5952.76,0 0,8418.9 -5952.76,0 z" /></clipPath><clipPath
       id="clipPath46"
       clipPathUnits="userSpaceOnUse"><path
         id="path48"
         d="m 1357.94,4779.33 c -13.6,-129.25 -46.12,-300.62 -123.71,-413.86 -138.51,-202.11 -298.671,-233.87 -379.203,-257.21 -66.086,-19.05 -208.668,-48.62 -325.086,-179.98 102.016,-81.22 231,-129.85 371.379,-129.85 329.71,0 596.76,267.16 596.76,596.75 0,146.35 -52.58,280.31 -140.14,384.15 l 0,0 z" /></clipPath><clipPath
       id="clipPath56"
       clipPathUnits="userSpaceOnUse"><path
         id="path58"
         d="m 917.195,4393.74 c 213.775,74.68 276.525,146.79 304.825,220.29 -48.63,-51.18 -64.83,-95.21 -380.594,-181.77 -223.438,-61.24 -320.707,-220.42 -362.727,-358.5 -0.777,122.86 15.012,277.77 86.832,380.32 135.278,193.31 320.785,221.17 413.059,242.29 69,15.73 211.3,40.39 325.89,138.85 -106.2,97.3 -247.77,156.76 -403.16,156.76 -329.492,0 -596.703,-267.22 -596.703,-596.8 0,-174.58 74.957,-331.63 194.539,-440.76 43.996,118.79 159.903,349.24 418.039,439.32 l 0,0 z" /></clipPath></defs><g
     transform="matrix(1.25,0,0,-1.25,0,1052.3625)"
     id="g10"><g
       transform="scale(0.1,0.1)"
       id="g12"><g
         id="g14"><g
           clip-path="url(#clipPath18)"
           id="g16"><path
             id="path22"
             style="fill:#000000;fill-opacity:1;fill-rule:nonzero;stroke:none"
             d="m 2620.37,4308.07 282.38,661.8 303.41,0 285.64,-661.8 -227.1,0 -46.69,122.51 -323.5,0 -48.41,-122.51 -225.73,0 z m 316.96,256.52 235.89,0 -103.54,260.71 -28.45,0 -103.9,-260.71" /><path
             id="path24"
             style="fill:#000000;fill-opacity:1;fill-rule:nonzero;stroke:none"
             d="m 3531.61,4381.95 c -23.81,29.59 -32.77,105.36 -32.77,125.99 l 215.27,0 c 0,0 -3.83,-40.59 21.32,-48.05 47.82,-13.8 183.56,-17.37 284.15,-4.73 38.22,4.96 54.43,89.51 1.61,100.27 -124.28,24.8 -350.15,7.8 -424.41,43.57 -60.46,28.99 -94.41,71 -93.98,188.08 -0.43,118.71 81.61,168.74 150.32,182.79 50.51,9.93 185.11,12.1 221.42,11.15 32.46,-1.22 216.59,-1.22 273.1,-33.58 51.23,-29.81 86.8,-96.66 86.8,-175.93 l -211.87,0.43 c 0,0 -3.52,38.86 -28.13,50.64 -37.55,17.92 -233.95,18.18 -265.88,0.86 -36.2,-19.9 -42.5,-81.58 5.7,-96.66 66.11,-20.74 298.35,6.14 433.23,-40.88 90.93,-31.23 102.56,-149.81 85.91,-241.39 -8.9,-48.58 -58.05,-116.4 -132.73,-132.17 -98.95,-20.91 -405.54,-14.98 -468.27,-4.27 -72.86,13.13 -91.66,37.95 -120.79,73.88" /><path
             id="path26"
             style="fill:#000000;fill-opacity:1;fill-rule:nonzero;stroke:none"
             d="m 4344.69,4308.07 216.809,0 0,661.801 -216.809,0 0,-661.801 z" /><path
             id="path28"
             style="fill:#000000;fill-opacity:1;fill-rule:nonzero;stroke:none"
             d="m 1793.63,4638.85 c 0,-175.49 8.01,-274.38 149.85,-321.66 44.51,-14.93 149.11,-21.49 260.11,-21.49 107.59,0 219.01,3.1 269.22,18.81 96.19,30.01 144.22,117.82 144.22,243.48 l -217.17,0 c -0.84,-37.21 -9.47,-72.11 -44.64,-82.31 -33.49,-9.28 -248.73,-9.49 -294.34,1.07 -32.8,7.57 -46.06,32.9 -48.35,48.99 -5.23,42.7 -5.23,95.74 -5.23,113.11 0,17.25 0,70.65 5.23,113.36 2.29,16.15 17.27,40.02 50,46.91 31.55,6.88 251.74,8.86 294.43,-0.42 25.76,-5.62 30.87,-42.81 34.62,-68.35 l 216.91,0 c 0,125.6 -39.49,203.06 -135.68,232.98 -50.21,15.67 -161.63,17.69 -269.22,17.69 -111,0 -212.82,-2.44 -257.55,-17.69 -145.38,-48.8 -152.41,-148.59 -152.41,-324.48" /><path
             id="path30"
             style="fill:#000000;fill-opacity:1;fill-rule:nonzero;stroke:none"
             d="m 5482.67,4638.85 c 0,-180.81 -16.02,-297.5 -192.73,-330.63 -70.85,-13 -361.13,-14.31 -435.07,0 -180.62,35.51 -189.47,136.85 -189.47,330.63 l 0,0 c 0,193.81 8.85,295.58 189.47,330.65 73.94,14.28 364.22,13.28 435.07,0 176.71,-33.11 192.73,-149.8 192.73,-330.65 l 0,0 z m -219.01,112.88 c -4.59,27.35 -30.17,43.16 -49.38,48.25 -18.75,5.17 -105.81,8.56 -136.85,8.56 -31.23,0 -111.14,-2.54 -141.12,-7.02 -39.96,-5.6 -42.48,-18.02 -52.59,-42.82 -5.93,-14.87 -7.64,-87.19 -7.64,-119.85 0,-32.45 1.71,-104.85 7.64,-119.56 10.11,-24.94 12.63,-37.32 52.59,-43.17 29.98,-4.18 109.89,-6.68 141.12,-6.68 31.04,0 118.1,3.31 136.85,8.48 19.21,5.23 44.79,20.71 49.38,48.14 4.16,27.51 5.87,85.36 5.87,112.79 0,24.27 -1.71,85.52 -5.87,112.88" /><path
             id="path32"
             style="fill:#000000;fill-opacity:1;fill-rule:nonzero;stroke:none"
             d="m 5641.17,4386.22 c -4.64,8.1 -11.03,14.47 -19.16,19.09 -8.12,4.63 -16.79,6.94 -25.99,6.94 -9.17,0 -17.82,-2.31 -25.97,-6.94 -8.15,-4.62 -14.54,-10.99 -19.16,-19.09 -4.62,-8.11 -6.93,-16.81 -6.93,-26.1 0,-9.45 2.4,-18.26 7.22,-26.4 4.81,-8.15 11.21,-14.47 19.19,-18.94 7.98,-4.47 16.53,-6.71 25.65,-6.71 9.11,0 17.68,2.24 25.68,6.71 8,4.47 14.4,10.79 19.22,18.94 4.81,8.14 7.22,16.95 7.22,26.4 0,9.29 -2.32,17.99 -6.97,26.1 z m -7.03,-48.55 c -4.09,-6.9 -9.53,-12.24 -16.31,-16.02 -6.77,-3.78 -14.05,-5.67 -21.81,-5.67 -7.77,0 -15.05,1.89 -21.82,5.67 -6.78,3.78 -12.2,9.12 -16.28,16.02 -4.07,6.91 -6.11,14.39 -6.11,22.45 0,7.9 1.96,15.29 5.89,22.17 3.93,6.88 9.34,12.29 16.24,16.21 6.91,3.93 14.26,5.89 22.08,5.89 7.81,0 15.16,-1.96 22.07,-5.89 6.9,-3.92 12.32,-9.33 16.24,-16.21 3.93,-6.88 5.89,-14.27 5.89,-22.17 0.04,-8.06 -1.98,-15.54 -6.08,-22.45" /><path
             id="path34"
             style="fill:#000000;fill-opacity:1;fill-rule:nonzero;stroke:none"
             d="m 5610.65,4347.52 c -2.54,4.69 -4.92,7.73 -7.16,9.12 4.26,1.82 7.43,4.39 9.5,7.73 2.07,3.33 3.1,6.84 3.1,10.51 0,3.17 -0.74,6.1 -2.21,8.8 -1.48,2.71 -3.5,4.79 -6.05,6.24 -2.56,1.46 -6.33,2.19 -11.31,2.19 l -20.45,0 0,-64.35 10.13,0 0,27.05 7.54,0 c 1.05,0 2.76,-2.09 5.13,-6.27 l 2.08,-3.99 8.81,-16.79 11.53,0 -10.64,19.76 z m -17.42,15.01 -7.03,0 0,21.79 7.66,0 c 3.55,0 6.03,-0.49 7.44,-1.46 1.42,-0.97 2.49,-2.18 3.23,-3.64 0.74,-1.46 1.11,-3.09 1.11,-4.91 0,-2.95 -0.91,-5.66 -2.72,-8.11 -1.82,-2.44 -5.05,-3.67 -9.69,-3.67" /><path
             id="path36"
             style="fill:#686867;fill-opacity:1;fill-rule:nonzero;stroke:none"
             d="m 2732.62,3915.8 c 6.79,-0.97 21.82,-1.94 33.46,-1.94 69.36,0 109.13,32.98 109.13,90.21 0,53.35 -34.92,85.85 -108.64,85.85 -14.07,0 -32.5,-1.94 -43.65,-3.89 l 0,-287.6 9.7,0 0,117.37 z m 0,162.96 c 8.73,1.45 23.76,2.42 33.95,2.42 72.26,0 98.94,-32.98 98.94,-77.11 0,-53.84 -36.38,-81.97 -99.43,-81.97 -11.15,0 -26.67,0.97 -33.46,2.43 l 0,154.23 z m 217.28,-158.6 48.98,0 109.13,-121.73 12.61,0 -111.07,123.19 c 42.68,3.88 81.97,30.55 81.97,83.9 0,53.84 -34.44,84.4 -106.22,84.4 -14.06,0 -33.46,-2.43 -45.1,-4.37 l 0,-287.12 9.7,0 0,121.73 z m 0,158.6 c 9.21,1.45 24.73,2.91 35.4,2.91 65.48,0 96.52,-28.13 96.52,-76.15 0,-52.38 -39.77,-77.11 -87.3,-77.11 l -44.62,0 0,150.35 z m 208.06,-135.8 c 0,-87.79 62.57,-147.44 143.56,-147.44 81,0 143.56,59.65 143.56,147.44 0,87.3 -62.56,146.96 -143.56,146.96 -80.99,0 -143.56,-59.66 -143.56,-146.96 z m 277.42,0 c 0,-83.91 -59.65,-138.71 -133.86,-138.71 -74.69,0 -133.86,54.8 -133.86,138.71 0,83.42 59.17,138.22 133.86,138.22 74.21,0 133.86,-54.8 133.86,-138.22 z m 142.59,-17.95 -100.88,161.99 -10.67,0 106.7,-171.69 0,-116.88 9.22,0 0,116.88 107.18,171.69 -10.67,0 -100.88,-161.99 z m 179.94,-117.85 0,134.83 137.25,0 0,8.73 -137.25,0 0,127.55 144.04,0 0,8.73 -153.74,0 0,-288.57 155.68,0 0,8.73 -145.98,0 z m 428.74,257.05 c -23.28,16.97 -52.87,25.71 -84.39,25.71 -81,0 -143.56,-59.66 -143.56,-147.45 0,-88.27 63.05,-146.95 145.98,-146.95 32.01,0 64.99,9.21 86.33,25.7 l 0,10.19 c -23.76,-18.43 -54.32,-27.16 -86.33,-27.16 -75.17,0 -136.28,54.32 -136.28,138.22 0,84.39 59.65,138.71 133.86,138.71 30.55,0 62.08,-9.7 84.39,-28.13 l 0,11.16 z m 156.65,14.06 103.79,0 0,8.73 -217.28,0 0,-8.73 103.79,0 0,-279.84 9.7,0 0,279.84 z m 123.67,-135.31 c 0,-87.79 62.57,-147.44 143.56,-147.44 81,0 143.56,59.65 143.56,147.44 0,87.3 -62.56,146.96 -143.56,146.96 -80.99,0 -143.56,-59.66 -143.56,-146.96 z m 277.42,0 c 0,-83.91 -59.65,-138.71 -133.86,-138.71 -74.69,0 -133.86,54.8 -133.86,138.71 0,83.42 59.17,138.22 133.86,138.22 74.21,0 133.86,-54.8 133.86,-138.22 z m 93.12,-22.8 48.99,0 109.12,-121.73 12.61,0 -111.06,123.19 c 42.68,3.88 81.96,30.55 81.96,83.9 0,53.84 -34.43,84.4 -106.21,84.4 -14.07,0 -33.47,-2.43 -45.11,-4.37 l 0,-287.12 9.7,0 0,121.73 z m 0,158.6 c 9.22,1.45 24.74,2.91 35.41,2.91 65.47,0 96.51,-28.13 96.51,-76.15 0,-52.38 -39.77,-77.11 -87.3,-77.11 l -44.62,0 0,150.35 z m 238.62,-271.6 0,134.83 137.25,0 0,8.73 -137.25,0 0,127.55 144.04,0 0,8.73 -153.74,0 0,-288.57 155.68,0 0,8.73 -145.98,0 z m 200.29,15.03 c 16.49,-15.52 43.65,-26.67 74.21,-26.67 48.01,0 86.33,25.7 86.33,74.2 0,47.05 -34.92,64.51 -80.03,82.94 -44.14,17.94 -67.42,33.46 -67.42,70.81 0,37.83 30.07,57.71 66.45,57.71 25.22,0 48.99,-9.7 67.42,-27.64 l 0,11.15 c -15.52,15.04 -41.23,25.23 -67.42,25.23 -40.74,0 -76.15,-22.8 -76.15,-66.45 0,-45.11 30.56,-61.11 74.21,-79.54 41.23,-17.46 73.72,-32.98 73.72,-74.21 0,-43.65 -33.95,-65.96 -77.11,-65.96 -28.14,0 -54.33,10.67 -74.21,30.07 l 0,-11.64" /><path
             id="path38"
             style="fill:#26b4b0;fill-opacity:1;fill-rule:nonzero;stroke:none"
             d="m 1881.93,3824.62 0,107.67 125.13,0 0,26.19 -125.13,0 0,101.85 133.86,0 0,26.19 -163.93,0 0,-288.09 165.87,0 0,26.19 -135.8,0 z m 420.98,244.92 c -23.28,14.07 -50.44,21.83 -79.54,21.83 -82.94,0 -148.9,-60.14 -148.9,-148.9 0,-88.27 61.6,-148.89 148.9,-148.89 29.1,0 58.2,7.76 80.99,21.34 l 0,34.43 c -20.85,-19.4 -50.92,-28.61 -81.48,-28.61 -64.99,0 -117.85,47.53 -117.85,121.73 0,74.21 52.86,121.74 117.85,121.74 30.56,0 59.17,-9.7 80.03,-29.59 l 0,34.92 z m 48.5,-127.07 c 0,-88.27 65.96,-148.89 148.89,-148.89 82.94,0 148.9,60.62 148.9,148.89 0,88.27 -65.96,148.9 -148.9,148.9 -82.93,0 -148.89,-60.63 -148.89,-148.9 z m 267.23,0 c 0,-74.2 -53.35,-121.73 -118.34,-121.73 -64.99,0 -118.34,47.53 -118.34,121.73 0,74.21 53.35,121.74 118.34,121.74 64.99,0 118.34,-47.53 118.34,-121.74" /><path
             id="path40"
             style="fill:#ffffff;fill-opacity:1;fill-rule:nonzero;stroke:none"
             d="m 1498.08,4395.18 c 0,-329.59 -267.05,-596.75 -596.76,-596.75 -329.492,0 -596.703,267.16 -596.703,596.75 0,329.58 267.211,596.8 596.703,596.8 329.71,0 596.76,-267.22 596.76,-596.8" /></g></g><g
         id="g42"><g
           clip-path="url(#clipPath46)"
           id="g44"><path
             id="path50"
             style="fill:#26b4b0;fill-opacity:1;fill-rule:nonzero;stroke:none"
             d="m 529.941,3798.43 968.137,0 0,980.902 -968.137,0 0,-980.902 z" /></g></g><g
         id="g52"><g
           clip-path="url(#clipPath56)"
           id="g54"><path
             id="path60"
             style="fill:#26b4b0;fill-opacity:1;fill-rule:nonzero;stroke:none"
             d="m 304.617,3954.42 999.863,0 0,1037.56 -999.863,0 0,-1037.56 z" /></g></g></g></g></svg>