<?xml version="1.0" encoding="UTF-8" standalone="no"?>
<svg
   xmlns:dc="http://purl.org/dc/elements/1.1/"
   xmlns:cc="http://creativecommons.org/ns#"
   xmlns:rdf="http://www.w3.org/1999/02/22-rdf-syntax-ns#"
   xmlns:svg="http://www.w3.org/2000/svg"
   xmlns="http://www.w3.org/2000/svg"
   viewBox="60 234 614.09998 452.3625"
   height="452.3625"
   width="614.09998"
   xml:space="preserve"
   version="1.1"
   id="svg2"><metadata
     id="metadata8"><rdf:RDF><cc:Work
         rdf:about=""><dc:format>image/svg+xml</dc:format><dc:type
           rdf:resource="http://purl.org/dc/dcmitype/StillImage" /></cc:Work></rdf:RDF></metadata><defs
     id="defs6"><clipPath
       id="clipPath18"
       clipPathUnits="userSpaceOnUse"><path
         id="path20"
         d="M 0,8418.9 0,0 l 5952.76,0 0,8418.9 -5952.76,0 z" /></clipPath><clipPath
       id="clipPath46"
       clipPathUnits="userSpaceOnUse"><path
         id="path48"
         d="m 3475.64,6206.41 c -16.89,-160.42 -57.25,-373.11 -153.55,-513.65 -171.9,-250.86 -370.69,-290.27 -470.63,-319.24 -82.03,-23.64 -259,-60.34 -403.48,-223.37 126.61,-100.82 286.7,-161.17 460.93,-161.17 409.21,0 740.66,331.58 740.66,740.65 0,181.64 -65.26,347.9 -173.93,476.78 l 0,0 z" /></clipPath><clipPath
       id="clipPath56"
       clipPathUnits="userSpaceOnUse"><path
         id="path58"
         d="m 2928.61,5727.85 c 265.33,92.67 343.21,182.18 378.33,273.41 -60.36,-63.54 -80.47,-118.18 -472.37,-225.6 -277.32,-76.02 -398.04,-273.59 -450.19,-444.95 -0.97,152.48 18.63,344.74 107.77,472.02 167.89,239.93 398.14,274.5 512.66,300.72 85.63,19.52 262.25,50.13 404.47,172.33 -131.8,120.76 -307.51,194.56 -500.37,194.56 -408.95,0 -740.59,-331.66 -740.59,-740.71 0,-216.68 93.03,-411.6 241.45,-547.04 54.6,147.43 198.46,433.45 518.84,545.26 l 0,0 z" /></clipPath></defs><g
     transform="matrix(1.25,0,0,-1.25,0,1052.3625)"
     id="g10"><g
       transform="scale(0.1,0.1)"
       id="g12"><g
         id="g14"><g
           clip-path="url(#clipPath18)"
           id="g16"><path
             id="path22"
             style="fill:#000000;fill-opacity:1;fill-rule:nonzero;stroke:none"
             d="m 1609.81,3796.46 352.97,827.25 379.27,0 357.05,-827.25 -283.88,0 -58.37,153.14 -404.37,0 -60.52,-153.14 -282.15,0 z m 396.19,320.66 294.87,0 -129.43,325.87 -35.56,0 L 2006,4117.12" /><path
             id="path24"
             style="fill:#000000;fill-opacity:1;fill-rule:nonzero;stroke:none"
             d="m 2748.86,3888.82 c -29.77,36.98 -40.97,131.69 -40.97,157.48 l 269.1,0 c 0,0 -4.8,-50.74 26.64,-60.06 59.77,-17.26 229.45,-21.72 355.19,-5.91 47.78,6.2 68.04,111.88 2.02,125.33 -155.35,31 -437.69,9.75 -530.52,54.47 -75.58,36.24 -118.01,88.74 -117.48,235.09 -0.53,148.4 102.02,210.93 187.9,228.49 63.14,12.41 231.39,15.13 276.78,13.94 40.57,-1.53 270.74,-1.53 341.37,-41.98 64.04,-37.26 108.5,-120.82 108.5,-219.9 l -264.83,0.53 c 0,0 -4.4,48.58 -35.17,63.3 -46.93,22.4 -292.43,22.73 -332.34,1.07 -45.26,-24.88 -53.13,-101.97 7.12,-120.82 82.63,-25.93 372.94,7.68 541.53,-51.1 113.67,-39.04 128.21,-187.27 107.39,-301.74 -11.12,-60.73 -72.56,-145.5 -165.91,-165.22 -123.68,-26.12 -506.92,-18.72 -585.34,-5.33 -91.08,16.42 -114.57,47.44 -150.98,92.36" /><path
             id="path26"
             style="fill:#000000;fill-opacity:1;fill-rule:nonzero;stroke:none"
             d="m 3765.21,3796.46 271,0 0,827.25 -271,0 0,-827.25 z" /><path
             id="path28"
             style="fill:#000000;fill-opacity:1;fill-rule:nonzero;stroke:none"
             d="m 576.379,4209.94 c 0,-219.36 10.012,-342.97 187.316,-402.08 55.641,-18.66 186.391,-26.86 325.135,-26.86 134.48,0 273.76,3.87 336.52,23.51 120.24,37.51 180.28,147.27 180.28,304.36 l -271.46,0 c -1.06,-46.52 -11.83,-90.14 -55.8,-102.89 -41.87,-11.6 -310.913,-11.87 -367.932,1.34 -40.993,9.45 -57.575,41.11 -60.434,61.23 -6.539,53.37 -6.539,119.67 -6.539,141.39 0,21.56 0,88.31 6.539,141.7 2.859,20.18 21.586,50.03 62.504,58.63 39.433,8.61 314.672,11.09 368.032,-0.53 32.21,-7.01 38.59,-53.51 43.28,-85.43 l 271.13,0 c 0,157.01 -49.36,253.83 -169.6,291.22 -62.76,19.59 -202.04,22.12 -336.52,22.12 -138.744,0 -266.025,-3.05 -321.932,-22.12 -181.73,-60.99 -190.519,-185.72 -190.519,-405.59" /><path
             id="path30"
             style="fill:#000000;fill-opacity:1;fill-rule:nonzero;stroke:none"
             d="m 5187.68,4209.94 c 0,-226.02 -20.02,-371.88 -240.92,-413.28 -88.56,-16.27 -451.4,-17.89 -543.83,0 -225.77,44.38 -236.84,171.05 -236.84,413.28 l 0,0 c 0,242.26 11.07,369.47 236.84,413.31 92.43,17.85 455.27,16.6 543.83,0 220.9,-41.39 240.92,-187.25 240.92,-413.31 l 0,0 z m -273.76,141.11 c -5.74,34.17 -37.71,53.94 -61.73,60.3 -23.44,6.46 -132.26,10.69 -171.05,10.69 -39.04,0 -138.94,-3.16 -176.41,-8.76 -49.95,-7 -53.1,-22.52 -65.73,-53.52 -7.42,-18.59 -9.56,-108.99 -9.56,-149.82 0,-40.57 2.14,-131.07 9.56,-149.46 12.63,-31.17 15.78,-46.65 65.73,-53.96 37.47,-5.22 137.37,-8.34 176.41,-8.34 38.79,0 147.61,4.13 171.05,10.6 24.02,6.53 55.99,25.88 61.73,60.16 5.19,34.39 7.34,106.71 7.34,141 0,30.34 -2.15,106.9 -7.34,141.11" /><path
             id="path32"
             style="fill:#000000;fill-opacity:1;fill-rule:nonzero;stroke:none"
             d="m 5385.81,3894.15 c -5.81,10.13 -13.79,18.09 -23.95,23.86 -10.16,5.78 -20.99,8.67 -32.5,8.67 -11.45,0 -22.27,-2.89 -32.45,-8.67 -10.19,-5.77 -18.17,-13.73 -23.95,-23.86 -5.78,-10.14 -8.67,-21.01 -8.67,-32.62 0,-11.82 3.01,-22.83 9.02,-33.01 6.02,-10.19 14.02,-18.08 23.99,-23.67 9.98,-5.59 20.66,-8.39 32.06,-8.39 11.4,0 22.1,2.8 32.1,8.39 10.01,5.59 18.02,13.48 24.03,23.67 6.02,10.18 9.03,21.19 9.03,33.01 0,11.61 -2.91,22.48 -8.71,32.62 z m -8.79,-60.68 c -5.12,-8.63 -11.91,-15.31 -20.38,-20.03 -8.47,-4.73 -17.57,-7.09 -27.28,-7.09 -9.71,0 -18.8,2.36 -27.27,7.09 -8.47,4.72 -15.25,11.4 -20.35,20.03 -5.09,8.62 -7.63,17.98 -7.63,28.06 0,9.87 2.45,19.11 7.36,27.71 4.91,8.6 11.67,15.36 20.3,20.26 8.63,4.91 17.83,7.37 27.59,7.37 9.77,0 18.96,-2.46 27.59,-7.37 8.63,-4.9 15.4,-11.66 20.31,-20.26 4.91,-8.6 7.36,-17.84 7.36,-27.71 0.05,-10.08 -2.48,-19.44 -7.6,-28.06" /><path
             id="path34"
             style="fill:#000000;fill-opacity:1;fill-rule:nonzero;stroke:none"
             d="m 5347.65,3845.78 c -3.17,5.85 -6.15,9.65 -8.95,11.4 5.34,2.27 9.29,5.48 11.88,9.65 2.59,4.17 3.88,8.55 3.88,13.15 0,3.95 -0.92,7.62 -2.77,11 -1.85,3.38 -4.37,5.98 -7.56,7.8 -3.19,1.82 -7.91,2.73 -14.13,2.73 l -25.57,0 0,-80.43 12.66,0 0,33.8 9.42,0 c 1.32,0 3.46,-2.61 6.42,-7.84 l 2.61,-4.99 11,-20.97 14.41,0 -13.3,24.7 z m -21.77,18.76 -8.79,0 0,27.23 9.58,0 c 4.44,0 7.54,-0.61 9.3,-1.82 1.77,-1.21 3.12,-2.73 4.04,-4.55 0.93,-1.82 1.39,-3.87 1.39,-6.14 0,-3.69 -1.14,-7.07 -3.41,-10.13 -2.27,-3.06 -6.3,-4.59 -12.11,-4.59" /><path
             id="path36"
             style="fill:#686867;fill-opacity:1;fill-rule:nonzero;stroke:none"
             d="m 1750.12,3306.12 c 8.48,-1.21 27.28,-2.42 41.83,-2.42 86.69,0 136.4,41.22 136.4,112.76 0,66.69 -43.65,107.31 -135.8,107.31 -17.58,0 -40.62,-2.43 -54.56,-4.85 l 0,-359.51 12.13,0 0,146.71 z m 0,203.7 c 10.91,1.82 29.7,3.03 42.43,3.03 90.33,0 123.68,-41.22 123.68,-96.39 0,-67.3 -45.47,-102.46 -124.28,-102.46 -13.95,0 -33.35,1.21 -41.83,3.03 l 0,192.79 z m 271.59,-198.24 61.24,0 136.4,-152.17 15.77,0 -138.84,153.99 c 53.35,4.85 102.46,38.19 102.46,104.88 0,67.29 -43.04,105.49 -132.77,105.49 -17.58,0 -41.83,-3.03 -56.38,-5.46 l 0,-358.9 12.12,0 0,152.17 z m 0,198.24 c 11.52,1.82 30.92,3.64 44.26,3.64 81.84,0 120.65,-35.16 120.65,-95.18 0,-65.48 -49.72,-96.4 -109.13,-96.4 l -55.78,0 0,187.94 z m 260.08,-169.75 c 0,-109.73 78.21,-184.3 179.46,-184.3 101.24,0 179.45,74.57 179.45,184.3 0,109.13 -78.21,183.7 -179.45,183.7 -101.25,0 -179.46,-74.57 -179.46,-183.7 z m 346.78,0 c 0,-104.88 -74.57,-173.39 -167.32,-173.39 -93.37,0 -167.33,68.51 -167.33,173.39 0,104.28 73.96,172.78 167.33,172.78 92.75,0 167.32,-68.5 167.32,-172.78 z m 178.24,-22.43 -126.1,202.49 -13.34,0 133.38,-214.62 0,-146.1 11.52,0 0,146.1 133.98,214.62 -13.34,0 -126.1,-202.49 z m 224.92,-147.32 0,168.54 171.57,0 0,10.91 -171.57,0 0,159.45 180.06,0 0,10.91 -192.19,0 0,-360.72 194.61,0 0,10.91 -182.48,0 z m 535.92,321.31 c -29.1,21.22 -66.08,32.14 -105.48,32.14 -101.25,0 -179.46,-74.57 -179.46,-184.31 0,-110.33 78.82,-183.69 182.49,-183.69 40.01,0 81.24,11.52 107.91,32.13 l 0,12.73 c -29.71,-23.03 -67.9,-33.95 -107.91,-33.95 -93.97,0 -170.36,67.9 -170.36,172.78 0,105.49 74.57,173.39 167.33,173.39 38.19,0 77.6,-12.12 105.48,-35.16 l 0,13.94 z m 195.82,17.59 129.74,0 0,10.91 -271.6,0 0,-10.91 129.73,0 0,-349.81 12.13,0 0,349.81 z m 154.59,-169.15 c 0,-109.73 78.21,-184.3 179.45,-184.3 101.24,0 179.45,74.57 179.45,184.3 0,109.13 -78.21,183.7 -179.45,183.7 -101.24,0 -179.45,-74.57 -179.45,-183.7 z m 346.78,0 c 0,-104.88 -74.57,-173.39 -167.33,-173.39 -93.36,0 -167.33,68.51 -167.33,173.39 0,104.28 73.97,172.78 167.33,172.78 92.76,0 167.33,-68.5 167.33,-172.78 z m 116.39,-28.49 61.23,0 136.41,-152.17 15.76,0 -138.83,153.99 c 53.35,4.85 102.46,38.19 102.46,104.88 0,67.29 -43.05,105.49 -132.77,105.49 -17.58,0 -41.83,-3.03 -56.38,-5.46 l 0,-358.9 12.12,0 0,152.17 z m 0,198.24 c 11.52,1.82 30.92,3.64 44.26,3.64 81.84,0 120.64,-35.16 120.64,-95.18 0,-65.48 -49.71,-96.4 -109.12,-96.4 l -55.78,0 0,187.94 z m 298.27,-339.5 0,168.54 171.57,0 0,10.91 -171.57,0 0,159.45 180.06,0 0,10.91 -192.18,0 0,-360.72 194.6,0 0,10.91 -182.48,0 z m 250.37,18.79 c 20.61,-19.4 54.56,-33.34 92.76,-33.34 60.01,0 107.91,32.13 107.91,92.76 0,58.8 -43.65,80.63 -100.03,103.67 -55.17,22.43 -84.27,41.83 -84.27,88.51 0,47.29 37.59,72.14 83.05,72.14 31.53,0 61.24,-12.12 84.27,-34.55 l 0,13.94 c -19.4,18.8 -51.53,31.53 -84.27,31.53 -50.92,0 -95.18,-28.5 -95.18,-83.06 0,-56.38 38.2,-76.39 92.76,-99.43 51.53,-21.82 92.15,-41.22 92.15,-92.75 0,-54.57 -42.44,-82.45 -96.39,-82.45 -35.17,0 -67.9,13.33 -92.76,37.58 l 0,-14.55" /><path
             id="path38"
             style="fill:#26b4b0;fill-opacity:1;fill-rule:nonzero;stroke:none"
             d="m 686.758,3192.15 0,134.58 156.414,0 0,32.74 -156.414,0 0,127.31 167.324,0 0,32.74 -204.914,0 0,-360.11 207.34,0 0,32.74 -169.75,0 z m 526.222,306.15 c -29.1,17.58 -63.05,27.28 -99.43,27.28 -103.67,0 -186.116,-75.17 -186.116,-186.12 0,-110.33 76.996,-186.11 186.116,-186.11 36.38,0 72.75,9.69 101.25,26.67 l 0,43.04 c -26.07,-24.25 -63.66,-35.76 -101.85,-35.76 -81.24,0 -147.321,59.41 -147.321,152.16 0,92.76 66.081,152.17 147.321,152.17 38.19,0 73.96,-12.12 100.03,-36.98 l 0,43.65 z m 60.62,-158.84 c 0,-110.33 82.45,-186.11 186.12,-186.11 103.67,0 186.12,75.78 186.12,186.11 0,110.34 -82.45,186.12 -186.12,186.12 -103.67,0 -186.12,-75.78 -186.12,-186.12 z m 334.05,0 c 0,-92.75 -66.69,-152.16 -147.93,-152.16 -81.24,0 -147.92,59.41 -147.92,152.16 0,92.76 66.68,152.17 147.92,152.17 81.24,0 147.93,-59.41 147.93,-152.17" /><path
             id="path40"
             style="fill:#ffffff;fill-opacity:1;fill-rule:nonzero;stroke:none"
             d="m 3649.57,5729.63 c 0,-409.07 -331.45,-740.65 -740.66,-740.65 -408.95,0 -740.59,331.58 -740.59,740.65 0,409.05 331.64,740.71 740.59,740.71 409.21,0 740.66,-331.66 740.66,-740.71" /></g></g><g
         id="g42"><g
           clip-path="url(#clipPath46)"
           id="g44"><path
             id="path50"
             style="fill:#26b4b0;fill-opacity:1;fill-rule:nonzero;stroke:none"
             d="m 2447.98,4988.98 1201.59,0 0,1217.43 -1201.59,0 0,-1217.43 z" /></g></g><g
         id="g52"><g
           clip-path="url(#clipPath56)"
           id="g54"><path
             id="path60"
             style="fill:#26b4b0;fill-opacity:1;fill-rule:nonzero;stroke:none"
             d="m 2168.32,5182.59 1240.96,0 0,1287.75 -1240.96,0 0,-1287.75 z" /></g></g></g></g></svg>