<?xml version="1.0" encoding="UTF-8"?>
<svg width="103px" height="104px" viewBox="0 0 103 104" version="1.1" xmlns="http://www.w3.org/2000/svg" xmlns:xlink="http://www.w3.org/1999/xlink">
    <!-- Generator: Sketch 48.2 (47327) - http://www.bohemiancoding.com/sketch -->
    <title>beneficio-ahorro</title>
    <desc>Created with Sketch.</desc>
    <defs>
        <polygon id="path-1" points="0.0503180328 0.278213115 102.582597 0.278213115 102.582597 102.811336 0.0503180328 102.811336"></polygon>
        <path d="M0.408622951,45.4462459 L0.341081967,57.0329016 C3.07986885,82.7677049 24.8567705,102.810492 51.3159508,102.810492 C79.6308197,102.810492 102.582934,79.8566885 102.582934,51.5435082 C102.582934,23.2320164 79.6308197,0.278213115 51.3159508,0.278213115 C25.064459,0.278213115 3.42601639,20.0069344 0.408622951,45.4462459 Z" id="path-3"></path>
    </defs>
    <g id="Escuelas-libres-de-mercurio-v2" stroke="none" stroke-width="1" fill="none" fill-rule="evenodd" transform="translate(-669.000000, -4041.000000)">
        <g id="5---beneficios-de-los-ecoproyectores" transform="translate(-29.500000, 3322.011719)">
            <g id="Group-20" transform="translate(589.000000, 698.000000)">
                <g id="3" transform="translate(14.617188, 20.785156)">
                    <g id="beneficio-ahorro" transform="translate(94.882812, 0.351440)">
                        <g id="Group-8" transform="translate(0.000000, 0.411156)">
                            <g id="Group-3" transform="translate(0.000000, 0.000000)">
                                <mask id="mask-2" fill="white">
                                    <use xlink:href="#path-1"></use>
                                </mask>
                                <g id="Clip-2"></g>
                                <path d="M51.3156131,0.277368852 C79.630482,0.277368852 102.582597,23.2294836 102.582597,51.5443525 C102.582597,79.8575328 79.630482,102.811336 51.3156131,102.811336 C23.0024328,102.811336 0.0503180328,79.8575328 0.0503180328,51.5443525 C0.0503180328,23.2311721 23.0024328,0.277368852 51.3156131,0.277368852" id="Fill-1" fill="#AFCA0B" mask="url(#mask-2)"></path>
                            </g>
                            <path d="M58.6995311,18.841177 C59.0152852,19.487882 59.3462361,20.1328984 59.7008262,20.7542754 C59.7852525,20.9028656 59.8392852,21.0463902 59.9135803,21.1983574 C65.1378754,24.1938 68.6702689,29.8030787 68.6702689,36.2397344 C68.6702689,45.8102918 60.8827934,53.5977672 51.3223672,53.5977672 C51.3004164,53.5977672 49.2319738,53.5437344 48.392777,52.1219967 C47.6447607,50.8556033 48.0145475,48.7415705 49.4616131,45.9909639 C50.4561541,45.4016689 51.4929082,44.6620951 52.5161541,43.7553574 C54.1641541,42.2694557 55.7024,40.3715541 56.8860557,38.1747836 C58.1237443,35.9982754 58.9359246,33.499259 59.3496131,30.8955541 C59.7312197,28.2935377 59.7177115,25.5716361 59.1132197,22.9594885 C58.5627607,20.3642262 57.4787279,17.875341 56.0350393,15.8930131 C54.5913508,13.9174393 52.7981377,12.5058328 51.373023,11.8810787 C50.7009902,11.5298656 50.0086951,11.4353082 49.6068262,11.3576361 C49.1914492,11.3103574 48.9668754,11.2850295 48.9668754,11.2850295 C48.9668754,11.2850295 48.9229738,11.4944066 48.8267279,11.8945869 C48.7439902,12.2677508 48.4653836,12.8621115 48.2644492,13.4328328 C47.7460721,14.6485705 46.9423344,16.0348492 46.0474164,17.5410131 C44.3116131,20.5195705 42.6501049,24.1769148 42.0793836,28.2918492 C41.7957115,30.3332754 41.6707607,32.4439311 41.8716951,34.5512098 C42.0270393,36.6449803 42.4305967,38.7066689 42.9591049,40.5572918 C43.4504656,42.2120459 44.5311213,46.0061607 45.0630066,47.0986361 C46.0035148,45.6870295 46.9305148,44.2163246 47.7207443,42.6544393 C48.3370557,41.5788492 48.7862033,40.4407836 49.2893836,39.3432426 C49.7874984,38.2406361 50.0981869,37.0890623 50.5000557,36.003341 C50.7955475,34.8906033 51.0099902,33.7964393 51.2531377,32.7698164 C51.3561377,31.7195541 51.447318,30.718259 51.5418754,29.7963246 C51.4895311,28.8743902 51.443941,28.0233738 51.4101705,27.2736689 C51.4219902,26.5053902 51.1450721,25.8941443 51.0657115,25.3571934 C50.8174984,24.2968 50.6739738,23.6855541 50.6739738,23.6855541 C50.6739738,23.6855541 50.8630885,24.2883574 51.1855967,25.323423 C51.308859,25.8536197 51.6347443,26.4699311 51.6769574,27.2398984 C51.7748918,27.9963574 51.8778918,28.8558164 51.9944,29.7963246 C51.9775148,30.7435869 51.9538754,31.7685213 51.9285475,32.8559311 C51.7596951,33.9213902 51.6212361,35.0662098 51.3899082,36.2279148 C51.0657115,37.3693574 50.8326951,38.5850951 50.4021213,39.7518656 C49.9732361,40.9220131 49.5882525,42.1326852 49.039482,43.2724393 C48.7439902,43.9495377 48.4366787,44.6114393 48.1192361,45.2648984 L48.0871541,45.2480131 C47.8304984,45.7258656 47.6160557,46.1868328 47.4201869,46.6376689 C47.3374492,46.7913246 47.2631541,46.9568 47.1787279,47.1121443 C47.1989902,47.1020131 47.2192525,47.0986361 47.2395148,47.0885049 C46.2719902,49.5267344 46.194318,51.492177 47.0554656,52.927423 C48.3522525,55.1089967 51.1872852,55.1596525 51.3156131,55.1596525 C61.7523836,55.1596525 70.2405967,46.6731279 70.2405967,36.2397344 C70.2355311,28.4269311 65.4705148,21.7234885 58.6995311,18.841177" id="Fill-4" fill="#FFFFFF"></path>
                            <path d="M42.5151918,48.9246066 L40.500782,45.5897705 C39.7730279,44.3993607 38.2077656,44.0160656 37.0122902,44.7370656 L36.416241,45.1000984 C34.8188967,42.4220984 33.9577492,39.3743115 33.9577492,36.2387213 C33.9577492,29.5606066 37.7484869,23.7672787 43.2919131,20.8630164 C43.4472574,20.1133115 43.7140443,19.4125738 44.0618803,18.7624918 C37.2166016,21.6144098 32.3907984,28.3701967 32.3907984,36.2387213 C32.3907984,39.6613607 33.3211754,42.9945082 35.0671098,45.9173443 L34.6078311,46.1908852 C33.4123557,46.9152623 33.0273721,48.4839016 33.7551262,49.679377 L35.7695361,53.0091475 L37.1811426,52.1530656 L38.891618,54.9745902 L39.8929131,54.3684098 L38.1875033,51.5468852 L40.0989131,50.3851803 L41.8093885,53.2083934 L42.8123721,52.6022131 L41.1035852,49.7806885 L42.5151918,48.9246066 Z" id="Fill-6" fill="#FFFFFF"></path>
                        </g>
                        <g id="Group-11" transform="translate(0.000000, 0.411156)">
                            <mask id="mask-4" fill="white">
                                <use xlink:href="#path-3"></use>
                            </mask>
                            <g id="Clip-10"></g>
                            <polygon id="Fill-9" fill="#3EB49A" mask="url(#mask-4)" points="-1.68852459 107.065574 105.024541 107.065574 105.024541 63.0491148 -1.68852459 63.0491148"></polygon>
                        </g>
                        <g id="Group-40" transform="translate(16.196721, 67.263615)" fill="#FFFFFF">
                            <polygon id="Fill-12" points="7.91118852 0.519672131 8.48190984 0.519672131 8.48190984 10.468459 7.91118852 10.468459 7.91118852 5.61057377 1.09630328 5.61057377 1.09630328 10.468459 0.527270492 10.468459 0.527270492 0.519672131 1.09630328 0.519672131 1.09630328 5.10908197 7.91118852 5.10908197"></polygon>
                            <path d="M14.8466344,1.0390623 L12.5671262,6.95058689 L17.1734213,6.95058689 L14.8466344,1.0390623 Z M12.3661918,7.45376721 L11.2129295,10.4677836 L10.625323,10.4677836 L14.5291918,0.518996721 L15.2147328,0.518996721 L19.1506836,10.4677836 L18.563077,10.4677836 L17.3743557,7.45376721 L12.3661918,7.45376721 Z" id="Fill-14"></path>
                            <path d="M20.5405082,9.11156066 C21.3442459,9.81567541 22.1969508,10.0993475 23.1188852,10.0993475 C24.4426885,10.0993475 25.5300984,9.44588852 25.5300984,7.9886918 C25.5300984,6.59903607 24.6098525,6.11442951 23.1847377,5.56059344 C21.6296066,4.95779016 20.5573934,4.40564262 20.5573934,2.78128197 C20.5573934,1.20588852 21.862623,0.386954098 23.2860492,0.386954098 C24.1725246,0.386954098 25.0454918,0.67062623 25.5807541,1.14003607 L25.5807541,1.77660984 C24.8614426,1.15692131 24.1573279,0.888445902 23.2860492,0.888445902 C22.0973279,0.888445902 21.109541,1.54190492 21.109541,2.78128197 C21.109541,3.88557705 21.695459,4.43772459 23.3367049,5.04221639 C25.026918,5.66190492 26.0822459,6.24782295 26.0822459,7.9886918 C26.0822459,9.71436393 24.7263607,10.6025279 23.1188852,10.6025279 C22.0635574,10.6025279 21.1264262,10.2665115 20.5405082,9.78021639 L20.5405082,9.11156066 Z" id="Fill-16"></path>
                            <polygon id="Fill-18" points="31.4764066 10.4677836 30.9073738 10.4677836 30.9073738 1.02217705 27.5066852 1.02217705 27.5066852 0.518996721 34.8770951 0.518996721 34.8770951 1.02217705 31.4764066 1.02217705"></polygon>
                            <path d="M39.2973148,1.0390623 L37.0178066,6.95058689 L41.6241016,6.95058689 L39.2973148,1.0390623 Z M36.8168721,7.45376721 L35.6636098,10.4677836 L35.0760033,10.4677836 L38.9798721,0.518996721 L39.6654131,0.518996721 L43.6013639,10.4677836 L43.0137574,10.4677836 L41.8250361,7.45376721 L36.8168721,7.45376721 Z" id="Fill-20"></path>
                            <path d="M49.4119148,4.35515574 C51.691423,4.62363115 53.616341,5.5607623 53.616341,7.7035 C53.616341,9.32954918 52.5289311,10.6026967 50.4182754,10.6026967 C49.4473738,10.6026967 48.5929803,10.2497951 48.121882,9.83104098 L48.121882,9.24512295 C48.8108,9.81415574 49.5132262,10.1164016 50.4182754,10.1164016 C52.0578328,10.1164016 53.0456197,9.17758197 53.0456197,7.7035 C53.0456197,5.77858197 51.3047508,5.07446721 48.8766525,4.79079508 L49.1772098,0.520516393 L53.3647508,0.520516393 L53.3647508,1.0220082 L49.6483082,1.0220082 L49.4119148,4.35515574 Z" id="Fill-22"></path>
                            <path d="M59.1094492,10.1157262 C60.917859,10.1157262 62.1910066,8.34108689 62.1910066,5.49423443 C62.1910066,2.64738197 60.917859,0.871054098 59.1094492,0.871054098 C57.3010393,0.871054098 56.0278918,2.64738197 56.0278918,5.49423443 C56.0278918,8.34108689 57.3010393,10.1157262 59.1094492,10.1157262 M59.1094492,0.386447541 C61.3214164,0.386447541 62.7431541,2.46333279 62.7431541,5.49423443 C62.7431541,8.52513607 61.3214164,10.6020213 59.1094492,10.6020213 C56.897482,10.6020213 55.4757443,8.52513607 55.4757443,5.49423443 C55.4757443,2.46333279 56.897482,0.386447541 59.1094492,0.386447541" id="Fill-24"></path>
                            <path d="M71.4024148,6.7832541 C70.4990541,6.7832541 69.7780541,7.43671311 69.7780541,8.45827049 C69.7780541,9.46294262 70.4990541,10.1164016 71.4024148,10.1164016 C72.3243492,10.1164016 73.0453492,9.46294262 73.0453492,8.45827049 C73.0453492,7.43671311 72.3243492,6.7832541 71.4024148,6.7832541 Z M71.4024148,10.584123 C70.2305787,10.584123 69.2579885,9.71453279 69.2579885,8.45827049 C69.2579885,7.18512295 70.2305787,6.29695902 71.4024148,6.29695902 C72.5911361,6.29695902 73.5620377,7.18512295 73.5620377,8.45827049 C73.5620377,9.71453279 72.5911361,10.584123 71.4024148,10.584123 Z M66.2963164,10.4676148 L65.7407918,10.4676148 L71.8042836,0.503631148 L72.3564311,0.503631148 L66.2963164,10.4676148 Z M66.6796115,4.20487705 C67.5846607,4.20487705 68.3225459,3.55141803 68.3225459,2.52986066 C68.3225459,1.50830328 67.5846607,0.871729508 66.6796115,0.871729508 C65.7762508,0.871729508 65.0552508,1.50830328 65.0552508,2.52986066 C65.0552508,3.55141803 65.7762508,4.20487705 66.6796115,4.20487705 Z M66.6796115,0.385434426 C67.8514475,0.385434426 68.8240377,1.27359836 68.8240377,2.52986066 C68.8240377,3.78612295 67.8514475,4.67259836 66.6796115,4.67259836 C65.5077754,4.67259836 64.5368738,3.78612295 64.5368738,2.52986066 C64.5368738,1.27359836 65.5077754,0.385434426 66.6796115,0.385434426 Z" id="Fill-26"></path>
                            <path d="M10.2411836,15.2753508 L7.96167541,21.1868754 L12.5679705,21.1868754 L10.2411836,15.2753508 Z M7.76074098,21.6900557 L6.60747869,24.7040721 L6.01987213,24.7040721 L9.92374098,14.7552852 L10.609282,14.7552852 L14.5452328,24.7040721 L13.9576262,24.7040721 L12.7689049,21.6900557 L7.76074098,21.6900557 Z" id="Fill-28"></path>
                            <polygon id="Fill-30" points="24.0891115 14.7559607 24.6598328 14.7559607 24.6598328 24.7047475 24.0891115 24.7047475 24.0891115 19.8468623 17.2742262 19.8468623 17.2742262 24.7047475 16.7051934 24.7047475 16.7051934 14.7559607 17.2742262 14.7559607 17.2742262 19.3453705 24.0891115 19.3453705"></polygon>
                            <path d="M32.4145508,15.1417885 C29.917223,15.1417885 27.9754197,16.8995426 27.9754197,19.7295098 C27.9754197,22.5611656 29.917223,24.3189197 32.4145508,24.3189197 C34.9101902,24.3189197 36.8519934,22.5611656 36.8519934,19.7295098 C36.8519934,16.8995426 34.9101902,15.1417885 32.4145508,15.1417885 M32.4145508,14.621723 C35.2766,14.621723 37.4210262,16.681723 37.4210262,19.7295098 C37.4210262,22.7772967 35.2766,24.8372967 32.4145508,24.8372967 C29.5508131,24.8372967 27.4063869,22.7772967 27.4063869,19.7295098 C27.4063869,16.681723 29.5508131,14.621723 32.4145508,14.621723" id="Fill-32"></path>
                            <path d="M40.755018,20.1487705 L41.9437393,20.1487705 C43.6694115,20.1487705 44.7905918,19.2606066 44.7905918,17.5855902 C44.7905918,15.962918 43.6187557,15.1085246 41.6583787,15.1085246 C41.3747066,15.1085246 40.989723,15.1422951 40.755018,15.174377 L40.755018,20.1487705 Z M40.755018,24.7044098 L40.1859852,24.7044098 L40.1859852,14.7725082 C40.5709689,14.6897705 41.2227393,14.6222295 41.6583787,14.6222295 C44.0206246,14.6222295 45.3933951,15.6269016 45.3933951,17.5855902 C45.3933951,19.2606066 44.3380672,20.250082 42.9990672,20.5168689 L46.6327721,24.7044098 L45.8965754,24.7044098 L42.3962639,20.6350656 L40.755018,20.6350656 L40.755018,24.7044098 Z" id="Fill-34"></path>
                            <path d="M49.2965885,20.1487705 L50.4853098,20.1487705 C52.210982,20.1487705 53.3321623,19.2606066 53.3321623,17.5855902 C53.3321623,15.962918 52.1603262,15.1085246 50.1999492,15.1085246 C49.916277,15.1085246 49.5312934,15.1422951 49.2965885,15.174377 L49.2965885,20.1487705 Z M49.2965885,24.7044098 L48.7275557,24.7044098 L48.7275557,14.7725082 C49.1125393,14.6897705 49.7643098,14.6222295 50.1999492,14.6222295 C52.5621951,14.6222295 53.9349656,15.6269016 53.9349656,17.5855902 C53.9349656,19.2606066 52.8796377,20.250082 51.5406377,20.5168689 L55.1743426,24.7044098 L54.4381459,24.7044098 L50.9378344,20.6350656 L49.2965885,20.6350656 L49.2965885,24.7044098 Z" id="Fill-36"></path>
                            <path d="M61.556459,15.1417885 C59.0591311,15.1417885 57.1173279,16.8995426 57.1173279,19.7295098 C57.1173279,22.5611656 59.0591311,24.3189197 61.556459,24.3189197 C64.0520984,24.3189197 65.9939016,22.5611656 65.9939016,19.7295098 C65.9939016,16.8995426 64.0520984,15.1417885 61.556459,15.1417885 M61.556459,14.621723 C64.4185082,14.621723 66.5629344,16.681723 66.5629344,19.7295098 C66.5629344,22.7772967 64.4185082,24.8372967 61.556459,24.8372967 C58.6927213,24.8372967 56.5482951,22.7772967 56.5482951,19.7295098 C56.5482951,16.681723 58.6927213,14.621723 61.556459,14.621723" id="Fill-38"></path>
                        </g>
                    </g>
                </g>
            </g>
        </g>
    </g>
</svg>