<?xml version="1.0" encoding="UTF-8"?>
<svg width="104px" height="103px" viewBox="0 0 104 103" version="1.1" xmlns="http://www.w3.org/2000/svg" xmlns:xlink="http://www.w3.org/1999/xlink">
    <!-- Generator: Sketch 48.2 (47327) - http://www.bohemiancoding.com/sketch -->
    <title>beneficio-eco</title>
    <desc>Created with Sketch.</desc>
    <defs>
        <path d="M51.2698594,0.263359375 C26.0911875,0.263359375 5.16448438,18.4557344 0.915734375,42.4128906 L0.706515625,59.1439531 C4.43865625,83.7207187 25.6550469,102.550406 51.2698594,102.550406 C79.516,102.550406 102.414187,79.6538281 102.414187,51.4060781 C102.414187,23.1631562 79.516,0.263359375 51.2698594,0.263359375 Z" id="path-1"></path>
    </defs>
    <g id="Escuelas-libres-de-mercurio-v2" stroke="none" stroke-width="1" fill="none" fill-rule="evenodd" transform="translate(-1069.000000, -3808.000000)">
        <g id="5---beneficios-de-los-ecoproyectores" transform="translate(-29.500000, 3322.011719)">
            <g id="Group-17" transform="translate(989.000000, 463.000000)">
                <g id="2-copy" transform="translate(15.323929, 21.632812)">
                    <g id="beneficio-eco" transform="translate(95.000000, 0.781250)">
                        <g id="Page-1">
                            <path d="M51.2713078,0.610823438 C79.5174484,0.610823438 102.415636,23.5090109 102.415636,51.7551516 C102.415636,80.0012922 79.5174484,102.89948 51.2713078,102.89948 C23.0251672,102.89948 0.126979688,80.0012922 0.126979688,51.7551516 C0.126979688,23.5090109 23.0251672,0.610823438 51.2713078,0.610823438" id="Fill-1" fill="#AFCA0B"></path>
                            <g id="Group-5" transform="translate(0.000000, 0.346981)">
                                <mask id="mask-2" fill="white">
                                    <use xlink:href="#path-1"></use>
                                </mask>
                                <g id="Clip-4"></g>
                                <polygon id="Fill-3" fill="#3EB49A" mask="url(#mask-2)" points="105.317339 110.047197 -1.60953594 106.797869 -1.60953594 62.8860719 104.849011 62.8860719"></polygon>
                            </g>
                            <g id="Group-26" transform="translate(21.921875, 18.659481)" fill="#FFFFFF">
                                <polygon id="Fill-6" points="0.256439063 55.7571188 2.73004844 55.3016656 2.73004844 64.4380875 2.22953281 64.4380875 2.22953281 55.8633375 0.256439063 56.1819938"></polygon>
                                <path d="M8.14462969,64.1191094 C9.78458281,64.1191094 10.9368953,62.5097344 10.9368953,59.9299063 C10.9368953,57.3500781 9.78458281,55.7423125 8.14462969,55.7423125 C6.50467656,55.7423125 5.35236406,57.3500781 5.35236406,59.9299063 C5.35236406,62.5097344 6.50467656,64.1191094 8.14462969,64.1191094 M8.14462969,55.3013438 C10.1483016,55.3013438 11.4374109,57.1843125 11.4374109,59.9299063 C11.4374109,62.6771094 10.1483016,64.5584688 8.14462969,64.5584688 C6.14095781,64.5584688 4.85184844,62.6771094 4.85184844,59.9299063 C4.85184844,57.1843125 6.14095781,55.3013438 8.14462969,55.3013438" id="Fill-8"></path>
                                <path d="M16.0909187,64.1191094 C17.7308719,64.1191094 18.8831844,62.5097344 18.8831844,59.9299063 C18.8831844,57.3500781 17.7308719,55.7423125 16.0909187,55.7423125 C14.4509656,55.7423125 13.2986531,57.3500781 13.2986531,59.9299063 C13.2986531,62.5097344 14.4509656,64.1191094 16.0909187,64.1191094 M16.0909187,55.3013438 C18.0945906,55.3013438 19.3837,57.1843125 19.3837,59.9299063 C19.3837,62.6771094 18.0945906,64.5584688 16.0909187,64.5584688 C14.0872469,64.5584688 12.7981375,62.6771094 12.7981375,59.9299063 C12.7981375,57.1843125 14.0872469,55.3013438 16.0909187,55.3013438" id="Fill-10"></path>
                                <path d="M26.8904687,61.0991172 C26.0712969,61.0991172 25.4178906,61.6913672 25.4178906,62.6167578 C25.4178906,63.5276641 26.0712969,64.1183047 26.8904687,64.1183047 C27.7257344,64.1183047 28.3775312,63.5276641 28.3775312,62.6167578 C28.3775312,61.6913672 27.7257344,61.0991172 26.8904687,61.0991172 Z M26.8904687,64.5447891 C25.8282812,64.5447891 24.9479531,63.7545859 24.9479531,62.6167578 C24.9479531,61.4644453 25.8282812,60.6597578 26.8904687,60.6597578 C27.9671406,60.6597578 28.8474687,61.4644453 28.8474687,62.6167578 C28.8474687,63.7545859 27.9671406,64.5447891 26.8904687,64.5447891 Z M22.2619062,64.4385703 L21.7597812,64.4385703 L27.2541875,55.4083672 L27.7547031,55.4083672 L22.2619062,64.4385703 Z M22.6095312,58.7623047 C23.4303125,58.7623047 24.0982031,58.1700547 24.0982031,57.2446641 C24.0982031,56.3192734 23.4303125,55.7415078 22.6095312,55.7415078 C21.7919687,55.7415078 21.1385625,56.3192734 21.1385625,57.2446641 C21.1385625,58.1700547 21.7919687,58.7623047 22.6095312,58.7623047 Z M22.6095312,55.3021484 C23.6717187,55.3021484 24.5520469,56.1052266 24.5520469,57.2446641 C24.5520469,58.3824922 23.6717187,59.1871797 22.6095312,59.1871797 C21.5489531,59.1871797 20.6670156,58.3824922 20.6670156,57.2446641 C20.6670156,56.1052266 21.5489531,55.3021484 22.6095312,55.3021484 Z" id="Fill-12"></path>
                                <polygon id="Fill-14" points="38.6418031 63.9831172 38.6418031 64.4385703 33.7396469 64.4385703 33.7396469 55.4228516 38.5967406 55.4228516 38.5967406 55.8783047 34.2562563 55.8783047 34.2562563 59.5814766 38.3392406 59.5814766 38.3392406 60.0369297 34.2562563 60.0369297 34.2562563 63.9831172"></polygon>
                                <path d="M47.196275,56.5917406 C46.5283844,56.0155844 45.5869,55.7725687 44.7081812,55.7725687 C42.5065562,55.7725687 40.7008375,57.3513656 40.7008375,59.9311937 C40.7008375,62.4949281 42.5516187,64.0898188 44.8594625,64.0898188 C45.7703687,64.0898188 46.6506969,63.90635 47.3475562,63.3752563 L47.3475562,63.9224438 C46.7874937,64.3473187 45.754275,64.5597563 44.8594625,64.5597563 C42.1573219,64.5597563 40.1858375,62.7073656 40.1858375,59.9311937 C40.1858375,57.198475 42.1283531,55.3026312 44.7081812,55.3026312 C45.6174781,55.3026312 46.4978062,55.5150687 47.196275,55.9850062 L47.196275,56.5917406 Z" id="Fill-16"></path>
                                <path d="M53.1842766,55.7728906 C50.9231047,55.7728906 49.1624484,57.3661719 49.1624484,59.9299063 C49.1624484,62.49525 50.9231047,64.0885313 53.1842766,64.0885313 C55.4454484,64.0885313 57.2061047,62.49525 57.2061047,59.9299063 C57.2061047,57.3661719 55.4454484,55.7728906 53.1842766,55.7728906 M53.1842766,55.3029531 C55.7801984,55.3029531 57.7227141,57.1682188 57.7227141,59.9299063 C57.7227141,62.6932031 55.7801984,64.5584688 53.1842766,64.5584688 C50.5899641,64.5584688 48.6474484,62.6932031 48.6474484,59.9299063 C48.6474484,57.1682188 50.5899641,55.3029531 53.1842766,55.3029531" id="Fill-18"></path>
                                <polygon id="Fill-20" points="26.2217734 30.8794 23.6387266 30.8794 25.6713672 19.2307437 10.1248047 19.2307437 8.09055469 30.8794 5.50750781 30.8794 9.91236719 5.71682187 12.4970234 5.71682187 10.5480703 16.9003687 26.0946328 16.9003687 28.0435859 5.71682187 30.6266328 5.71682187"></polygon>
                                <path d="M48.2541172,15.0787172 C47.3641328,14.5701547 45.8818984,14.1887328 44.1453828,14.1887328 C38.5109609,14.1887328 35.4193516,17.4927797 35.4193516,22.7039359 C35.4193516,26.3894047 37.7062734,28.8887641 41.3064453,28.8887641 C43.3406953,28.8887641 44.8229297,28.3383578 45.9671953,27.8297953 L48.2541172,15.0787172 Z M33.0471328,34.7758578 C34.4440703,35.7076859 36.2240391,36.7682641 38.9342266,36.7682641 C42.4507109,36.7682641 44.6104922,35.1991234 45.3733359,31.2175297 L45.5857734,30.0330297 C44.5686484,30.6252797 42.8739766,31.0485453 41.3064453,31.0485453 C36.2658828,31.0485453 32.8346953,28.0840766 32.8346953,22.7039359 C32.8346953,16.4772641 37.0705703,11.9871078 44.1453828,11.9871078 C46.8137266,11.9871078 49.3983828,12.7483422 50.9659141,13.6801703 L47.7873984,31.7260922 C46.8555703,37.1480766 43.2972422,38.9280453 38.9342266,38.9280453 C36.1821953,38.9280453 33.8518203,38.0380609 32.6238672,37.1062328 L33.0471328,34.7758578 Z" id="Fill-22"></path>
                                <polygon id="Fill-24" points="2.86700625 38.8625437 1.03714687 36.8572625 51.2657406 0.551371875 53.0988187 2.55504375"></polygon>
                            </g>
                        </g>
                    </g>
                </g>
            </g>
        </g>
    </g>
</svg>