<?xml version="1.0" encoding="UTF-8"?>
<svg width="106px" height="44px" viewBox="0 0 106 44" version="1.1" xmlns="http://www.w3.org/2000/svg" xmlns:xlink="http://www.w3.org/1999/xlink">
    <!-- Generator: Sketch 48.2 (47327) - http://www.bohemiancoding.com/sketch -->
    <title>footer-logo-minamata</title>
    <desc>Created with Sketch.</desc>
    <defs></defs>
    <g id="Escuelas-libres-de-mercurio-v2" stroke="none" stroke-width="1" fill="none" fill-rule="evenodd" transform="translate(-529.000000, -5177.000000)">
        <g id="7---footer" transform="translate(-1.000000, 5063.000000)">
            <g transform="translate(725.500000, 209.746094) rotate(-90.000000) translate(-725.500000, -209.746094) translate(516.000000, -515.253906)" id="logos">
                <g transform="translate(255.296875, 368.933188)">
                    <g id="footer-logo-minamata" transform="translate(27.358969, 213.713020) rotate(-270.000000) translate(-27.358969, -213.713020) translate(-25.141031, 192.213020)">
                        <g id="Group-4">
                            <path d="M16.0564643,42.1182203 L88.3272975,42.1182203 C97.1638535,42.1182203 104.327298,34.9547763 104.327298,26.1182203 L104.327298,16.3018539 C104.327298,7.46529792 97.1638535,0.301853922 88.3272975,0.301853922 L16.0564643,0.301853922 C7.21990827,0.301853922 0.0564642625,7.46529792 0.0564642625,16.3018539 L0.0564642625,26.1182203 C0.0564642625,34.9547763 7.21990827,42.1182203 16.0564643,42.1182203 Z" id="Fill-1" stroke="#FFFFFF"></path>
                            <g id="Group-5" transform="translate(6.616722, 5.981724)" fill="#FFFFFF">
                                <path d="M2.42043087,12.3080794 C1.68133334,11.396187 1.18908568,10.5104316 1.18908568,9.64790917 C1.18908568,8.90881164 1.28782563,8.53998891 1.50853844,8.24376908 C1.68133334,9.08160654 1.87881323,9.64790917 2.19826599,10.1648418 C2.46980084,10.5830345 2.93736352,11.346817 3.01141848,11.9145717 C3.13484341,10.7064595 3.45429617,9.84538905 4.41555857,8.83475668 C4.41555857,10.0907869 4.41555857,10.7805144 3.9233109,11.6677219 C3.60240609,12.2587095 3.52835113,12.8250121 3.52835113,13.6875345 L3.45429617,13.6875345 L2.42043087,12.3080794 Z M3.750516,15.8554571 C2.00223816,15.0669896 1.36188058,14.1304122 1.36188058,11.9145717 L1.43448348,11.9145717 C2.07629312,13.2925748 3.23358335,14.7954548 4.34150361,15.1657296 C3.99736586,13.8356445 4.07142082,13.0718619 4.41555857,11.9145717 C5.00654618,12.7509571 5.10528612,13.5147396 5.10528612,14.525372 C5.10528612,15.2644695 5.10528612,16.1008549 5.62221877,16.5945547 L5.54816381,16.6686096 L3.750516,15.8554571 Z M3.13484341,4.17945872 L3.20889837,4.25351368 C2.81393859,5.63296878 2.66728073,6.76557403 2.93736352,8.21908409 C3.4049262,7.11116383 4.41555857,6.42143628 5.17934108,6.0264765 C5.00654618,7.06179386 4.7117784,7.57872651 3.84925595,8.44124896 C3.35700828,8.93349663 2.93736352,9.40105931 2.74133569,10.1648418 L2.66728073,10.1648418 C2.19826599,8.53998891 1.95286819,7.82557637 1.95286819,6.83962899 C1.95286819,5.85513366 2.42043087,4.84450129 3.13484341,4.17945872 Z M2.34637591,15.7320322 L2.42043087,15.6579772 C3.20889837,16.4217598 3.9233109,16.8646374 5.10528612,16.9880624 C5.62221877,17.0621173 6.50942621,17.4323921 6.97698889,17.6531049 C6.18852139,16.9633774 5.86906863,15.6332923 5.86906863,14.525372 C6.43537125,15.0176197 7.19915376,15.8554571 7.34726368,16.5945547 C7.41986658,16.9880624 7.9135663,17.7518449 8.5292389,18.0712977 C7.7407714,18.2687775 7.19915376,18.3181475 6.36131629,18.3181475 C4.56366848,18.3181475 2.88799355,17.4556251 2.34637591,15.7320322 Z M3.52835113,5.58359881 C3.70114603,4.5744185 3.87394093,3.93406092 4.16870871,3.4403612 C4.61303846,2.67657869 5.17934108,1.91279618 5.94312359,1.59334341 L6.01717855,1.66739837 C5.32745099,2.67657869 4.88312125,3.56378613 4.61303846,4.6470214 C5.25339604,4.17945872 6.43537125,3.93406092 7.07572883,3.83532097 C6.75482401,4.37693861 6.11446643,4.86918627 5.10528612,5.33674895 C4.48961353,5.63296878 4.09465375,5.90450363 3.4049262,6.59423118 L3.35700828,6.51872417 L3.52835113,5.58359881 Z M9.61247417,20.73292 C10.4749966,19.9197675 11.3375191,19.3287799 12.3466994,18.9091351 C10.4256266,19.0078751 9.46436425,19.8457125 7.69140143,19.8457125 C6.80564604,19.8457125 5.64690376,19.5988627 5.00654618,18.9831901 L5.08060113,18.9091351 C5.42619094,19.0078751 5.72095871,19.0078751 6.01717855,19.0078751 C6.97698889,19.0078751 8.77608876,18.2687775 10.1787768,18.2687775 C11.3375191,18.2687775 12.0519316,18.3922025 13.0364269,18.7624773 C13.9976893,18.3922025 14.7600198,18.2687775 15.8693921,18.2687775 C17.2735322,18.2687775 19.07118,19.0078751 20.0324424,19.0078751 C20.3765802,19.0078751 20.648115,19.0078751 20.9675678,18.9091351 L21.0416227,18.9831901 C20.4012651,19.5988627 19.2439749,19.8457125 18.3567675,19.8457125 C16.6331746,19.8457125 15.6472272,19.0078751 13.7014695,18.9091351 C14.7121019,19.3287799 15.5731723,19.9197675 16.4356947,20.73292 L15.7212822,20.73292 C14.9328147,19.7716576 13.6027296,19.08193 13.0364269,19.08193 C12.4933572,19.08193 11.1153542,19.7716576 10.1787768,20.73292 L9.61247417,20.73292 Z M6.08978145,2.8246886 C6.68222111,1.66739837 7.76545638,0.483971098 9.36707636,0.33731324 C8.7020338,1.27243859 8.06167622,1.88956325 7.22383875,2.50523584 C7.7407714,2.35712592 8.20833408,2.23370099 8.60329385,2.23370099 C8.92274661,2.23370099 9.29302141,2.30775595 9.61247417,2.43118088 C8.92274661,2.92342855 7.96293627,3.17027841 7.44600362,3.17027841 C6.9523039,3.17027841 6.18852139,3.36630624 5.67158874,3.51441615 L6.08978145,2.8246886 Z M11.5829169,9.64790917 C12.1985895,9.72196412 12.8157141,10.4610616 12.8157141,12.1846545 C12.8157141,15.0669896 11.9531917,16.9880624 11.5582319,16.9880624 C10.8685043,16.9880624 6.65753613,15.3138395 6.65753613,10.5830345 C6.65753613,9.32845641 6.90293393,9.10629153 7.29789371,9.18034649 L11.5829169,9.64790917 Z M7.37194867,8.76070173 C7.1250988,8.78538671 7.05104385,8.61259181 7.05104385,8.51530392 C7.05104385,8.24376908 8.75140377,4.25351368 13.1351669,4.25351368 C17.51893,4.25351368 19.2192899,8.24376908 19.2192899,8.51530392 C19.2192899,8.61259181 19.145235,8.78538671 18.8983851,8.76070173 L13.3820167,7.89963133 L13.3820167,7.82557637 C13.7755245,7.67746645 13.9730044,7.35801369 13.9730044,6.91368394 C13.9730044,6.42143628 13.7014695,6.0264765 13.1351669,6.0264765 C12.5688643,6.0264765 12.2973294,6.42143628 12.2973294,6.91368394 C12.2973294,7.35801369 12.4933572,7.67746645 12.888317,7.82557637 L12.888317,7.89963133 L7.37194867,8.76070173 Z M8.84869166,1.76613832 L8.60329385,1.76613832 L8.60329385,1.69208336 L9.29302141,1.22452068 C10.0814889,0.559478115 10.6477915,0.33731324 11.3375191,0.33731324 C11.6816568,0.33731324 11.9531917,0.411368198 12.2232745,0.559478115 L12.2232745,0.632081015 C11.436259,0.755505945 10.6971615,0.952985834 9.93337899,1.34649355 C10.8685043,1.49460347 11.2140941,1.59334341 12.0272466,2.11027606 C11.8283147,2.15964604 11.5829169,2.23370099 11.3375191,2.23370099 C10.4009417,2.23370099 9.95806397,1.81550829 8.84869166,1.76613832 Z M15.0068697,1.34649355 C14.489937,1.34649355 13.8495794,1.42054851 13.2832768,1.56865843 L13.2832768,1.64271339 C13.7755245,1.76613832 14.1690322,2.15964604 14.440567,2.60252373 C13.5286746,2.43118088 12.5935493,1.98830319 12.0272466,1.27243859 C12.5194943,1.10109575 13.1598519,0.829560903 13.7755245,0.829560903 C14.1690322,0.829560903 14.6874169,0.903615862 15.0068697,1.34649355 Z M18.9724401,9.18034649 C19.3673998,9.10629153 19.6127976,9.32845641 19.6127976,10.5830345 C19.6127976,15.3138395 15.4018294,16.9880624 14.7121019,16.9880624 C14.3171421,16.9880624 13.4546196,15.0669896 13.4546196,12.1846545 C13.4546196,10.4610616 14.0717443,9.72196412 14.6874169,9.64790917 L18.9724401,9.18034649 Z M15.4018294,2.67657869 C15.1549796,2.57783874 15.0068697,2.20901601 14.8587597,1.84019327 C15.6965972,1.98830319 16.2628998,2.35712592 16.5097497,3.09622345 L15.4018294,2.67657869 Z M17.9632598,18.3181475 L17.6670399,18.3181475 L17.6670399,18.2687775 C18.2827125,17.9246398 18.4308224,17.504995 18.6036173,17.1855423 C19.095865,16.2489649 19.6868526,15.3385245 20.5000051,14.9188797 C20.3272102,15.6579772 20.0818124,17.0621173 19.095865,17.7518449 L19.16992,17.8258998 C20.9428828,17.4323921 22.3470229,16.8152675 23.8499029,15.5839223 L23.9239579,15.6579772 C23.1848603,17.6777899 21.2637876,18.5156274 20.0077574,18.5156274 C19.6127976,18.5156274 18.9971251,18.3181475 17.9632598,18.3181475 Z M18.1592876,0.829560903 C19.095865,0.829560903 19.9830724,1.22452068 20.3272102,2.11027606 C19.5634277,1.96361821 18.8983851,1.64271339 18.4308224,1.12578074 L18.1592876,0.829560903 Z M21.1897326,2.75063364 L21.2637876,2.67657869 C20.9675678,2.30775595 20.5000051,1.59334341 20.5000051,1.42054851 C21.6572953,1.76613832 22.0275701,2.60252373 22.1016251,3.68721106 C20.72217,3.39099122 19.8596475,2.9974835 19.4400027,2.15964604 L21.1897326,2.75063364 Z M22.1016251,11.9871746 C22.174228,12.4315044 22.3470229,13.1952869 22.3470229,13.6875345 C22.3470229,14.3278921 22.174228,15.0176197 21.8547752,15.5345523 L21.9041452,15.5839223 C23.2342303,14.6473449 23.9980128,13.5394246 24.8605353,12.2587095 L24.9331382,12.3080794 C24.6877404,14.2538372 23.8499029,15.8554571 20.7700879,16.7412125 C21.0909927,16.1008549 21.0909927,15.4111274 21.0909927,14.9188797 C21.0909927,13.8356445 21.3378426,12.997807 22.1016251,11.9871746 Z M23.603053,6.74088904 C22.3717079,6.10053146 21.4859525,5.16540611 20.8441428,3.90792387 L20.9196498,3.83532097 C21.2637876,4.00666382 22.6679277,4.69639137 22.8407226,5.01729619 L22.9147775,4.94324123 C22.6679277,4.5744185 22.5938727,3.36630624 22.5938727,3.09622345 C23.4317102,3.83532097 23.751163,4.84450129 23.751163,5.90450363 C23.751163,6.17458642 23.701793,6.44612127 23.603053,6.74088904 Z M23.751163,9.91799196 C23.603053,9.32845641 23.4317102,9.00755159 22.9873804,8.58935888 C22.6679277,8.16971412 22.2729679,7.23458876 22.1016251,6.24864138 L22.174228,6.17458642 C22.2729679,6.42143628 22.5198178,6.66683408 23.1108054,7.18521879 C23.3576552,7.43061659 23.677108,7.92431631 23.701793,8.31782403 L23.7758479,8.31782403 L24.2201777,5.50954385 L24.2942327,5.50954385 C24.5149455,6.0264765 24.6877404,6.66683408 24.6877404,7.18521879 C24.6877404,7.92431631 24.1708077,9.32845641 23.751163,9.91799196 Z M22.5198178,8.93349663 C22.9873804,9.64790917 23.4317102,10.5830345 23.4563952,11.5936669 L23.5304501,11.5936669 C23.603053,11.1014192 23.751163,10.6585415 24.1214378,10.3376367 C24.3668356,10.0907869 24.9331382,9.08160654 25.1059331,8.76070173 L25.179988,8.76070173 C25.4515229,10.3870067 24.5396305,12.0365446 23.1108054,13.5887946 C23.1354904,12.4315044 22.2729679,10.5104316 22.2729679,9.84538905 C22.2729679,9.52448424 22.3717079,9.08160654 22.5198178,8.93349663 Z" id="Fill-2"></path>
                                <path d="M2.99834996,22.8879193 L2.99834996,23.0795909 C2.60193812,23.105728 2.34492385,23.1725226 2.22875921,23.2785229 C2.11114251,23.383071 2.05160814,23.6255647 2.05160814,24.0060039 L2.05160814,27.3036277 C2.05160814,27.8452453 2.12566309,28.2663421 2.27232095,28.5683702 C2.54821197,29.1187002 3.07095286,29.3931391 3.83909154,29.3931391 C4.68273724,29.3931391 5.2475878,29.1114399 5.53654735,28.5465893 C5.69772579,28.2314927 5.77904103,27.7450533 5.77904103,27.087271 L5.77904103,24.4024158 C5.77904103,23.8433734 5.71079431,23.4919754 5.57575291,23.3482216 C5.44216358,23.20592 5.18660137,23.1158924 4.8119704,23.0795909 L4.8119704,22.8879193 L7.1977017,22.8879193 L7.1977017,23.0795909 C6.79838575,23.1231527 6.53846737,23.2189885 6.41504244,23.3685505 C6.29306957,23.5181124 6.23208313,23.8622502 6.23208313,24.4024158 L6.23208313,27.087271 C6.23208313,27.7987794 6.12172672,28.3549176 5.90391802,28.7542336 C5.50169796,29.4889749 4.73501133,29.8563456 3.60821432,29.8563456 C2.49303377,29.8563456 1.73505949,29.4947832 1.33138737,28.7687542 C1.11357867,28.3796026 1.00467431,27.8655741 1.00467431,27.2281206 L1.00467431,24.0060039 C1.00467431,23.6299209 0.946591995,23.3888793 0.830427354,23.282879 C0.714262714,23.1768788 0.461604621,23.1086321 0.0724530756,23.0795909 L0.0724530756,22.8879193 L2.99834996,22.8879193 Z" id="Fill-4"></path>
                                <path d="M7.49493798,29.519323 C7.92184303,29.4757612 8.19482994,29.3799254 8.31535075,29.2303634 C8.43587157,29.0808014 8.496858,28.7337596 8.496858,28.1906899 L8.496858,23.6472004 L8.35600838,23.4816658 C8.20499434,23.3045147 8.07721324,23.1941583 7.971213,23.1520486 C7.86521277,23.1099389 7.70693845,23.0852539 7.49493798,23.0794457 L7.49493798,22.8877741 L9.25483228,22.8877741 L13.2363753,27.8218672 L13.2363753,24.3950103 C13.2363753,23.8316118 13.152156,23.4642411 12.9837172,23.2943503 C12.8733608,23.1839939 12.627963,23.112843 12.2489759,23.0794457 L12.2489759,22.8877741 L14.6710086,22.8877741 L14.6710086,23.0794457 C14.2775009,23.1186513 14.0161305,23.2144871 13.8854453,23.3655011 C13.75476,23.5165152 13.6894174,23.862105 13.6894174,24.4037226 L13.6894174,29.8315154 L13.5122664,29.8315154 L8.9499001,24.1772016 L8.9499001,28.1906899 C8.9499001,28.7555405 9.03266741,29.1229111 9.19674996,29.2928019 C9.30420225,29.4031583 9.54524388,29.4786653 9.91697073,29.519323 L9.91697073,29.7109946 L7.49493798,29.7109946 L7.49493798,29.519323 Z" id="Fill-6"></path>
                                <path d="M14.9423983,29.519323 C15.3213854,29.4801174 15.5682353,29.4118707 15.6800437,29.3160348 C15.7918522,29.2216511 15.8499345,28.9806094 15.8499345,28.59291 L15.8499345,24.0058587 C15.8499345,23.6399401 15.7933043,23.4003505 15.6829479,23.28709 C15.5725915,23.1752815 15.3257416,23.1055828 14.9423983,23.0794457 L14.9423983,22.8877741 L20.4210131,22.8877741 L20.4558625,24.363065 L20.1944921,24.363065 C20.1073686,23.9085708 19.9766834,23.6152551 19.8024364,23.4802137 C19.6281895,23.3480764 19.2375859,23.2812818 18.6335297,23.2812818 L17.2293896,23.2812818 C17.0783756,23.2812818 16.9854439,23.3045147 16.9491424,23.3538847 C16.914293,23.4018026 16.8968684,23.4932822 16.8968684,23.6283236 L16.8968684,25.9283835 L18.4868719,25.9283835 C18.9268454,25.9283835 19.2085447,25.864493 19.3290655,25.7338077 C19.4495863,25.6031225 19.5468742,25.3403 19.6209292,24.9424361 L19.8619708,24.9424361 L19.8619708,27.3238113 L19.6209292,27.3238113 C19.542518,26.9244953 19.4452302,26.6602208 19.3232573,26.5309876 C19.2027365,26.4017544 18.9239413,26.3378639 18.4868719,26.3378639 L16.8968684,26.3378639 L16.8968684,28.8891298 C16.8968684,29.095322 16.9607589,29.2158428 17.0899921,29.2521443 C17.2192252,29.2898978 17.6069247,29.3073225 18.2530905,29.3073225 C18.9529825,29.3073225 19.4684631,29.2318155 19.8009844,29.0793494 C20.1335056,28.9254312 20.4326296,28.5551564 20.6983562,27.968525 L20.9858637,27.968525 L20.516849,29.7109946 L14.9423983,29.7109946 L14.9423983,29.519323 Z" id="Fill-8"></path>
                                <path d="M24.7721049,23.4616274 C24.4802413,23.3338463 24.1099665,23.2699557 23.6641847,23.2699557 C23.4521842,23.2699557 23.3229511,23.2917366 23.2735811,23.3338463 C23.2256632,23.3745039 23.2009782,23.4688877 23.2009782,23.6126414 L23.2009782,26.3018528 C23.3853895,26.3192775 23.5059104,26.3294419 23.5625406,26.3323461 C23.6206229,26.3352502 23.6758011,26.3367022 23.7295273,26.3367022 C24.2028982,26.3367022 24.5760771,26.2699076 24.847612,26.1363182 C25.3413117,25.8909204 25.5881615,25.4320701 25.5881615,24.7612193 C25.5881615,24.1295741 25.3166267,23.6968608 24.7721049,23.4616274 Z M21.292974,29.5196134 C21.6850296,29.4818599 21.9304274,29.4049008 22.0277153,29.285832 C22.1250032,29.1682153 22.1729211,28.8966805 22.1729211,28.4726796 L22.1729211,24.0061491 C22.1729211,23.6460387 22.119195,23.4093533 22.0102906,23.2960928 C21.9013863,23.1813802 21.6617967,23.1087773 21.292974,23.0797361 L21.292974,22.8880645 L24.0126786,22.8880645 C24.8839134,22.8880645 25.5533121,23.0579553 26.0150666,23.3962848 C26.4797252,23.7346143 26.7106024,24.1818481 26.7106024,24.7350822 C26.7106024,25.4378783 26.4535881,25.9460986 25.9410116,26.2611952 C25.4269831,26.5777439 24.7837214,26.7345661 24.0126786,26.7345661 C23.9008701,26.7345661 23.7585685,26.731662 23.5857736,26.7273058 C23.4129786,26.7229497 23.2851975,26.7200455 23.2009782,26.7200455 L23.2009782,28.5932004 C23.2009782,28.9808999 23.2605126,29.2233935 23.3795813,29.3250376 C23.4986501,29.4237775 23.7658287,29.4891202 24.1782132,29.5196134 L24.1782132,29.711285 L21.292974,29.711285 L21.292974,29.5196134 Z" id="Fill-10"></path>
                                <path d="M36.8649892,30.1312202 C38.661185,30.1312202 39.4496525,28.8606695 39.4496525,26.0683619 C39.4496525,23.2746023 38.661185,22.0040516 36.8649892,22.0040516 C35.0687935,22.0040516 34.280326,23.2746023 34.280326,26.0683619 C34.280326,28.8606695 35.0687935,30.1312202 36.8649892,30.1312202 Z M36.8649892,29.1888346 C36.1200835,29.1888346 35.5290958,28.7285322 35.5290958,26.0349646 C35.5290958,23.4067396 36.1200835,22.9464372 36.8649892,22.9464372 C37.609895,22.9464372 38.2008826,23.4067396 38.2008826,26.0349646 C38.2008826,28.7285322 37.609895,29.1888346 36.8649892,29.1888346 Z M40.7202032,29.9773021 L41.9036305,29.9773021 L41.9036305,23.9977272 L41.9254114,23.9977272 L44.1920739,29.9773021 L45.7152828,29.9773021 L45.7152828,22.1579697 L44.5318555,22.1579697 L44.5318555,27.9850785 L44.5100746,27.9850785 L42.2434121,22.1579697 L40.7202032,22.1579697 L40.7202032,29.9773021 Z M49.9640045,29.9773021 L51.1474317,29.9773021 L51.1474317,23.4720822 L51.1692126,23.4720822 L52.7461476,29.9773021 L53.7974376,29.9773021 L55.3758247,23.4720822 L55.3976055,23.4720822 L55.3976055,29.9773021 L56.5795807,29.9773021 L56.5795807,22.1579697 L54.6744806,22.1579697 L53.3153543,27.9516811 L53.2935735,27.9516811 L51.9141184,22.1579697 L49.9640045,22.1579697 L49.9640045,29.9773021 Z M58.0359949,29.9773021 L62.3515113,29.9773021 L62.3515113,28.9260121 L59.2847648,28.9260121 L59.2847648,26.4284723 L62.0886888,26.4284723 L62.0886888,25.3771823 L59.2847648,25.3771823 L59.2847648,23.2092597 L62.2643878,23.2092597 L62.2643878,22.1579697 L58.0359949,22.1579697 L58.0359949,29.9773021 Z M63.469596,29.9773021 L64.7183659,29.9773021 L64.7183659,26.5823904 L65.7362585,26.5823904 C66.5900686,26.5823904 66.8528911,26.9555693 66.8761241,27.8093795 C66.8979049,28.3785862 66.8862885,28.8171077 66.9298502,29.2875745 C66.9632475,29.5939587 67.0184257,29.8350004 67.1389466,29.9773021 L68.551799,29.9773021 C68.3877164,29.8683977 68.200401,29.6825343 68.1786201,29.299191 C68.1568392,28.8272721 68.1466748,28.2145036 68.1350583,27.7106395 C68.0914966,26.6157878 67.6863724,26.1888827 66.9080693,26.1119236 L66.9080693,26.0901428 C67.7633315,25.9580055 68.2120174,25.1811545 68.2120174,24.1734262 C68.2120174,22.7053956 67.32481,22.1579697 66.2299582,22.1579697 L63.469596,22.1579697 L63.469596,29.9773021 Z M64.7183659,25.6400048 L64.7183659,23.0989033 L65.7798203,23.0989033 C66.6016851,23.0989033 66.9632475,23.5374248 66.9632475,24.369454 C66.9632475,25.1579215 66.5145616,25.6400048 65.7144777,25.6400048 L64.7183659,25.6400048 Z M73.0749597,27.173378 L73.0749597,27.3055153 C73.0749597,28.0286402 72.9544389,29.1888346 71.9133133,29.1888346 C70.9941606,29.1888346 70.5774199,28.5542852 70.5774199,26.0349646 C70.5774199,23.5156439 70.9941606,22.9464372 71.9133133,22.9464372 C72.8121372,22.9130399 73.0313979,23.7450691 73.0313979,24.468194 L73.0313979,24.6003313 L74.2801678,24.6003313 L74.2801678,24.4580296 C74.2801678,23.6477812 74.1480305,22.0040516 71.9249297,22.0040516 C69.9428706,22.0040516 69.32865,23.2746023 69.32865,26.0683619 C69.32865,28.8606695 69.9428706,30.1312202 71.9133133,30.1312202 C73.7545228,30.1312202 74.3237296,28.7517651 74.3237296,27.3389127 L74.3237296,27.173378 L73.0749597,27.173378 Z M75.2646631,22.1579697 L75.2646631,27.6670778 C75.2646631,29.4734379 76.1634871,30.1312202 77.663463,30.1312202 C79.1532745,30.1312202 80.0520984,29.4734379 80.0520984,27.6670778 L80.0520984,22.1579697 L78.8033285,22.1579697 L78.8033285,27.7658177 C78.8033285,28.7517651 78.4083687,29.1888346 77.663463,29.1888346 C76.9083928,29.1888346 76.513433,28.7517651 76.513433,27.7658177 L76.513433,22.1579697 L75.2646631,22.1579697 Z M81.4097726,29.9773021 L82.6585425,29.9773021 L82.6585425,26.5823904 L83.6764352,26.5823904 C84.5316973,26.5823904 84.7945198,26.9555693 84.8163007,27.8093795 C84.8380816,28.3785862 84.8264651,28.8171077 84.8714789,29.2875745 C84.9034242,29.5939587 84.9586024,29.8350004 85.0791232,29.9773021 L86.4919756,29.9773021 C86.3278931,29.8683977 86.1420297,29.6825343 86.1202488,29.299191 C86.0970159,28.8272721 86.0868515,28.2145036 86.075235,27.7106395 C86.0316733,26.6157878 85.6265491,26.1888827 84.849698,26.1119236 L84.849698,26.0901428 C85.7035081,25.9580055 86.1521941,25.1811545 86.1521941,24.1734262 C86.1521941,22.7053956 85.2649866,22.1579697 84.1701349,22.1579697 L81.4097726,22.1579697 L81.4097726,29.9773021 Z M82.6585425,25.6400048 L82.6585425,23.0989033 L83.721449,23.0989033 C84.5418617,23.0989033 84.9034242,23.5374248 84.9034242,24.369454 C84.9034242,25.1579215 84.4547383,25.6400048 83.6546543,25.6400048 L82.6585425,25.6400048 Z M88.5843912,29.9773021 L89.8331611,29.9773021 L89.8331611,26.922172 L91.9241246,22.1579697 L90.6216286,22.1579697 L89.2741188,25.5311004 L87.9600063,22.1579697 L86.5689347,22.1579697 L88.5843912,26.922172 L88.5843912,29.9773021 Z" id="Fill-12"></path>
                                <path d="M38.0263452,16.2210853 L38.0263452,16.3532226 C38.0263452,17.0748954 37.9058244,18.2365419 36.8646988,18.2365419 C35.9455461,18.2365419 35.5288054,17.6005404 35.5288054,15.0826719 C35.5288054,12.5633512 35.9455461,11.9926924 36.8646988,11.9926924 C37.7635227,11.9607472 37.9827835,12.7927764 37.9827835,13.5159013 L37.9827835,13.6465865 L39.2315533,13.6465865 L39.2315533,13.5042848 C39.2315533,12.6940364 39.0994161,11.0517588 36.8763153,11.0517588 C34.8942561,11.0517588 34.2800356,12.3223096 34.2800356,15.1146171 C34.2800356,17.9083767 34.8942561,19.1789275 36.8646988,19.1789275 C38.7059084,19.1789275 39.2751151,17.7980203 39.2751151,16.3851679 L39.2751151,16.2210853 L38.0263452,16.2210853 Z M42.7135884,19.1789275 C44.5097842,19.1789275 45.2997037,17.9083767 45.2997037,15.1146171 C45.2997037,12.3223096 44.5097842,11.0517588 42.7135884,11.0517588 C40.9173927,11.0517588 40.1289252,12.3223096 40.1289252,15.1146171 C40.1289252,17.9083767 40.9173927,19.1789275 42.7135884,19.1789275 Z M42.7135884,18.2365419 C41.9686827,18.2365419 41.3776951,17.7762395 41.3776951,15.0826719 C41.3776951,12.4529948 41.9686827,11.9926924 42.7135884,11.9926924 C43.4584942,11.9926924 44.0509339,12.4529948 44.0509339,15.0826719 C44.0509339,17.7762395 43.4584942,18.2365419 42.7135884,18.2365419 Z M46.5702545,19.0250093 L47.7522297,19.0250093 L47.7522297,13.0439824 L47.7740106,13.0439824 L50.0421252,19.0250093 L51.563882,19.0250093 L51.563882,11.2042249 L50.3819068,11.2042249 L50.3819068,17.0313337 L50.3586738,17.0313337 L48.0920113,11.2042249 L46.5702545,11.2042249 L46.5702545,19.0250093 Z M54.1485452,19.0250093 L55.7370967,19.0250093 L57.7089915,11.2042249 L56.3832625,11.2042249 L54.9820265,17.4480744 L54.9587936,17.4480744 L53.6345167,11.2042249 L52.3087877,11.2042249 L54.1485452,19.0250093 Z M58.4538972,19.0250093 L62.7694136,19.0250093 L62.7694136,17.9737194 L59.701215,17.9737194 L59.701215,15.4761796 L62.5065911,15.4761796 L62.5065911,14.4248896 L59.701215,14.4248896 L59.701215,12.2555149 L62.6808381,12.2555149 L62.6808381,11.2042249 L58.4538972,11.2042249 L58.4538972,19.0250093 Z M63.8860462,19.0250093 L65.0694735,19.0250093 L65.0694735,13.0439824 L65.0912544,13.0439824 L67.3579169,19.0250093 L68.8796737,19.0250093 L68.8796737,11.2042249 L67.6976985,11.2042249 L67.6976985,17.0313337 L67.6759176,17.0313337 L65.407803,11.2042249 L63.8860462,11.2042249 L63.8860462,19.0250093 Z M71.6182551,19.0250093 L72.867025,19.0250093 L72.867025,12.2555149 L74.6966181,12.2555149 L74.6966181,11.2042249 L69.7567167,11.2042249 L69.7567167,12.2555149 L71.6182551,12.2555149 L71.6182551,19.0250093 Z M75.5170308,19.0250093 L76.7658007,19.0250093 L76.7658007,11.2042249 L75.5170308,11.2042249 L75.5170308,19.0250093 Z M80.5672886,19.1789275 C82.3634843,19.1789275 83.1519518,17.9083767 83.1519518,15.1146171 C83.1519518,12.3223096 82.3634843,11.0517588 80.5672886,11.0517588 C78.7710928,11.0517588 77.9826253,12.3223096 77.9826253,15.1146171 C77.9826253,17.9083767 78.7710928,19.1789275 80.5672886,19.1789275 Z M80.5672886,18.2365419 C79.8223828,18.2365419 79.2299431,17.7762395 79.2299431,15.0826719 C79.2299431,12.4529948 79.8223828,11.9926924 80.5672886,11.9926924 C81.3121943,11.9926924 81.9031819,12.4529948 81.9031819,15.0826719 C81.9031819,17.7762395 81.3121943,18.2365419 80.5672886,18.2365419 Z M84.4225026,19.0250093 L85.6044778,19.0250093 L85.6044778,13.0439824 L85.6277107,13.0439824 L87.8943733,19.0250093 L89.4161301,19.0250093 L89.4161301,11.2042249 L88.2341548,11.2042249 L88.2341548,17.0313337 L88.212374,17.0313337 L85.9442594,11.2042249 L84.4225026,11.2042249 L84.4225026,19.0250093 Z" id="Fill-14"></path>
                                <path d="M34.4664798,8.07242623 L35.6499071,8.07242623 L35.6499071,1.56575431 L35.6716879,1.56575431 L37.2486229,8.07242623 L38.2999129,8.07242623 L39.8768479,1.56575431 L39.8986288,1.56575431 L39.8986288,8.07242623 L41.0820561,8.07242623 L41.0820561,0.251641818 L39.1755039,0.251641818 L37.8178297,6.04680531 L37.7960488,6.04680531 L36.4165937,0.251641818 L34.4664798,0.251641818 L34.4664798,8.07242623 Z M42.483292,8.07242623 L43.7320619,8.07242623 L43.7320619,0.251641818 L42.483292,0.251641818 L42.483292,8.07242623 Z M45.13475,8.07242623 L46.3167252,8.07242623 L46.3167252,2.09285137 L46.338506,2.09285137 L48.6066206,8.07242623 L50.1283774,8.07242623 L50.1283774,0.251641818 L48.9464022,0.251641818 L48.9464022,6.07875059 L48.9246214,6.07875059 L46.6565067,0.251641818 L45.13475,0.251641818 L45.13475,8.07242623 Z M52.8785753,5.15959787 L53.8093445,1.30293181 L53.8311254,1.30293181 L54.7284972,5.15959787 L52.8785753,5.15959787 Z M50.8413379,8.07242623 L52.1438339,8.07242623 L52.6476981,6.15570966 L54.9375936,6.15570966 L55.4196768,8.07242623 L56.7221728,8.07242623 L54.6631546,0.251641818 L53.0644387,0.251641818 L50.8413379,8.07242623 Z M57.4336813,8.07242623 L58.6171085,8.07242623 L58.6171085,1.56575431 L58.6388894,1.56575431 L60.2158244,8.07242623 L61.2671144,8.07242623 L62.8455014,1.56575431 L62.8672823,1.56575431 L62.8672823,8.07242623 L64.0492575,8.07242623 L64.0492575,0.251641818 L62.1441574,0.251641818 L60.7864832,6.04680531 L60.7647023,6.04680531 L59.3837952,0.251641818 L57.4336813,0.251641818 L57.4336813,8.07242623 Z M66.7994554,5.15959787 L67.7302246,1.30293181 L67.7520054,1.30293181 L68.6493773,5.15959787 L66.7994554,5.15959787 Z M64.762218,8.07242623 L66.064714,8.07242623 L66.5685782,6.15570966 L68.8584736,6.15570966 L69.3405569,8.07242623 L70.6430529,8.07242623 L68.5840347,0.251641818 L66.9853188,0.251641818 L64.762218,8.07242623 Z M72.0341245,8.07242623 L73.2828944,8.07242623 L73.2828944,1.30293181 L75.1124875,1.30293181 L75.1124875,0.251641818 L70.1725861,0.251641818 L70.1725861,1.30293181 L72.0341245,1.30293181 L72.0341245,8.07242623 Z M76.6792581,5.15959787 L77.6100272,1.30293181 L77.6318081,1.30293181 L78.52918,5.15959787 L76.6792581,5.15959787 Z M74.6420207,8.07242623 L75.9445167,8.07242623 L76.4483808,6.15570966 L78.7382763,6.15570966 L79.2189075,8.07242623 L80.5228556,8.07242623 L78.4638373,0.251641818 L76.8651215,0.251641818 L74.6420207,8.07242623 Z" id="Fill-16"></path>
                            </g>
                        </g>
                    </g>
                </g>
            </g>
        </g>
    </g>
</svg>