<?xml version="1.0" encoding="UTF-8"?>
<svg width="60px" height="60px" viewBox="0 0 60 60" version="1.1" xmlns="http://www.w3.org/2000/svg" xmlns:xlink="http://www.w3.org/1999/xlink">
    <!-- Generator: Sketch 48.2 (47327) - http://www.bohemiancoding.com/sketch -->
    <title>footer-logo-isop</title>
    <desc>Created with Sketch.</desc>
    <defs></defs>
    <g id="Escuelas-libres-de-mercurio-v2" stroke="none" stroke-width="1" fill="none" fill-rule="evenodd" transform="translate(-369.000000, -5166.000000)">
        <g id="7---footer" transform="translate(-1.000000, 5063.000000)" fill="#FFFFFF">
            <g transform="translate(725.500000, 209.746094) rotate(-90.000000) translate(-725.500000, -209.746094) translate(516.000000, -515.253906)" id="logos">
                <g transform="translate(255.296875, 368.933188)">
                    <g id="footer-logo-isop">
                        <path d="M49.9740073,23.8435771 C47.6427516,16.5453734 39.896378,9.60519851 29.5564614,10.3285227 C20.1585825,10.985943 13.8906745,17.8539617 12.0608911,23.8435771 L49.9740073,23.8435771 Z M11.8189542,36.1292002 C14.0150709,43.9054357 21.9577557,51.0793155 32.4725467,50.3429555 C41.9328531,49.6804414 48.4199817,42.6783943 50.1908862,36.1292002 L11.8189542,36.1292002 Z M2.50694341,35.4658171 L50.403951,35.4658171 C51.3709984,31.7903175 51.2930485,28.146249 50.1861064,24.5151922 L2.64488268,24.5151922 C1.90004928,28.1590193 1.87545003,31.7944456 2.50694341,35.4658171 Z M2.65526313,36.1261827 C5.36031149,49.8852501 18.497759,60.9209465 34.4323995,59.0781272 C49.350263,57.3529207 60.8670811,44.2020993 59.9001061,28.5139824 C58.9526367,13.1425657 46.0082655,1.00948694 30.3080059,1.40160235 C15.4650506,1.77230507 5.08245343,12.8453952 2.8271199,23.8380731 L11.3322319,23.8380731 C13.0687361,18.8565682 16.1631961,14.9895372 20.7332973,12.3697775 C25.3049434,9.74912464 30.2148715,9.00822615 35.3604116,10.0963144 C44.9016614,12.1139115 51.8986632,20.6813062 51.7147361,30.7450064 C51.5397169,40.3226118 44.6861343,48.8027866 34.9147524,50.6667772 C30.1355456,51.5784944 25.5489081,50.9096797 21.259586,48.5947431 C16.1734076,45.8497662 12.8347656,41.6418703 11.1066382,36.1261827 L2.65526313,36.1261827 Z M60.5830431,29.7806627 L60.5830431,30.8911293 C60.5694519,31.0864507 60.5558849,31.281748 60.5423179,31.4770453 C60.5417868,31.6366628 60.5412075,31.796232 60.5406764,31.9558253 C60.5109593,33.0345712 60.3763273,34.1022849 60.2037705,35.1660636 C59.8251013,37.499854 59.1720263,39.7546806 58.2406103,41.9270671 C56.3629803,46.3062645 53.5914971,50.0230928 49.9363721,53.0782037 C47.5940601,55.0360287 45.0052727,56.5874713 42.1785559,57.742429 C39.2383059,58.9437607 36.1808292,59.6351951 33.0155166,59.8618993 C32.8721698,59.8632512 32.7288231,59.8645789 32.5854763,59.8659308 C32.390517,59.8799806 32.1955577,59.8940546 32.0005984,59.9081044 L29.7796652,59.9081044 C29.5385008,59.8917371 29.2973606,59.8753698 29.0562203,59.8589783 C28.5677599,59.8145114 28.0784545,59.7777211 27.5909838,59.7242015 C25.9091821,59.5395743 24.2563009,59.2062895 22.6362991,58.7192775 C16.548697,56.8891319 11.5317779,53.474254 7.632471,48.4592661 C3.89507495,43.6525149 1.86171404,38.1835393 1.46974347,32.1060039 C1.44328539,31.8780927 1.41680318,31.6501332 1.39034511,31.422222 L1.39034511,29.24957 C1.41588584,29.0212001 1.44145071,28.7928061 1.46701558,28.5644121 C1.51631064,27.6160736 1.62081521,26.6738668 1.77065578,25.7360778 C2.07835159,23.8104804 2.56292542,21.9305811 3.24026176,20.1025359 C4.69111052,16.1870065 6.86583865,12.7227852 9.77996856,9.73205725 C13.6361121,5.77454741 18.2419172,3.09129799 23.5874861,1.68682328 C25.6794845,1.1371906 27.8110734,0.846682877 29.9713172,0.760597575 C30.3377712,0.760452732 30.7042252,0.760187185 31.070655,0.760187185 C31.3972288,0.760163045 31.7238025,0.760428591 32.0503521,0.760549294 C32.5236764,0.791207829 32.9971939,0.818897072 33.4702768,0.85305599 C34.6662493,0.939430979 35.8502481,1.11524681 37.0235044,1.35827001 C39.753852,1.92381134 42.3617346,2.84185339 44.8174832,4.1629224 C50.9316882,7.45202791 55.4044304,12.2725151 58.1887805,18.6354163 C59.5934725,21.8454856 60.3817348,25.2099339 60.5406039,28.7159425 C60.5411109,28.8755841 60.541642,29.0352499 60.5421489,29.1948915 C60.5557884,29.3901405 60.5694036,29.5854137 60.5830431,29.7806627 Z" id="Fill-1" transform="translate(30.986694, 30.334145) rotate(-270.000000) translate(-30.986694, -30.334145) "></path>
                        <path d="M61.1434655,29.8582904 C61.1399651,29.9086393 61.1404721,29.9585079 61.1449622,30.0079763 C60.8183885,30.0075761 60.4918147,30.0066956 60.1652651,30.0067756 C59.7988111,30.0067756 59.4323572,30.0076561 59.0659032,30.0081364 C59.0704416,29.958588 59.0709486,29.9086393 59.0673758,29.8582904 L61.1434655,29.8582904 Z" id="Fill-4" transform="translate(60.105433, 30.358290) rotate(-270.000000) translate(-60.105433, -30.358290) "></path>
                        <path d="M0.461836658,28.563194 C0.46528876,28.5277288 0.470141017,28.4928154 0.471492889,28.4564833 C0.472120544,28.4400905 0.465795713,28.4207817 0.462609156,28.4028915 C0.703749393,28.4563257 0.94491377,28.5097598 1.18605401,28.563194 L0.461836658,28.563194 Z" id="Fill-6" transform="translate(0.961837, 28.902892) rotate(-270.000000) translate(-0.961837, -28.902892) "></path>
                        <path d="M0.454908312,31.497888 C0.649867622,31.447968 0.844826932,31.3979621 1.03981038,31.3480421 C1.0336304,31.3959893 1.03177157,31.4459952 1.03428219,31.497888 L0.454908312,31.497888 Z" id="Fill-8" transform="translate(0.954908, 31.848042) rotate(-270.000000) translate(-0.954908, -31.848042) "></path>
                        <path d="M0.460022861,32.077178 C0.45751224,32.029497 0.459371065,31.98355 0.465551053,31.9394944 C0.608873666,31.9350809 0.75222042,31.9307463 0.895567174,31.9263329 C0.889338905,31.9762205 0.889025077,32.0264234 0.89455327,32.077178 L0.460022861,32.077178 Z" id="Fill-10" transform="translate(0.958940, 32.426333) rotate(-270.000000) translate(-0.958940, -32.426333) "></path>
                        <path d="M10.5757716,17.8623812 C10.8700211,17.4515085 11.1642465,17.0406841 11.4755875,16.6059606 C11.5592829,16.6538314 11.6374501,16.6984915 11.7470483,16.7611604 C11.300689,17.3938125 10.8674864,18.007804 10.4274519,18.6315 C10.3643726,18.6050902 10.3115288,18.5900989 10.2661928,18.5626993 C10.0972812,18.4605847 10.0908598,18.4481523 10.1258637,18.2509962 C10.19324,17.8714097 10.2642133,17.4924751 10.3329898,17.11313 C10.3399182,17.0748672 10.3420908,17.0357595 10.3506366,16.9603443 C10.2393727,17.0354939 10.1540116,17.0922001 10.0696402,17.1503789 C9.82478236,17.3191699 9.58050385,17.4888057 9.3356701,17.6576208 C9.07526568,17.8371301 9.07507256,17.8368646 8.81749259,17.5967865 C9.19022312,16.950326 9.56565739,16.2991821 9.9548518,15.6241874 C10.0565078,15.686784 10.1346267,15.734872 10.2319132,15.7947889 C9.97235371,16.2541841 9.72083303,16.6993364 9.46936063,17.1445369 C9.46378415,17.163777 9.45818354,17.1829204 9.45255878,17.2021122 C9.47196781,17.1975255 9.49140097,17.1929629 9.51081,17.1883521 C9.79108211,17.001166 10.0696885,16.8114211 10.3530265,16.6289907 C10.408574,16.5932385 10.4859928,16.5613247 10.546996,16.5704015 C10.674579,16.5894002 10.7193839,16.6729507 10.6941811,16.8232741 C10.6464552,17.1081329 10.5905456,17.3915675 10.5395366,17.675871 C10.5311357,17.7225831 10.530339,17.7706711 10.5261144,17.8181556 C10.5226623,17.8467863 10.5191378,17.8753446 10.5156133,17.9039271 C10.53565,17.8900704 10.5557108,17.8762137 10.5757716,17.8623812" id="Fill-12" transform="translate(10.282270, 17.127844) rotate(-270.000000) translate(-10.282270, -17.127844) "></path>
                        <path d="M49.1155024,12.9792395 C49.1949249,12.9050072 49.2575214,12.8464904 49.3441861,12.7654988 C49.8678193,13.327419 50.3475892,13.9067205 50.8445713,14.4655749 C50.7146467,14.6958036 50.6696004,14.7158402 50.4450689,14.6410286 C49.9950885,14.4911156 49.5457116,14.3393921 49.0957795,14.1894066 C49.0440221,14.1721703 48.9902369,14.1610898 48.8939401,14.1356697 C48.9763078,14.3246663 49.1057737,14.4282777 49.2068986,14.550598 C49.319611,14.686944 49.4394931,14.8173514 49.5556575,14.9508971 C49.6658351,15.0775385 49.7752161,15.2049042 49.8972467,15.3462232 C49.8178483,15.4189104 49.7497236,15.4812414 49.6602104,15.5631745 C49.1505062,14.981459 48.6546104,14.4155556 48.1620944,13.8534905 C48.3247777,13.6157541 48.3362204,13.6109018 48.5800402,13.6925935 C49.0070146,13.8356265 49.4334096,13.9804458 49.8605047,14.123189 C49.9342301,14.1478124 50.0101522,14.1658937 50.1013553,14.1655075 C49.8050056,13.7541762 49.4561018,13.3933469 49.1155024,12.9792395" id="Fill-14" transform="translate(49.503333, 14.164337) rotate(-270.000000) translate(-49.503333, -14.164337) "></path>
                        <path d="M56.0366232,31.5660196 C56.0565875,31.0515115 56.0765518,30.5370274 56.0969747,30.0105697 L56.4163545,30.0105697 C56.3942418,30.776333 56.3725877,31.5264773 56.3511267,32.2694036 C56.0931605,32.341584 56.0556943,32.3279445 55.9466754,32.1286882 C55.7270203,31.7271821 55.5089585,31.3248069 55.2888688,30.9235422 C55.2481195,30.8491893 55.2010213,30.7783125 55.1568681,30.7058184 C55.1401387,30.7087635 55.1234334,30.7116845 55.1067282,30.7146297 C55.0906023,31.2213646 55.0745005,31.7280512 55.0577711,32.253664 L54.734915,32.253664 C54.7566656,31.49705 54.7782473,30.747147 54.79966,30.0032068 C55.0692137,29.9189321 55.0901919,29.9264157 55.2109913,30.1487021 C55.433326,30.5578608 55.6544537,30.9676712 55.8771506,31.3766609 C55.9138443,31.4440614 55.9558489,31.5085892 55.9954394,31.5744447 C56.0091513,31.5716202 56.0229114,31.5688199 56.0366232,31.5660196" id="Fill-16" transform="translate(55.575635, 31.131477) rotate(-270.000000) translate(-55.575635, -31.131477) "></path>
                        <path d="M9.62197495,43.5400552 C9.81082669,43.8475579 9.99909906,44.1554469 10.1887957,44.4624426 C10.2604932,44.5784622 10.3354739,44.6924299 10.4251561,44.8327591 C10.3396502,44.8925794 10.2607346,44.9477889 10.1576544,45.019921 C9.73743933,44.36308 9.33265012,43.7303796 8.93092675,43.102459 C9.13561472,42.9032026 9.15277867,42.8980366 9.36355006,43.0053414 C9.75047525,43.2022803 10.1355899,43.4027678 10.5224427,43.5998997 C10.6008271,43.6398283 10.6835569,43.6712834 10.7642588,43.7065528 C10.7832816,43.7102222 10.8023044,43.7139398 10.8213272,43.7176575 C10.8146402,43.7001314 10.8080016,43.6825812 10.8013388,43.6650552 C10.6510154,43.4198352 10.5012231,43.1742772 10.3501755,42.9295159 C10.2413498,42.7531448 10.1308583,42.5778601 10.008707,42.3821765 C10.0981479,42.3244081 10.1753494,42.2745337 10.2761846,42.2094507 C10.6901714,42.8569734 11.0942123,43.4889979 11.4959598,44.117353 C11.3184058,44.3287521 11.2911994,44.3340871 11.0697578,44.2212058 C10.5986062,43.9811036 10.1269958,43.7418705 9.65555449,43.5023718 C9.63513156,43.5034098 9.61473277,43.5043755 9.59433398,43.5053652 C9.60353155,43.5169286 9.61275325,43.5284919 9.62197495,43.5400552" id="Fill-18" transform="translate(10.213443, 43.614686) rotate(-270.000000) translate(-10.213443, -43.614686) "></path>
                        <path d="M48.8472305,12.2526056 C48.6957001,12.4965945 48.6779327,12.5072163 48.4526286,12.4609871 C47.9802458,12.3640868 47.5084906,12.2642173 47.0362285,12.1668583 C46.9768427,12.154619 46.9158636,12.1502254 46.838493,12.174535 C47.2167276,12.5191176 47.594938,12.8637002 47.9905538,13.2241191 C47.9253984,13.3035899 47.8674369,13.3742976 47.7873867,13.4719945 C47.2091474,12.9513547 46.6458995,12.4441853 46.0863692,11.9403714 C46.2432588,11.694572 46.2437657,11.692158 46.4840852,11.7415979 C46.9249887,11.8322699 47.3651197,11.9265147 47.805806,12.0182972 C47.8905394,12.0359681 47.976166,12.0492213 48.0613823,12.0645023 C48.070435,12.0485936 48.0794877,12.0327091 48.0885404,12.0167763 C47.7124544,11.674825 47.3363683,11.3328496 46.9402697,10.9726963 C47.0080564,10.8911253 47.066718,10.8205865 47.1478787,10.7229138 C47.7234625,11.241043 48.2870967,11.7484055 48.8472305,12.2526056" id="Fill-20" transform="translate(47.466800, 12.097454) rotate(-270.000000) translate(-47.466800, -12.097454) "></path>
                        <path d="M33.031183,54.4169597 C33.0131259,54.3249841 32.9967103,54.241337 32.9740181,54.1256795 C33.736788,53.9915062 34.490481,53.9137977 35.2348074,53.8113209 C35.337936,54.069263 35.334339,54.0911826 35.1471771,54.2373297 C34.7607106,54.5390869 34.372506,54.8386474 33.9856532,55.1399218 C33.9439383,55.172415 33.9063031,55.2100984 33.8821143,55.2844756 C34.3878594,55.2191753 34.8936287,55.1538992 35.4266043,55.0851227 C35.443889,55.1913653 35.4594114,55.2864551 35.4785549,55.4040197 C34.7061046,55.5079932 33.962092,55.6081766 33.2234386,55.7076357 C33.1341667,55.4265429 33.1336357,55.4194455 33.3216666,55.2718259 C33.6757606,54.9937988 34.0324618,54.7191032 34.3872559,54.4419694 C34.4486212,54.3940262 34.505931,54.3408686 34.5583884,54.2664432 C34.0485153,54.2645603 33.5537541,54.3898499 33.031183,54.4169597" id="Fill-22" transform="translate(34.226287, 54.759478) rotate(-270.000000) translate(-34.226287, -54.759478) "></path>
                        <path d="M49.4534198,45.4132338 C49.7038541,45.5605396 49.7078132,45.5613121 49.6604252,45.8002072 C49.5744848,46.233603 49.4828713,46.6658884 49.3946133,47.0988496 C49.3756388,47.191984 49.3609855,47.2860115 49.3638341,47.392737 C49.7443862,47.0447023 50.0612071,46.6394303 50.4365448,46.2601094 C50.5208437,46.3337623 50.5898858,46.3941137 50.6764297,46.4696979 C50.1607628,47.0461025 49.6589285,47.607033 49.1611739,48.1634009 C48.9152297,48.0324865 48.9010592,48.005956 48.9466849,47.7808934 C49.0440197,47.3006166 49.1422718,46.8205329 49.2390273,46.3401354 C49.2495526,46.2879918 49.252715,46.2343514 49.225412,46.1604329 C48.8832434,46.539778 48.5410507,46.919123 48.1814286,47.3178288 C48.1016922,47.2539287 48.0306706,47.1970052 47.9302458,47.1164964 C48.4434745,46.5426024 48.9437639,45.9831445 49.4534198,45.4132338" id="Fill-24" transform="translate(49.303338, 46.788317) rotate(-270.000000) translate(-49.303338, -46.788317) "></path>
                        <path d="M14.61185,12.313594 C14.4654616,12.1795897 14.3555978,12.0626286 14.2293908,11.9672974 C14.0256444,11.8133771 13.7955122,11.7928335 13.5745535,11.920006 C13.4308929,12.0026875 13.2931227,12.1070714 13.1783342,12.2264224 C12.7624162,12.6588526 12.8405834,13.1716226 13.3760697,13.4981963 C13.7754031,13.1154233 14.178237,12.7292706 14.61185,12.313594 M13.3887193,13.964375 C13.1043916,13.7350395 12.851688,13.5112081 12.6880391,13.2094267 C12.5084573,12.8783628 12.5266834,12.5441607 12.7216427,12.2231875 C12.8662207,11.9851373 13.0656943,11.7990134 13.301596,11.6536147 C13.6515861,11.4379187 14.0029281,11.4462472 14.3464485,11.6677611 C14.6208786,11.8447116 14.8269426,12.0902937 15.0369897,12.3721349 C14.5065971,12.914453 13.9478393,13.4173013 13.3887193,13.964375" id="Fill-26" transform="translate(13.800353, 12.730500) rotate(-270.000000) translate(-13.800353, -12.730500) "></path>
                        <path d="M27.1992136,54.4422467 C27.1859362,54.588249 27.1664548,54.6988852 27.1679515,54.8092318 C27.1706552,55.0061465 27.2761737,55.117845 27.4710847,55.1495657 C27.6286744,55.175203 27.7603613,55.1000534 27.8297655,54.9330488 C27.8785777,54.8156049 27.9096949,54.6925604 27.8752704,54.5516036 C27.657788,54.5164307 27.4474994,54.4824167 27.1992136,54.4422467 M26.124475,54.2636547 C26.1108839,54.4524341 26.0830739,54.6092754 26.0925129,54.7638475 C26.1049936,54.9673767 26.2328179,55.0820686 26.4299016,55.1062333 C26.6048725,55.1277185 26.7550269,55.0442645 26.822186,54.8592752 C26.872664,54.7202738 26.8932076,54.5703849 26.9335948,54.3974177 C26.6626168,54.3526128 26.4214041,54.3127325 26.124475,54.2636547 M25.9352853,53.888317 C26.6907164,54.012472 27.4237692,54.1329335 28.1851631,54.2580783 C28.1970161,54.612124 28.1721754,54.9515164 27.9809338,55.2519217 C27.7829086,55.5630696 27.3636833,55.5879103 27.10999,55.3171013 C27.0664645,55.2706548 27.0323539,55.215397 26.9870662,55.155118 C26.9531245,55.1914496 26.9200278,55.224329 26.8897313,55.2596226 C26.71744,55.4604722 26.4970848,55.4964658 26.2551721,55.4355591 C26.0145871,55.3750145 25.8518555,55.2130795 25.8190967,54.973436 C25.7903211,54.7628819 25.809537,54.5433233 25.828415,54.3295827 C25.8402438,54.1959163 25.8906976,54.0656537 25.9352853,53.888317" id="Fill-28" transform="translate(26.996029, 54.696184) rotate(-270.000000) translate(-26.996029, -54.696184) "></path>
                        <path d="M46.241645,49.3553803 C46.3411042,49.4666684 46.416109,49.570835 46.5109332,49.6517542 C46.6375023,49.759735 46.7962507,49.7490407 46.9294584,49.6461053 C47.0568482,49.5477083 47.097163,49.4180734 47.0365943,49.2633323 C46.9842575,49.1296176 46.9137187,49.0064524 46.7668716,48.9369517 C46.594701,49.0741184 46.4274792,49.2073261 46.241645,49.3553803 M45.3806713,50.0296991 C45.5055505,50.1676866 45.592698,50.2838269 45.6995442,50.3774682 C45.8624931,50.5202598 46.0196966,50.5177009 46.1800866,50.3927492 C46.3307238,50.2753536 46.3852573,50.0945889 46.2937163,49.9204388 C46.2212221,49.7824754 46.1165969,49.6614104 46.0198656,49.5237608 C45.8002829,49.6975489 45.6072789,49.8503346 45.3806713,50.0296991 M44.9791894,49.9070649 C45.5848282,49.4343924 46.172265,48.9759387 46.7819595,48.5001279 C47.0170646,48.7322637 47.2377095,48.9634822 47.3475974,49.2717815 C47.4792359,49.6412047 47.2230561,50.0008752 46.8329202,50.0144905 C46.7698168,50.0166873 46.7065926,50.0147802 46.6294152,50.0147802 C46.6294152,50.0613474 46.6257699,50.0985963 46.6300187,50.1349037 C46.663381,50.4207523 46.5207826,50.6098696 46.2903125,50.7472536 C46.0633427,50.8825374 45.8419736,50.8457955 45.6345819,50.7031729 C45.3501335,50.507586 45.1617404,50.2310074 44.9791894,49.9070649" id="Fill-30" transform="translate(46.180828, 49.665867) rotate(-270.000000) translate(-46.180828, -49.665867) "></path>
                        <path d="M52.0626979,16.7231899 C51.9979528,16.3463796 51.7830051,15.9682657 51.3668216,15.749552 C50.9889491,15.5509958 50.5423967,15.8737795 50.5988373,16.2979294 C50.657161,16.7362258 50.8993393,17.0780322 51.282064,17.2928834 C51.6361097,17.4916327 52.0608391,17.216237 52.0626979,16.7231899 M52.4065804,16.7770716 C52.4587723,17.2413191 51.8523127,17.8132577 51.245998,17.6537609 C50.6801187,17.5048859 50.1515366,16.639929 50.2576586,16.1253726 C50.3703951,15.5787816 51.0060889,15.2201492 51.5239043,15.4306067 C51.9460023,15.6021497 52.4465089,16.3152382 52.4065804,16.7770716" id="Fill-32" transform="translate(51.326852, 16.525309) rotate(-270.000000) translate(-51.326852, -16.525309) "></path>
                        <path d="M29.8020051,55.5835776 C29.9760345,55.5549227 30.1216505,55.5458458 30.2579965,55.5053621 C30.5205011,55.427388 30.6486152,55.2539863 30.659575,54.9977823 C30.6710176,54.7302323 30.5529943,54.5461362 30.2852029,54.445808 C29.9601742,54.3240188 29.6263582,54.3075549 29.2930734,54.4113352 C29.0420114,54.4895748 28.9161666,54.6555655 28.9033238,54.9024029 C28.8895637,55.1671285 28.9937785,55.3586357 29.2451785,55.4507803 C29.4303367,55.5186636 29.6309691,55.5443009 29.8020051,55.5835776 M30.9627807,54.9672445 C30.9563593,55.4781074 30.6678069,55.8132993 30.166552,55.8985156 C29.8762132,55.9478589 29.5901715,55.9325296 29.3072681,55.8552798 C28.8402444,55.7277451 28.582761,55.386687 28.5992491,54.9214498 C28.6160992,54.445977 28.882925,54.1167719 29.3529421,54.0234444 C29.6962452,53.9552714 30.0400795,53.9662554 30.3731953,54.0954075 C30.7663246,54.2478794 30.9681157,54.5441084 30.9627807,54.9672445" id="Fill-34" transform="translate(29.780693, 54.954510) rotate(-270.000000) translate(-29.780693, -54.954510) "></path>
                        <path d="M53.7430446,38.1604958 C53.7321089,38.362987 53.7727133,38.5456104 53.9388246,38.6802183 C54.175354,38.8719186 54.4890367,38.8547064 54.6975872,38.6239949 C54.9455109,38.3497096 55.0450184,38.0125141 55.0536365,37.650333 C55.0603476,37.3683469 54.9200184,37.1782639 54.6747019,37.0991553 C54.417315,37.0161358 54.184286,37.0922752 54.0221338,37.327332 C53.8498425,37.577018 53.7586635,37.857266 53.7430446,38.1604958 M55.4071753,37.7097188 C55.3919426,38.0873498 55.2898762,38.4379917 55.0605649,38.7429355 C54.8016089,39.0872767 54.4583299,39.1894155 54.0332384,39.0597565 C53.6439233,38.941009 53.388516,38.6375136 53.382167,38.2278963 C53.3752146,37.7815611 53.4997558,37.3672364 53.8131488,37.0335895 C54.2087404,36.6124812 54.9088172,36.6694047 55.2453369,37.1405564 C55.3674158,37.3114475 55.4161073,37.501289 55.4071753,37.7097188" id="Fill-36" transform="translate(54.395049, 37.931793) rotate(-270.000000) translate(-54.395049, -37.931793) "></path>
                        <path d="M7.09674605,27.7205928 C7.07395734,27.5667932 7.06529087,27.4541774 7.0396053,27.3455931 C6.97804682,27.0855025 6.82135033,26.9413108 6.58477266,26.9141285 C6.30235204,26.8817078 6.11449006,26.9741662 5.99528388,27.2284147 C5.851744,27.5345897 5.8089669,27.8582183 5.879047,28.1917687 C5.93910876,28.4776897 6.09945048,28.6318755 6.35608897,28.6593717 C6.64534137,28.690344 6.85321589,28.5761349 6.95791358,28.2891517 C7.02852477,28.0956167 7.05751761,27.8869214 7.09674605,27.7205928 Z M7.46353799,27.7145577 C7.41981941,27.9172179 7.39367516,28.1256476 7.32888185,28.3213311 C7.1755409,28.7843474 6.80256896,29.0244738 6.35406116,28.9716542 C5.86118297,28.9136202 5.54955224,28.6045001 5.50013648,28.1091837 C5.47116779,27.8189657 5.4966361,27.5312824 5.59329497,27.2529657 C5.75979254,26.7734855 6.1254016,26.5531303 6.64695879,26.6184547 C7.07994421,26.6726986 7.38174972,26.9990068 7.4279065,27.467672 C7.43575219,27.5472152 7.42901697,27.6281827 7.42901697,27.7084743 L7.46353799,27.7145577 Z" id="Fill-38" transform="translate(6.476205, 27.793030) rotate(-270.000000) translate(-6.476205, -27.793030) "></path>
                        <path d="M56.0989033,28.2844275 C56.1060006,28.2817479 56.1130738,28.2790442 56.1201712,28.2763646 C56.0671826,28.0597029 56.033941,27.8356542 55.9561359,27.6283349 C55.8601047,27.3725413 55.6641798,27.2685437 55.4074689,27.2878562 C55.1433227,27.307748 54.9713452,27.4543296 54.9028584,27.7279148 C54.8178594,28.0675727 54.8552531,28.398709 54.9996138,28.7149989 C55.1161645,28.9703579 55.3145276,29.0752004 55.5828019,29.0411381 C55.8289151,29.009876 55.9988647,28.8519242 56.0545088,28.5934752 C56.076356,28.4919641 56.0845155,28.3875319 56.0989033,28.2844275 M54.5108636,28.0754184 C54.5108636,28.0111562 54.5054803,27.9463629 54.5117086,27.88268 C54.5718427,27.266878 54.9900058,26.8873881 55.690831,27.0013799 C56.0008201,27.0518096 56.1997626,27.2655985 56.315396,27.5497332 C56.4583565,27.9010993 56.4917429,28.2664186 56.4092304,28.6373869 C56.3135372,29.0677651 56.0218224,29.3049946 55.5505983,29.3479648 C55.1548136,29.3840309 54.8078652,29.1775806 54.6455922,28.8031603 C54.5453122,28.5717487 54.4962586,28.3287979 54.5108636,28.0754184" id="Fill-40" transform="translate(55.480955, 28.166617) rotate(-270.000000) translate(-55.480955, -28.166617) "></path>
                        <path d="M22.0399422,53.9066054 C22.3934326,53.9132441 22.567269,53.8015939 22.6655935,53.5463314 C22.756,53.3115884 22.7027217,53.0951681 22.4940747,52.9196179 C22.2277317,52.6954726 21.9151354,52.5728867 21.5679456,52.5584024 C21.2938534,52.5469839 21.1114231,52.6723459 21.0186026,52.9062681 C20.9247199,53.1429665 20.973339,53.357021 21.180272,53.5359268 C21.4437906,53.7637173 21.7562904,53.8805094 22.0399422,53.9066054 M21.9453594,54.2555092 C21.6570967,54.2388763 21.2944087,54.097147 20.9859162,53.8358977 C20.6676468,53.5664405 20.5882002,53.2045974 20.7362785,52.8107197 C20.8859984,52.4125692 21.1753473,52.2048636 21.5992318,52.2079778 C22.0165982,52.2110195 22.3863595,52.3572148 22.7004525,52.6286756 C23.0246363,52.908827 23.1026346,53.2750637 22.9414238,53.6762077 C22.7826512,54.07122 22.4922159,54.2635963 21.9453594,54.2555092" id="Fill-42" transform="translate(21.843513, 53.231849) rotate(-270.000000) translate(-21.843513, -53.231849) "></path>
                        <path d="M8.39233189,21.2818431 C8.50825495,21.3238959 8.59607837,21.3557856 8.71214627,21.3978868 C8.45601473,22.1241078 8.20620803,22.8323441 7.95340789,23.5490055 C7.64402224,23.5083527 7.37133027,23.4254298 7.1271966,23.2627465 C6.91002796,23.1180479 6.79625341,22.9179225 6.82244594,22.6498413 C6.84825222,22.3859607 6.98889523,22.202275 7.22257603,22.0895385 C7.30825094,22.0482099 7.40285787,22.0254694 7.52155709,21.984527 C7.43201968,21.6381097 7.34260298,21.2922235 7.25306558,20.9458545 C7.46972727,20.9067467 7.57529402,20.9546658 7.62528915,21.12814 C7.72090998,21.4598798 7.80892653,21.7937923 7.89815011,22.1272944 C7.90783048,22.163457 7.90459564,22.2030234 7.90845814,22.2565189 C7.83311539,22.2600917 7.76952911,22.256712 7.70845345,22.2675511 C7.61430519,22.2843047 7.5152564,22.2966647 7.43011258,22.3363035 C7.27177453,22.4099564 7.19476608,22.5484268 7.1830579,22.7218285 C7.17195323,22.8863949 7.25835236,22.9992038 7.39148765,23.0745465 C7.47996287,23.1246141 7.58007385,23.1541139 7.70533931,23.2052195 C7.93496449,22.5623317 8.15766133,21.938853 8.39233189,21.2818431" id="Fill-44" transform="translate(7.765443, 22.241043) rotate(-270.000000) translate(-7.765443, -22.241043) "></path>
                        <path d="M5.54043113,29.3350272 C5.7836716,29.2609156 5.92878062,29.3003854 6.04875929,29.4926651 C6.23087581,29.7845006 6.44130923,30.0586893 6.65705358,30.3649608 C6.56804727,30.4026684 6.49603593,30.4286919 6.4280802,30.4627784 C6.23901119,30.5576026 6.09197093,30.6824818 6.09708873,30.921039 C6.10186856,31.1448705 6.21124952,31.287324 6.43327042,31.3213622 C6.53364695,31.3367881 6.63834463,31.3239936 6.75839573,31.3239936 L6.75839573,29.3076759 L7.0535143,29.3076759 C7.11079989,29.4724595 7.14720388,31.1410321 7.1028335,31.5583261 C6.82753435,31.6771944 6.27399089,31.6498672 6.03260924,31.5054341 C5.66951081,31.2882172 5.61550833,30.7781751 5.92552164,30.4647097 C5.99784681,30.3915637 6.08161462,30.3297156 6.17709061,30.2481928 C6.06906152,30.0910377 5.96622265,29.9398452 5.86166981,29.7897632 C5.76160711,29.6461751 5.65975801,29.503794 5.54043113,29.3350272" id="Fill-46" transform="translate(6.331513, 30.466457) rotate(-270.000000) translate(-6.331513, -30.466457) "></path>
                        <path d="M6.73645752,23.966017 C6.67069859,24.2397712 6.60718472,24.5041588 6.53741845,24.7945458 C6.43436232,24.7782509 6.33649642,24.7627285 6.20514753,24.7419435 C6.29193291,24.3626467 6.37343151,24.0065974 6.45290229,23.6593351 C6.99415819,23.5206958 7.63513883,23.7715164 7.85228333,24.1944352 C8.09438919,24.6659972 7.92856756,25.434754 7.51680171,25.7889928 C7.19923241,26.0621676 6.62000337,26.1340824 6.08893479,25.7535786 C6.12669065,25.6840296 6.16608808,25.6115113 6.21057916,25.5295782 C6.32758855,25.5759763 6.42171266,25.6178603 6.51880607,25.6510777 C6.95630577,25.8007734 7.30436463,25.652164 7.48162889,25.2273381 C7.5396387,25.0882884 7.57862574,24.9363476 7.59699672,24.7867001 C7.66060714,24.2685226 7.3005987,23.9179773 6.73645752,23.966017" id="Fill-48" transform="translate(7.026822, 24.818799) rotate(-270.000000) translate(-7.026822, -24.818799) "></path>
                        <path d="M11.5871457,15.7359098 C11.8721011,15.5495928 12.1570806,15.3632517 12.467963,15.1600122 C12.2820323,15.0069368 12.1292466,14.8811643 11.9483853,14.7322894 C11.81146,15.0710059 11.6556326,15.3749599 11.5569942,15.7038994 C11.5490519,15.7141833 11.5411338,15.7244672 11.5331915,15.7347511 C11.5511763,15.7351614 11.569161,15.7355236 11.5871457,15.7359098 M13.1923735,14.6813528 C13.2715787,14.7473531 13.3479354,14.8109635 13.4500017,14.8959625 C13.3357444,14.9728261 13.2524111,15.0318257 13.1662534,15.086311 C12.6635983,15.4041941 12.1598085,15.720315 11.6573224,16.0384637 C11.3840993,16.2114792 11.3849443,16.2128069 11.1194462,15.9372181 C11.4088676,15.2101039 11.7037206,14.4692778 12.0099921,13.6997969 C12.1191317,13.7908551 12.1969126,13.855745 12.2847119,13.9289875 C12.2164423,14.1032825 12.1529285,14.2654106 12.0829208,14.4440509 C12.2973857,14.6221842 12.5055982,14.795079 12.7228875,14.975554 C12.8824809,14.8755396 13.0302695,14.7829363 13.1923735,14.6813528" id="Fill-50" transform="translate(12.284724, 14.928985) rotate(-270.000000) translate(-12.284724, -14.928985) "></path>
                        <path d="M7.32009045,36.7173033 C7.52195396,37.0326999 7.69991831,37.3365332 7.93992394,37.6637346 L7.93992394,36.5361765 C7.72985262,36.597566 7.54046979,36.6528962 7.32009045,36.7173033 M6.5050321,36.0913381 C6.60309113,36.0555376 6.65436572,36.0338111 6.70742671,36.0180956 C6.80208192,35.9900684 6.87549342,36.0074737 6.92860269,36.1043981 C6.98965421,36.2157828 7.06499696,36.3193217 7.14550579,36.4438388 C7.39205351,36.3757141 7.63075555,36.314397 7.86547439,36.2404303 C7.90559603,36.2278048 7.94509002,36.164991 7.95580844,36.1186652 C7.9716688,36.0499128 7.96157804,35.9751736 7.96259194,35.9029933 C7.96626131,35.6389678 7.97270684,35.6325705 8.2822132,35.5978081 C8.2866792,35.6516416 8.296432,35.7053785 8.29474216,35.7587292 C8.27431923,36.40799 8.25462052,37.057275 8.22953845,37.7063669 C8.21700949,38.0301403 8.21222966,38.0299472 7.83715749,38.0763454 C7.40429279,37.4313333 6.9640652,36.7753372 6.5050321,36.0913381" id="Fill-52" transform="translate(7.399984, 36.837077) rotate(-270.000000) translate(-7.399984, -36.837077) "></path>
                        <path d="M15.5615678,11.7267192 C15.5732036,11.7425313 15.5848394,11.7583916 15.5964993,11.7742037 C15.919645,11.6509661 16.242815,11.5277284 16.5965469,11.3928309 C16.4519931,11.2050172 16.3293107,11.0455928 16.1891022,10.8634038 C15.9631705,11.1742138 15.7623692,11.4504786 15.5615678,11.7267192 M15.1148947,11.8402765 C15.5550258,11.2045585 16.0018196,10.5592567 16.4714745,9.88088229 C16.5571977,9.98468678 16.6235602,10.0650266 16.6950646,10.151643 C16.5857319,10.312709 16.4876246,10.4572386 16.3810922,10.6142248 C16.5494245,10.8347007 16.7138942,11.0501312 16.8858476,11.2753387 C17.0610357,11.2151079 17.2257228,11.1584983 17.407791,11.0959017 C17.4714256,11.1781487 17.5327185,11.2574264 17.612141,11.3600962 C17.3681522,11.4503579 17.1526734,11.5335221 16.9348288,11.6099271 C16.4953013,11.7641371 16.0541805,11.913688 15.6143392,12.0670048 C15.2880792,12.180731 15.2800404,12.1784377 15.1148947,11.8402765" id="Fill-54" transform="translate(16.363518, 11.007678) rotate(-270.000000) translate(-16.363518, -11.007678) "></path>
                        <path d="M53.1867246,21.8946018 C53.4128011,21.8033022 53.5945313,21.7299148 53.7784826,21.6556584 C53.6443334,21.399889 53.2373715,20.9043794 53.0869033,20.8138764 C53.1191792,21.1634079 53.1506585,21.5040797 53.1867246,21.8946018 M54.6397701,22.2064498 C54.5534434,22.2412847 54.460816,22.2786784 54.3525214,22.3223729 C54.2345222,22.1809091 54.122872,22.0470254 53.9979445,21.8972332 C53.7423682,21.9976097 53.4905096,22.0965136 53.2218732,22.202008 C53.2268462,22.3111958 53.2290913,22.4141312 53.2366473,22.5166804 C53.2569978,22.7926796 53.257891,22.7926313 52.935228,22.8557107 C52.8846052,22.0629582 52.834248,21.2744062 52.7831182,20.4735908 C52.8674413,20.4345072 52.9380766,20.4002035 53.0099672,20.368869 C53.0927936,20.332803 53.1613045,20.3449215 53.2226457,20.4200229 C53.6900073,20.992227 54.1596864,21.5624999 54.6276998,22.1341246 C54.6360283,22.1442637 54.6331314,22.1636003 54.6397701,22.2064498" id="Fill-56" transform="translate(53.711444, 21.602524) rotate(-270.000000) translate(-53.711444, -21.602524) "></path>
                        <path d="M8.28296701,20.8805365 C8.57489902,20.6302711 8.9573582,20.1901883 9.02152386,20.0347713 C8.84409061,19.9524761 8.66619869,19.8699636 8.46114862,19.7748497 C8.40041092,20.1517324 8.34488759,20.4962909 8.28296701,20.8805365 M8.28962981,18.7754298 C8.34032502,18.7927144 8.37851542,18.8022499 8.41373652,18.8182793 C8.58600369,18.8966879 8.5933907,18.908565 8.57052958,19.0913816 C8.55575554,19.2095256 8.53656378,19.3271627 8.51732374,19.4589944 C8.77200684,19.582063 9.01558528,19.6997725 9.27077533,19.8230826 C9.35031854,19.736949 9.42080902,19.6617752 9.4900442,19.5854669 C9.66255278,19.3952874 9.69671169,19.3944666 9.92566094,19.5860704 C9.8865532,19.6348585 9.85060788,19.687147 9.80734796,19.7324588 C9.34701128,20.2148117 8.88607108,20.6966094 8.42397213,21.1772724 C8.28571903,21.3211262 8.2460802,21.322816 8.07067476,21.2266641 C7.98446876,21.1793968 7.94137782,21.1223526 7.95656225,21.0150236 C8.05773541,20.2996417 8.15354937,19.583439 8.25213949,18.8676468 C8.25525362,18.845027 8.26949656,18.8239282 8.28962981,18.7754298" id="Fill-58" transform="translate(8.939611, 20.034213) rotate(-270.000000) translate(-8.939611, -20.034213) "></path>
                        <path d="M18.6397218,50.9542497 C18.3967227,51.3195208 18.171467,51.6581648 17.933465,52.015904 C17.8423826,51.9544904 17.7731957,51.9078508 17.6872311,51.8499375 C17.8586534,51.5850188 18.0181019,51.3385918 18.1884137,51.0753629 C18.0157361,50.9583053 17.8577602,50.8512177 17.6778646,50.7292836 C17.5384769,50.9317989 17.4043518,51.1266617 17.2567322,51.3411024 C17.1712987,51.2860619 17.101122,51.2408466 17.0121157,51.1834886 C17.146289,50.9726931 17.2699371,50.7784097 17.40988,50.558489 C17.2066405,50.4222396 17.0103776,50.2906493 16.7894913,50.142571 C16.613603,50.4046411 16.4455363,50.6550755 16.2622852,50.9281778 C16.1744135,50.8720027 16.0988535,50.8237216 16.009654,50.7666532 C16.2528462,50.3997889 16.4824473,50.0534198 16.7244324,49.688366 C17.3640853,50.1111158 17.9856087,50.5219402 18.6397218,50.9542497" id="Fill-60" transform="translate(17.324688, 50.852135) rotate(-270.000000) translate(-17.324688, -50.852135) "></path>
                        <path d="M42.7070913,51.3097438 C42.9032577,51.6983588 43.0833464,52.0551566 43.27664,52.4380986 C43.1875854,52.4870315 43.1098286,52.5297845 43.0157769,52.5814695 C42.8678193,52.2969728 42.7320286,52.0358441 42.5885128,51.7598449 C42.4000232,51.8527378 42.2292769,51.9368919 42.0362729,52.0320541 C42.1431916,52.2567787 42.241492,52.4633738 42.3519593,52.6955579 C42.2715712,52.7420043 42.2000909,52.7832847 42.102563,52.8396288 C41.9838396,52.6145179 41.8739276,52.4061606 41.7526453,52.1762457 C41.5265205,52.2904548 41.3212532,52.3941386 41.090083,52.5109066 C41.2286258,52.7963206 41.3600712,53.0671055 41.5015591,53.358603 C41.4245024,53.4038666 41.3524911,53.446185 41.284825,53.4859204 C41.1495654,53.3441669 40.7667682,52.6054169 40.6836522,52.3303109 C41.3448626,51.9968088 42.0095976,51.6615445 42.7070913,51.3097438" id="Fill-62" transform="translate(41.980146, 52.397832) rotate(-270.000000) translate(-41.980146, -52.397832) "></path>
                        <path d="M10.7014016,45.4801442 C10.6353771,45.4018804 10.5846336,45.3417704 10.5109566,45.2544539 C10.8470658,44.9832345 11.1740258,44.719378 11.523678,44.4372712 C12.0056929,45.0359576 12.476579,45.6208113 12.9617081,46.223336 C12.6296786,46.491562 12.3133163,46.7471383 11.9757827,47.0198544 C11.9102411,46.9447531 11.8553695,46.8818186 11.779544,46.7949367 C12.0179322,46.5993256 12.244926,46.413081 12.4971468,46.2061721 C12.3705777,46.0442371 12.2499473,45.8899788 12.1137703,45.715708 C11.9147071,45.8717527 11.7283177,46.0178273 11.5267438,46.1758274 C11.4625782,46.0967911 11.4091309,46.0309356 11.3432513,45.949775 C11.5331652,45.7906403 11.7097777,45.6426586 11.9124861,45.4728055 C11.7614385,45.2839296 11.6140603,45.0996163 11.4498319,44.8942524 C11.198263,45.0911912 10.9611542,45.2768081 10.7014016,45.4801442" id="Fill-64" transform="translate(11.736332, 45.728563) rotate(-270.000000) translate(-11.736332, -45.728563) "></path>
                        <path d="M49.7436716,45.3109694 C50.1946176,44.6812625 50.6281341,44.0758892 51.0799009,43.4450476 C51.4259319,43.692054 51.7564164,43.928004 52.1132142,44.1827354 C52.0526213,44.2704864 52.0021675,44.3436082 51.9429507,44.4294279 C51.6872778,44.2493151 51.4518589,44.0834693 51.2082322,43.9118539 C51.0457902,44.0483689 50.950097,44.2207085 50.8300459,44.4052632 C51.0230981,44.5477409 51.2079184,44.6841352 51.413234,44.8356656 C51.3565278,44.9204956 51.3102261,44.9897308 51.2509127,45.0784233 C51.0470938,44.937732 50.8575903,44.8069142 50.6571269,44.6685162 C50.4719446,44.8350379 50.3694195,45.053655 50.199156,45.2574015 C50.4599708,45.4481121 50.703839,45.6264144 50.9687577,45.8201184 C50.9149966,45.900941 50.8688639,45.9702728 50.8041189,46.0675352 C50.4466211,45.81249 50.1044525,45.5684046 49.7436716,45.3109694" id="Fill-66" transform="translate(50.928443, 44.756291) rotate(-270.000000) translate(-50.928443, -44.756291) "></path>
                        <path d="M6.79595049,33.1202851 C6.51823728,33.1358799 6.27579345,33.1467915 6.16962319,33.4049025 C6.0965738,33.5824806 6.11675532,33.7711151 6.24636608,33.9259528 C6.37300756,34.0772418 6.60461227,34.0980027 6.89145062,33.9848075 C6.86100935,33.7091462 6.8297473,33.4262428 6.79595049,33.1202851 M6.67618908,31.9935236 C6.80729656,31.9852434 6.89314046,31.97986 7.00660118,31.9726903 C7.09469015,32.7354843 7.18075131,33.4807281 7.26809192,34.2368351 C6.98651621,34.3237895 6.7205836,34.372988 6.44622593,34.3520581 C6.06282527,34.3228239 5.83402087,34.0974233 5.78257729,33.7101843 C5.73253388,33.3334947 5.90224214,33.036469 6.25498427,32.9120726 C6.40458343,32.8593013 6.56427336,32.835209 6.7446759,32.7920215 C6.72253899,32.5340312 6.70030552,32.2746648 6.67618908,31.9935236" id="Fill-68" transform="translate(6.521034, 33.164773) rotate(-270.000000) translate(-6.521034, -33.164773) "></path>
                        <path d="M53.6428835,19.8648213 C53.0857189,19.3192442 52.5205156,18.7657973 51.9289024,18.1864476 C52.0567751,18.1193609 52.1522993,18.0692692 52.2654221,18.0099558 C52.7135919,18.4699545 53.1540368,18.9220351 53.5944816,19.3741157 C53.6092798,19.368322 53.624078,19.36248 53.638852,19.3566621 C53.5178836,18.7361285 53.396891,18.1156191 53.2736051,17.4833291 C53.3801616,17.4278299 53.469699,17.3812144 53.5891948,17.3189559 C53.6374036,17.5802294 53.6834879,17.8142723 53.7233682,18.0493532 C53.7998455,18.5002992 53.8730639,18.9518004 53.9471272,19.4031568 C54.0026022,19.7411491 54.0022401,19.7411974 53.6428835,19.8648213" id="Fill-70" transform="translate(52.951421, 18.591889) rotate(-270.000000) translate(-52.951421, -18.591889) "></path>
                        <path d="M25.3959856,55.0538059 C25.3439868,55.0321518 25.3063999,55.0200574 25.2724583,55.0013726 C25.2379614,54.9823981 25.2070614,54.9569056 25.1602287,54.9242917 C25.1938807,54.8565774 25.2337851,54.7974088 25.2535562,54.7321327 C25.2972989,54.5876514 25.3448317,54.4419388 25.3640476,54.293257 C25.3780733,54.1847451 25.3178184,54.0911521 25.2057579,54.0477715 C25.1013981,54.0073843 24.9976178,54.0066601 24.910591,54.0829926 C24.8446389,54.1408334 24.7877637,54.2095616 24.7306713,54.2767448 C24.6473863,54.3747315 24.5717297,54.4794291 24.4854271,54.5745672 C24.3029726,54.7757547 24.0784411,54.8161178 23.8251582,54.7348365 C23.5622914,54.6505134 23.3990528,54.4736837 23.3661975,54.2005572 C23.3221168,53.8339584 23.4300252,53.5044153 23.6589744,53.179459 C23.7462185,53.2281505 23.8248685,53.2720623 23.9028667,53.3156119 C23.8315796,53.4872997 23.7590854,53.6379851 23.707497,53.7955024 C23.678311,53.8845812 23.6694515,53.9859957 23.6764764,54.079975 C23.6868568,54.2184936 23.7677277,54.3200289 23.9012493,54.3667168 C24.0306428,54.4119079 24.1602536,54.4093973 24.258385,54.3000888 C24.3817434,54.1626806 24.4937798,54.0151575 24.6142413,53.8750215 C24.8124113,53.6444548 25.0369669,53.5888832 25.3059654,53.6992056 C25.5523441,53.8001857 25.6739885,53.9885788 25.6680258,54.2681508 C25.6620148,54.5491713 25.574988,54.803444 25.3959856,55.0538059" id="Fill-72" transform="translate(24.512374, 54.116632) rotate(-270.000000) translate(-24.512374, -54.116632) "></path>
                        <path d="M54.4578457,39.7476038 C54.3981943,39.8131454 54.3460265,39.8705034 54.2873649,39.9350071 C54.1819189,39.8624646 54.0955439,39.7891014 53.9972435,39.7393477 C53.8985809,39.6894008 53.7901414,39.6416508 53.6821848,39.6308358 C53.4706892,39.6096162 53.320752,39.8291748 53.4107964,40.0215269 C53.4506525,40.1066949 53.5184634,40.1801788 53.5801426,40.2534454 C53.6628965,40.3517217 53.7579862,40.4400038 53.8372397,40.5408632 C54.0096034,40.7602769 54.0192114,40.9943681 53.8885626,41.2399984 C53.7580345,41.4854357 53.5522602,41.6094459 53.2802924,41.5969893 C52.9104829,41.5800426 52.6087981,41.4065684 52.3278259,41.1459226 C52.3915329,41.0656552 52.4446905,40.9986892 52.5109322,40.9152594 C52.5777533,40.9641682 52.6332042,41.0055693 52.6895001,41.0458116 C52.847983,41.1590551 53.0131769,41.2562933 53.2149439,41.2678325 C53.3669812,41.2765231 53.4784866,41.2166062 53.5505462,41.0805499 C53.6222679,40.9451213 53.617319,40.814907 53.5185117,40.6984046 C53.3989192,40.5573995 53.265615,40.4279094 53.1484607,40.2850696 C52.9051961,39.9885267 52.9926816,39.5425054 53.3371676,39.3853744 C53.4539597,39.332072 53.6034624,39.3239849 53.7348112,39.3347274 C53.9857525,39.3553194 54.2396873,39.509988 54.4578457,39.7476038" id="Fill-74" transform="translate(53.392836, 40.464227) rotate(-270.000000) translate(-53.392836, -40.464227) "></path>
                        <path d="M15.0556567,48.2218721 C15.1199672,48.3062434 15.1751767,48.378641 15.2376767,48.4606224 C15.1687553,48.514818 15.1135699,48.5482768 15.0710101,48.5935887 C14.9618947,48.709729 14.8444025,48.8217413 14.7562411,48.9528488 C14.6537643,49.1052241 14.6726906,49.2578167 14.7731636,49.3776747 C14.8856105,49.5118722 15.0302367,49.5487107 15.2076699,49.4756371 C15.3112813,49.4329566 15.4082057,49.3741743 15.5084132,49.3231653 C15.5798935,49.2867613 15.6494184,49.2449498 15.7239886,49.2164398 C15.9579108,49.1269989 16.1644576,49.1725522 16.3418426,49.3516029 C16.5173446,49.5287223 16.5709125,49.7321067 16.4824614,49.9686119 C16.3738288,50.2590713 16.1723757,50.4666803 15.8959902,50.6401304 C15.8371355,50.5739369 15.7864161,50.5168686 15.6916402,50.4102638 C15.7502053,50.3787603 15.8075391,50.3611618 15.8466227,50.3242509 C15.9453336,50.2310441 16.0470861,50.1373545 16.1268707,50.0286254 C16.224809,49.895128 16.2166737,49.7506225 16.1324713,49.6489665 C16.0444065,49.5426031 15.9187306,49.5178107 15.7599581,49.5819764 C15.6932576,49.6089414 15.6309025,49.646649 15.5665438,49.679456 C15.4735784,49.7268681 15.3818683,49.7770805 15.2873338,49.8212095 C15.0256017,49.9433126 14.78731,49.9038669 14.5754765,49.7088351 C14.3657672,49.5157346 14.2971597,49.2804364 14.3863833,49.0089032 C14.4996026,48.664393 14.7407187,48.4266566 15.0556567,48.2218721" id="Fill-76" transform="translate(15.436286, 49.431001) rotate(-270.000000) translate(-15.436286, -49.431001) "></path>
                        <path d="M39.6023584,54.075967 L39.3492444,54.075967 C39.3408193,54.0172088 39.3356774,53.9630132 39.3249107,53.9099522 C39.301084,53.7926049 39.286841,53.6712743 39.2460676,53.5598414 C39.1770979,53.3712311 39.0597264,53.2998957 38.9020643,53.3255088 C38.7611558,53.34837 38.6791985,53.4471774 38.6535854,53.6381052 C38.6322209,53.7973364 38.6213335,53.9579196 38.6008382,54.1172715 C38.5682484,54.3707959 38.436296,54.5467083 38.1902552,54.6326729 C37.9428143,54.7191203 37.7142755,54.6897895 37.5114222,54.5210468 C37.2599256,54.3118446 37.0966629,53.7858455 37.1746128,53.4310032 L37.4194466,53.4310032 C37.452495,53.6044291 37.4745112,53.7706611 37.5184712,53.9308821 C37.5431429,54.0208058 37.5949003,54.1074946 37.6506168,54.1837788 C37.7420613,54.3089236 37.8758483,54.3299983 38.018664,54.2924597 C38.1557342,54.256442 38.242254,54.1668804 38.261132,54.0243786 C38.2843311,53.8493353 38.2955323,53.6726262 38.3217731,53.498114 C38.3736029,53.1534589 38.6137534,52.9565925 38.954039,52.9705941 C39.1447013,52.9784639 39.2900034,53.0653458 39.3987567,53.2198214 C39.5505044,53.4353002 39.6312546,53.753642 39.6023584,54.075967" id="Fill-78" transform="translate(38.381590, 53.824907) rotate(-270.000000) translate(-38.381590, -53.824907) "></path>
                        <path d="M55.9808916,34.2846125 C55.9397077,34.3632866 55.9041004,34.4313148 55.8667308,34.5027226 C55.71479,34.4506997 55.5819926,34.3952005 55.4439568,34.3602691 C55.2088517,34.3007625 55.0494032,34.3593517 54.9867101,34.5121374 C54.9241619,34.6646093 54.977754,34.7903335 55.1744997,34.9350321 C55.2973752,35.0253903 55.4293276,35.1037989 55.5490408,35.1979471 C55.7768312,35.3770944 55.8397416,35.6111855 55.7568187,35.8868951 C55.6744028,36.1609631 55.4911999,36.327171 55.2090448,36.3616196 C54.8635207,36.4038173 54.5411475,36.3258432 54.2229022,36.1225313 C54.268021,36.0335491 54.3086978,35.95333 54.3460916,35.8795564 C54.5375264,35.941308 54.7018272,36.0054253 54.8718734,36.0446779 C54.9614832,36.0653664 55.066374,36.0612383 55.1552596,36.0360839 C55.4261652,35.9594375 55.5046221,35.6330086 55.2940438,35.4450259 C55.1631295,35.3281614 55.0070365,35.2397103 54.8641001,35.1359541 C54.6495869,34.9802233 54.5488725,34.7797357 54.6144624,34.5094337 C54.6818146,34.2320826 54.8684454,34.0688923 55.1569495,34.045838 C55.423896,34.0244978 55.7062683,34.1025201 55.9808916,34.2846125" id="Fill-80" transform="translate(55.101897, 35.207556) rotate(-270.000000) translate(-55.101897, -35.207556) "></path>
                        <path d="M55.1071087,22.7056449 L55.1071087,22.9767919 C54.981119,22.9939317 54.8617439,23.0029603 54.7455794,23.0272698 C54.3331376,23.1135724 54.119928,23.3878335 54.1647812,23.8066967 C54.1840937,23.9868578 54.2354407,24.170809 54.3094316,24.3363893 C54.4825195,24.7237248 54.7960573,24.8545668 55.2006776,24.7247387 C55.321646,24.6859448 55.4345998,24.6222137 55.5770292,24.5583136 C55.6221479,24.6187133 55.6717327,24.6850275 55.7189758,24.7482517 C55.2728579,25.239778 54.4499056,25.2029153 54.0841517,24.6869105 C53.8408388,24.3437039 53.7547052,23.9575753 53.8141152,23.5434437 C53.853923,23.2661167 54.0039808,23.0498896 54.2408723,22.9021975 C54.500287,22.7404798 54.7868356,22.6851737 55.1071087,22.7056449" id="Fill-82" transform="translate(54.757500, 23.898936) rotate(-270.000000) translate(-54.757500, -23.898936) "></path>
                        <path d="M12.356794,47.2978047 C12.2794476,47.2548586 12.2177684,47.2206272 12.1396978,47.1772466 C12.1644177,47.1123809 12.1763432,47.0490119 12.2093434,46.9996927 C12.4551427,46.6322006 12.7484749,46.3339679 13.2372492,46.3585913 C13.3396294,46.3637815 13.4466204,46.3824905 13.5411791,46.4205602 C13.9495894,46.5851024 14.2328791,46.8815245 14.3944519,47.2879553 C14.5042192,47.5640511 14.4843032,47.8389399 14.3335453,48.0993926 C14.1841392,48.3574795 13.9644117,48.5358059 13.6773802,48.6792975 C13.6311269,48.5995129 13.5895085,48.527743 13.544438,48.4499862 C13.6585023,48.3606902 13.7645036,48.2892341 13.8569861,48.2032695 C14.1722138,47.9101304 14.2110077,47.5881675 13.957604,47.237767 C13.8557308,47.0968826 13.7274236,46.9677305 13.5891705,46.8620431 C13.2692354,46.617499 12.9155277,46.6495818 12.6358832,46.9390757 C12.5369793,47.0414317 12.4594156,47.1643797 12.356794,47.2978047" id="Fill-84" transform="translate(13.301872, 47.518233) rotate(-270.000000) translate(-13.301872, -47.518233) "></path>
                        <path d="M8.62327516,42.2146073 C8.59558591,42.0832343 8.57967727,42.0078191 8.56135457,41.9208647 C8.70066985,41.8703626 8.8297978,41.8321722 8.95168358,41.7777594 C9.31709952,41.6146174 9.46568478,41.3156846 9.34981,40.9329357 C9.29489018,40.7515434 9.21078441,40.5715271 9.10480727,40.4145892 C8.8856591,40.0899226 8.54682194,40.0121899 8.19523856,40.1910475 C8.06850053,40.2555269 7.95586059,40.3477198 7.79998487,40.4518381 C7.74817919,40.3986564 7.69026595,40.3392223 7.63713253,40.2847612 C8.07892926,39.6494053 8.91185163,39.5992653 9.37361261,40.1540641 C9.58942938,40.413358 9.71607085,40.7124357 9.7370973,41.053711 C9.76249319,41.4662494 9.58411845,41.7735348 9.23581819,41.9718255 C9.05845736,42.0727814 8.85360041,42.1254561 8.62327516,42.2146073" id="Fill-86" transform="translate(8.688306, 40.992569) rotate(-270.000000) translate(-8.688306, -40.992569) "></path>
                        <path d="M52.4429914,42.2679916 C52.2694931,42.160735 52.1139794,42.0646072 51.9390568,41.9564816 C51.9870966,41.8712895 52.0281838,41.7984091 52.0834175,41.7004225 C52.5297526,41.9578093 52.95861,42.2051295 53.410763,42.4658961 C53.3634475,42.5545403 53.3242915,42.6278311 53.2724375,42.7249486 C53.0919143,42.6280001 52.926672,42.5392834 52.7468006,42.442697 C52.4105223,43.0214191 52.0849866,43.5817219 51.7482497,44.1612647 C51.6413793,44.096906 51.5565494,44.0458486 51.4573316,43.9861007 C51.7920407,43.4026471 52.1145347,42.8405337 52.4429914,42.2679916" id="Fill-88" transform="translate(52.434047, 42.930844) rotate(-270.000000) translate(-52.434047, -42.930844) "></path>
                        <path d="M18.9942575,51.3584885 C19.6722698,51.7193177 20.3279762,52.0682698 21.0101165,52.4312958 C20.9663497,52.5322517 20.9275316,52.6218374 20.8755569,52.7416953 C20.2780535,52.4267332 19.7012144,52.1226585 19.1095529,51.8107622 C18.961716,52.0776363 18.8236802,52.3268636 18.6768331,52.5919996 C18.5823469,52.5394938 18.5088147,52.4986238 18.4163562,52.4472286 C18.612088,52.0784329 18.7979705,51.7282739 18.9942575,51.3584885" id="Fill-90" transform="translate(19.713236, 52.050092) rotate(-270.000000) translate(-19.713236, -52.050092) "></path>
                        <path d="M42.9464307,51.0989917 C43.6072549,50.6814804 44.2370343,50.2835471 44.8881057,49.8721676 C44.9510643,49.9667021 45.0025079,50.0438795 45.0708499,50.1464769 C44.5222069,50.5243253 43.953817,50.8500541 43.3947695,51.2248607 C43.5507176,51.4775884 43.6972268,51.7149869 43.8556131,51.9716978 C43.7795945,52.0267624 43.7103834,52.0768541 43.612083,52.1480689 C43.392452,51.801893 43.1795321,51.4663631 42.9464307,51.0989917" id="Fill-92" transform="translate(44.008640, 51.010118) rotate(-270.000000) translate(-44.008640, -51.010118) "></path>
                        <path d="M8.5528008,40.2064297 C8.43914696,40.2517657 8.35327893,40.2860212 8.23416931,40.333554 C7.95797696,39.6144303 7.68941302,38.9151019 7.40933403,38.1857909 C7.52192569,38.141686 7.61827074,38.103906 7.73069341,38.0598495 C8.007441,38.7824735 8.2735426,39.4772152 8.5528008,40.2064297" id="Fill-94" transform="translate(7.981067, 39.196702) rotate(-270.000000) translate(-7.981067, -39.196702) "></path>
                        <path d="M54.6600545,24.8737204 C54.7830508,24.8529595 54.8800235,24.836568 54.9996642,24.8163865 C55.1403555,25.5755835 55.2768463,26.3121367 55.4171031,27.069137 C55.3027733,27.0953778 55.2123185,27.1161387 55.0938124,27.143321 C54.9273873,26.3885658 54.8069741,25.6421874 54.6600545,24.8737204" id="Fill-96" transform="translate(55.160055, 25.979854) rotate(-270.000000) translate(-55.160055, -25.979854) "></path>
                        <path d="M35.2696758,54.7106512 C35.2446661,54.5844684 35.2255951,54.48822 35.2029029,54.3738902 C35.9513574,54.2041819 36.6755989,54.0399294 37.4334199,53.8680726 C37.4601435,53.9805195 37.4840669,54.080896 37.5128907,54.2021058 C36.7542006,54.3741074 36.0240447,54.5396394 35.2696758,54.7106512" id="Fill-98" transform="translate(36.357897, 54.368073) rotate(-270.000000) translate(-36.357897, -54.368073) "></path>
                        <path d="M48.6722162,47.7433983 C48.1084371,48.2675626 47.558901,48.7784738 46.9926837,49.3049074 C46.90824,49.2118455 46.8419017,49.1387237 46.7632999,49.0521073 C47.3309174,48.5233321 47.8803569,48.0114552 48.4342142,47.4955228 C48.4826161,47.5327476 48.5172095,47.5529532 48.543402,47.5810046 C48.581182,47.6214642 48.6128303,47.667621 48.6722162,47.7433983" id="Fill-100" transform="translate(47.717758, 48.400215) rotate(-270.000000) translate(-47.717758, -48.400215) "></path>
                        <path d="M44.7038117,10.1085747 C44.7814719,10.006291 44.8379126,9.93196219 44.9105999,9.83622066 C45.5280917,10.2982955 46.1292887,10.7482034 46.7498223,11.2125474 C46.6798146,11.3118376 46.6225773,11.3930224 46.5522799,11.492723 C45.9330258,11.0290308 45.3314184,10.5785193 44.7038117,10.1085747" id="Fill-102" transform="translate(45.726817, 10.664472) rotate(-270.000000) translate(-45.726817, -10.664472) "></path>
                        <path d="M56.1973266,28.2124734 C56.4227996,27.8183543 56.5159822,27.7836885 56.8376071,27.840105 C56.6659676,28.153667 56.4686667,28.2684071 56.1973266,28.2124734" id="Fill-104" transform="translate(56.697327, 28.318897) rotate(-270.000000) translate(-56.697327, -28.318897) "></path>
                        <path d="M32.5589271,36.1706554 C32.5505986,35.9939705 32.5485466,35.8167304 32.5325897,35.6407214 C32.5033796,35.3186137 32.4389726,35.0042068 32.2821795,34.7163304 C32.1452059,34.464858 31.9456357,34.277503 31.6639393,34.2146409 C31.0504306,34.0777156 30.5157168,34.2610874 30.2607923,34.8830694 C30.2243642,34.9719309 30.1934884,35.0637616 30.1685512,35.1565097 C30.0200866,35.7094255 30.0276909,36.2723355 30.095719,36.8324694 C30.1243256,37.0680573 30.1983406,37.3051419 30.2920061,37.5243383 C30.4872551,37.9812229 30.8589234,38.1880353 31.3490737,38.1748304 C31.8224222,38.1620841 32.1504444,37.9274619 32.3393927,37.4936557 C32.5236336,37.070592 32.5550646,36.6235809 32.5589271,36.1706554 M33.8409608,36.1418316 C33.8452578,36.6766178 33.7779297,37.1759657 33.5977445,37.657015 C33.2494442,38.587079 32.4952684,39.130242 31.5040804,39.1670323 C31.1892148,39.1786922 30.8764012,39.1703637 30.56984,39.0891548 C29.8414463,38.8961267 29.345792,38.4382524 29.0585432,37.7487974 C28.7956282,37.1178593 28.7402497,36.4561902 28.7899793,35.783006 C28.8245245,35.315065 28.9167173,34.8591461 29.1248091,34.4326062 C29.4989398,33.6657807 30.117518,33.251794 30.9592034,33.1648637 C31.3293992,33.1266492 31.6997398,33.1363537 32.0613415,33.2339782 C32.8987782,33.4600306 33.398126,34.028686 33.6528091,34.8337985 C33.7895896,35.2660838 33.8487341,35.7116706 33.8409608,36.1418316" id="Fill-106" transform="translate(31.307567, 36.157664) rotate(-270.000000) translate(-31.307567, -36.157664) "></path>
                        <path d="M30.5938474,46.5549419 C31.0987476,46.5781169 31.5790969,46.608365 31.8822542,46.1252396 C32.1064478,45.7679591 32.0772618,45.1478842 31.8165194,44.8263317 C31.4948945,44.4296537 31.0542807,44.4552668 30.5938474,44.4954126 L30.5938474,46.5549419 Z M29.3991785,43.5545094 C30.1713632,43.504973 30.9231491,43.418598 31.675466,43.5515643 C32.3148534,43.6645663 32.8329102,43.9663719 33.0840446,44.5894402 C33.3372069,45.2174815 33.3387519,45.866694 33.0657944,46.4906556 C32.8265612,47.0374397 32.3740702,47.3508568 31.7979553,47.4646313 C31.4926977,47.5249345 31.1766734,47.5315249 30.8651634,47.5585382 C30.7795126,47.5659735 30.692679,47.5596728 30.5860983,47.5596728 L30.5860983,49.3758651 C30.3457064,49.4731033 29.6745742,49.4782452 29.3991785,49.3897942 L29.3991785,43.5545094 Z" id="Fill-108" transform="translate(31.335721, 46.466763) rotate(-270.000000) translate(-31.335721, -46.466763) "></path>
                        <path d="M32.7652142,23.9393018 C32.34652,23.7406007 31.9363957,23.6774731 31.5132597,23.6867914 C31.4330164,23.6885295 31.3521455,23.6925127 31.2729885,23.7046795 C30.9668377,23.7516571 30.7943774,23.9025599 30.7485103,24.1577499 C30.6926007,24.4688978 30.7902735,24.6993921 31.0772325,24.8378383 C31.3588807,24.9737256 31.6556408,25.0781577 31.9447725,25.1987399 C32.0930439,25.2605881 32.2404946,25.3247296 32.386014,25.3927578 C32.9556834,25.6591249 33.2214229,26.1247484 33.245322,26.7369776 C33.2843332,27.7369769 32.7615448,28.4395643 31.7766092,28.6549465 C30.9749731,28.8302313 30.1778753,28.7736216 29.4082495,28.4646463 C29.3942721,28.4589974 29.3838193,28.4445372 29.3542471,28.4192379 C29.3818639,28.0951265 29.4758914,27.7757708 29.5884831,27.4414721 C29.7598812,27.4934226 29.9175433,27.5442868 30.0769194,27.5889227 C30.4765425,27.7008384 30.8810904,27.7506405 31.2919389,27.6594374 C31.3929913,27.6370108 31.4919435,27.5999067 31.5877092,27.5596402 C32.0476355,27.3662259 32.0627234,26.6899276 31.755438,26.4414486 C31.6688698,26.3714409 31.5753734,26.3037266 31.4743933,26.2590907 C31.2467718,26.1584728 31.0112081,26.0759361 30.7812449,25.9803636 C30.6034496,25.9064451 30.4254611,25.8311989 30.2540871,25.7437376 C29.7641299,25.4936654 29.5297491,25.0800407 29.5018908,24.5391228 C29.4511232,23.5532457 30.0242447,22.8727952 31.02871,22.7440535 C31.7031012,22.6576302 32.358711,22.7498714 33.0121965,22.9983986 C33.0111101,23.323186 32.9033949,23.6184253 32.7652142,23.9393018" id="Fill-110" transform="translate(31.300802, 25.732808) rotate(-270.000000) translate(-31.300802, -25.732808) "></path>
                        <path d="M29.3477115,17.3346583 C29.4272064,17.0135886 29.5055426,16.6972746 29.5897208,16.3572304 C29.7396579,16.4058495 29.8585986,16.4470816 29.9791083,16.4830994 C30.4151113,16.6132654 30.8564735,16.6838283 31.3096646,16.5848278 C31.3953154,16.5661188 31.4807247,16.5401436 31.5613784,16.5060088 C31.8035325,16.4036045 31.9441997,16.2221639 31.971044,15.9569796 C32.0003024,15.6678238 31.9081095,15.4304736 31.6575545,15.27496 C31.5357411,15.1993276 31.3998297,15.1448906 31.2668875,15.0890051 C30.9634646,14.961398 30.6536202,14.8482994 30.3541322,14.7122673 C29.6850037,14.4083374 29.4498503,13.8353125 29.5288624,13.1032253 C29.6170721,12.2857287 30.1909661,11.7806354 31.0672449,11.6671506 C31.7334042,11.5808963 32.3805648,11.6790036 33.006361,11.9168849 C33.0416787,12.1657501 32.9409883,12.5507923 32.7610203,12.8393446 C32.6908919,12.8164111 32.6154043,12.7954088 32.5426446,12.7673091 C32.1433595,12.6131715 31.7291071,12.5824889 31.3089645,12.6289353 C30.9108864,12.6729919 30.7291802,12.9057554 30.759018,13.3030127 C30.7759888,13.5289685 30.9065652,13.6760329 31.0957791,13.7674292 C31.3050055,13.8684575 31.5256021,13.9456832 31.7397773,14.0366932 C31.9762342,14.1371663 32.2149604,14.233463 32.4457443,14.3458616 C32.8969318,14.5656132 33.1709997,14.9245354 33.2288888,15.4272388 C33.2534881,15.6409553 33.2712073,15.8627107 33.2424076,16.0740373 C33.1335094,16.873187 32.6043479,17.4201883 31.7430604,17.5921417 C30.9640198,17.7476794 30.1912557,17.6896455 29.4436703,17.4006103 C29.4220645,17.3922818 29.4042729,17.3740557 29.3477115,17.3346583" id="Fill-112" transform="translate(31.302495, 14.656281) rotate(-270.000000) translate(-31.302495, -14.656281) "></path>
                        <path d="M30.7181038,8.50354583 L30.7181038,2.69708496 C30.9468358,2.59914663 31.5412975,2.58869376 31.8942811,2.6803314 L31.8942811,8.50458388 C31.5039762,8.55745175 31.117051,8.55643784 30.7181038,8.50354583" id="Fill-114" transform="translate(31.306192, 5.580490) rotate(-270.000000) translate(-31.306192, -5.580490) "></path>
                        <path d="M16.5018978,38.3741444 C16.4976008,38.233091 16.5642288,38.1339457 16.6771826,38.0877406 C16.7917779,38.0408596 16.9040074,38.0611618 16.9820298,38.1571931 C17.03736,38.2252212 17.0810303,38.3033401 17.1253283,38.3796243 C17.3310301,38.7337425 17.5352594,39.0887297 17.7396094,39.4436445 C17.7636051,39.4853353 17.7885665,39.5270985 17.8069616,39.5713723 C17.8683753,39.7192092 17.83004,39.8487475 17.7047504,39.9272527 C17.5720014,40.0103928 17.416005,39.9877731 17.3276504,39.8403466 C17.0552964,39.3859485 16.7949886,38.9242841 16.5316873,38.4644543 C16.5124473,38.4308507 16.5067501,38.3894737 16.5018978,38.3741444" id="Fill-116" transform="translate(17.168703, 39.019364) rotate(-270.000000) translate(-17.168703, -39.019364) "></path>
                        <path d="M23.9324338,45.7884526 C23.8834284,45.7702023 23.8198663,45.7558869 23.7657914,45.724987 C23.3340854,45.4783427 22.902983,45.2306121 22.474367,44.978681 C22.3136391,44.8842431 22.2703309,44.7385547 22.3456012,44.5932525 C22.421306,44.4470089 22.5844963,44.4062838 22.7620262,44.5032082 C22.9942102,44.6299221 23.2209868,44.7665819 23.4500326,44.8991137 C23.6582934,45.0195993 23.8709236,45.1333014 24.0733907,45.262888 C24.2716572,45.3897226 24.2617837,45.6534343 24.0629136,45.75229 C24.0280305,45.7696229 23.9866536,45.7738717 23.9324338,45.7884526" id="Fill-118" transform="translate(23.263453, 45.119489) rotate(-270.000000) translate(-23.263453, -45.119489) "></path>
                        <path d="M16.7767374,23.3131377 C16.5535094,23.3048816 16.4378036,23.0879785 16.5545475,22.8750344 C16.7280217,22.5585515 16.912504,22.2481278 17.0927858,21.9354348 C17.1609105,21.817315 17.2282145,21.6986641 17.2998878,21.582741 C17.4084239,21.4071907 17.5537984,21.3610581 17.7013698,21.4509576 C17.8472513,21.5398673 17.877765,21.688187 17.7755055,21.8687103 C17.5342929,22.2944294 17.2878176,22.7171792 17.0450599,23.141981 C16.9847085,23.247596 16.903234,23.314224 16.7767374,23.3131377" id="Fill-120" transform="translate(17.171985, 22.359654) rotate(-270.000000) translate(-17.171985, -22.359654) "></path>
                        <path d="M14.4377287,30.8913932 C14.4377287,30.6748281 14.4371976,30.4582871 14.4380908,30.2417461 C14.4383081,30.1857158 14.4357974,30.1282129 14.4470228,30.0739691 C14.4751949,29.9379128 14.5883417,29.8505722 14.7229013,29.8526482 C14.8575092,29.8547002 14.9630518,29.9446238 14.9893168,30.0841805 C14.9966313,30.1231434 14.9948691,30.1640617 14.9949174,30.2040868 C14.9954726,30.6773145 14.9975487,31.1505182 14.9949174,31.6237218 C14.9936862,31.8445839 14.886671,31.9689562 14.7129313,31.9660835 C14.5432471,31.963259 14.4426051,31.8376073 14.4393702,31.6132448 C14.435894,31.3726839 14.4385736,31.1320265 14.4385736,30.8913932 L14.4377287,30.8913932 Z" id="Fill-122" transform="translate(14.937572, 30.909372) rotate(-270.000000) translate(-14.937572, -30.909372) "></path>
                        <path d="M24.2182155,15.8717229 C24.2252646,15.9808625 24.1703689,16.0552637 24.0812177,16.1070694 C23.630827,16.3688981 23.1820536,16.6335996 22.7278486,16.8886206 C22.5804946,16.9713504 22.4314506,16.9185308 22.3553595,16.7836816 C22.28091,16.651705 22.3127997,16.4924496 22.4556153,16.4075955 C22.9034713,16.1415422 23.3528241,15.8773477 23.8100708,15.6279996 C24.0108238,15.518498 24.2154635,15.6533231 24.2182155,15.8717229" id="Fill-124" transform="translate(23.267642, 16.258658) rotate(-270.000000) translate(-23.267642, -16.258658) "></path>
                        <path d="M38.9786233,45.4565747 C39.0068195,45.419012 39.04641,45.3206874 39.1189042,45.2771136 C39.5660118,45.0084773 40.0181407,44.7478315 40.4739873,44.4942588 C40.6272799,44.4089702 40.7630707,44.4592791 40.8439899,44.5996566 C40.9245712,44.7393823 40.8976786,44.8822945 40.7472103,44.971687 C40.2986784,45.2381025 39.8476841,45.5008244 39.3907512,45.7525382 C39.1973128,45.8590947 38.9828237,45.7233764 38.9786233,45.4565747" id="Fill-126" transform="translate(39.933556, 45.120726) rotate(-270.000000) translate(-39.933556, -45.120726) "></path>
                        <path d="M45.6958657,21.4004013 C45.7379669,21.4335464 45.8339499,21.4757924 45.8780788,21.5492039 C46.1426837,21.989528 46.3997084,22.4346079 46.6497566,22.8833812 C46.7411769,23.0474889 46.6916405,23.1994779 46.5495007,23.2776934 C46.4036675,23.3579367 46.2669353,23.3199394 46.1657621,23.148662 C45.908496,22.7133108 45.6629139,22.2710313 45.4049235,21.8361146 C45.2917283,21.6453316 45.4133727,21.4152237 45.6958657,21.4004013" id="Fill-128" transform="translate(46.029466, 22.359184) rotate(-270.000000) translate(-46.029466, -22.359184) "></path>
                        <path d="M46.6996471,38.3772798 C46.6852111,38.4130078 46.6700267,38.4680483 46.6425547,38.5160398 C46.3948241,38.948132 46.147021,39.3801759 45.8946071,39.8095161 C45.8077493,39.9572806 45.7092316,39.9992369 45.578269,39.9663092 C45.3842995,39.9175694 45.3030181,39.7384221 45.4047224,39.5520327 C45.5624811,39.26307 45.731103,38.9800459 45.89579,38.6948974 C45.9922075,38.527917 46.0842797,38.3580397 46.1890256,38.1963944 C46.2668307,38.0763675 46.3849023,38.0425224 46.5018634,38.084527 C46.622349,38.1277869 46.7059478,38.2432754 46.6996471,38.3772798" id="Fill-130" transform="translate(46.030331, 39.022077) rotate(-270.000000) translate(-46.030331, -39.022077) "></path>
                        <path d="M40.5539057,16.9255443 C40.5266268,16.9131602 40.4592746,16.8888748 40.3980058,16.8538709 C39.9940615,16.6229904 39.5913484,16.3899373 39.1884663,16.1571738 C39.1538487,16.1371854 39.1182655,16.1174143 39.0878001,16.0919701 C38.9743877,15.9972425 38.9484365,15.846388 39.0219446,15.7255161 C39.0922661,15.6099311 39.2212975,15.5660676 39.3566537,15.6160386 C39.4014345,15.6325508 39.4434874,15.6575121 39.4851057,15.6815562 C39.8809629,15.9104088 40.2766753,16.1395753 40.6718324,16.3696833 C40.7200653,16.397783 40.7706157,16.4260033 40.8099165,16.4645558 C40.8885665,16.541685 40.9040165,16.6762204 40.8509314,16.7779729 C40.7981601,16.879122 40.7153337,16.9338245 40.5539057,16.9255443" id="Fill-132" transform="translate(39.931329, 16.261003) rotate(-270.000000) translate(-39.931329, -16.261003) "></path>
                        <path d="M48.3197815,30.9329124 C48.3198539,31.1816328 48.3255028,31.4305221 48.3180434,31.6790252 C48.3122014,31.8727775 48.1819871,31.9846691 48.0094785,31.9621218 C47.8617623,31.9428093 47.7751218,31.8526926 47.7670588,31.6811496 C47.7576198,31.4809759 47.763148,31.280078 47.7632446,31.0795181 C47.7634377,30.7746226 47.7606374,30.4696788 47.766745,30.164904 C47.7701005,29.9966442 47.8394805,29.9005406 47.959242,29.865247 C48.1451244,29.8104721 48.310077,29.9285436 48.317464,30.1386874 C48.3267581,30.4031233 48.3197091,30.6681385 48.3197815,30.9329124" id="Fill-134" transform="translate(48.261549, 30.908439) rotate(-270.000000) translate(-48.261549, -30.908439) "></path>
                        <path d="M9.28405674,44.1655135 C9.3058087,44.2228094 9.32756066,44.2800265 9.34931261,44.3373224 C9.2872092,44.3251067 9.2251846,44.3129697 9.16308118,44.3010692 C9.20343264,44.255989 9.24370528,44.2107513 9.28405674,44.1655135" id="Fill-136" transform="translate(9.663081, 44.665513) rotate(-270.000000) translate(-9.663081, -44.665513) "></path>
                        <path d="M9.41599639,43.1454225 C9.38589042,43.0994416 9.35578445,43.0534607 9.3257573,43.0074798 C9.39235296,43.003544 9.45894863,42.9997043 9.52562311,42.9955766 C9.48913341,43.0453972 9.4525649,43.0954099 9.41599639,43.1454225" id="Fill-138" transform="translate(9.825757, 43.495577) rotate(-270.000000) translate(-9.825757, -43.495577) "></path>
                        <path d="M10.6859528,14.3222046 C10.6272383,14.3204579 10.5685237,14.3188205 10.5098092,14.3169647 C10.5357382,14.2704605 10.5615883,14.2239564 10.5875173,14.1774522 C10.6224308,14.2229739 10.6552163,14.2712247 10.6859528,14.3222046" id="Fill-140" transform="translate(11.009809, 14.677452) rotate(-270.000000) translate(-11.009809, -14.677452) "></path>
                    </g>
                </g>
            </g>
        </g>
    </g>
</svg>