<?xml version="1.0" encoding="UTF-8"?>
<svg width="142px" height="44px" viewBox="0 0 142 44" version="1.1" xmlns="http://www.w3.org/2000/svg" xmlns:xlink="http://www.w3.org/1999/xlink">
    <!-- Generator: Sketch 48.2 (47327) - http://www.bohemiancoding.com/sketch -->
    <title>logo casio división educativa</title>
    <desc>Created with Sketch.</desc>
    <defs>
        <linearGradient x1="50%" y1="0%" x2="50%" y2="100%" id="linearGradient-1">
            <stop stop-color="#0069AC" offset="0%"></stop>
            <stop stop-color="#2E81BB" offset="100%"></stop>
        </linearGradient>
    </defs>
    <g id="Escuelas-libres-de-mercurio-v2" stroke="none" stroke-width="1" fill="none" fill-rule="evenodd" transform="translate(-34.000000, -33.000000)">
        <g id="hero" transform="translate(33.148438, 33.000000)">
            <g id="logo-casio-división-educativa" transform="translate(0.899414, 0.000000)">
                <g id="Group-21" transform="translate(0.136810, 0.349690)" fill="#0B3490" fill-rule="nonzero">
                    <path d="M114.41522,18.7529247 C113.296604,18.4732708 113.016951,17.913963 112.877124,16.7953475 C112.59747,14.9775972 112.59747,10.503135 112.877124,8.54555781 C113.016951,7.56676921 113.576258,7.00746144 114.41522,6.72780755 C115.394009,6.44815366 124.342933,6.30832672 125.321722,6.72780755 C126.160683,7.00746144 126.440337,7.56676921 126.580164,8.40573087 C126.999645,10.2234811 126.999645,14.8377702 126.580164,16.6555205 C126.440337,17.4944822 126.160683,17.913963 125.321722,18.3334438 C124.48276,19.0325785 115.673663,19.0325785 114.41522,18.7529247 Z M128.258087,0.575422056 C125.601375,0.0161142838 115.394009,-0.123712659 111.339027,0.575422056 C108.262835,1.13472983 105.885777,3.37196092 105.186642,6.16849978 C104.627334,9.38451947 104.627334,16.5156936 105.186642,19.4520594 C105.74595,22.1087713 107.983181,24.4858293 111.339027,25.0451371 C114.834701,25.7442718 125.181895,25.6044449 128.397914,24.9053101 C132.173242,24.0663485 133.711338,21.2698096 134.130819,19.4520594 C134.690127,16.6555205 134.690127,9.52434641 134.130819,6.16849978 C133.431684,3.23213397 130.914799,1.13472983 128.258087,0.575422056 Z M93.1615247,0.715248999 L100.852007,0.715248999 L100.852007,24.9053101 L93.1615247,24.9053101 L93.1615247,0.715248999 Z M80.8567537,15.6767319 C82.1151962,15.9563858 82.3948501,16.9351744 82.3948501,17.7741361 C82.3948501,18.6130977 82.2550231,19.5918863 80.8567537,19.7317133 C79.3186573,20.0113671 74.1450604,20.0113671 72.1874832,19.7317133 C71.3485216,19.5918863 70.369733,19.5918863 70.0900791,18.0537899 L70.0900791,17.6343091 L62.3995972,17.6343091 C62.3995972,17.7741361 62.3995972,18.1936169 62.5394242,18.7529247 C62.819078,21.9689443 64.0775205,24.2061754 67.7130211,24.9053101 C70.6493869,25.4646179 81.6957154,25.6044449 85.051562,24.9053101 C88.9667164,24.0663485 89.945505,20.5706749 89.945505,17.4944822 C89.945505,13.9988086 88.6870625,11.6217506 85.6108698,10.642962 C84.7719081,10.3633081 82.8143309,10.2234811 81.9753692,10.2234811 C81.2762345,10.2234811 73.0264449,9.94382724 71.2086946,9.66417336 C70.0900791,9.52434641 69.8104252,8.8252117 69.8104252,7.8464231 C69.8104252,6.86763449 69.9502521,6.16849978 71.3485216,5.88884589 C73.0264449,5.60919201 79.5983112,5.60919201 80.2974459,5.88884589 C81.1364076,6.16849978 81.4160615,6.72780755 81.4160615,7.42694227 L81.4160615,7.98625004 L89.1065433,7.98625004 C89.1065433,7.42694227 88.9667164,7.00746144 88.9667164,6.58798061 C88.5472356,2.81265315 86.4498314,0.715248999 82.674504,0.435595113 C78.8991765,0.0161142838 70.229906,0.155941227 67.5731941,0.575422056 C65.0563091,1.13472983 62.5394242,2.6728262 62.5394242,7.8464231 C62.5394242,12.0412314 64.4970014,14.1386355 67.852848,14.8377702 C68.8316366,14.9775972 71.6281755,15.1174241 72.0476563,15.1174241 C73.0264449,15.2572511 80.2974459,15.536905 80.8567537,15.6767319 Z M50.5143071,15.536905 L41.9848635,15.536905 L45.620364,5.88884589 L46.8788065,5.88884589 L50.5143071,15.536905 Z M52.1922304,20.5706749 L53.8701537,24.9053101 L62.1199433,24.9053101 L51.7727495,0.575422056 L40.5865941,0.575422056 L30.3792273,24.9053101 L38.6290169,24.9053101 L40.3069402,20.430848 L52.1922304,20.5706749 Z M8.28657025,16.9351744 C8.42639719,18.3334438 9.12553191,18.6130977 9.82466662,18.7529247 C10.9432822,19.0325785 18.9134179,19.0325785 20.3116874,18.7529247 C21.290476,18.6130977 21.9896107,17.913963 22.1294376,17.0750013 C22.1294376,16.6555205 22.2692646,15.9563858 22.2692646,15.6767319 L30.2394003,15.6767319 C30.2394003,16.2360397 30.2394003,17.6343091 30.0995734,18.8927516 C29.6800925,21.8291174 28.0021692,24.2061754 24.3666687,25.0451371 C21.8497837,25.6044449 9.68483968,25.6044449 6.88830082,25.0451371 C3.95193501,24.3460024 1.43505004,22.5282521 0.735915322,19.4520594 C0.176607549,16.6555205 0.176607549,9.38451947 0.735915322,6.30832672 C1.15539615,4.07109563 3.2528003,1.41438371 6.74847387,0.715248999 C9.96449356,0.155941227 21.290476,0.0161142838 24.3666687,0.715248999 C28.42165,1.6940376 29.6800925,5.32953812 29.8199195,6.58798061 C29.9597464,7.98625004 29.9597464,8.96503864 29.9597464,9.52434641 L21.9896107,9.52434641 C21.9896107,8.96503864 22.1294376,7.42694227 20.7311682,7.00746144 C19.8922065,6.72780755 12.0618977,6.72780755 10.1043205,6.86763449 C9.12553191,7.00746144 8.56622413,7.42694227 8.42639719,8.40573087 C8.00691636,10.3633081 8.00691636,15.1174241 8.28657025,16.9351744 Z" id="logo-casio" transform="translate(67.433367, 12.803421) rotate(-360.000000) translate(-67.433367, -12.803421) "></path>
                    <path d="M141.036399,21.2784941 C140.787793,20.8434349 140.445961,20.5016026 140.010902,20.2529973 C139.575843,20.0043921 139.109708,19.8800894 138.612497,19.8800894 C138.115287,19.8800894 137.649152,20.0043921 137.214093,20.2529973 C136.779033,20.5016026 136.437201,20.8434349 136.188596,21.2784941 C135.939991,21.7135533 135.815688,22.1796882 135.815688,22.6768988 C135.815688,23.1741093 135.939991,23.6713198 136.219672,24.1063791 C136.468277,24.5414383 136.810109,24.8832705 137.245168,25.1318758 C137.680228,25.3804811 138.146362,25.5047837 138.643573,25.5047837 C139.140783,25.5047837 139.606918,25.3804811 140.041978,25.1318758 C140.477037,24.8832705 140.818869,24.5414383 141.067474,24.1063791 C141.31608,23.6713198 141.471458,23.205185 141.471458,22.6768988 C141.471458,22.1796882 141.347155,21.7135533 141.09855,21.2784941 L141.036399,21.2784941 Z M140.663491,23.8888495 C140.445961,24.2617574 140.135205,24.5414383 139.793372,24.7589679 C139.420464,24.9764975 139.047557,25.0697245 138.612497,25.0697245 C138.208514,25.0697245 137.80453,24.9764975 137.431622,24.7589679 C137.058714,24.5414383 136.779033,24.2617574 136.561504,23.8888495 C136.343974,23.5159415 136.219672,23.111958 136.219672,22.6768988 C136.219672,22.2418395 136.312899,21.837856 136.530428,21.4960237 C136.747958,21.1231158 137.027639,20.8434349 137.400547,20.6259053 C137.773454,20.4083756 138.177438,20.3151487 138.581422,20.3151487 C139.016481,20.3151487 139.389389,20.4083756 139.762297,20.6259053 C140.135205,20.8434349 140.414886,21.1231158 140.632415,21.4960237 C140.849945,21.8689316 140.943172,22.2729152 140.943172,22.6768988 C140.943172,23.111958 140.849945,23.5159415 140.601339,23.8888495 L140.663491,23.8888495 Z" id="Shape"></path>
                    <path d="M139.389389,23.3605633 C139.265086,23.111958 139.109708,22.9565797 139.016481,22.8633527 C139.23401,22.7701257 139.420464,22.6147474 139.544767,22.4593691 C139.66907,22.2729152 139.700145,22.0864612 139.700145,21.9000073 C139.700145,21.744629 139.66907,21.558175 139.575843,21.4338724 C139.482616,21.2784941 139.389389,21.1852671 139.23401,21.0920401 C139.109708,20.9988132 138.892178,20.9677375 138.612497,20.9677375 L137.493774,20.9677375 L137.493774,24.4482113 L138.053135,24.4482113 L138.053135,22.9876553 L138.457119,22.9876553 C138.51927,22.9876553 138.612497,23.111958 138.7368,23.3294876 L138.861103,23.5470172 L139.327237,24.4482113 L139.948751,24.4482113 L139.389389,23.3916389 L139.389389,23.3605633 Z M138.457119,22.5525961 L138.084211,22.5525961 L138.084211,21.3717211 L138.488195,21.3717211 C138.674649,21.3717211 138.798951,21.4027967 138.892178,21.4649481 C138.95433,21.5270994 139.016481,21.5892507 139.078632,21.651402 C139.109708,21.744629 139.140783,21.8067803 139.140783,21.9310829 C139.140783,22.0864612 139.078632,22.2418395 138.985405,22.3661422 C138.892178,22.4904448 138.705724,22.5525961 138.457119,22.5525961 Z" id="Shape"></path>
                </g>
                <path d="M9.82461205,34.6909541 L13.14775,34.6909541 C13.8949132,34.6909541 14.5682286,34.8169295 15.1676966,35.0688796 C15.7671647,35.3208296 16.2493455,35.6596594 16.6142391,36.0853688 C16.9791326,36.5110783 17.2571465,36.9867431 17.4482815,37.5123634 C17.6394165,38.037984 17.7349836,38.5874962 17.7349836,39.1609004 C17.7349836,39.7603685 17.6437602,40.3316008 17.4613134,40.8745971 C17.2788666,41.4175935 17.0073687,41.9128063 16.6468188,42.3602352 C16.286269,42.8076644 15.8040882,43.1638702 15.2002764,43.4288522 C14.5964643,43.6938343 13.9122888,43.8263255 13.14775,43.8263255 L9.82461205,43.8263255 L9.82461205,34.6909541 Z M13.14775,42.692549 C14.2771824,42.6925486 15.1351169,42.342859 15.721553,41.64348 C16.3079891,40.9441006 16.6012071,40.1122301 16.6012071,39.1478685 C16.6012071,38.2269468 16.3014731,37.4363437 15.7020051,36.7760602 C15.1025371,36.1157764 14.2511186,35.7856348 13.14775,35.7856348 L10.9583885,35.7856348 L10.9583885,42.692549 L13.14775,42.692549 Z M19.333565,35.4207412 C19.333565,35.1253509 19.4508523,34.9190126 19.6854267,34.8017253 C19.9200011,34.6844381 20.1545756,34.6866104 20.38915,34.8082413 C20.6237245,34.9298722 20.7410117,35.1383828 20.7410117,35.4337731 C20.7410117,35.7291635 20.6237245,35.9355018 20.38915,36.052789 C20.1545756,36.1700763 19.9200011,36.167904 19.6854267,36.0462731 C19.4508523,35.9246422 19.333565,35.7161315 19.333565,35.4207412 Z M19.489948,37.3624964 L20.5585649,37.3624964 L20.5585649,43.8263255 L19.489948,43.8263255 L19.489948,37.3624964 Z M22.1050187,37.3885602 L23.2778909,37.3885602 L24.320444,39.9037195 L25.4151247,42.692549 L26.4967736,39.9167514 L27.5393266,37.3885602 L28.7121989,37.3885602 L26.0015608,43.8393574 L24.8286886,43.8393574 L22.1050187,37.3885602 Z M30.1022697,35.4207412 C30.1022697,35.1253509 30.2195569,34.9190126 30.4541313,34.8017253 C30.6887058,34.6844381 30.9232802,34.6866104 31.1578547,34.8082413 C31.3924291,34.9298722 31.5097163,35.1383828 31.5097163,35.4337731 C31.5097163,35.7291635 31.3924291,35.9355018 31.1578547,36.052789 C30.9232802,36.1700763 30.6887058,36.167904 30.4541313,36.0462731 C30.2195569,35.9246422 30.1022697,35.7161315 30.1022697,35.4207412 Z M30.2586526,37.3624964 L31.3272695,37.3624964 L31.3272695,43.8263255 L30.2586526,43.8263255 L30.2586526,37.3624964 Z M37.6434037,38.8090388 L37.6303718,38.8220707 C37.1699107,38.4050494 36.566099,38.1965388 35.8189358,38.1965388 C35.3497869,38.187851 34.9653454,38.2660425 34.6656114,38.4311133 C34.3658774,38.5961841 34.2203543,38.8307585 34.2290423,39.1348366 C34.2377311,39.6474253 34.7720396,39.964535 35.8319677,40.0861663 C36.1360458,40.1209744 36.385824,40.1557261 36.5813027,40.1904216 C36.7767814,40.2251733 37.0135277,40.288161 37.291542,40.3793844 C37.5695658,40.4706078 37.7889365,40.581379 37.9496537,40.7116982 C38.1104022,40.8420173 38.2515814,41.022292 38.3731908,41.2525226 C38.4948679,41.4827531 38.5513397,41.7499073 38.5426057,42.0539853 C38.5339179,42.6708293 38.2732796,43.1464942 37.7606909,43.4809798 C37.2481022,43.8154657 36.6095384,43.9827085 35.8449996,43.9827085 C34.5678717,43.9827085 33.6078542,43.5787192 32.9649467,42.7707405 L33.5774466,42.0279214 C34.116099,42.6882051 34.880638,43.0183469 35.8710634,43.0183469 C36.2967725,43.0183469 36.6725261,42.9401554 36.998324,42.7837724 C37.3241218,42.6273895 37.4913648,42.3710953 37.5000526,42.0148895 C37.5087404,41.6934356 37.3632175,41.4588611 37.0634835,41.3111662 C36.7637495,41.1634712 36.3315245,41.0548718 35.7668081,40.9853683 C35.4019145,40.9419287 35.0891486,40.8854569 34.8285103,40.8159535 C34.5678721,40.74645 34.3028899,40.6465386 34.0335636,40.5162195 C33.7642375,40.3859003 33.5578988,40.2056254 33.4145477,39.975395 C33.2711967,39.7451647 33.1995211,39.4649786 33.1995211,39.1348366 C33.1995211,38.7004394 33.3341844,38.3355458 33.6035105,38.0401559 C33.8728365,37.744766 34.1964625,37.5362553 34.574388,37.414624 C34.9523135,37.292943 35.3628188,37.2364712 35.8059039,37.2452091 C36.8050171,37.2452091 37.621684,37.5319112 38.2559036,38.1053154 L37.6434037,38.8090388 Z M40.0629956,35.4207412 C40.0629956,35.1253509 40.1802829,34.9190126 40.4148573,34.8017253 C40.6494318,34.6844381 40.8840062,34.6866104 41.1185807,34.8082413 C41.3531551,34.9298722 41.4704423,35.1383828 41.4704423,35.4337731 C41.4704423,35.7291635 41.3531551,35.9355018 41.1185807,36.052789 C40.8840062,36.1700763 40.6494318,36.167904 40.4148573,36.0462731 C40.1802829,35.9246422 40.0629956,35.7161315 40.0629956,35.4207412 Z M40.2193786,37.3624964 L41.2879955,37.3624964 L41.2879955,43.8263255 L40.2193786,43.8263255 L40.2193786,37.3624964 Z M45.7535979,36.3069114 L46.7049276,34.703986 L48.008119,34.703986 L48.008119,34.7430817 L46.7179595,36.3720709 L45.7535979,36.3720709 L45.7535979,36.3069114 Z M49.6501401,40.6204748 C49.6501401,41.5935242 49.3417179,42.390643 48.7248742,43.0118309 C48.1080302,43.6330189 47.3174276,43.9436127 46.353066,43.9436127 C45.3887044,43.9436127 44.5981015,43.6330189 43.9812577,43.0118309 C43.3644138,42.3906432 43.0559918,41.5935244 43.0559918,40.6204748 C43.0559918,39.6474253 43.3665857,38.8459627 43.9877736,38.2160867 C44.6089616,37.5862107 45.3973922,37.271273 46.353066,37.271273 C47.3087398,37.271273 48.0993424,37.5862107 48.7248742,38.2160867 C49.3504061,38.8459627 49.663172,39.6474253 49.663172,40.6204748 L49.6501401,40.6204748 Z M44.1246087,40.6204748 C44.1246087,41.2981343 44.3331193,41.8541627 44.7501406,42.2885597 C45.1671618,42.7229568 45.7058142,42.9401554 46.3660979,42.9401554 C47.0263814,42.9401558 47.5650339,42.7229574 47.9820552,42.2885597 C48.3990764,41.8541627 48.607587,41.2981343 48.607587,40.6204748 C48.607587,39.9428153 48.3947323,39.3780989 47.9690233,38.926326 C47.5433142,38.4745531 47.0133495,38.2486665 46.3791298,38.2486665 C45.7275341,38.2486665 45.1910536,38.4723809 44.7696885,38.91981 C44.3483233,39.3672392 44.1376406,39.9341274 44.1376406,40.6204748 L44.1246087,40.6204748 Z M51.4181364,37.3755283 L52.3955299,37.3755283 L52.4476576,38.4050494 C52.9949979,37.6578863 53.7291292,37.2843049 54.650051,37.2843049 C55.4840934,37.2843049 56.1639248,37.5514591 56.6895455,38.0857676 C57.2151657,38.620076 57.4779762,39.3476913 57.4779762,40.2686131 L57.4779762,43.8263255 L56.4093593,43.8263255 L56.4093593,40.281645 C56.4093593,39.6561132 56.2356003,39.1652445 55.8880828,38.8090388 C55.5405604,38.452833 55.0627237,38.2747303 54.4545723,38.2747303 C53.8724787,38.2834289 53.3968138,38.4875954 53.0275777,38.8872303 C52.6583402,39.2868755 52.4737214,39.7820882 52.4737214,40.3728684 L52.4737214,43.8263255 L51.4181364,43.8263255 L51.4181364,37.3755283 Z M63.3466813,43.8263255 L63.3466813,34.703986 L69.7583828,34.703986 L69.7583828,35.7465391 L64.4674259,35.7465391 L64.4674259,38.6005282 L69.5368403,38.6005282 L69.5368403,39.6561132 L64.4674259,39.6561132 L64.4674259,42.7446767 L69.9668935,42.7446767 L69.9668935,43.8263255 L63.3466813,43.8263255 Z M78.0032402,34.703986 L78.0162721,34.6909541 L78.0162721,43.8132936 L77.0128148,43.8132936 L76.9606871,42.6404214 C76.7087366,43.0661306 76.367735,43.3897564 75.9376819,43.6112989 C75.5076287,43.8328415 75.0449958,43.9436127 74.5497831,43.9436127 C73.6027971,43.9436127 72.8230543,43.6460508 72.2105546,43.0509267 C71.5980546,42.4558019 71.2918047,41.6413073 71.2918047,40.6074429 C71.2918047,39.556202 71.5958828,38.7373632 72.2040386,38.1509271 C72.8121947,37.564491 73.5897656,37.271273 74.5367512,37.271273 C75.0232761,37.271273 75.492425,37.3820442 75.9441978,37.6035868 C76.3959707,37.8251293 76.7304568,38.1444112 76.9476552,38.5614324 L76.9476552,34.703986 L78.0032402,34.703986 Z M74.621455,38.2617053 C73.9727706,38.2630778 73.4341193,38.4694143 73.0055013,38.8807143 C72.5754482,39.2933914 72.3604216,39.8646238 72.3604216,40.5944109 C72.3604216,41.3155101 72.5754482,41.8845704 73.0055013,42.3015916 C73.4355545,42.7186129 73.9763789,42.9271235 74.6279746,42.9271235 C75.2795702,42.9271235 75.8225665,42.7099249 76.2569638,42.2755278 C76.691361,41.8411307 76.9085595,41.2764144 76.9085595,40.581379 C76.9085595,39.9037195 76.6891888,39.3476913 76.2504478,38.9132941 C75.8131709,38.4803464 75.2701755,38.2631504 74.6214621,38.2617057 L74.621455,38.2617053 Z M85.1859966,43.8263255 L85.1925125,43.8263255 L85.1403849,42.7968043 C84.5930445,43.5352795 83.8458813,43.913205 82.8988958,43.9305808 C82.0648533,43.9305808 81.3893658,43.6634266 80.8724332,43.1291181 C80.3555005,42.5948097 80.0970343,41.8671944 80.0970343,40.9462726 L80.0970343,37.3885602 L81.1656512,37.3885602 L81.1656512,40.9332407 C81.1656512,41.5587725 81.33941,42.0496414 81.6869278,42.4058469 C82.0344469,42.7620527 82.5122838,42.9401554 83.1204383,42.9401554 C83.7025303,42.9314676 84.1781951,42.7273007 84.5474328,42.3276555 C84.9166705,41.92801 85.1012892,41.4327973 85.1012892,40.8420173 L85.1012892,37.3885602 L86.1699061,37.3885602 L86.1699061,43.8263255 L85.1859966,43.8263255 Z M85.1859966,43.8263255 L85.1794806,43.8263255 L85.1859966,43.8263255 Z M93.7045241,42.9597033 L93.6980082,42.9531873 C93.0377247,43.613471 92.2384339,43.9436127 91.3001361,43.9436127 C90.3444623,43.9436127 89.5451716,43.6460508 88.902264,43.0509267 C88.2593561,42.4558019 87.9379022,41.6413073 87.9379024,40.6074429 C87.9379024,39.5648898 88.2550124,38.7482233 88.889232,38.1574431 C89.5234519,37.5666629 90.3270867,37.271273 91.3001361,37.271273 C92.2036822,37.271273 92.9812529,37.5927267 93.6328486,38.2356346 L92.9551891,38.9393579 C92.512104,38.5049607 91.9691078,38.2877622 91.3261999,38.2877622 C90.6659162,38.2877622 90.116404,38.4984447 89.6776628,38.91981 C89.2389217,39.3411754 89.0195512,39.9037195 89.0195512,40.6074429 C89.0195512,41.328542 89.2389217,41.8954302 89.6776628,42.3081076 C90.116404,42.7207847 90.6615723,42.9271235 91.313168,42.9271235 C91.9908275,42.9271231 92.5511998,42.7012364 92.9942848,42.249464 L93.7045241,42.9597033 Z M93.7045241,42.9597033 L93.7110401,42.9662192 L93.7045241,42.9597033 Z M100.457227,43.8263255 L100.431164,43.8523893 L100.4051,42.6795171 C100.161837,43.1052264 99.8230077,43.4288522 99.3886105,43.6503947 C98.9542132,43.8719372 98.5024403,43.9827085 98.0332914,43.9827085 C97.0863051,43.9827085 96.3000463,43.6764585 95.6745151,43.0639586 C95.0489832,42.4514586 94.7362173,41.6326199 94.7362173,40.6074429 C94.7362173,39.5909536 95.0511553,38.7808031 95.681031,38.176991 C96.3109068,37.5731669 97.0993378,37.2756047 98.0463234,37.2843049 C98.5415361,37.2843049 99.0063409,37.3950761 99.4407381,37.6166187 C99.8751366,37.8381612 100.205279,38.153099 100.431164,38.5614324 L100.444195,37.3885602 L101.486749,37.3885602 L101.486749,43.8263255 L100.457227,43.8263255 Z M98.098451,38.2877622 L98.0854191,38.3007941 C97.4338234,38.3007941 96.886483,38.5158207 96.443398,38.9458739 C96.0003129,39.375927 95.7787704,39.9428153 95.7787704,40.6465386 C95.7787704,41.3502619 96.0003129,41.9193222 96.443398,42.3537193 C96.886483,42.7881169 97.4338234,43.0053154 98.0854191,43.005315 C98.5111281,43.005315 98.8912259,42.9184357 99.2257115,42.7446767 C99.5601972,42.5709173 99.8143195,42.3450307 99.9880785,42.0670172 C100.161837,41.7890031 100.287813,41.4827531 100.366004,41.1482673 C100.444195,40.8137814 100.444195,40.4792956 100.366004,40.1448099 C100.287813,39.8103243 100.161837,39.5040743 99.9880785,39.22606 C99.8143195,38.9480366 99.5623694,38.7221499 99.2322275,38.5484005 C98.9020856,38.3746415 98.5241601,38.2877622 98.098451,38.2877622 Z M105.47017,35.5119646 L105.47017,37.4015921 L107.464053,37.4015921 L107.464053,38.3138261 L105.457138,38.3138261 L105.457138,41.7151555 C105.457138,42.5405102 105.795968,42.9531875 106.473628,42.9531873 C106.76033,42.9531873 107.060064,42.8749958 107.37283,42.7186129 L107.685595,43.604783 C107.251198,43.8046056 106.834177,43.9088609 106.434532,43.9175489 C105.079213,43.9436127 104.401553,43.2094815 104.401553,41.7151555 L104.401553,38.3138261 L103.111394,38.3138261 L103.111394,37.4015921 L104.401553,37.4015921 L104.401553,35.6292518 L105.47017,35.5119646 Z M108.893219,35.4207412 C108.893219,35.1253509 109.010507,34.9190126 109.245081,34.8017253 C109.479656,34.6844381 109.71423,34.6866104 109.948804,34.8082413 C110.183379,34.9298722 110.300666,35.1383828 110.300666,35.4337731 C110.300666,35.7291635 110.183379,35.9355018 109.948804,36.052789 C109.71423,36.1700763 109.479656,36.167904 109.245081,36.0462731 C109.010507,35.9246422 108.893219,35.7161315 108.893219,35.4207412 Z M109.049602,37.3624964 L110.118219,37.3624964 L110.118219,43.8263255 L109.049602,43.8263255 L109.049602,37.3624964 Z M111.664673,37.3885602 L112.837545,37.3885602 L113.880098,39.9037195 L114.974779,42.692549 L116.056428,39.9167514 L117.098981,37.3885602 L118.271853,37.3885602 L115.561215,43.8393574 L114.388343,43.8393574 L111.664673,37.3885602 Z M125.135328,43.8263255 L125.109264,43.8523893 L125.0832,42.6795171 C124.839938,43.1052264 124.501108,43.4288522 124.066711,43.6503947 C123.632314,43.8719372 123.180541,43.9827085 122.711392,43.9827085 C121.764406,43.9827085 120.978147,43.6764585 120.352616,43.0639586 C119.727084,42.4514586 119.414318,41.6326199 119.414318,40.6074429 C119.414318,39.5909536 119.729256,38.7808031 120.359131,38.176991 C120.989007,37.5731669 121.777438,37.2756047 122.724424,37.2843049 C123.219637,37.2843049 123.684441,37.3950761 124.118839,37.6166187 C124.553237,37.8381612 124.883379,38.153099 125.109264,38.5614324 L125.122296,37.3885602 L126.164849,37.3885602 L126.164849,43.8263255 L125.135328,43.8263255 Z M122.776551,38.2877622 L122.76352,38.3007941 C122.111924,38.3007941 121.564583,38.5158207 121.121498,38.9458739 C120.678413,39.375927 120.456871,39.9428153 120.456871,40.6465386 C120.456871,41.3502619 120.678413,41.9193222 121.121498,42.3537193 C121.564583,42.7881169 122.111924,43.0053154 122.76352,43.005315 C123.189229,43.005315 123.569326,42.9184357 123.903812,42.7446767 C124.238298,42.5709173 124.49242,42.3450307 124.666179,42.0670172 C124.839938,41.7890031 124.965913,41.4827531 125.044104,41.1482673 C125.122296,40.8137814 125.122296,40.4792956 125.044104,40.1448099 C124.965913,39.8103243 124.839938,39.5040743 124.666179,39.22606 C124.49242,38.9480366 124.24047,38.7221499 123.910328,38.5484005 C123.580186,38.3746415 123.202261,38.2877622 122.776551,38.2877622 Z" id="División-Educativa" fill="url(#linearGradient-1)"></path>
            </g>
        </g>
    </g>
</svg>