<?xml version="1.0" encoding="UTF-8"?>
<svg width="108px" height="44px" viewBox="0 0 108 44" version="1.1" xmlns="http://www.w3.org/2000/svg" xmlns:xlink="http://www.w3.org/1999/xlink">
    <!-- Generator: Sketch 48.2 (47327) - http://www.bohemiancoding.com/sketch -->
    <title>logo-minamata</title>
    <desc>Created with Sketch.</desc>
    <defs></defs>
    <g id="Escuelas-libres-de-mercurio-v2" stroke="none" stroke-width="1" fill="none" fill-rule="evenodd" transform="translate(-356.000000, -3026.000000)">
        <g id="4---avanzados-al-convenio-minamata" transform="translate(0.000000, 2463.000000)">
            <g id="logo-minamata" transform="translate(356.535022, 563.713379)">
                <polygon id="Fill-1" fill="#009EE2" points="0 43.0689916 107.394306 43.0689916 107.394306 -3.55271368e-15 0 -3.55271368e-15"></polygon>
                <g id="Group-18" transform="translate(5.982220, 5.680118)" fill="#FEFEFE">
                    <path d="M3.26778758,12.8477144 C2.50655011,11.9085059 1.99955698,10.9962174 1.99955698,10.1078577 C1.99955698,9.34662026 2.10125471,8.9667493 2.32857907,8.66165609 C2.50655011,9.5245913 2.70994558,10.1078577 3.03896767,10.6402753 C3.31863645,11.0709951 3.80020515,11.857657 3.87647845,12.442419 C4.00360062,11.1981173 4.33262271,10.3112532 5.32268009,9.27034696 C5.32268009,10.564002 5.32268009,11.2743906 4.81568696,12.1881747 C4.48516932,12.7968655 4.40889601,13.380132 4.40889601,14.2684916 L4.33262271,14.2684916 L3.26778758,12.8477144 Z M4.63771592,16.5013552 C2.83706775,15.6892688 2.17752802,14.7246359 2.17752802,12.442419 L2.25230577,12.442419 C2.91334106,13.8617007 4.10529836,15.4096001 5.24640679,15.7909666 C4.89196026,14.4210382 4.96673801,13.6343763 5.32268009,12.442419 C5.93137096,13.3038587 6.0330687,14.0905206 6.0330687,15.1314268 C6.0330687,15.8926643 6.0330687,16.754104 6.56548626,17.2625926 L6.48921296,17.3388659 L4.63771592,16.5013552 Z M4.00360062,4.47559776 L4.07987392,4.55187107 C3.67308297,5.97264828 3.52203192,7.13918114 3.80020515,8.63623165 C4.28177384,7.49512322 5.32268009,6.78473462 6.109342,6.37794367 C5.93137096,7.44427435 5.6277733,7.97669192 4.73941366,8.86505156 C4.23092497,9.37204469 3.80020515,9.85361339 3.59830523,10.6402753 L3.52203192,10.6402753 C3.03896767,8.9667493 2.78621888,8.23093626 2.78621888,7.21545445 C2.78621888,6.19997263 3.26778758,5.16056193 4.00360062,4.47559776 Z M3.19151428,16.374233 L3.26778758,16.2979597 C4.07987392,17.0846216 4.81568696,17.5407659 6.0330687,17.667888 C6.56548626,17.7441613 7.47927034,18.1255279 7.96083904,18.3528522 C7.14875269,17.6424636 6.8197306,16.2725353 6.8197306,15.1314268 C7.40299704,15.63842 8.18965894,16.5013552 8.34220555,17.2625926 C8.4169833,17.667888 8.92547198,18.4545499 9.55958728,18.783572 C8.74750094,18.9869675 8.18965894,19.0378164 7.32672373,19.0378164 C5.4752267,19.0378164 3.74935628,18.1494567 3.19151428,16.374233 Z M4.40889601,5.92179941 C4.58686705,4.88238871 4.76483809,4.22284898 5.06843575,3.71436029 C5.52607557,2.92769838 6.109342,2.14103648 6.89600391,1.81201439 L6.97227721,1.88828769 C6.2618886,2.92769838 5.80424879,3.84148246 5.52607557,4.95716646 C6.1856153,4.47559776 7.40299704,4.22284898 8.06253677,4.12115124 C7.73201913,4.67899324 7.07247939,5.18598637 6.0330687,5.66755506 C5.39895339,5.97264828 4.99216245,6.25231705 4.28177384,6.96270566 L4.23092497,6.8849368 L4.40889601,5.92179941 Z M10.6752713,21.5249243 C11.5636309,20.6874135 12.4519906,20.0787226 13.4914013,19.6465072 C11.5127821,19.748205 10.5227247,20.6111402 8.69665207,20.6111402 C7.782868,20.6111402 6.5909107,20.3568959 5.93137096,19.7227805 L6.00764426,19.6465072 C6.36358634,19.748205 6.667184,19.748205 6.97227721,19.748205 C7.96083904,19.748205 9.81383163,18.9869675 11.2585377,18.9869675 C12.4519906,18.9869675 13.1878036,19.1140897 14.2017899,19.4954562 C15.1918473,19.1140897 15.9770136,18.9869675 17.1196176,18.9869675 C18.5658192,18.9869675 20.4173163,19.748205 21.4073737,19.748205 C21.7618202,19.748205 22.041489,19.748205 22.370511,19.6465072 L22.4467843,19.7227805 C21.7872446,20.3568959 20.5952873,20.6111402 19.6815032,20.6111402 C17.9062795,20.6111402 16.8907977,19.748205 14.886754,19.6465072 C15.9276603,20.0787226 16.8145244,20.6874135 17.702884,21.5249243 L16.967071,21.5249243 C16.1549846,20.5348669 14.7850563,19.8244783 14.2017899,19.8244783 C13.6439479,19.8244783 12.2231707,20.5348669 11.2585377,21.5249243 L10.6752713,21.5249243 Z M7.04855051,3.08024499 C7.65724138,1.88828769 8.77292538,0.669410399 10.4225225,0.518359348 C9.73755832,1.48149674 9.07801859,2.1171076 8.21508338,2.7512229 C8.74750094,2.59867629 9.22906964,2.47155412 9.63586059,2.47155412 C9.96488268,2.47155412 10.3462492,2.54782742 10.6752713,2.6749496 C9.96488268,3.18194273 8.97632085,3.43618707 8.44390329,3.43618707 C7.9354146,3.43618707 7.14875269,3.63808699 6.61633513,3.79063359 L7.04855051,3.08024499 Z M12.7047394,10.1078577 C13.3388547,10.184131 13.9744655,10.9453685 13.9744655,12.7205922 C13.9744655,15.6892688 13.0861059,17.667888 12.6793149,17.667888 C11.9689263,17.667888 7.63181695,15.9435132 7.63181695,11.0709951 C7.63181695,9.77883564 7.88456573,9.55001573 8.29135668,9.62628904 L12.7047394,10.1078577 Z M8.36762998,9.19407365 C8.11338564,9.21949809 8.03711234,9.04152705 8.03711234,8.94132487 C8.03711234,8.66165609 9.78840719,4.55187107 14.3034876,4.55187107 C18.818568,4.55187107 20.5698629,8.66165609 20.5698629,8.94132487 C20.5698629,9.04152705 20.4935896,9.21949809 20.2393452,9.19407365 L14.557732,8.30720956 L14.557732,8.23093626 C14.9630273,8.07838966 15.1664228,7.74936756 15.1664228,7.29172775 C15.1664228,6.78473462 14.886754,6.37794367 14.3034876,6.37794367 C13.7202212,6.37794367 13.4405524,6.78473462 13.4405524,7.29172775 C13.4405524,7.74936756 13.6439479,8.07838966 14.0492433,8.23093626 L14.0492433,8.30720956 L8.36762998,9.19407365 Z M9.88860938,1.98998543 L9.63586059,1.98998543 L9.63586059,1.91371212 L10.3462492,1.43214343 C11.1583355,0.747179256 11.741602,0.518359348 12.4519906,0.518359348 C12.8064371,0.518359348 13.0861059,0.594632651 13.3642791,0.747179256 L13.3642791,0.821957004 C12.5536883,0.949079176 11.7924508,1.15247465 11.0057889,1.55777004 C11.9689263,1.71031665 12.3248684,1.81201439 13.1623792,2.34443195 C12.9589837,2.39528082 12.7047394,2.47155412 12.4519906,2.47155412 C11.4873576,2.47155412 11.0312134,2.04083429 9.88860938,1.98998543 Z M16.2312579,1.55777004 C15.6988404,1.55777004 15.0393006,1.63404335 14.4560342,1.78658995 L14.4560342,1.86286325 C14.9630273,1.98998543 15.3683227,2.39528082 15.6479915,2.85142508 C14.708783,2.6749496 13.7456456,2.21880533 13.1623792,1.48149674 C13.6693723,1.30502126 14.328912,1.02535248 14.9630273,1.02535248 C15.3683227,1.02535248 15.9022359,1.10162578 16.2312579,1.55777004 Z M20.3156185,9.62628904 C20.7224095,9.55001573 20.9751583,9.77883564 20.9751583,11.0709951 C20.9751583,15.9435132 16.6380489,17.667888 15.9276603,17.667888 C15.5208693,17.667888 14.6325097,15.6892688 14.6325097,12.7205922 C14.6325097,10.9453685 15.2681206,10.184131 15.9022359,10.1078577 L20.3156185,9.62628904 Z M16.6380489,2.92769838 C16.3838046,2.82600065 16.2312579,2.44612969 16.0787113,2.06625873 C16.9416466,2.21880533 17.524913,2.59867629 17.7791573,3.35991377 L16.6380489,2.92769838 Z M19.2762078,19.0378164 L18.9711146,19.0378164 L18.9711146,18.9869675 C19.6052299,18.632521 19.7577765,18.2003056 19.9357476,17.8712835 C20.4427407,16.9066506 21.0514316,15.9689376 21.8889423,15.5367222 C21.7109713,16.2979597 21.4582225,17.7441613 20.4427407,18.4545499 L20.519014,18.5308232 C22.3450866,18.1255279 23.7912883,17.489917 25.3391876,16.2216864 L25.4154609,16.2979597 C24.6542235,18.3782766 22.6756043,19.2412119 21.3819492,19.2412119 C20.9751583,19.2412119 20.341043,19.0378164 19.2762078,19.0378164 Z M19.4781078,1.02535248 C20.4427407,1.02535248 21.3565248,1.43214343 21.7109713,2.34443195 C20.9243094,2.1933809 20.2393452,1.86286325 19.7577765,1.33044569 L19.4781078,1.02535248 Z M22.599331,3.00397169 L22.6756043,2.92769838 C22.370511,2.54782742 21.8889423,1.81201439 21.8889423,1.63404335 C23.0808996,1.98998543 23.4622662,2.85142508 23.5385395,3.96860463 C22.1177623,3.66351142 21.2294026,3.25821603 20.7971872,2.39528082 L22.599331,3.00397169 Z M23.5385395,12.5171968 C23.6133172,12.9748366 23.7912883,13.7614985 23.7912883,14.2684916 C23.7912883,14.9280314 23.6133172,15.63842 23.2842951,16.1708375 L23.335144,16.2216864 C24.7050723,15.2570534 25.4917342,14.115945 26.3800939,12.7968655 L26.4548716,12.8477144 C26.2021228,14.8517581 25.3391876,16.5013552 22.1671156,17.4136437 C22.4976332,16.754104 22.4976332,16.0437154 22.4976332,15.5367222 C22.4976332,14.4210382 22.7518776,13.558103 23.5385395,12.5171968 Z M25.0849433,7.11375671 C23.8167127,6.45421697 22.9044242,5.49107958 22.2433889,4.19592899 L22.3211577,4.12115124 C22.6756043,4.29762672 24.1218059,5.00801533 24.2997769,5.33853297 L24.3760502,5.26225967 C24.1218059,4.88238871 24.0455326,3.63808699 24.0455326,3.35991377 C24.9084678,4.12115124 25.2374899,5.16056193 25.2374899,6.25231705 C25.2374899,6.53049027 25.186641,6.81015905 25.0849433,7.11375671 Z M25.2374899,10.386031 C25.0849433,9.77883564 24.9084678,9.448318 24.450828,9.01610261 C24.1218059,8.58538279 23.715015,7.62224539 23.5385395,6.60676358 L23.6133172,6.53049027 C23.715015,6.78473462 23.9692593,7.03748341 24.5779502,7.57139652 C24.8321945,7.82414531 25.1612166,8.332634 25.186641,8.73792939 L25.2629143,8.73792939 L25.7205541,5.8455261 L25.7968275,5.8455261 C26.0241518,6.37794367 26.2021228,7.03748341 26.2021228,7.57139652 C26.2021228,8.332634 25.6697053,9.77883564 25.2374899,10.386031 Z M23.9692593,9.37204469 C24.450828,10.1078577 24.9084678,11.0709951 24.9338922,12.1119014 L25.0101655,12.1119014 C25.0849433,11.6049082 25.2374899,11.148764 25.6188564,10.8182463 C25.8716052,10.564002 26.4548716,9.5245913 26.6328427,9.19407365 L26.709116,9.19407365 C26.9887848,10.8690952 26.0495762,12.5680456 24.5779502,14.1667939 C24.6033746,12.9748366 23.715015,10.9962174 23.715015,10.3112532 C23.715015,9.98073556 23.8167127,9.5245913 23.9692593,9.37204469 Z" id="Fill-2"></path>
                    <path d="M3.86376623,23.7444774 L3.86376623,23.9418906 C3.45547973,23.9688106 3.1907665,24.0376062 3.0711221,24.1467817 C2.94998215,24.2544616 2.8886644,24.5042193 2.8886644,24.8960547 L2.8886644,28.29246 C2.8886644,28.850302 2.9649377,29.2840129 3.11598875,29.5950884 C3.40014419,30.1619037 3.93854398,30.4445636 4.72969255,30.4445636 C5.59860998,30.4445636 6.18038086,30.1544259 6.4779963,29.5726551 C6.6440029,29.2481196 6.72775397,28.7471087 6.72775397,28.0696223 L6.72775397,25.3043412 C6.72775397,24.7285525 6.65746289,24.3666282 6.51837628,24.2185683 C6.38078522,24.0720039 6.11756755,23.9792795 5.73171437,23.9418906 L5.73171437,23.7444774 L8.18891117,23.7444774 L8.18891117,23.9418906 C7.77763355,23.9867573 7.50992922,24.0854639 7.38280704,24.2395061 C7.25718043,24.3935482 7.19436712,24.7479948 7.19436712,25.3043412 L7.19436712,28.0696223 C7.19436712,28.8024442 7.08070494,29.3752418 6.8563717,29.7865194 C6.44210298,30.5432702 5.65244996,30.9216456 4.49189931,30.9216456 C3.34331311,30.9216456 2.56263342,30.5492524 2.14686914,29.801475 C1.9225359,29.4006662 1.81036928,28.8712398 1.81036928,28.2146912 L1.81036928,24.8960547 C1.81036928,24.508706 1.75054708,24.2604438 1.63090268,24.1512683 C1.51125828,24.0420928 1.25103172,23.9718017 0.850222993,23.9418906 L0.850222993,23.7444774 L3.86376623,23.7444774 Z" id="Fill-4"></path>
                    <path d="M8.49490171,30.5745273 C8.93459487,30.5296607 9.2157592,30.430954 9.33989026,30.2769119 C9.46402132,30.1228697 9.52683463,29.7654321 9.52683463,29.2060945 L9.52683463,24.5265031 L9.3817658,24.3560098 C9.22622808,24.1735521 9.09461925,24.0598899 8.98544374,24.0165188 C8.87626822,23.9731477 8.71325273,23.9477233 8.49490171,23.9417411 L8.49490171,23.7443278 L10.3075143,23.7443278 L14.408326,28.8262236 L14.408326,25.2967139 C14.408326,24.7164386 14.3215838,24.3380631 14.1480994,24.1630832 C14.0344373,24.049421 13.7816885,23.9761388 13.3913486,23.9417411 L13.3913486,23.7443278 L15.8859343,23.7443278 L15.8859343,23.9417411 C15.4806389,23.9821211 15.211439,24.0808277 15.0768391,24.2363654 C14.9422391,24.3919031 14.8749392,24.7478452 14.8749392,25.3056872 L14.8749392,30.8960716 L14.6924815,30.8960716 L9.99344778,25.0723806 L9.99344778,29.2060945 C9.99344778,29.7878654 10.0786944,30.1662408 10.2476921,30.3412207 C10.3583632,30.4548829 10.6066253,30.5326518 10.9894874,30.5745273 L10.9894874,30.7719406 L8.49490171,30.7719406 L8.49490171,30.5745273 Z" id="Fill-6"></path>
                    <path d="M16.1656031,30.5745273 C16.5559429,30.5341473 16.8101873,30.4638562 16.925345,30.3651496 C17.0405027,30.2679386 17.1003249,30.0196764 17.1003249,29.6203633 L17.1003249,24.8959051 C17.1003249,24.5190253 17.0419983,24.2722587 16.9283361,24.1556054 C16.8146739,24.0404477 16.5604296,23.9686611 16.1656031,23.9417411 L16.1656031,23.7443278 L21.8083319,23.7443278 L21.8442253,25.2638117 L21.5750254,25.2638117 C21.4852921,24.795703 21.3506921,24.4936009 21.1712255,24.3545143 C20.9917589,24.2184187 20.5894546,24.1496232 19.9673038,24.1496232 L18.5211021,24.1496232 C18.3655644,24.1496232 18.2698489,24.1735521 18.23246,24.224401 C18.1965667,24.2737543 18.1786201,24.3679742 18.1786201,24.5070609 L18.1786201,26.8760199 L19.8162527,26.8760199 C20.2694059,26.8760199 20.5595435,26.8102155 20.6836746,26.6756155 C20.8078057,26.5410156 20.9080079,26.2703202 20.9842812,25.8605381 L21.2325433,25.8605381 L21.2325433,28.3132482 L20.9842812,28.3132482 C20.9035212,27.9019706 20.803319,27.6297796 20.6776924,27.4966752 C20.5535613,27.3635708 20.2664148,27.2977664 19.8162527,27.2977664 L18.1786201,27.2977664 L18.1786201,29.9254565 C18.1786201,30.1378253 18.2444245,30.2619563 18.3775289,30.2993452 C18.5106333,30.3382296 18.9099464,30.3561763 19.5754684,30.3561763 C20.2963259,30.3561763 20.8272479,30.2784074 21.16973,30.1213742 C21.5122121,29.9628453 21.8202964,29.5814788 22.0939829,28.9772746 L22.3901028,28.9772746 L21.9070386,30.7719406 L16.1656031,30.7719406 L16.1656031,30.5745273 Z" id="Fill-8"></path>
                    <path d="M26.2897624,24.3352216 C25.9891558,24.2036128 25.6077893,24.1378083 25.1486539,24.1378083 C24.9303029,24.1378083 24.7971985,24.1602417 24.7463496,24.2036128 C24.6969963,24.2454883 24.6715719,24.3426994 24.6715719,24.4907593 L24.6715719,27.2605271 C24.8615074,27.2784737 24.9856384,27.2889426 25.0439651,27.2919337 C25.1037873,27.2949249 25.1606184,27.2964204 25.2159539,27.2964204 C25.7035048,27.2964204 26.0878624,27.2276249 26.3675312,27.0900338 C26.8760199,26.837285 27.1302643,26.3646897 27.1302643,25.6737433 C27.1302643,25.0231769 26.8505955,24.5775015 26.2897624,24.3352216 Z M22.7064127,30.5746769 C23.1102125,30.5357924 23.3629613,30.456528 23.4631635,30.3338925 C23.5633657,30.2127526 23.612719,29.9330838 23.612719,29.4963817 L23.612719,24.8960547 C23.612719,24.5251571 23.5573835,24.2813816 23.4452168,24.1647283 C23.3330502,24.0465795 23.0862836,23.9718017 22.7064127,23.9418906 L22.7064127,23.7444774 L25.5075871,23.7444774 C26.4049201,23.7444774 27.0943709,23.9194573 27.5699574,24.2679216 C28.048535,24.6163859 28.2863282,25.0770169 28.2863282,25.6468233 C28.2863282,26.3706719 28.021615,26.8941161 27.4936841,27.2186515 C26.9642577,27.5446825 26.3017268,27.7062025 25.5075871,27.7062025 C25.3924294,27.7062025 25.245865,27.7032114 25.067894,27.6987247 C24.8899229,27.694238 24.7583141,27.6912469 24.6715719,27.6912469 L24.6715719,29.6205128 C24.6715719,30.019826 24.7328897,30.2695837 24.8555252,30.3742725 C24.9781607,30.4759702 25.2533428,30.5432702 25.6780804,30.5746769 L25.6780804,30.7720901 L22.7064127,30.7720901 L22.7064127,30.5746769 Z" id="Fill-10"></path>
                    <path d="M38.7448936,31.2047542 C40.5948951,31.2047542 41.4069814,29.8961436 41.4069814,27.0201914 C41.4069814,24.1427437 40.5948951,22.8341331 38.7448936,22.8341331 C36.8948921,22.8341331 36.0828058,24.1427437 36.0828058,27.0201914 C36.0828058,29.8961436 36.8948921,31.2047542 38.7448936,31.2047542 Z M38.7448936,30.234139 C37.9776739,30.234139 37.368983,29.7600481 37.368983,26.9857936 C37.368983,24.2788392 37.9776739,23.8047482 38.7448936,23.8047482 C39.5121133,23.8047482 40.1208042,24.2788392 40.1208042,26.9857936 C40.1208042,29.7600481 39.5121133,30.234139 38.7448936,30.234139 Z M42.715592,31.0462254 L43.9344693,31.0462254 L43.9344693,24.88753 L43.9569026,24.88753 L46.2914639,31.0462254 L47.8603011,31.0462254 L47.8603011,22.9926619 L46.6414238,22.9926619 L46.6414238,28.9943239 L46.6189904,28.9943239 L44.2844292,22.9926619 L42.715592,22.9926619 L42.715592,31.0462254 Z M52.2362949,31.0462254 L53.4551722,31.0462254 L53.4551722,24.3461391 L53.4776055,24.3461391 L55.1017782,31.0462254 L56.18456,31.0462254 L57.8102282,24.3461391 L57.8326615,24.3461391 L57.8326615,31.0462254 L59.0500433,31.0462254 L59.0500433,22.9926619 L57.0878751,22.9926619 L55.6880357,28.9599262 L55.6656024,28.9599262 L54.2448252,22.9926619 L52.2362949,22.9926619 L52.2362949,31.0462254 Z M60.5500849,31.0462254 L64.9948742,31.0462254 L64.9948742,29.9634436 L61.8362621,29.9634436 L61.8362621,27.391089 L64.7241788,27.391089 L64.7241788,26.3083072 L61.8362621,26.3083072 L61.8362621,24.0754437 L64.9051409,24.0754437 L64.9051409,22.9926619 L60.5500849,22.9926619 L60.5500849,31.0462254 Z M66.1464515,31.0462254 L67.4326288,31.0462254 L67.4326288,27.5496179 L68.4810128,27.5496179 C69.3603991,27.5496179 69.6310946,27.9324799 69.6550235,28.8133618 C69.6774568,29.3996193 69.6654923,29.8512769 69.710359,30.3358367 C69.7447567,30.6513988 69.8015878,30.899661 69.9257189,31.0462254 L71.3808939,31.0462254 C71.2118962,30.9340587 71.0189696,30.7426277 70.9965362,30.3478012 C70.9741029,29.8617458 70.963634,29.2306216 70.9516696,28.7116641 C70.9068029,27.5840156 70.4895431,27.1428269 69.6879257,27.0650581 L69.6879257,27.0426247 C70.5688075,26.9065292 71.030934,26.1064073 71.030934,25.0684922 C71.030934,23.5564861 70.1171499,22.9926619 68.9895015,22.9926619 L66.1464515,22.9926619 L66.1464515,31.0462254 Z M67.4326288,26.5790027 L67.4326288,23.9617815 L68.5258795,23.9617815 C69.3723636,23.9617815 69.7447567,24.4134391 69.7447567,25.2703921 C69.7447567,26.0824784 69.2826303,26.5790027 68.4585795,26.5790027 L67.4326288,26.5790027 Z M76.0395476,28.1583087 L76.0395476,28.2944042 C76.0395476,29.0391906 75.9154165,30.234139 74.8431036,30.234139 C73.8964173,30.234139 73.467193,29.5805815 73.467193,26.9857936 C73.467193,24.3910058 73.8964173,23.8047482 74.8431036,23.8047482 C75.7688521,23.7703505 75.9946809,24.6273035 75.9946809,25.3720898 L75.9946809,25.5081853 L77.2808582,25.5081853 L77.2808582,25.361621 C77.2808582,24.5271013 77.1447627,22.8341331 74.855068,22.8341331 C72.8136355,22.8341331 72.1810158,24.1427437 72.1810158,27.0201914 C72.1810158,29.8961436 72.8136355,31.2047542 74.8431036,31.2047542 C76.7379717,31.2047542 77.3257248,29.783977 77.3257248,28.328802 L77.3257248,28.1583087 L76.0395476,28.1583087 Z M78.2948444,22.9926619 L78.2948444,28.6667974 C78.2948444,30.5272678 79.220593,31.2047542 80.7655012,31.2047542 C82.2999406,31.2047542 83.2256891,30.5272678 83.2256891,28.6667974 L83.2256891,22.9926619 L81.9395119,22.9926619 L81.9395119,28.7684952 C81.9395119,29.783977 81.5327209,30.234139 80.7655012,30.234139 C79.9878126,30.234139 79.5810217,29.783977 79.5810217,28.7684952 L79.5810217,22.9926619 L78.2948444,22.9926619 Z M84.624033,31.0462254 L85.9102103,31.0462254 L85.9102103,27.5496179 L86.9585943,27.5496179 C87.8394762,27.5496179 88.1101716,27.9324799 88.1326049,28.8133618 C88.1550383,29.3996193 88.1430738,29.8512769 88.189436,30.3358367 C88.2223382,30.6513988 88.2791693,30.899661 88.4033004,31.0462254 L89.8584754,31.0462254 C89.6894777,30.9340587 89.4980466,30.7426277 89.4741177,30.3478012 C89.4516844,29.8617458 89.4412155,29.2306216 89.4292511,28.7116641 C89.3843844,27.5840156 88.9671246,27.1428269 88.1655072,27.0650581 L88.1655072,27.0426247 C89.046389,26.9065292 89.5085155,26.1064073 89.5085155,25.0684922 C89.5085155,23.5564861 88.5947314,22.9926619 87.467083,22.9926619 L84.624033,22.9926619 L84.624033,31.0462254 Z M85.9102103,26.5790027 L85.9102103,23.9617815 L87.0049565,23.9617815 C87.8499451,23.9617815 88.2223382,24.4134391 88.2223382,25.2703921 C88.2223382,26.0824784 87.7602118,26.5790027 86.936161,26.5790027 L85.9102103,26.5790027 Z M92.0135701,31.0462254 L93.2997473,31.0462254 L93.2997473,27.8995777 L95.4533465,22.9926619 L94.1118337,22.9926619 L92.7239587,26.4668361 L91.3704814,22.9926619 L89.9377398,22.9926619 L92.0135701,27.8995777 L92.0135701,31.0462254 Z" id="Fill-12"></path>
                    <path d="M39.9402907,16.8779359 L39.9402907,17.0140314 C39.9402907,17.7573222 39.8161596,18.9537662 38.7438467,18.9537662 C37.7971604,18.9537662 37.3679362,18.2987131 37.3679362,15.7054208 C37.3679362,13.110633 37.7971604,12.5228799 38.7438467,12.5228799 C39.6695952,12.4899777 39.895424,13.3469307 39.895424,14.091717 L39.895424,14.226317 L41.1816013,14.226317 L41.1816013,14.0797526 C41.1816013,13.2452329 41.0455058,11.5537603 38.7558112,11.5537603 C36.7143786,11.5537603 36.0817589,12.8623709 36.0817589,15.738323 C36.0817589,18.6157708 36.7143786,19.9243814 38.7438467,19.9243814 C40.6402104,19.9243814 41.2264679,18.5021086 41.2264679,17.0469336 L41.2264679,16.8779359 L39.9402907,16.8779359 Z M44.7679421,19.9243814 C46.6179436,19.9243814 47.4315255,18.6157708 47.4315255,15.738323 C47.4315255,12.8623709 46.6179436,11.5537603 44.7679421,11.5537603 C42.9179406,11.5537603 42.1058543,12.8623709 42.1058543,15.738323 C42.1058543,18.6157708 42.9179406,19.9243814 44.7679421,19.9243814 Z M44.7679421,18.9537662 C44.0007224,18.9537662 43.3920315,18.4796753 43.3920315,15.7054208 C43.3920315,12.9969708 44.0007224,12.5228799 44.7679421,12.5228799 C45.5351618,12.5228799 46.1453482,12.9969708 46.1453482,15.7054208 C46.1453482,18.4796753 45.5351618,18.9537662 44.7679421,18.9537662 Z M48.740136,19.7658525 L49.9575178,19.7658525 L49.9575178,13.6056617 L49.9799511,13.6056617 L52.3160079,19.7658525 L53.8833495,19.7658525 L53.8833495,11.7107935 L52.6659678,11.7107935 L52.6659678,17.7124556 L52.6420389,17.7124556 L50.3074776,11.7107935 L48.740136,11.7107935 L48.740136,19.7658525 Z M56.5454374,19.7658525 L58.1815745,19.7658525 L60.2125381,11.7107935 L58.8470964,11.7107935 L57.4038859,18.1416798 L57.379957,18.1416798 L56.0160109,11.7107935 L54.6505692,11.7107935 L56.5454374,19.7658525 Z M60.9797578,19.7658525 L65.4245471,19.7658525 L65.4245471,18.6830707 L62.2644395,18.6830707 L62.2644395,16.1107162 L65.1538517,16.1107162 L65.1538517,15.0279344 L62.2644395,15.0279344 L62.2644395,12.7935753 L65.3333183,12.7935753 L65.3333183,11.7107935 L60.9797578,11.7107935 L60.9797578,19.7658525 Z M66.5746289,19.7658525 L67.7920106,19.7658525 L67.7920106,13.6056617 L67.8159395,13.6056617 L70.1505008,19.7658525 L71.7178424,19.7658525 L71.7178424,11.7107935 L70.5004607,11.7107935 L70.5004607,17.7124556 L70.4780273,17.7124556 L68.1419705,11.7107935 L66.5746289,11.7107935 L66.5746289,19.7658525 Z M74.5384591,19.7658525 L75.8246363,19.7658525 L75.8246363,12.7935753 L77.7090356,12.7935753 L77.7090356,11.7107935 L72.6211576,11.7107935 L72.6211576,12.7935753 L74.5384591,12.7935753 L74.5384591,19.7658525 Z M78.5540241,19.7658525 L79.8402014,19.7658525 L79.8402014,11.7107935 L78.5540241,11.7107935 L78.5540241,19.7658525 Z M83.7555643,19.9243814 C85.6055657,19.9243814 86.4176521,18.6157708 86.4176521,15.738323 C86.4176521,12.8623709 85.6055657,11.5537603 83.7555643,11.5537603 C81.9055628,11.5537603 81.0934764,12.8623709 81.0934764,15.738323 C81.0934764,18.6157708 81.9055628,19.9243814 83.7555643,19.9243814 Z M83.7555643,18.9537662 C82.9883446,18.9537662 82.3781581,18.4796753 82.3781581,15.7054208 C82.3781581,12.9969708 82.9883446,12.5228799 83.7555643,12.5228799 C84.5227839,12.5228799 85.1314748,12.9969708 85.1314748,15.7054208 C85.1314748,18.4796753 84.5227839,18.9537662 83.7555643,18.9537662 Z M87.7262627,19.7658525 L88.9436444,19.7658525 L88.9436444,13.6056617 L88.9675733,13.6056617 L91.3021346,19.7658525 L92.8694762,19.7658525 L92.8694762,11.7107935 L91.6520944,11.7107935 L91.6520944,17.7124556 L91.6296611,17.7124556 L89.2936043,11.7107935 L87.7262627,11.7107935 L87.7262627,19.7658525 Z" id="Fill-14"></path>
                    <path d="M36.2745359,8.48443283 L37.4934132,8.48443283 L37.4934132,1.78285106 L37.5158465,1.78285106 L39.1400192,8.48443283 L40.222801,8.48443283 L41.8469737,1.78285106 L41.869407,1.78285106 L41.869407,8.48443283 L43.0882843,8.48443283 L43.0882843,0.429373828 L41.1261162,0.429373828 L39.7262768,6.39663811 L39.7038434,6.39663811 L38.2830662,0.429373828 L36.2745359,0.429373828 L36.2745359,8.48443283 Z M44.5314948,8.48443283 L45.8176721,8.48443283 L45.8176721,0.429373828 L44.5314948,0.429373828 L44.5314948,8.48443283 Z M47.2623782,8.48443283 L48.4797599,8.48443283 L48.4797599,2.32424196 L48.5021933,2.32424196 L50.8382501,8.48443283 L52.4055917,8.48443283 L52.4055917,0.429373828 L51.18821,0.429373828 L51.18821,6.43103587 L51.1657766,6.43103587 L48.8297198,0.429373828 L47.2623782,0.429373828 L47.2623782,8.48443283 Z M55.2381728,5.48434958 L56.1968235,1.51215562 L56.2192568,1.51215562 L57.1435098,5.48434958 L55.2381728,5.48434958 Z M53.1399092,8.48443283 L54.481422,8.48443283 L55.0003795,6.51030028 L57.3588697,6.51030028 L57.855394,8.48443283 L59.1969067,8.48443283 L57.0762098,0.429373828 L55.4296038,0.429373828 L53.1399092,8.48443283 Z M59.9297287,8.48443283 L61.148606,8.48443283 L61.148606,1.78285106 L61.1710393,1.78285106 L62.795212,8.48443283 L63.8779938,8.48443283 L65.503662,1.78285106 L65.5260953,1.78285106 L65.5260953,8.48443283 L66.7434771,8.48443283 L66.7434771,0.429373828 L64.781309,0.429373828 L63.3829651,6.39663811 L63.3605317,6.39663811 L61.938259,0.429373828 L59.9297287,0.429373828 L59.9297287,8.48443283 Z M69.5760581,5.48434958 L70.5347089,1.51215562 L70.5571422,1.51215562 L71.4813952,5.48434958 L69.5760581,5.48434958 Z M67.4777945,8.48443283 L68.8193073,8.48443283 L69.3382649,6.51030028 L71.6967551,6.51030028 L72.1932793,8.48443283 L73.5347921,8.48443283 L71.4140952,0.429373828 L69.7674892,0.429373828 L67.4777945,8.48443283 Z M74.9675338,8.48443283 L76.253711,8.48443283 L76.253711,1.51215562 L78.1381103,1.51215562 L78.1381103,0.429373828 L73.0502323,0.429373828 L73.0502323,1.51215562 L74.9675338,1.51215562 L74.9675338,8.48443283 Z M79.7518141,5.48434958 L80.7104648,1.51215562 L80.7328981,1.51215562 L81.6571511,5.48434958 L79.7518141,5.48434958 Z M77.6535505,8.48443283 L78.9950633,8.48443283 L79.5140208,6.51030028 L81.872511,6.51030028 L82.3675397,8.48443283 L83.710548,8.48443283 L81.5898511,0.429373828 L79.9432451,0.429373828 L77.6535505,8.48443283 Z" id="Fill-16"></path>
                </g>
            </g>
        </g>
    </g>
</svg>