<?xml version="1.0" encoding="UTF-8"?>
<svg width="103px" height="103px" viewBox="0 0 103 103" version="1.1" xmlns="http://www.w3.org/2000/svg" xmlns:xlink="http://www.w3.org/1999/xlink">
    <!-- Generator: Sketch 48.2 (47327) - http://www.bohemiancoding.com/sketch -->
    <title>beneficio-sin-lampara</title>
    <desc>Created with Sketch.</desc>
    <defs>
        <path d="M50.9700484,0.377112903 C25.9111452,0.377112903 5.08022581,18.4835161 0.850580645,42.3280161 L0.644580645,58.9824516 C4.35590323,83.4432903 25.4725645,102.185968 50.9700484,102.185968 C79.0824032,102.185968 101.871984,79.3947258 101.871984,51.2807097 C101.871984,23.1683548 79.0824032,0.377112903 50.9700484,0.377112903 Z" id="path-1"></path>
    </defs>
    <g id="Escuelas-libres-de-mercurio-v2" stroke="none" stroke-width="1" fill="none" fill-rule="evenodd" transform="translate(-1071.000000, -3536.000000)">
        <g id="5---beneficios-de-los-ecoproyectores" transform="translate(-29.500000, 3322.011719)">
            <g id="Group-16" transform="translate(989.000000, 188.000000)">
                <g id="1-copy" transform="translate(15.323929, 25.000000)">
                    <g id="beneficio-sin-lampara" transform="translate(97.015648, 0.851618)">
                        <g id="Group-25" transform="translate(0.000000, 0.284510)">
                            <path d="M50.9718758,0.377112903 C79.0858919,0.377112903 101.875473,23.1666935 101.875473,51.2807097 C101.875473,79.3947258 79.0858919,102.185968 50.9718758,102.185968 C22.8578597,102.185968 0.0666177419,79.3947258 0.0666177419,51.2807097 C0.0666177419,23.1683548 22.8578597,0.377112903 50.9718758,0.377112903" id="Fill-1" fill="#AFCA0B"></path>
                            <path d="M50.0714565,12.2332435 C42.4577629,12.2332435 36.6449081,18.5029532 36.6449081,26.0884048 C36.6449081,27.8194694 37.1964565,30.203421 38.3394242,32.2883403 C39.4475048,34.3134532 41.1386984,36.03455 42.0872952,38.003179 C42.6604403,39.1860177 43.2003597,40.0382597 43.5376016,41.2825661 C43.9628919,42.8358726 44.1722145,44.7397113 44.8699565,45.6600661 C45.8434726,46.9459048 47.5961339,46.9974048 49.3620855,46.9974048 L49.8289081,46.9974048 C51.4038113,46.9974048 54.0103758,46.6717919 55.0287468,45.779679 C56.2481339,44.7164532 56.1683919,43.410679 56.7232629,41.4071629 C57.027279,40.3156952 57.8263597,38.7457758 58.4161177,37.5147597 C60.2269242,33.7535984 63.4980048,32.0457919 63.4980048,26.0884048 C63.4980048,17.9447597 57.6868113,12.2332435 50.0714565,12.2332435 M50.0714565,13.3845177 C57.1851016,13.3845177 62.3467306,18.7272274 62.3467306,26.0884048 C62.3467306,29.7814532 61.0293274,31.5856145 59.5009403,33.677179 C58.7600048,34.6855823 57.9991339,35.7288726 57.3794726,37.0163726 L57.1286177,37.5346952 C56.5554726,38.7175339 55.9042468,40.0548726 55.6168435,41.0981629 C55.459021,41.6630016 55.3510371,42.1730177 55.2546823,42.6215661 C54.995521,43.8459371 54.8543113,44.4074532 54.2711984,44.9174694 C53.6864242,45.4291468 51.6945371,45.8477919 49.8289081,45.8477919 L49.5946661,45.8477919 L49.3620855,45.8477919 C47.7174081,45.8477919 46.40665,45.7813403 45.78865,44.9656468 C45.4480855,44.5170984 45.2071984,43.4223081 44.9978758,42.4587597 C44.8915532,41.968679 44.7802468,41.4619855 44.6473435,40.9818726 C44.3632629,39.9352597 43.9628919,39.1527919 43.5376016,38.3238081 C43.4030371,38.0613242 43.2634887,37.7905339 43.122279,37.5014694 C42.5707306,36.355179 41.8032145,35.3085661 41.0589565,34.2968403 C40.4542468,33.4661952 39.8279403,32.6122919 39.3494887,31.7351306 C38.2015371,29.64855 37.794521,27.4506629 37.794521,26.0884048 C37.794521,18.9664532 43.1870694,13.3845177 50.0714565,13.3845177" id="Fill-3" fill="#FFFFFF"></path>
                            <path d="M55.5274661,53.6487129 C55.5274661,53.3662935 54.9194339,52.7100839 54.9327242,52.5489387 C54.9426919,52.3861323 55.5091919,51.7764387 55.5091919,51.5255839 C55.5091919,51.2763903 54.9742565,50.6916161 54.9692726,50.5205032 C54.9626274,50.3493903 55.4892565,49.8476806 55.4892565,49.5885194 C55.4892565,49.3293581 54.9742565,48.6897613 54.9509984,48.5468903 C54.9277403,48.4040194 55.4626758,47.7079387 55.4626758,47.4604065 C55.4626758,47.2128742 54.9626274,46.7244548 54.9626274,46.5350677 C54.9626274,46.3473419 55.4228048,45.3937613 55.4228048,45.3937613 L44.7124661,45.4203419 C44.7124661,45.4203419 45.2191597,46.536729 45.2191597,46.7576806 C45.2191597,46.976971 44.6460145,47.6913258 44.6460145,47.8690839 C44.6460145,48.0468419 45.1959016,48.5468903 45.2191597,48.7960839 C45.2424177,49.0419548 44.6177726,49.6815516 44.6177726,49.8676161 C44.6177726,50.0536806 45.1959016,50.6151968 45.2191597,50.8328258 C45.2424177,51.0504548 44.6360468,51.6684548 44.6360468,51.8977129 C44.6360468,52.1286323 45.141079,52.5489387 45.141079,52.7150677 C45.141079,52.8845194 44.5812242,53.3696161 44.5812242,53.6287774 C44.5812242,53.7716484 45.4201758,54.4394871 46.6295952,55.0142935 C46.8040306,55.2651484 47.2957726,55.8765032 47.8888532,55.9064065 C47.9852081,55.9113903 48.1014984,55.9163742 48.2244339,55.9180355 L48.21945,55.9230194 C48.21945,56.1805194 48.5649984,56.3865194 48.9869661,56.3865194 L51.1566113,56.3865194 C51.5802403,56.3865194 51.9257887,56.1805194 51.9257887,55.9246806 C51.9257887,55.9246806 51.9174823,55.909729 51.915821,55.9014226 C52.0736435,55.8931161 52.2198371,55.8814871 52.3311435,55.8681968 C52.7996274,55.8150355 53.2897081,55.3100032 53.5089984,55.0525032 C54.7134339,54.4810194 55.5274661,53.8032129 55.5274661,53.6487129" id="Fill-5" fill="#FFFFFF"></path>
                            <path d="M51.2800452,32.7382177 C51.2800452,32.7382177 51.9578516,29.6980565 51.9844323,29.5585081 C52.006029,29.4189597 51.9927387,29.7445726 51.9927387,29.7445726 L51.3813839,32.7980242 L51.2800452,32.7382177 Z" id="Fill-7" fill="#FFFFFF"></path>
                            <path d="M49.1434597,32.8167968 C49.1434597,32.8167968 48.0586371,29.5141516 48.0021532,29.3662968 C47.9440081,29.2201032 48.1201048,29.5291032 48.1201048,29.5291032 L49.2813468,32.8001839 L49.1434597,32.8167968 Z" id="Fill-9" fill="#FFFFFF"></path>
                            <path d="M51.6305774,32.9751177 C51.6305774,33.1960694 51.0391581,33.3754887 50.3131742,33.3754887 C49.5838677,33.3754887 48.9941097,33.1960694 48.9941097,32.9751177 C48.9941097,32.7525048 49.5838677,32.5747468 50.3131742,32.5747468 C51.0391581,32.5747468 51.6305774,32.7525048 51.6305774,32.9751177" id="Fill-11" fill="#FFFFFF"></path>
                            <path d="M50.9702145,37.8656242 L49.65115,37.8656242 L49.65115,33.1940758 C49.65115,33.1940758 49.7159403,33.0146565 50.3123435,33.0113339 C50.9070855,33.0080113 50.9702145,33.1940758 50.9702145,33.1940758 L50.9702145,37.8656242 Z" id="Fill-13" fill="#FFFFFF"></path>
                            <path d="M50.1834274,39.8766161 C49.7382016,39.8766161 49.3810242,39.5177774 49.3810242,39.0708903 C49.3810242,38.6273258 49.7382016,38.2668258 50.1834274,38.2668258 C50.6286532,38.2668258 50.9908145,38.6273258 50.9908145,39.0708903 C50.9908145,39.5177774 50.6286532,39.8766161 50.1834274,39.8766161 M51.3263952,37.1869871 L49.042121,37.1869871 C48.3676371,37.1869871 47.8210726,37.7318903 47.8210726,38.4047129 L47.8210726,38.633971 C47.8210726,39.045971 48.0270726,39.4114548 48.3427177,39.6340677 L48.3427177,45.4186806 L52.0241371,45.4186806 L52.0241371,39.6340677 C52.3397823,39.4114548 52.5474435,39.045971 52.5474435,38.633971 L52.5474435,38.4047129 C52.5474435,37.7318903 52.0042016,37.1869871 51.3263952,37.1869871" id="Fill-15" fill="#FFFFFF"></path>
                            <path d="M51.9404081,37.9751032 C51.9404081,37.9751032 51.9404081,37.6810548 51.9752952,37.0979419 C52.0135048,36.5115065 54.761279,28.7051032 54.6150855,28.6336677 L54.8742468,28.5954581 C55.018779,28.6702161 52.2693435,36.4749581 52.2344565,37.0597323 C52.1962468,37.6445065 52.1962468,37.9385548 52.1962468,37.9385548 L51.9404081,37.9751032 Z" id="Fill-17" fill="#FFFFFF"></path>
                            <path d="M48.9050645,37.8656242 C48.9050645,37.8656242 48.9050645,37.5699145 48.8701774,36.9868016 C48.8319677,36.4003661 46.0841935,28.5956242 46.2337097,28.5208661 L45.9745484,28.485979 C45.8283548,28.5590758 48.5744677,36.3638177 48.6126774,36.9502532 C48.6475645,37.5350274 48.6475645,37.8290758 48.6475645,37.8290758 L48.9050645,37.8656242 Z" id="Fill-19" fill="#FFFFFF"></path>
                            <path d="M45.9863435,28.3587242 C46.2255694,28.249079 46.2986661,28.5763532 46.5362306,28.6328371 C46.7771177,28.6859984 47.9267306,29.4568371 48.1659565,29.5116597 C48.403521,29.5681435 49.4700694,29.3106435 50.2525371,29.2907081 C51.04165,29.2740952 51.6131339,29.5681435 51.8324242,29.5864177 C52.0517145,29.6030306 52.5833274,29.3837403 53.2594726,29.2740952 C53.937279,29.1627887 54.5785371,28.7441435 54.5785371,28.7441435 C54.5785371,28.7441435 54.5602629,28.4484339 54.7994887,28.4667081 C55.0370532,28.4849823 54.8891984,28.6527726 54.8891984,28.6527726 L54.5785371,28.9252242 C54.5785371,28.9252242 54.2496016,29.330579 53.5319242,29.4020145 C52.8192306,29.4751113 52.214521,29.6578532 52.0699887,29.7159984 C51.9204726,29.7691597 51.7593274,29.7492242 51.5732629,29.6960629 C51.3888597,29.639579 50.8040855,29.4950468 50.1993758,29.4751113 C49.5963274,29.4568371 48.6626823,29.6578532 48.4766177,29.6777887 C48.2955371,29.6960629 48.0745855,29.6213048 47.9832145,29.6213048 C47.8918435,29.6213048 46.8651661,29.0182565 46.66415,28.8903371 C46.4631339,28.7607565 46.2986661,28.8338532 46.2986661,28.8338532 L46.2438435,28.7242081 L45.9680694,28.6527726 C45.9680694,28.6527726 45.7471177,28.4667081 45.9863435,28.3587242" id="Fill-21" fill="#FFFFFF"></path>
                            <polygon id="Fill-23" fill="#FFFFFF" points="34.505 47.9096194 33.2590323 46.3745871 67.4367581 18.5944903 68.6843871 20.1278613"></polygon>
                        </g>
                        <g id="Group-28" transform="translate(0.000000, 0.284510)">
                            <mask id="mask-2" fill="white">
                                <use xlink:href="#path-1"></use>
                            </mask>
                            <g id="Clip-27"></g>
                            <polygon id="Fill-26" fill="#3EB49A" mask="url(#mask-2)" points="104.76429 109.644995 -1.66129032 106.410463 -1.66129032 62.7052371 104.297468 62.7052371"></polygon>
                        </g>
                        <g id="Group-41" transform="translate(20.935484, 66.736123)" fill="#FFFFFF">
                            <path d="M20.4547339,8.82145161 C21.2455081,9.51420968 22.0844597,9.79330645 22.9915242,9.79330645 C24.2939758,9.79330645 25.3638468,9.1503871 25.3638468,7.71669355 C25.3638468,6.34945161 24.4584435,5.87266129 23.0563145,5.32775806 C21.5262661,4.73467742 20.4713468,4.19143548 20.4713468,2.59327419 C20.4713468,1.04329032 21.7555242,0.237564516 23.1559919,0.237564516 C24.0281694,0.237564516 24.8870565,0.51666129 25.4136855,0.9785 L25.4136855,1.60480645 C24.7059758,0.995112903 24.0132177,0.730967742 23.1559919,0.730967742 C21.9864435,0.730967742 21.0145887,1.3738871 21.0145887,2.59327419 C21.0145887,3.67975806 21.5910565,4.223 23.2058306,4.81774194 C24.8687823,5.42743548 25.9070887,6.00390323 25.9070887,7.71669355 C25.9070887,9.41453226 24.5730726,10.288371 22.9915242,10.288371 C21.9532177,10.288371 21.0312016,9.95777419 20.4547339,9.47932258 L20.4547339,8.82145161 Z" id="Fill-29"></path>
                            <polygon id="Fill-31" points="28.5942258 10.1554677 29.1540806 10.1554677 29.1540806 0.367145161 28.5942258 0.367145161"></polygon>
                            <polygon id="Fill-33" points="39.6326694 9.34874516 39.6326694 0.367809677 40.1775726 0.367809677 40.1775726 10.1561323 39.6160565 10.1561323 33.1253952 1.17685806 33.1253952 10.1561323 32.5821532 10.1561323 32.5821532 0.367809677 33.1420081 0.367809677"></polygon>
                            <polygon id="Fill-34" points="0.301953226 14.3739823 0.861808065 14.3739823 0.861808065 23.6672403 5.22767903 23.6672403 5.22767903 24.1623048 0.301953226 24.1623048"></polygon>
                            <path d="M10.4351597,13.5011403 L11.6379339,11.3431242 L12.1645629,11.3431242 L10.9617887,13.5011403 L10.4351597,13.5011403 Z M10.6328532,14.8849952 L8.39177258,20.7011726 L12.9221113,20.7011726 L10.6328532,14.8849952 Z M8.19241774,21.1962371 L7.05775645,24.1616403 L6.47962742,24.1616403 L10.3205306,14.3733177 L10.9950145,14.3733177 L14.8674823,24.1616403 L14.2893532,24.1616403 L13.1198048,21.1962371 L8.19241774,21.1962371 Z" id="Fill-35"></path>
                            <polygon id="Fill-36" points="21.7721371 24.1616403 18.6572177 14.9680597 16.9759919 24.1616403 16.4161371 24.1616403 18.2119919 14.3733177 19.0027661 14.3733177 22.0844597 23.4356565 25.1329274 14.3733177 25.9403145 14.3733177 27.7361694 24.1616403 27.1597016 24.1616403 25.4784758 14.9016081 22.3801694 24.1616403"></polygon>
                            <path d="M30.8183613,19.7788242 C31.0160548,19.7954371 31.2469742,19.81205 31.5592968,19.81205 C33.6857484,19.81205 34.822071,18.9548242 34.822071,17.1755823 C34.822071,15.8249532 33.998071,14.7368081 31.5925226,14.7368081 C31.3616032,14.7368081 30.9994419,14.753421 30.8183613,14.7700339 L30.8183613,19.7788242 Z M30.8183613,24.1613081 L30.2585065,24.1613081 L30.2585065,14.3580339 C30.5874419,14.2915823 31.1971355,14.2417435 31.5925226,14.2417435 C34.0645226,14.2417435 35.3985387,15.2634371 35.3985387,17.1755823 C35.3985387,19.1192919 34.0811355,20.3054532 31.5592968,20.3054532 C31.2635871,20.3054532 30.9994419,20.2905016 30.8183613,20.2722274 L30.8183613,24.1613081 Z" id="Fill-37"></path>
                            <path d="M40.2928661,14.8849952 L38.0501242,20.7011726 L42.5821242,20.7011726 L40.2928661,14.8849952 Z M37.8524306,21.1962371 L36.7177694,24.1616403 L36.1396403,24.1616403 L39.9805435,14.3733177 L40.6550274,14.3733177 L44.5274952,24.1616403 L43.9493661,24.1616403 L42.7798177,21.1962371 L37.8524306,21.1962371 Z" id="Fill-38"></path>
                            <path d="M47.2123065,19.6798113 L48.3818548,19.6798113 C50.0796935,19.6798113 51.1844516,18.8059726 51.1844516,17.1579726 C51.1844516,15.5614726 50.0298548,14.7208597 48.1010968,14.7208597 C47.822,14.7208597 47.4432258,14.7540855 47.2123065,14.78565 L47.2123065,19.6798113 Z M47.2123065,24.1619726 L46.6524516,24.1619726 L46.6524516,14.3902629 C47.0312258,14.3088597 47.6724839,14.2424081 48.1010968,14.2424081 C50.4252419,14.2424081 51.775871,15.2308758 51.775871,17.1579726 C51.775871,18.8059726 50.7375645,19.7794887 49.4201613,20.0419726 L52.9952581,24.1619726 L52.2709355,24.1619726 L48.8270806,20.1582629 L47.2123065,20.1582629 L47.2123065,24.1619726 Z" id="Fill-39"></path>
                            <path d="M58.2361306,14.8849952 L55.9933887,20.7011726 L60.5253887,20.7011726 L58.2361306,14.8849952 Z M55.7956952,21.1962371 L54.6610339,24.1616403 L54.0829048,24.1616403 L57.9238081,14.3733177 L58.5982919,14.3733177 L62.4707597,24.1616403 L61.8926306,24.1616403 L60.7230823,21.1962371 L55.7956952,21.1962371 Z" id="Fill-40"></path>
                        </g>
                    </g>
                </g>
            </g>
        </g>
    </g>
</svg>