<?xml version="1.0" encoding="UTF-8"?>
<svg width="103px" height="103px" viewBox="0 0 103 103" version="1.1" xmlns="http://www.w3.org/2000/svg" xmlns:xlink="http://www.w3.org/1999/xlink">
    <!-- Generator: Sketch 48.2 (47327) - http://www.bohemiancoding.com/sketch -->
    <title>beneficio-sin-costes</title>
    <desc>Created with Sketch.</desc>
    <defs>
        <polygon id="path-1" points="0.0606370968 0.842274194 101.435895 0.842274194 101.435895 102.216868 0.0606370968 102.216868"></polygon>
        <path d="M50.7474355,0.842274194 C25.7965161,0.842274194 5.05530645,18.8689355 0.840612903,42.6087742 L0.634612903,59.2017419 C4.33430645,83.5545968 25.3612581,102.215871 50.7474355,102.215871 C78.7418387,102.215871 101.433403,79.5259677 101.433403,51.5299032 C101.433403,23.5355 78.7418387,0.842274194 50.7474355,0.842274194 Z" id="path-3"></path>
    </defs>
    <g id="Escuelas-libres-de-mercurio-v2" stroke="none" stroke-width="1" fill="none" fill-rule="evenodd" transform="translate(-262.000000, -3805.000000)">
        <g id="5---beneficios-de-los-ecoproyectores" transform="translate(-29.500000, 3322.011719)">
            <g id="Group-19" transform="translate(182.000000, 463.000000)">
                <g id="2" transform="translate(15.000000, 19.000000)">
                    <g id="beneficio-sin-costes" transform="translate(95.115379, 0.087402)">
                        <g id="Group-3" transform="translate(0.000000, 0.819681)">
                            <mask id="mask-2" fill="white">
                                <use xlink:href="#path-1"></use>
                            </mask>
                            <g id="Clip-2"></g>
                            <path d="M50.7482661,0.841609677 C78.7426694,0.841609677 101.435895,23.5348355 101.435895,51.5292387 C101.435895,79.5236419 78.7426694,102.216868 50.7482661,102.216868 C22.7538629,102.216868 0.0606370968,79.5236419 0.0606370968,51.5292387 C0.0606370968,23.5348355 22.7538629,0.841609677 50.7482661,0.841609677" id="Fill-1" fill="#AFCA0B" mask="url(#mask-2)"></path>
                        </g>
                        <g id="Group-6" transform="translate(0.000000, 0.819681)">
                            <mask id="mask-4" fill="white">
                                <use xlink:href="#path-3"></use>
                            </mask>
                            <g id="Clip-5"></g>
                            <polygon id="Fill-4" fill="#3EB49A" mask="url(#mask-4)" points="104.311921 109.645494 -1.66178871 106.425913 -1.66178871 62.9050903 103.850082 62.9050903"></polygon>
                        </g>
                        <g id="Group-27" transform="translate(15.951613, 15.771294)" fill="#FFFFFF">
                            <polygon id="Fill-7" points="8.63299194 41.9965887 6.74244355 39.926621 58.5913145 2.44957258 60.4851855 4.51787903"></polygon>
                            <path d="M28.9804758,19.3128323 L23.2772661,13.6063 L21.1857016,13.6993323 C21.0112661,13.7076387 20.8517823,13.6295581 20.7521048,13.5049613 L14.6452016,5.99592903 C14.4724274,5.78494516 14.4940242,5.47926774 14.6867339,5.29154194 L17.9611371,2.01713871 C18.1538468,1.82775161 18.4628468,1.81446129 18.6671855,1.9839129 L26.1679113,8.09912258 C26.3008145,8.20876774 26.3672661,8.36825161 26.3589597,8.53105806 L26.2642661,10.6242839 L31.9674758,16.3274935 L35.1853952,13.1095742 C34.9661048,11.483171 35.1073145,9.81855806 35.6123468,8.24531613 C36.1323306,6.64383226 37.0244435,5.13870323 38.2936694,3.86615484 L38.2920081,3.86615484 C39.8486371,2.31450968 41.7508145,1.32438065 43.7543306,0.899090323 C45.8159919,0.457187097 47.9806532,0.621654839 49.9692177,1.38086452 C50.2400081,1.48386452 50.3762339,1.78621935 50.2715726,2.05700968 C50.2466532,2.12844516 50.2034597,2.1899129 50.153621,2.2414129 L43.7559919,8.63738065 L44.9853468,12.6776387 L49.0222823,13.9069935 L55.4215726,7.51102581 C55.6259113,7.30502581 55.9565081,7.30502581 56.1608468,7.51102581 C56.2206532,7.57083226 56.2671694,7.64060645 56.2887661,7.71536452 C57.0429919,9.69894516 57.1991532,11.8553 56.7655565,13.9086548 C56.3386048,15.9088484 55.3501371,17.8160097 53.7968306,19.3676548 C52.5276048,20.6402032 51.0174919,21.5289935 49.4143468,22.0473161 C47.7729919,22.5772677 46.0302984,22.7085097 44.3391048,22.4443645 L53.7270565,31.8339774 L53.758621,31.8655419 C54.3500403,32.4768968 54.6490726,33.267671 54.6490726,34.063429 C54.6490726,34.8674935 54.3417339,35.6765419 53.7270565,36.2912194 L53.1190242,36.8975903 L53.1073952,36.9092194 L49.5522339,40.4643806 L48.940879,41.0773968 L48.9076532,41.1056387 C48.2979597,41.7003806 47.5055242,41.9960903 46.71475,41.9960903 C45.9057016,41.9960903 45.0999758,41.6904129 44.4869597,41.0773968 L35.1521694,31.7426065 L25.9552661,41.0491548 C25.6495887,41.3598161 25.3073629,41.5940581 24.93025,41.7502194 C24.5614435,41.9063806 24.1560887,41.9861226 23.7208306,41.9861226 C23.2872339,41.9861226 22.8852016,41.9113645 22.50975,41.7568645 C22.1326371,41.6007032 21.7904113,41.3681226 21.4830726,41.067429 L16.5855887,36.1666226 C15.9725726,35.5519452 15.6635726,34.7445581 15.6635726,33.9388323 C15.6635726,33.1314452 15.9725726,32.3257194 16.5855887,31.7127032 L16.5855887,31.7110419 L28.9804758,19.3128323 Z M38.3651048,28.4864774 L49.1784435,39.3513161 L51.9976532,36.5337677 L41.1693629,25.6523161 L38.3651048,28.4864774 Z M48.4391694,40.0939129 L37.6324758,29.2323968 L36.4911694,30.3869935 L35.8864597,30.9950258 L45.2262339,40.3348 C45.6349113,40.7434774 46.1748306,40.9478161 46.71475,40.9478161 C47.2397177,40.9478161 47.7713306,40.7517839 48.1733629,40.3597194 L48.196621,40.3348 L48.4391694,40.0939129 Z M37.1307661,28.2489129 C37.1573468,28.1940903 37.1905726,28.1392677 37.23875,28.0960742 L40.7939113,24.5392516 L40.7955726,24.5392516 L40.7988952,24.5392516 L43.2227177,22.0788806 L43.2360081,22.0705742 L43.8390565,21.4592194 C44.0201371,21.2631871 44.3241532,21.2332839 44.540121,21.3994129 L44.5716855,21.4193484 C46.0801371,21.6452839 47.6317823,21.5223484 49.0920565,21.0522032 C50.5407016,20.5853806 51.9012984,19.7779935 53.0525726,18.6267194 C54.4596855,17.2196065 55.355121,15.4968484 55.7355565,13.6910258 C56.0794435,12.0945258 56.0212984,10.4265903 55.5644435,8.85002581 L49.5439274,14.8705419 L49.5422661,14.8672194 C49.4126855,15.0001226 49.2116694,15.0566065 49.020621,14.9984613 L44.4171855,13.5963323 C44.254379,13.5448323 44.1181532,13.4185742 44.0683145,13.2474613 L42.6778145,8.68721935 C42.5997339,8.49783226 42.6379435,8.27189677 42.7907823,8.11905806 L48.8129597,2.10020323 C47.2347339,1.64002581 45.5684597,1.58354194 43.9686371,1.92244516 C42.1644758,2.30786452 40.4417177,3.20163871 39.0362661,4.60875161 L39.0346048,4.60542903 L39.0346048,4.60875161 C37.8833306,5.75836452 37.0776048,7.11896129 36.6124435,8.56428387 C36.1306694,10.0577839 36.0110565,11.6409935 36.2569274,13.1793484 C36.2918145,13.3421548 36.2519435,13.5215742 36.1273468,13.6511548 L36.1157177,13.6661065 L32.3379435,17.4405581 L30.0935403,19.6882839 L30.0852339,19.694929 L17.3265242,32.4519774 L17.3232016,32.4503161 C16.9178468,32.8589935 16.7151694,33.3989129 16.7151694,33.9388323 C16.7151694,34.4770903 16.9178468,35.0120258 17.3265242,35.4223645 L22.2289919,40.3215097 C22.4366532,40.5308323 22.6625887,40.6869935 22.910121,40.7883323 C23.1576532,40.889671 23.4284435,40.9428323 23.7208306,40.941171 C24.0115565,40.941171 24.2823468,40.8863484 24.5315403,40.7816871 C24.7774113,40.6770258 25.0033468,40.5225258 25.2076855,40.3181871 L34.7484758,30.6594452 L34.778379,30.6295419 L34.8049597,30.6046226 L37.1307661,28.2489129 Z M41.9019919,24.9080581 L52.7385887,35.7944935 L52.9827984,35.5469613 C53.3931371,35.1382839 53.5974758,34.5983645 53.5974758,34.063429 C53.5974758,33.5334774 53.3997823,33.0051871 53.009379,32.5998323 L52.9827984,32.5765742 L43.6014919,23.1902839 L41.9019919,24.9080581 Z M20.6790081,33.3523968 L24.3072661,36.9839774 L27.9388468,33.3523968 L24.3072661,29.7258 L20.6790081,33.3523968 Z M23.9367984,38.0987032 C24.1427984,38.3030419 24.4767177,38.3030419 24.6810565,38.0987032 L29.0535726,33.7261871 C29.2579113,33.5201871 29.2579113,33.1895903 29.0535726,32.9835903 L24.6810565,28.6127355 C24.4767177,28.4067355 24.1427984,28.4067355 23.9367984,28.6127355 L19.5659435,32.9835903 C19.3616048,33.1895903 19.3616048,33.5201871 19.5659435,33.7261871 L23.9367984,38.0987032 Z M23.8587177,12.7058806 L29.71975,18.5735581 L31.2265403,17.0667677 L25.3605242,11.197429 C25.2625081,11.1010742 25.2060242,10.9598645 25.2093468,10.8070258 L25.302379,8.74702581 L18.3664919,3.09365484 L15.7566048,5.70354194 L21.4016694,12.6427516 L23.4600081,12.5530419 C23.602879,12.5480581 23.7490726,12.5978968 23.8587177,12.7058806 Z M18.6638629,1.98225161 L18.6671855,1.9839129 L18.6638629,1.98225161 Z" id="Fill-9"></path>
                            <path d="M0.389669355,62.5195048 C1.14057258,63.1773758 1.94131452,63.4448435 2.8018629,63.4448435 C4.0378629,63.4448435 5.05789516,62.8318274 5.05789516,61.4695694 C5.05789516,60.168779 4.19568548,59.7152468 2.86333065,59.1985855 C1.40637903,58.6337468 0.404620968,58.1170855 0.404620968,56.5986661 C0.404620968,55.1251016 1.62566935,54.3575855 2.95802419,54.3575855 C3.78866935,54.3575855 4.60270161,54.6233919 5.10441129,55.0619726 L5.10441129,55.6567145 C4.43158871,55.0785855 3.77205645,54.8277306 2.95802419,54.8277306 C1.84662097,54.8277306 0.921282258,55.4374242 0.921282258,56.5986661 C0.921282258,57.6319887 1.46950806,58.14865 3.00454032,58.7118274 C4.58608871,59.293279 5.57455645,59.8415048 5.57455645,61.4695694 C5.57455645,63.0826823 4.30533065,63.9133274 2.8018629,63.9133274 C1.81339516,63.9133274 0.937895161,63.5993435 0.389669355,63.1458113 L0.389669355,62.5195048 Z" id="Fill-11"></path>
                            <polygon id="Fill-13" points="7.79487097 63.7885645 8.32648387 63.7885645 8.32648387 54.4820161 7.79487097 54.4820161"></polygon>
                            <polygon id="Fill-15" points="17.9420323 63.0207161 17.9420323 54.4816839 18.4603548 54.4816839 18.4603548 63.7882323 17.9254194 63.7882323 11.7537258 55.2492 11.7537258 63.7882323 11.2370645 63.7882323 11.2370645 54.4816839 11.7686774 54.4816839"></polygon>
                            <path d="M30.902921,55.6892758 C30.2134855,55.0945339 29.2416306,54.8420177 28.3329048,54.8420177 C26.061921,54.8420177 24.1979532,56.4734048 24.1979532,59.1347919 C24.1979532,61.7828887 26.1084371,63.4275661 28.4907274,63.4275661 C29.4293565,63.4275661 30.3380823,63.2398403 31.0607435,62.6916145 L31.0607435,63.2564532 C30.4792919,63.6933726 29.4144048,63.9126629 28.4907274,63.9126629 C25.701421,63.9126629 23.6663403,62.002179 23.6663403,59.1347919 C23.6663403,56.3155823 25.6715177,54.356921 28.3329048,54.356921 C29.2748565,54.356921 30.181921,54.5762113 30.902921,55.0613081 L30.902921,55.6892758 Z" id="Fill-16"></path>
                            <path d="M37.0840839,54.8425161 C34.749971,54.8425161 32.9325194,56.4871935 32.9325194,59.1352903 C32.9325194,61.7833871 34.749971,63.4280645 37.0840839,63.4280645 C39.4181968,63.4280645 41.2356484,61.7833871 41.2356484,59.1352903 C41.2356484,56.4871935 39.4181968,54.8425161 37.0840839,54.8425161 M37.0840839,54.3574194 C39.7620839,54.3574194 41.7672613,56.2845161 41.7672613,59.1352903 C41.7672613,61.9877258 39.7620839,63.9131613 37.0840839,63.9131613 C34.4060839,63.9131613 32.4009065,61.9877258 32.4009065,59.1352903 C32.4009065,56.2845161 34.4060839,54.3574194 37.0840839,54.3574194" id="Fill-17"></path>
                            <path d="M43.2652468,62.5195048 C44.01615,63.1773758 44.8168919,63.4448435 45.6774403,63.4448435 C46.9134403,63.4448435 47.9334726,62.8318274 47.9334726,61.4695694 C47.9334726,60.168779 47.0712629,59.7152468 45.7389081,59.1985855 C44.2819565,58.6337468 43.2801984,58.1170855 43.2801984,56.5986661 C43.2801984,55.1251016 44.5012468,54.3575855 45.8336016,54.3575855 C46.6642468,54.3575855 47.478279,54.6233919 47.9799887,55.0619726 L47.9799887,55.6567145 C47.3071661,55.0785855 46.6476339,54.8277306 45.8336016,54.8277306 C44.7221984,54.8277306 43.7968597,55.4374242 43.7968597,56.5986661 C43.7968597,57.6319887 44.3450855,58.14865 45.8801177,58.7118274 C47.4616661,59.293279 48.4501339,59.8415048 48.4501339,61.4695694 C48.4501339,63.0826823 47.1809081,63.9133274 45.6774403,63.9133274 C44.6889726,63.9133274 43.8134726,63.5993435 43.2652468,63.1458113 L43.2652468,62.5195048 Z" id="Fill-18"></path>
                            <polygon id="Fill-19" points="53.1600581 63.7880661 52.6284452 63.7880661 52.6284452 54.9533242 49.4487355 54.9533242 49.4487355 54.4815177 56.341429 54.4815177 56.341429 54.9533242 53.1600581 54.9533242"></polygon>
                            <polygon id="Fill-20" points="63.0872645 63.3175887 63.0872645 63.7877339 58.0269742 63.7877339 58.0269742 54.4828468 63.0407484 54.4828468 63.0407484 54.9529919 58.5585871 54.9529919 58.5585871 58.775621 62.7749419 58.775621 62.7749419 59.2457661 58.5585871 59.2457661 58.5585871 63.3175887"></polygon>
                            <path d="M64.7111758,62.5195048 C65.462079,63.1773758 66.262821,63.4448435 67.1233694,63.4448435 C68.3593694,63.4448435 69.3794016,62.8318274 69.3794016,61.4695694 C69.3794016,60.168779 68.5171919,59.7152468 67.1848371,59.1985855 C65.7278855,58.6337468 64.7261274,58.1170855 64.7261274,56.5986661 C64.7261274,55.1251016 65.9471758,54.3575855 67.2795306,54.3575855 C68.1101758,54.3575855 68.9242081,54.6233919 69.4259177,55.0619726 L69.4259177,55.6567145 C68.7530952,55.0785855 68.0935629,54.8277306 67.2795306,54.8277306 C66.1681274,54.8277306 65.2427887,55.4374242 65.2427887,56.5986661 C65.2427887,57.6319887 65.7910145,58.14865 67.3260468,58.7118274 C68.9075952,59.293279 69.8960629,59.8415048 69.8960629,61.4695694 C69.8960629,63.0826823 68.6268371,63.9133274 67.1233694,63.9133274 C66.1349016,63.9133274 65.2594016,63.5993435 64.7111758,63.1458113 L64.7111758,62.5195048 Z" id="Fill-21"></path>
                            <polygon id="Fill-22" points="22.2623839 77.3282468 22.2623839 77.7983919 17.2020935 77.7983919 17.2020935 68.4935048 22.2158677 68.4935048 22.2158677 68.96365 17.7337065 68.96365 17.7337065 72.786279 21.9500613 72.786279 21.9500613 73.2564242 17.7337065 73.2564242 17.7337065 77.3282468"></polygon>
                            <polygon id="Fill-23" points="27.3014097 72.9901194 30.702071 77.7995548 30.0907161 77.7995548 26.9724742 73.3971355 23.9024097 77.7995548 23.2910548 77.7995548 26.6751032 72.9735065 23.5269581 68.4930065 24.1383129 68.4930065 27.0040387 72.5664903 29.8548129 68.4930065 30.4661677 68.4930065"></polygon>
                            <polygon id="Fill-24" points="34.8614435 77.7987242 34.3298306 77.7987242 34.3298306 68.9639823 31.150121 68.9639823 31.150121 68.4921758 38.0428145 68.4921758 38.0428145 68.9639823 34.8614435 68.9639823"></polygon>
                            <path d="M40.2591419,73.5385113 L41.3722065,73.5385113 C42.9869806,73.5385113 44.0352548,72.7078661 44.0352548,71.1412694 C44.0352548,69.6211887 42.9388032,68.8221081 41.1064,68.8221081 C40.8405935,68.8221081 40.4800935,68.8536726 40.2591419,68.8852371 L40.2591419,73.5385113 Z M40.2591419,77.7980597 L39.727529,77.7980597 L39.727529,68.5097855 C40.0863677,68.4317048 40.6993839,68.3685758 41.1064,68.3685758 C43.3142548,68.3685758 44.5984323,69.3072048 44.5984323,71.1412694 C44.5984323,72.7078661 43.6132871,73.6315435 42.3590129,73.8823984 L45.7596742,77.7980597 L45.0702387,77.7980597 L41.7958355,73.9920435 L40.2591419,73.9920435 L40.2591419,77.7980597 Z" id="Fill-25"></path>
                            <path d="M50.3744065,68.9795984 L48.242971,74.5083726 L52.5523581,74.5083726 L50.3744065,68.9795984 Z M48.0552452,74.9785177 L46.9737452,77.7993887 L46.4255194,77.7993887 L50.0753742,68.4928403 L50.7182935,68.4928403 L54.3997129,77.7993887 L53.8514871,77.7993887 L52.7400839,74.9785177 L48.0552452,74.9785177 Z" id="Fill-26"></path>
                        </g>
                    </g>
                </g>
            </g>
        </g>
    </g>
</svg>