<?xml version="1.0" encoding="UTF-8"?>
<svg width="140px" height="43px" viewBox="0 0 140 43" version="1.1" xmlns="http://www.w3.org/2000/svg" xmlns:xlink="http://www.w3.org/1999/xlink">
    <!-- Generator: Sketch 48.2 (47327) - http://www.bohemiancoding.com/sketch -->
    <title>logo casio ecoproyectores</title>
    <desc>Created with Sketch.</desc>
    <defs></defs>
    <g id="Escuelas-libres-de-mercurio-v2" stroke="none" stroke-width="1" fill="none" fill-rule="evenodd" transform="translate(-1274.000000, -34.000000)">
        <g id="hero" transform="translate(33.148438, 33.000000)" fill-rule="nonzero">
            <g id="logo-casio-ecoproyectores" transform="translate(1241.000000, 1.000000)">
                <path d="M29.8999357,24.3821899 L40.10256,0.458077009 L51.0755865,0.458077009 L61.4031409,24.3821899 L53.1993981,24.3821899 L51.5128419,19.9471716 L39.8110564,19.9471716 L38.0620351,24.3821899 L29.8999357,24.3821899 Z M41.3518609,15.1165413 L49.8887507,15.1165413 L46.1408478,5.68431925 L45.1205854,5.68431925 L41.3726826,15.1165413 L41.3518609,15.1165413 Z" id="Shape" fill="#333333"></path>
                <path d="M62.839837,21.6961929 C61.986148,20.6342871 61.6530011,17.885825 61.6530011,17.1362445 L69.4403103,17.1362445 C69.4403103,17.1362445 69.2945585,18.5937622 70.2107125,18.8644441 C71.9389121,19.3641645 76.8528292,19.4890946 80.4758019,19.0310176 C81.8500329,18.8436224 82.4538617,15.8036568 80.5382669,15.4080449 C76.0407835,14.5127125 67.8786841,15.1165413 65.1926871,13.825597 C63.0064105,12.7845129 61.7779312,11.2645301 61.7987529,7.01690692 C61.7779312,2.72764037 64.7554318,0.916154019 67.233212,0.416433645 C69.06552,0.0624650467 73.916972,-0.0208216822 75.2287379,0.0208216822 C76.3947521,0.0624650467 83.0576905,0.0624650467 85.0982153,1.22847925 C86.951345,2.31120673 88.2422893,4.72652187 88.2422893,7.57909234 L80.5799103,7.55827065 C80.5799103,7.55827065 80.4549802,6.16321794 79.5596478,5.72596262 C78.2062385,5.08049047 71.1060449,5.05966878 69.9400307,5.70514093 C68.6282647,6.43389981 68.3992262,8.66181981 70.1482475,9.20318355 C72.5427409,9.95276411 80.9338789,8.97414505 85.8061525,10.681523 C89.0959783,11.8058938 89.512412,16.0951604 88.9085832,19.4058079 C88.5962579,21.1548292 86.8055933,23.6117877 84.1195963,24.1739731 C80.5382669,24.9235536 69.461132,24.7153368 67.1915686,24.3197249 C64.547215,23.8408262 63.8809211,22.9454938 62.8190153,21.6545495 L62.839837,21.6961929 Z" id="Shape" fill="#333333"></path>
                <polygon id="Shape" fill="#333333" points="92.2192307 24.3821899 100.069005 24.3821899 100.069005 0.458077009 92.2192307 0.458077009"></polygon>
                <path d="M0.0208216822,12.4097226 C0.0208216822,18.7603357 0.312325234,22.3208434 5.43445907,24.0282213 C7.0377286,24.569585 10.8272748,24.7986236 14.8458594,24.7986236 C18.739514,24.7986236 22.7580987,24.6945151 24.569585,24.111508 C28.046806,23.0287806 29.7750056,19.8430632 29.7750056,15.3039364 L21.9252314,15.3039364 C21.9044097,16.6573458 21.5920845,17.9066467 20.3011402,18.281437 C19.0934826,18.6145839 11.3061735,18.6145839 9.66126056,18.2397936 C8.47442467,17.9691118 7.99552598,17.0529578 7.91223925,16.4699507 C7.72484411,14.9291462 7.72484411,13.0135514 7.72484411,12.3889009 C7.72484411,11.7642505 7.72484411,9.82783402 7.91223925,8.28702953 C7.99552598,7.70402243 8.53688972,6.85033346 9.72372561,6.60047327 C10.8689181,6.35061308 18.8228007,6.28814804 20.3636052,6.62129495 C21.3005809,6.82951178 21.4879761,8.16209944 21.6129062,9.09907514 L29.4626804,9.09907514 C29.4626804,4.55994841 28.0259843,1.74902131 24.5487634,0.687115514 C22.737277,0.124930093 18.6978707,0.0416433645 14.8250378,0.0416433645 C10.8064531,0.0416433645 7.14183701,0.124930093 5.51774579,0.687115514 C0.270681869,2.4569585 0,6.05910953 0,12.4097226 L0.0208216822,12.4097226 Z" id="Shape" fill="#333333"></path>
                <path d="M133.362875,12.4097226 C133.362875,18.9477308 132.779868,23.1745323 126.387611,24.3613682 C123.826544,24.8402669 113.332416,24.8819103 110.667241,24.3613682 C104.129233,23.0704239 103.816908,19.4058079 103.816908,12.4097226 C103.816908,5.41363738 104.129233,1.72819963 110.667241,0.458077009 C113.332416,-0.0624650467 123.826544,-0.0208216822 126.387611,0.458077009 C132.779868,1.6449129 133.362875,5.87171439 133.362875,12.4097226 Z M125.450636,8.3286729 C125.284062,7.35005383 124.367908,6.76704673 123.659971,6.57965159 C122.972855,6.39225645 119.828781,6.26732636 118.70441,6.26732636 C117.58004,6.26732636 114.685826,6.35061308 113.603098,6.51718654 C112.166402,6.72540336 112.062294,7.16265869 111.708325,8.05799103 C111.500108,8.59935477 111.437643,11.202065 111.437643,12.3889009 C111.437643,13.5549151 111.500108,16.1784471 111.708325,16.7198108 C112.083116,17.6151432 112.166402,18.0732202 113.603098,18.281437 C114.685826,18.4271888 117.58004,18.5312972 118.70441,18.5312972 C119.828781,18.5312972 122.972855,18.4063671 123.659971,18.218972 C124.347086,18.0315768 125.284062,17.4693914 125.450636,16.4699507 C125.596387,15.4705099 125.658852,13.3883417 125.658852,12.3889009 C125.658852,11.5143903 125.596387,9.30729196 125.450636,8.30785121 L125.450636,8.3286729 Z" id="Shape" fill="#333333"></path>
                <path d="M139.088837,21.5504411 C138.922264,21.2589376 138.693225,21.0298991 138.401722,20.8633256 C138.110218,20.6967521 137.797893,20.6134654 137.464746,20.6134654 C137.131599,20.6134654 136.819274,20.6967521 136.52777,20.8633256 C136.236267,21.0298991 136.007228,21.2589376 135.840655,21.5504411 C135.674081,21.8419447 135.590795,22.1542699 135.590795,22.4874168 C135.590795,22.8205637 135.674081,23.1537107 135.861477,23.4452142 C136.02805,23.7367178 136.257089,23.9657563 136.548592,24.1323297 C136.840096,24.2989032 137.152421,24.3821899 137.485568,24.3821899 C137.818715,24.3821899 138.13104,24.2989032 138.422544,24.1323297 C138.714047,23.9657563 138.943086,23.7367178 139.109659,23.4452142 C139.276233,23.1537107 139.380341,22.8413854 139.380341,22.4874168 C139.380341,22.1542699 139.297054,21.8419447 139.130481,21.5504411 L139.088837,21.5504411 Z M138.838977,23.2994624 C138.693225,23.5493226 138.485009,23.7367178 138.25597,23.8824695 C138.00611,24.0282213 137.75625,24.0906864 137.464746,24.0906864 C137.194064,24.0906864 136.923382,24.0282213 136.673522,23.8824695 C136.423662,23.7367178 136.236267,23.5493226 136.090515,23.2994624 C135.944763,23.0496022 135.861477,22.7789204 135.861477,22.4874168 C135.861477,22.1959133 135.923942,21.9252314 136.069693,21.6961929 C136.215445,21.4463327 136.40284,21.2589376 136.652701,21.1131858 C136.902561,20.967434 137.173243,20.904969 137.443924,20.904969 C137.735428,20.904969 137.985288,20.967434 138.235148,21.1131858 C138.485009,21.2589376 138.672404,21.4463327 138.818156,21.6961929 C138.963907,21.9460531 139.026372,22.216735 139.026372,22.4874168 C139.026372,22.7789204 138.963907,23.0496022 138.797334,23.2994624 L138.838977,23.2994624 Z" id="Shape" fill="#000000"></path>
                <path d="M137.985288,22.9454938 C137.902001,22.7789204 137.797893,22.674812 137.735428,22.6123469 C137.88118,22.5498819 138.00611,22.4457735 138.089397,22.341665 C138.172683,22.216735 138.193505,22.0918049 138.193505,21.9668748 C138.193505,21.8627664 138.172683,21.7378363 138.110218,21.6545495 C138.047753,21.5504411 137.985288,21.4879761 137.88118,21.425511 C137.797893,21.363046 137.652141,21.3422243 137.464746,21.3422243 L136.715166,21.3422243 L136.715166,23.6742527 L137.089956,23.6742527 L137.089956,22.6956336 L137.360638,22.6956336 C137.402281,22.6956336 137.464746,22.7789204 137.548033,22.9246721 L137.63132,23.0704239 L137.943645,23.6742527 L138.360079,23.6742527 L137.985288,22.9663155 L137.985288,22.9454938 Z M137.360638,22.4041301 L137.110778,22.4041301 L137.110778,21.6129062 L137.381459,21.6129062 C137.50639,21.6129062 137.589676,21.6337278 137.652141,21.6753712 C137.693785,21.7170146 137.735428,21.7586579 137.777071,21.8003013 C137.797893,21.8627664 137.818715,21.9044097 137.818715,21.9876964 C137.818715,22.0918049 137.777071,22.1959133 137.714606,22.2792 C137.652141,22.3624867 137.527211,22.4041301 137.360638,22.4041301 Z" id="Shape" fill="#000000"></path>
                <path d="M33.9601637,38.5617555 C34.2100239,38.6033989 34.7513877,38.6242206 35.1678213,38.6242206 C37.6664232,38.6242206 39.1031193,37.4373847 39.1031193,35.3552164 C39.1031193,33.4188 37.8329966,32.2527858 35.1678213,32.2527858 C34.6681009,32.2527858 34.0018071,32.3152508 33.5853735,32.3985376 L33.5853735,42.788557 L33.9393421,42.788557 L33.9393421,38.5409338 L33.9601637,38.5617555 Z M33.9601637,32.6692194 C34.272489,32.6067544 34.8138527,32.5859327 35.188643,32.5859327 C37.7913533,32.5859327 38.7699723,33.7727686 38.7699723,35.3760381 C38.7699723,37.3124546 37.4582064,38.332717 35.1678213,38.332717 C34.7722093,38.332717 34.2100239,38.2910736 33.9601637,38.2494303 L33.9601637,32.6692194 Z M41.8099379,38.3951821 L43.5797809,38.3951821 L47.5150789,42.788557 L47.9731559,42.788557 L43.9545712,38.332717 C45.4953757,38.1869652 46.9112501,37.2291678 46.9112501,35.2927514 C46.9112501,33.356335 45.6619492,32.2319641 43.0800606,32.2319641 C42.5803402,32.2319641 41.872403,32.3152508 41.4559693,32.3985376 L41.4559693,42.7677353 L41.8099379,42.7677353 L41.8099379,38.3743604 L41.8099379,38.3951821 Z M41.8099379,32.6692194 C42.1430849,32.6067544 42.7052703,32.565111 43.0800606,32.565111 C45.4537323,32.565111 46.5781032,33.5853735 46.5781032,35.3135731 C46.5781032,37.2083462 45.1414071,38.1036785 43.4132075,38.1036785 L41.8099379,38.1036785 L41.8099379,32.6692194 Z M49.3265652,37.5831364 C49.3265652,40.7480321 51.5961286,42.9134871 54.5111641,42.9134871 C57.4470213,42.9134871 59.695763,40.7480321 59.695763,37.5831364 C59.695763,34.4182407 57.4261996,32.2736075 54.5111641,32.2736075 C51.5753069,32.2736075 49.3265652,34.4390624 49.3265652,37.5831364 Z M59.3626161,37.5831364 C59.3626161,40.6231021 57.1971611,42.6011619 54.5319858,42.6011619 C51.8251671,42.6011619 49.7013555,40.6231021 49.7013555,37.5831364 C49.7013555,34.5639925 51.8459888,32.5859327 54.5319858,32.5859327 C57.2179828,32.5859327 59.3626161,34.5639925 59.3626161,37.5831364 Z M64.5263933,38.2286086 L60.8825989,32.3777159 L60.4869869,32.3777159 L64.3389981,38.5825772 L64.3389981,42.8093787 L64.672145,42.8093787 L64.672145,38.5825772 L68.5449779,32.3777159 L68.149366,32.3777159 L64.5055716,38.2286086 L64.5263933,38.2286086 Z M71.0227581,42.4970535 L71.0227581,37.6247798 L75.9783185,37.6247798 L75.9783185,37.3124546 L71.0227581,37.3124546 L71.0227581,32.7108628 L76.2281787,32.7108628 L76.2281787,32.3985376 L70.6687895,32.3985376 L70.6687895,42.8302004 L76.2906437,42.8302004 L76.2906437,42.5178751 L71.0227581,42.5178751 L71.0227581,42.4970535 Z M86.5140897,33.2105832 C85.6812224,32.6067544 84.598495,32.2736075 83.4533024,32.2736075 C80.5174452,32.2736075 78.2687035,34.4390624 78.2687035,37.6039581 C78.2687035,40.7896755 80.5382669,42.9134871 83.5365892,42.9134871 C84.7026034,42.9134871 85.8894393,42.5803402 86.6598415,41.9765114 L86.6598415,41.6017211 C85.8061525,42.268015 84.7026034,42.5803402 83.5365892,42.5803402 C80.8089488,42.5803402 78.6018505,40.6231021 78.6018505,37.5831364 C78.6018505,34.5223492 80.7673054,32.565111 83.4324807,32.565111 C84.5360299,32.565111 85.6812224,32.9190796 86.493268,33.5853735 L86.493268,33.1897615 L86.5140897,33.2105832 Z M92.1775873,32.7108628 L95.9254901,32.7108628 L95.9254901,32.3985376 L88.0757159,32.3985376 L88.0757159,32.7108628 L91.8236187,32.7108628 L91.8236187,42.8302004 L92.1775873,42.8302004 L92.1775873,32.7108628 Z M96.654249,37.6039581 C96.654249,40.7688538 98.9238123,42.9343088 101.838848,42.9343088 C104.774705,42.9343088 107.023447,40.7688538 107.023447,37.6039581 C107.023447,34.4390624 104.753883,32.2944292 101.838848,32.2944292 C98.9029907,32.2944292 96.654249,34.4598841 96.654249,37.6039581 Z M106.6903,37.6039581 C106.6903,40.6439237 104.524845,42.6219836 101.85967,42.6219836 C99.1528508,42.6219836 97.0290393,40.6439237 97.0290393,37.6039581 C97.0290393,34.5848142 99.1736725,32.6067544 101.85967,32.6067544 C104.545667,32.6067544 106.6903,34.5848142 106.6903,37.6039581 Z M110.063412,38.4368254 L111.833255,38.4368254 L115.768553,42.8302004 L116.22663,42.8302004 L112.208046,38.3743604 C113.74885,38.2286086 115.164724,37.2708112 115.164724,35.3343948 C115.164724,33.3979783 113.915424,32.2736075 111.333535,32.2736075 C110.833815,32.2736075 110.125877,32.3568942 109.709444,32.4401809 L109.709444,42.8093787 L110.063412,42.8093787 L110.063412,38.4160037 L110.063412,38.4368254 Z M110.063412,32.7108628 C110.396559,32.6483978 110.958745,32.6067544 111.333535,32.6067544 C113.707207,32.6067544 114.831578,33.6270168 114.831578,35.3552164 C114.831578,37.2499895 113.394881,38.1453219 111.666682,38.1453219 L110.063412,38.1453219 L110.063412,32.7108628 Z M118.683589,42.5386968 L118.683589,37.6664232 L123.639149,37.6664232 L123.639149,37.3540979 L118.683589,37.3540979 L118.683589,32.7525062 L123.889009,32.7525062 L123.889009,32.4401809 L118.32962,32.4401809 L118.32962,42.8718437 L123.951474,42.8718437 L123.951474,42.5595185 L118.683589,42.5595185 L118.683589,42.5386968 Z M125.929534,41.9973331 C126.533363,42.5595185 127.511982,42.9551305 128.615531,42.9551305 C130.343731,42.9551305 131.738784,42.0181548 131.738784,40.2691335 C131.738784,38.5617555 130.468661,37.937105 128.84457,37.2708112 C127.2413,36.6253391 126.408433,36.0631536 126.408433,34.7097443 C126.408433,33.3355133 127.49116,32.6275761 128.802926,32.6275761 C129.71908,32.6275761 130.572769,32.9815447 131.239063,33.6270168 L131.239063,33.2314049 C130.676878,32.6900411 129.739902,32.3152508 128.802926,32.3152508 C127.324587,32.3152508 126.054464,33.1481181 126.054464,34.7097443 C126.054464,36.3338355 127.158013,36.9168426 128.740461,37.5831364 C130.239622,38.2077869 131.405637,38.7699723 131.405637,40.2691335 C131.405637,41.8515813 130.177157,42.6636269 128.615531,42.6636269 C127.595269,42.6636269 126.658293,42.268015 125.929534,41.5808994 L125.929534,41.9973331 Z" id="Shape" fill="#686867"></path>
                <path d="M3.20653907,41.8515813 L3.20653907,37.9579267 L7.72484411,37.9579267 L7.72484411,37.020951 L3.20653907,37.020951 L3.20653907,33.3355133 L8.03716935,33.3355133 L8.03716935,32.3985376 L2.10298991,32.3985376 L2.10298991,42.8093787 L8.09963439,42.8093787 L8.09963439,41.872403 L3.18571738,41.872403 L3.20653907,41.8515813 Z M18.4271888,33.0023664 C17.5943215,32.502646 16.5948807,32.2111424 15.5537966,32.2111424 C12.5554744,32.2111424 10.1818026,34.3765974 10.1818026,37.6039581 C10.1818026,40.7896755 12.4097226,42.9759521 15.5537966,42.9759521 C16.6157024,42.9759521 17.6567865,42.7052703 18.4896538,42.2055499 L18.4896538,40.956249 C17.7400733,41.6641862 16.6573458,41.9973331 15.5537966,41.9973331 C13.2009465,41.9973331 11.2853518,40.2691335 11.2853518,37.6039581 C11.2853518,34.9179611 13.2009465,33.2105832 15.5537966,33.2105832 C16.6573458,33.2105832 17.6984299,33.5645518 18.4480105,34.272489 L18.4480105,33.0023664 L18.4271888,33.0023664 Z M20.1762101,37.6039581 C20.1762101,40.7896755 22.5707036,42.9759521 25.5690258,42.9759521 C28.567348,42.9759521 30.9410198,40.7896755 30.9410198,37.6039581 C30.9410198,34.4182407 28.5465264,32.2111424 25.5690258,32.2111424 C22.5707036,32.2111424 20.1762101,34.3974191 20.1762101,37.6039581 Z M29.8374707,37.6039581 C29.8374707,40.2899551 27.9010542,41.9973331 25.5690258,41.9973331 C23.2161757,41.9973331 21.3005809,40.2691335 21.3005809,37.6039581 C21.3005809,34.9179611 23.2369974,33.2105832 25.5690258,33.2105832 C27.9218759,33.2105832 29.8374707,34.9387828 29.8374707,37.6039581 Z" id="Shape" fill="#26B4B0"></path>
            </g>
        </g>
    </g>
</svg>