<?xml version="1.0" encoding="UTF-8"?>
<svg width="140px" height="45px" viewBox="0 0 140 45" version="1.1" xmlns="http://www.w3.org/2000/svg" xmlns:xlink="http://www.w3.org/1999/xlink">
    <!-- Generator: Sketch 48.2 (47327) - http://www.bohemiancoding.com/sketch -->
    <title>logo-lampfree</title>
    <desc>Created with Sketch.</desc>
    <defs></defs>
    <g id="Escuelas-libres-de-mercurio-v2" stroke="none" stroke-width="1" fill="none" fill-rule="evenodd" transform="translate(-167.000000, -5177.000000)">
        <g id="7---footer" transform="translate(-1.000000, 5063.000000)" fill="#FFFFFF">
            <g transform="translate(725.500000, 209.746094) rotate(-90.000000) translate(-725.500000, -209.746094) translate(516.000000, -515.253906)" id="logo-lampfree">
                <g transform="translate(282.500000, 237.912109) rotate(-270.000000) translate(-282.500000, -237.912109) translate(212.500000, 215.912109)">
                    <path d="M7.6022,34.5486 C7.1672,33.9516 6.3842,33.6946 5.7142,33.6946 C4.0052,33.6946 2.8452,35.0166 2.8452,36.7276 C2.8452,38.5326 3.9462,39.7886 5.6572,39.7886 C6.5482,39.7886 7.2492,39.4006 7.6732,38.8246 L8.8572,39.6586 C8.1282,40.5716 7.0522,41.1116 5.6452,41.1116 C3.0532,41.1116 1.2152,39.3196 1.2152,36.7276 C1.2152,34.0686 3.1612,32.3926 5.7142,32.3926 C6.7942,32.3926 8.0702,32.7896 8.7272,33.6576 L7.6022,34.5486 Z" id="Fill-1"></path>
                    <path d="M12.6037,32.6033 L13.8817,32.6033 L17.4547,40.8993 L15.7677,40.8993 L14.9927,39.0013 L11.3967,39.0013 L10.6467,40.8993 L8.9937,40.8993 L12.6037,32.6033 Z M14.4787,37.7373 L13.2017,34.3623 L11.8987,37.7373 L14.4787,37.7373 Z" id="Fill-3"></path>
                    <path d="M22.6803,34.3386 C22.3623,33.9266 21.7423,33.6226 21.1543,33.6226 C20.4763,33.6226 19.6923,33.9516 19.6923,34.7586 C19.6923,35.5216 20.3353,35.7416 21.2723,36.0366 C22.3383,36.3656 23.6973,36.8336 23.6973,38.4616 C23.6973,40.2436 22.3053,41.1116 20.6753,41.1116 C19.5963,41.1116 18.4853,40.6996 17.8273,39.9256 L18.8823,38.9426 C19.2913,39.5056 20.0423,39.8576 20.7003,39.8576 C21.3883,39.8576 22.1973,39.5176 22.1973,38.6256 C22.1973,37.7596 21.3333,37.5146 20.2883,37.1856 C19.2823,36.8686 18.1913,36.3766 18.1913,34.8286 C18.1913,33.1426 19.7263,32.3936 21.2263,32.3936 C22.0593,32.3936 23.0073,32.6856 23.6413,33.2826 L22.6803,34.3386 Z" id="Fill-5"></path>
                    <polygon id="Fill-7" points="25.111 40.9 26.588 40.9 26.588 32.604 25.111 32.604"></polygon>
                    <path d="M32.4054,32.3924 C34.9984,32.3924 36.8824,34.0674 36.8824,36.7274 C36.8824,39.3184 34.9984,41.1114 32.4054,41.1114 C29.8524,41.1114 27.9654,39.3184 27.9654,36.7274 C27.9654,34.0674 29.8524,32.3924 32.4054,32.3924 M32.4194,39.7884 C34.1184,39.7884 35.2784,38.4984 35.2784,36.7274 C35.2784,35.0174 34.1404,33.6934 32.4194,33.6934 C30.7084,33.6934 29.5714,35.0174 29.5714,36.7274 C29.5714,38.4984 30.7324,39.7884 32.4194,39.7884" id="Fill-9"></path>
                    <path d="M48.7668,40.4676 C47.9368,40.8646 46.9408,41.1116 45.6378,41.1116 C42.9668,41.1116 41.1048,39.3196 41.1048,36.7276 C41.1048,34.0686 43.0508,32.3926 45.6048,32.3926 C46.9178,32.3926 48.0858,32.8136 48.7548,33.4356 L47.7348,34.5366 C47.3128,34.0686 46.5058,33.6946 45.6138,33.6946 C43.8688,33.6946 42.7328,35.0176 42.7328,36.7276 C42.7328,38.4976 43.8568,39.7876 45.6848,39.7876 C46.3068,39.7876 46.8578,39.6936 47.3368,39.4926 L47.3368,37.3856 L45.5908,37.3856 L45.5908,36.1656 L48.7668,36.1656 L48.7668,40.4676 Z" id="Fill-10"></path>
                    <path d="M50.3776,35.2752 L51.7256,35.2752 L51.7256,36.2122 L51.7476,36.2122 C52.0546,35.5692 52.6486,35.1112 53.3876,35.1112 C53.4956,35.1112 53.6346,35.1222 53.7276,35.1472 L53.7276,36.4352 C53.5426,36.3882 53.4226,36.3772 53.2956,36.3772 C52.0296,36.3772 51.7836,37.4772 51.7836,37.8882 L51.7836,40.9002 L50.3776,40.9002 L50.3776,35.2752 Z" id="Fill-11"></path>
                    <path d="M60.1125,38.533 L55.8365,38.533 C55.8965,39.329 56.6225,39.916 57.4425,39.916 C58.1465,39.916 58.6135,39.634 58.9305,39.189 L59.8675,39.939 C59.3165,40.689 58.5185,41.064 57.4545,41.064 C55.7185,41.064 54.4305,39.95 54.4305,38.123 C54.4305,36.307 55.7075,35.111 57.4055,35.111 C58.9765,35.111 60.1275,36.13 60.1275,38.158 C60.1275,38.287 60.1275,38.404 60.1125,38.533 Z M58.7195,37.525 C58.7195,36.798 58.3095,36.166 57.3945,36.166 C56.5635,36.166 55.8965,36.74 55.8365,37.525 L58.7195,37.525 Z" id="Fill-12"></path>
                    <path d="M66.8664,38.533 L62.5884,38.533 C62.6484,39.329 63.3754,39.916 64.1934,39.916 C64.8994,39.916 65.3684,39.634 65.6834,39.189 L66.6224,39.939 C66.0694,40.689 65.2744,41.064 64.2084,41.064 C62.4724,41.064 61.1844,39.95 61.1844,38.123 C61.1844,36.307 62.4614,35.111 64.1594,35.111 C65.7284,35.111 66.8774,36.13 66.8774,38.158 C66.8774,38.287 66.8774,38.404 66.8664,38.533 Z M65.4734,37.525 C65.4734,36.798 65.0624,36.166 64.1484,36.166 C63.3164,36.166 62.6484,36.74 62.5884,37.525 L65.4734,37.525 Z" id="Fill-13"></path>
                    <path d="M68.1994,35.2752 L69.5344,35.2752 L69.5344,36.1762 L69.5594,36.1762 C69.8024,35.6152 70.4704,35.1112 71.3034,35.1112 C72.7684,35.1112 73.3804,36.2372 73.3804,37.3852 L73.3804,40.9002 L71.9734,40.9002 L71.9734,37.7832 C71.9734,37.1142 71.8204,36.2842 70.9144,36.2842 C70.0264,36.2842 69.6044,37.0562 69.6044,37.8062 L69.6044,40.9002 L68.1994,40.9002 L68.1994,35.2752 Z" id="Fill-14"></path>
                    <polygon id="Fill-15" points="79.5226 33.8914 76.9796 33.8914 76.9796 32.6044 83.5426 32.6044 83.5426 33.8914 80.9986 33.8914 80.9986 40.9004 79.5226 40.9004"></polygon>
                    <path d="M89.088,38.533 L84.812,38.533 C84.87,39.329 85.597,39.916 86.417,39.916 C87.12,39.916 87.589,39.634 87.903,39.189 L88.841,39.939 C88.292,40.689 87.495,41.064 86.427,41.064 C84.693,41.064 83.405,39.95 83.405,38.123 C83.405,36.307 84.683,35.111 86.382,35.111 C87.951,35.111 89.1,36.13 89.1,38.158 C89.1,38.287 89.1,38.404 89.088,38.533 Z M87.694,37.525 C87.694,36.798 87.283,36.166 86.368,36.166 C85.536,36.166 84.87,36.74 84.812,37.525 L87.694,37.525 Z" id="Fill-16"></path>
                    <path d="M94.0939,36.8338 C93.8719,36.5158 93.3939,36.2838 92.9329,36.2838 C91.9039,36.2838 91.3859,37.2088 91.3859,38.0878 C91.3859,38.9648 91.9129,39.8928 92.9819,39.8928 C93.4149,39.8928 93.8969,39.7168 94.1669,39.3888 L95.0439,40.2788 C94.5739,40.7838 93.8009,41.0638 92.9679,41.0638 C91.3069,41.0638 89.9229,39.9638 89.9229,38.0878 C89.9229,36.2598 91.2819,35.1108 92.9329,35.1108 C93.7549,35.1108 94.6079,35.4388 95.0569,35.9898 L94.0939,36.8338 Z" id="Fill-17"></path>
                    <path d="M101.2189,37.3845 L101.2189,40.9005 L99.8119,40.9005 L99.8119,37.8065 C99.8119,37.1375 99.6699,36.3195 98.7689,36.3195 C97.8779,36.3195 97.4459,37.0805 97.4459,37.8295 L97.4459,40.9005 L96.0389,40.9005 L96.0389,32.0405 L97.4459,32.0405 L97.4459,36.0605 L97.4689,36.0605 C97.6919,35.5925 98.3129,35.1115 99.1459,35.1115 C100.6109,35.1115 101.2189,36.2375 101.2189,37.3845" id="Fill-18"></path>
                    <path d="M102.7619,35.2752 L104.1019,35.2752 L104.1019,36.1762 L104.1209,36.1762 C104.3689,35.6152 105.0369,35.1112 105.8689,35.1112 C107.3339,35.1112 107.9419,36.2372 107.9419,37.3852 L107.9419,40.9002 L106.5359,40.9002 L106.5359,37.7832 C106.5359,37.1142 106.3829,36.2842 105.4819,36.2842 C104.5909,36.2842 104.1689,37.0562 104.1689,37.8062 L104.1689,40.9002 L102.7619,40.9002 L102.7619,35.2752 Z" id="Fill-19"></path>
                    <path d="M112.2824,35.1111 C113.9814,35.1111 115.3414,36.2941 115.3414,38.0641 C115.3414,39.8331 113.9814,41.0641 112.2824,41.0641 C110.5854,41.0641 109.2234,39.8331 109.2234,38.0641 C109.2234,36.2941 110.5854,35.1111 112.2824,35.1111 M112.2824,39.8931 C113.3954,39.8931 113.9124,38.9431 113.9124,38.0641 C113.9124,37.1851 113.3954,36.2581 112.2824,36.2581 C111.1694,36.2581 110.6554,37.1851 110.6554,38.0641 C110.6554,38.9431 111.1694,39.8931 112.2824,39.8931" id="Fill-20"></path>
                    <polygon id="Fill-21" points="116.681 40.9 118.087 40.9 118.087 32.04 116.681 32.04"></polygon>
                    <path d="M122.4865,35.1111 C124.1805,35.1111 125.5435,36.2941 125.5435,38.0641 C125.5435,39.8331 124.1805,41.0641 122.4865,41.0641 C120.7865,41.0641 119.4235,39.8331 119.4235,38.0641 C119.4235,36.2941 120.7865,35.1111 122.4865,35.1111 M122.4865,39.8931 C123.5965,39.8931 124.1135,38.9431 124.1135,38.0641 C124.1135,37.1851 123.5965,36.2581 122.4865,36.2581 C121.3715,36.2581 120.8545,37.1851 120.8545,38.0641 C120.8545,38.9431 121.3715,39.8931 122.4865,39.8931" id="Fill-22"></path>
                    <path d="M132.6476,35.2752 L132.6476,40.3972 C132.6476,42.4222 131.6636,43.7122 129.4716,43.7122 C128.5576,43.7122 127.4096,43.3832 126.6826,42.7862 L127.4906,41.6972 C128.0306,42.2122 128.7546,42.4942 129.4596,42.4942 C130.8196,42.4942 131.2406,41.6732 131.2406,40.5592 L131.2406,40.1502 L131.2196,40.1502 C130.8076,40.7002 130.1516,40.9932 129.3766,40.9932 C127.6886,40.9932 126.5996,39.6582 126.5996,38.0642 C126.5996,36.4352 127.6546,35.1112 129.3536,35.1112 C130.1406,35.1112 130.8766,35.4402 131.2876,36.1192 L131.3116,36.1192 L131.3116,35.2752 L132.6476,35.2752 Z M128.0306,38.0512 C128.0306,38.9432 128.6286,39.8332 129.6356,39.8332 C130.6776,39.8332 131.3116,38.9892 131.3116,38.0512 C131.3116,37.0812 130.6656,36.2582 129.6456,36.2582 C128.6286,36.2582 128.0306,37.0562 128.0306,38.0512 Z" id="Fill-23"></path>
                    <path d="M133.5558,35.2752 L135.1128,35.2752 L136.6838,39.3652 L136.7058,39.3652 L138.1008,35.2752 L139.5658,35.2752 L136.9068,42.1072 C136.5038,43.1262 136.0148,43.7122 134.7728,43.7122 C134.5368,43.7122 134.2928,43.6892 134.0438,43.6292 L134.1628,42.4122 C134.3528,42.4692 134.5368,42.4942 134.6918,42.4942 C135.2888,42.4942 135.4518,42.2002 135.6868,41.6142 L135.9668,40.9002 L133.5558,35.2752 Z" id="Fill-24"></path>
                    <polygon id="Fill-25" points="35.5143 18.261 40.7603 18.261 40.7603 21.139 32.2813 21.139 32.2813 4.357 35.5143 4.357"></polygon>
                    <path d="M47.5939,8.1228 C45.4219,8.2158 43.7999,8.9628 42.7279,10.3628 C41.6529,11.7628 41.1149,13.2368 41.1149,14.7858 C41.1239,16.4488 41.6819,17.9518 42.7909,19.3038 C43.8979,20.6558 45.5129,21.3798 47.6389,21.4758 C48.7229,21.4638 49.5919,21.3068 50.2429,20.9978 C50.8959,20.6868 51.3909,20.2198 51.7339,19.6028 L51.7339,21.1808 L54.5499,21.1808 L54.5499,8.5078 L51.7339,8.5078 L51.7339,10.0328 C51.2289,9.3638 50.6279,8.8798 49.9299,8.5718 C49.2399,8.2688 48.4679,8.1228 47.6249,8.1228 L47.5939,8.1228 M45.0219,17.2238 C44.4179,16.3898 44.1139,15.5178 44.1139,14.6008 C44.1219,13.7878 44.4439,13.0008 45.0879,12.2478 C45.7279,11.4918 46.6059,11.0848 47.7299,11.0308 C48.9109,11.0848 49.8169,11.5018 50.4469,12.2768 C51.0789,13.0498 51.3969,13.8588 51.4089,14.6958 C51.3969,15.6698 51.0789,16.5478 50.4529,17.3228 C49.8239,18.0968 48.9319,18.5078 47.7779,18.5548 C46.5459,18.5028 45.6299,18.0558 45.0219,17.2238" id="Fill-26"></path>
                    <path d="M68.819,8.9168 C68.115,9.3578 67.575,9.8848 67.197,10.5098 C66.722,9.8108 66.091,9.2568 65.303,8.8458 C64.52,8.4318 63.716,8.2248 62.903,8.2158 C62.161,8.2248 61.49,8.3928 60.891,8.7158 C60.295,9.0418 59.793,9.4628 59.382,9.9708 L59.382,8.6018 L56.579,8.6018 L56.579,21.1388 L59.382,21.1388 L59.382,14.7408 C59.374,13.8178 59.574,12.9838 59.99,12.2298 C60.395,11.4778 61.09,11.0788 62.058,11.0308 C63.063,11.0538 63.752,11.3848 64.131,12.0268 C64.508,12.6648 64.689,13.4598 64.671,14.4038 L64.671,21.1388 L67.578,21.1388 L67.578,14.5558 C67.57,13.7168 67.778,12.9328 68.196,12.1998 C68.613,11.4658 69.297,11.0788 70.242,11.0308 C71.263,11.0648 71.965,11.4078 72.341,12.0608 C72.717,12.7158 72.894,13.4978 72.871,14.4038 L72.871,21.1388 L75.766,21.1388 L75.766,13.1728 C75.759,11.9028 75.351,10.7678 74.542,9.7818 C73.738,8.7938 72.593,8.2738 71.101,8.2158 C70.283,8.2418 69.522,8.4748 68.819,8.9168" id="Fill-27"></path>
                    <polygon id="Fill-28" points="92.9914 4.3572 92.9914 21.1382 96.2264 21.1382 96.2264 14.0302 102.0404 14.0302 102.0404 11.1702 96.2264 11.1702 96.2264 7.2662 102.0404 7.2662 102.0404 4.3572"></polygon>
                    <path d="M19.6642,13.2532 C16.7352,17.5282 13.3462,18.1992 11.6432,18.6932 C10.2452,19.0972 7.2292,19.7222 4.7672,22.5002 C6.9252,24.2172 9.6532,25.2472 12.6232,25.2472 C19.5962,25.2472 25.2452,19.5962 25.2452,12.6252 C25.2452,9.5292 24.1332,6.6952 22.2802,4.4982 C21.9932,7.2332 21.3052,10.8582 19.6642,13.2532" id="Fill-29"></path>
                    <path d="M0.0002,12.6248 C0.0002,16.3168 1.5862,19.6388 4.1162,21.9468 C5.0462,19.4348 7.4982,14.5598 12.9582,12.6538 C17.4802,11.0748 18.8072,9.5488 19.4062,7.9948 C18.3772,9.0778 18.0342,10.0088 11.3552,11.8398 C6.6292,13.1348 4.5712,16.5028 3.6832,19.4228 C3.6662,16.8238 4.0012,13.5478 5.5202,11.3778 C8.3812,7.2888 12.3052,6.6998 14.2572,6.2528 C15.7162,5.9198 18.7262,5.3988 21.1502,3.3158 C18.9042,1.2578 15.9092,-0.0002 12.6232,-0.0002 C5.6532,-0.0002 0.0002,5.6528 0.0002,12.6248" id="Fill-30"></path>
                    <path d="M127.4211,10.3123 C126.2631,11.6843 125.6751,13.1753 125.6471,14.7863 C125.6581,16.3633 126.2151,17.8453 127.3291,19.2353 C128.4421,20.6253 130.0761,21.3753 132.2171,21.4753 C133.9241,21.4263 135.2931,20.9943 136.3231,20.1713 C137.3551,19.3513 138.0831,18.3503 138.5081,17.1743 L135.3241,17.1743 C134.9421,17.7123 134.4941,18.1133 133.9721,18.3653 C133.4561,18.6163 132.8401,18.7423 132.1271,18.7423 C131.0691,18.7123 130.2441,18.3933 129.6421,17.7913 C129.0411,17.1913 128.7291,16.5093 128.6941,15.7413 L138.9411,15.7413 L138.9411,14.2633 C138.9081,12.8223 138.2941,11.4593 137.0841,10.1783 C135.8821,8.8923 134.2761,8.2113 132.2671,8.1233 C130.1921,8.2113 128.5801,8.9383 127.4211,10.3123 M130.0561,11.5313 C130.6921,11.0503 131.4421,10.8033 132.3131,10.7883 C133.1651,10.7943 133.9071,11.0363 134.5411,11.5083 C135.1731,11.9813 135.5881,12.6293 135.8041,13.4503 L128.7871,13.4503 C128.9991,12.6543 129.4211,12.0133 130.0561,11.5313" id="Fill-31"></path>
                    <path d="M87.0002,17.3172 C86.3812,18.1192 85.4682,18.5482 84.2722,18.6012 C83.1212,18.5652 82.2232,18.1582 81.5762,17.3862 C80.9332,16.6172 80.6082,15.7352 80.6012,14.7412 C80.6082,13.8182 80.9182,12.9842 81.5262,12.2302 C82.1312,11.4782 82.9992,11.0792 84.1252,11.0312 C85.3962,11.0792 86.3502,11.4822 86.9852,12.2482 C87.6212,13.0112 87.9392,13.8422 87.9392,14.7412 C87.9392,15.6572 87.6272,16.5162 87.0002,17.3172 M89.2692,10.3052 C88.1422,8.9352 86.5212,8.2112 84.4162,8.1232 C83.5372,8.1352 82.7832,8.2772 82.1472,8.5572 C81.5092,8.8342 80.9522,9.1852 80.4642,9.6042 L80.4642,8.5082 L77.5572,8.5082 L77.5572,25.2792 L80.4642,25.2792 L80.4642,20.1272 C80.9552,20.5742 81.5132,20.9092 82.1362,21.1312 C82.7552,21.3532 83.4692,21.4632 84.2722,21.4752 C86.4722,21.3892 88.1362,20.6762 89.2692,19.3362 C90.4062,17.9932 90.9772,16.4952 90.9832,14.8362 C90.9692,13.1832 90.3982,11.6732 89.2692,10.3052" id="Fill-32"></path>
                    <path d="M113.7336,13.45 C113.9446,12.654 114.3646,12.013 115.0036,11.531 C115.6376,11.05 116.3886,10.803 117.2616,10.788 C118.1106,10.794 118.8556,11.036 119.4836,11.508 C120.1176,11.981 120.5406,12.629 120.7486,13.45 L113.7336,13.45 Z M123.8846,14.263 C123.8516,12.822 123.2376,11.46 122.0306,10.178 C120.8266,8.892 119.2186,8.211 117.2126,8.123 C115.1386,8.211 113.5286,8.938 112.3716,10.312 C111.2096,11.684 110.6166,13.175 110.5926,14.786 C110.6056,16.363 111.1616,17.845 112.2766,19.235 C113.3866,20.626 115.0166,21.375 117.1646,21.475 C118.8716,21.427 120.2426,20.994 121.2666,20.171 C122.2986,19.351 123.0336,18.35 123.4586,17.174 L120.2706,17.174 C119.8886,17.712 119.4376,18.113 118.9226,18.365 C118.4016,18.616 117.7866,18.742 117.0696,18.742 C116.0156,18.712 115.1906,18.393 114.5896,17.792 C113.9856,17.191 113.6716,16.509 113.6406,15.741 L123.8846,15.741 L123.8846,14.263 Z" id="Fill-33"></path>
                    <path d="M108.1203,8.9632 C107.5373,9.2902 107.0983,9.6592 106.8033,10.0802 L106.8033,8.6932 L104.0833,8.6932 L104.0833,21.1392 L106.9903,21.1392 L106.9903,13.8362 C106.9903,13.0362 107.2493,12.3852 107.7653,11.8822 C108.2813,11.3802 109.0383,11.0932 110.0383,11.0312 L110.0383,8.3112 C109.3413,8.4212 108.7003,8.6382 108.1203,8.9632" id="Fill-34"></path>
                </g>
            </g>
        </g>
    </g>
</svg>