<?xml version="1.0" encoding="UTF-8"?>
<!DOCTYPE svg PUBLIC "-//W3C//DTD SVG 1.1//EN" "http://www.w3.org/Graphics/SVG/1.1/DTD/svg11.dtd">
<!-- Creator: CorelDRAW X6 -->
<svg xmlns="http://www.w3.org/2000/svg" xml:space="preserve" width="7.16389in" height="2.3006in" version="1.1" style="shape-rendering:geometricPrecision; text-rendering:geometricPrecision; image-rendering:optimizeQuality; fill-rule:evenodd; clip-rule:evenodd"
viewBox="700 5000 7164 2300"
 xmlns:xlink="http://www.w3.org/1999/xlink">
 <defs>
  <style type="text/css">
   <![CDATA[
    .fil0 {fill:#000000;fill-rule:nonzero}
    .fil2 {fill:#26B4B0;fill-rule:nonzero}
    .fil1 {fill:#686867;fill-rule:nonzero}    
    .fil3 {fill:#ffffff;fill-rule:nonzero}
   ]]>
  </style>
 </defs>
 <g id="Layer_x0020_1">
  <path class="fil3" d="M2236 6408l490 -1149 527 0 496 1149 -394 0 -81 -213 -562 0 -84 213 -392 0zm550 -445l410 0 -180 -453 -49 0 -180 453z"/>
  <path class="fil3" d="M3818 6279c-41,-51 -57,-183 -57,-219l374 0c0,0 -7,70 37,83 83,24 319,30 493,8 66,-9 95,-155 3,-174 -216,-43 -608,-14 -737,-76 -105,-50 -164,-123 -163,-327 -1,-206 142,-293 261,-317 88,-17 321,-21 384,-19 56,2 376,2 474,58 89,52 151,168 151,305l-368 -1c0,0 -6,-67 -49,-88 -65,-31 -406,-32 -462,-1 -63,35 -74,142 10,168 115,36 518,-11 752,71 158,54 178,260 149,419 -15,84 -101,202 -230,229 -172,36 -704,26 -813,7 -127,-23 -159,-66 -210,-128z"/>
  <polygon class="fil3" points="5229,6408 5606,6408 5606,5259 5229,5259 "/>
  <path class="fil3" d="M801 5833c0,305 14,476 260,558 77,26 259,37 452,37 187,0 380,-5 467,-33 167,-52 250,-205 250,-423l-377 0c-1,65 -16,125 -78,143 -58,16 -432,16 -511,-2 -57,-13 -80,-57 -84,-85 -9,-74 -9,-166 -9,-196 0,-30 0,-123 9,-197 4,-28 30,-69 87,-81 55,-12 437,-15 511,1 45,10 54,74 60,119l377 0c0,-218 -69,-353 -236,-404 -87,-27 -281,-31 -467,-31 -193,0 -369,4 -447,31 -252,85 -265,258 -265,563z"/>
  <path class="fil3" d="M7205 5833c0,314 -28,517 -335,574 -123,23 -627,25 -755,0 -314,-62 -329,-238 -329,-574l0 0c0,-336 15,-513 329,-574 128,-25 632,-23 755,0 307,57 335,260 335,574l0 0zm-380 -196c-8,-47 -52,-75 -86,-84 -33,-9 -184,-15 -238,-15 -54,0 -193,4 -245,12 -69,10 -74,31 -91,74 -10,26 -13,151 -13,208 0,56 3,182 13,208 18,43 22,65 91,75 52,7 191,12 245,12 54,0 205,-6 238,-15 33,-9 78,-36 86,-84 7,-48 10,-148 10,-196 0,-42 -3,-148 -10,-196z"/>
  <path class="fil3" d="M7480 6272c-8,-14 -19,-25 -33,-33 -14,-8 -29,-12 -45,-12 -16,0 -31,4 -45,12 -14,8 -25,19 -33,33 -8,14 -12,29 -12,45 0,16 4,32 13,46 8,14 19,25 33,33 14,8 29,12 45,12 16,0 31,-4 45,-12 14,-8 25,-19 33,-33 8,-14 13,-29 13,-46 0,-16 -4,-31 -12,-45zm-12 84c-7,12 -17,21 -28,28 -12,7 -24,10 -38,10 -13,0 -26,-3 -38,-10 -12,-7 -21,-16 -28,-28 -7,-12 -11,-25 -11,-39 0,-14 3,-27 10,-38 7,-12 16,-21 28,-28 12,-7 25,-10 38,-10 14,0 26,3 38,10 12,7 21,16 28,28 7,12 10,25 10,38 0,14 -3,27 -11,39z"/>
  <path class="fil3" d="M7427 6339c-4,-8 -9,-13 -12,-16 7,-3 13,-8 17,-13 4,-6 5,-12 5,-18 0,-5 -1,-11 -4,-15 -3,-5 -6,-8 -11,-11 -4,-3 -11,-4 -20,-4l-36 0 0 112 18 0 0 -47 13 0c2,0 5,4 9,11l4 7 15 29 20 0 -18 -34zm-30 -26l-12 0 0 -38 13 0c6,0 10,1 13,3 2,2 4,4 6,6 1,3 2,5 2,9 0,5 -2,10 -5,14 -3,4 -9,6 -17,6z"/>
  <path class="fil3" d="M2431 7089c12,2 38,3 58,3 120,0 189,-57 189,-157 0,-93 -61,-149 -189,-149 -24,0 -56,3 -76,7l0 499 17 0 0 -204zm0 -283c15,-3 41,-4 59,-4 125,0 172,57 172,134 0,93 -63,142 -173,142 -19,0 -46,-2 -58,-4l0 -268zm377 275l85 0 189 211 22 0 -193 -214c74,-7 142,-53 142,-146 0,-93 -60,-147 -184,-147 -24,0 -58,4 -78,8l0 498 17 0 0 -211zm0 -275c16,-3 43,-5 61,-5 114,0 168,49 168,132 0,91 -69,134 -152,134l-77 0 0 -261zm361 236c0,152 109,256 249,256 141,0 249,-104 249,-256 0,-152 -109,-255 -249,-255 -141,0 -249,104 -249,255zm482 0c0,146 -104,241 -232,241 -130,0 -232,-95 -232,-241 0,-145 103,-240 232,-240 129,0 232,95 232,240zm248 31l-175 -281 -19 0 185 298 0 203 16 0 0 -203 186 -298 -19 0 -175 281zm312 205l0 -234 238 0 0 -15 -238 0 0 -221 250 0 0 -15 -267 0 0 501 270 0 0 -15 -253 0zm744 -446c-40,-29 -92,-45 -147,-45 -141,0 -249,104 -249,256 0,153 109,255 253,255 56,0 113,-16 150,-45l0 -18c-41,32 -94,47 -150,47 -131,0 -237,-94 -237,-240 0,-147 104,-241 232,-241 53,0 108,17 147,49l0 -19zm272 -24l180 0 0 -15 -377 0 0 15 180 0 0 486 17 0 0 -486zm215 235c0,152 109,256 249,256 141,0 249,-104 249,-256 0,-152 -109,-255 -249,-255 -141,0 -249,104 -249,255zm482 0c0,146 -104,241 -232,241 -130,0 -232,-95 -232,-241 0,-145 103,-240 232,-240 129,0 232,95 232,240zm162 40l85 0 189 211 22 0 -193 -214c74,-7 142,-53 142,-146 0,-93 -60,-147 -184,-147 -24,0 -58,4 -78,8l0 498 17 0 0 -211zm0 -275c16,-3 43,-5 61,-5 114,0 168,49 168,132 0,91 -69,134 -152,134l-77 0 0 -261zm414 472l0 -234 238 0 0 -15 -238 0 0 -221 250 0 0 -15 -267 0 0 501 270 0 0 -15 -253 0zm348 -26c29,27 76,46 129,46 83,0 150,-45 150,-129 0,-82 -61,-112 -139,-144 -77,-31 -117,-58 -117,-123 0,-66 52,-100 115,-100 44,0 85,17 117,48l0 -19c-27,-26 -72,-44 -117,-44 -71,0 -132,40 -132,115 0,78 53,106 129,138 72,30 128,57 128,129 0,76 -59,115 -134,115 -49,0 -94,-19 -129,-52l0 20z"/>
  <path class="fil3" d="M954 7247l0 -187 217 0 0 -45 -217 0 0 -177 232 0 0 -45 -285 0 0 500 288 0 0 -45 -236 0zm731 -425c-40,-24 -88,-38 -138,-38 -144,0 -258,104 -258,259 0,153 107,258 258,258 51,0 101,-13 141,-37l0 -60c-36,34 -88,50 -141,50 -113,0 -205,-83 -205,-211 0,-129 92,-211 205,-211 53,0 103,17 139,51l0 -61zm84 221c0,153 115,258 259,258 144,0 258,-105 258,-258 0,-153 -115,-259 -258,-259 -144,0 -259,105 -259,259zm464 0c0,129 -93,211 -205,211 -113,0 -205,-83 -205,-211 0,-129 93,-211 205,-211 113,0 205,83 205,211z"/>
 </g>
</svg>
