<?xml version="1.0" encoding="UTF-8"?>
<svg width="33px" height="33px" viewBox="0 0 33 33" version="1.1" xmlns="http://www.w3.org/2000/svg" xmlns:xlink="http://www.w3.org/1999/xlink">
    <!-- Generator: Sketch 48.2 (47327) - http://www.bohemiancoding.com/sketch -->
    <title>hoja-beneficios</title>
    <desc>Created with Sketch.</desc>
    <defs>
        <polygon id="path-1" points="6.94986979e-05 0.000138997396 32.7971305 0.000138997396 32.7971305 32.797061 6.94986979e-05 32.797061"></polygon>
    </defs>
    <g id="Escuelas-libres-de-mercurio-v2" stroke="none" stroke-width="1" fill="none" fill-rule="evenodd" transform="translate(-167.000000, -1034.000000)">
        <g id="2---beneficios-del-programa" transform="translate(0.000000, 815.000000)">
            <g id="1" transform="translate(167.000000, 218.000000)">
                <g id="hoja-beneficios" transform="translate(0.000000, 1.160000)">
                    <mask id="mask-2" fill="white">
                        <use xlink:href="#path-1"></use>
                    </mask>
                    <g id="Clip-2"></g>
                    <path d="M5.34590934,28.5112848 C6.55866162,25.244151 9.74309196,18.9162946 16.837519,16.437971 C22.711549,14.3877594 24.4316418,12.4035716 25.2107222,10.3867194 C23.8749572,11.7926781 23.4294705,13.0019554 14.7546431,15.3815908 C8.61304313,17.0648493 5.93942822,21.4370124 4.78505485,25.2316413 C4.76420524,21.8581745 5.19718213,17.5965143 7.16955518,14.7797321 C10.8898205,9.46655664 15.988245,8.70346094 18.5207775,8.12175684 C20.418092,7.68877995 24.3287837,7.01255762 27.4756847,4.30627832 C24.579674,1.65212305 20.7224963,0.0223785807 16.4879406,0.000138997396 L16.2356603,0.000138997396 C7.25434359,0.0890973307 6.94986979e-05,7.3975804 6.94986979e-05,16.4004417 C6.94986979e-05,21.1937669 2.06209587,25.512416 5.34590934,28.5112848 M28.9483621,5.84497949 C31.3530171,8.69512109 32.7972,12.3785521 32.7972,16.4004417 C32.7972,25.458207 25.4630024,32.7972695 16.4003722,32.7972695 C12.5397196,32.7972695 8.99598096,31.4649795 6.1917085,29.2292064 C9.39212354,25.620139 13.3111551,24.8070042 15.1257661,24.282984 C17.3365197,23.6394261 21.7420422,22.7693024 25.5457059,17.2177464 C27.6820959,14.1035098 28.5730692,9.39219303 28.9483621,5.84497949" id="Fill-1" fill="#27B3AF" mask="url(#mask-2)"></path>
                </g>
            </g>
        </g>
    </g>
</svg>