<?xml version="1.0" encoding="UTF-8"?>
<svg width="97px" height="97px" viewBox="0 0 97 97" version="1.1" xmlns="http://www.w3.org/2000/svg" xmlns:xlink="http://www.w3.org/1999/xlink">
    <!-- Generator: Sketch 49 (51002) - http://www.bohemiancoding.com/sketch -->
    <title>Group</title>
    <desc>Created with Sketch.</desc>
    <defs></defs>
    <g id="Page-1" stroke="none" stroke-width="1" fill="none" fill-rule="evenodd">
        <g id="Escuelas-libres-de-mercurio-Thank-You-page" transform="translate(-668.000000, -950.000000)" fill="#A2C748" fill-rule="nonzero">
            <g id="2---beneficios-del-programa" transform="translate(0.000000, 665.867188)">
                <g id="Group-2" transform="translate(555.000000, 254.000000)">
                    <g id="Group" transform="translate(113.000000, 30.000000)">
                        <path d="M54.9925943,46.0609132 C55.2762941,46.615725 55.8406879,46.9362495 56.4242454,46.9362495 C56.6679267,46.9362495 56.9179959,46.8800732 57.1505923,46.7615205 C57.2450963,46.713423 66.6819694,41.9196463 71.3361507,40.4494796 C72.1795473,40.1817496 72.6475582,39.2806736 72.3798282,38.4374649 C72.1136012,37.5940683 71.219101,37.1243665 70.3678135,37.3905935 C65.4650659,38.9409852 56.092448,43.7026344 55.6948924,43.9046061 C54.9059812,44.3053557 54.5918447,45.2706869 54.9925943,46.0609132 Z" id="Shape"></path>
                        <path d="M56.4242454,27.6974511 C56.6679267,27.6974511 56.9179959,27.6412747 57.1505923,27.522722 C57.2450963,27.4746245 66.6819694,22.6808478 71.3361507,21.2106811 C72.1795473,20.9429511 72.6475582,20.0418751 72.3798282,19.1986664 C72.1136012,18.3552698 71.219101,17.885568 70.3678135,18.151795 C65.4650659,19.7021868 56.092448,24.4638359 55.6948924,24.6658077 C54.9061691,25.0665573 54.5918447,26.0317006 54.9925943,26.8221148 C55.2762941,27.3767387 55.8406879,27.6974511 56.4242454,27.6974511 Z" id="Shape"></path>
                        <path d="M94.900715,24.4908907 C94.0141059,24.4908907 93.2975288,25.2091587 93.2975288,26.094077 L93.2975288,88.6207826 C93.2975288,91.2725312 91.1395308,93.4305292 88.4877822,93.4305292 L50.0098095,93.4305292 L50.0098095,89.7414911 C52.3474215,88.9238342 58.436448,87.0175964 64.4390493,87.0175964 C78.4049752,87.0175964 87.8882548,90.110301 87.9827588,90.1422407 C88.4652365,90.302503 89.0040785,90.2224658 89.4256828,89.9209172 C89.8440932,89.6195565 90.0909685,89.1353879 90.0909685,88.6205947 L90.0909685,18.0779579 C90.0909685,17.3260592 89.5699752,16.6750525 88.8355494,16.5130993 C88.8355494,16.5130993 87.5786274,16.2325934 85.4302113,15.8380439 C84.562766,15.6777816 83.7244422,16.2549512 83.563992,17.1238996 C83.4037298,17.9960419 83.9792084,18.8313596 84.8498477,18.9916219 C85.6691956,19.1423022 86.355336,19.2753218 86.8844081,19.3812865 L86.8844081,86.4900273 C83.2513585,85.5376599 75.183948,83.811036 64.4388614,83.811036 C57.453456,83.811036 50.5916761,86.1052476 48.4688118,86.8828859 C46.5817378,86.0492591 40.8774911,83.811036 33.9770078,83.811036 C22.9337544,83.811036 13.8369454,85.6323518 9.92827481,86.5574765 L9.92827481,19.3187222 C13.1299503,18.531502 22.5859872,16.4745838 33.9770078,16.4745838 C39.8225408,16.4745838 44.8357622,18.2942086 46.8030613,19.1167504 L46.8030613,82.2078498 C46.8030613,82.7850194 47.1140039,83.3189764 47.6158333,83.6026763 C48.1176627,83.8880671 48.7365418,83.8799882 49.2319833,83.5818215 C49.3907425,83.4873175 65.2756822,73.999153 79.3746276,69.3000681 C80.0303313,69.0804356 80.4712874,68.4696353 80.4712874,67.77861 L80.4712874,2.04534401 C80.4712874,1.51946586 80.2131393,1.02721835 79.7802621,0.727548596 C79.3505789,0.427690957 78.7991489,0.358738731 78.3037075,0.543237604 C65.4761509,5.35448724 52.4964109,13.4316675 52.3663975,13.5118926 C51.6160018,13.9815944 51.3867874,14.9707864 51.8564892,15.7211821 C52.3246879,16.4715777 53.31388,16.7007922 54.0657786,16.2310904 C54.1843314,16.1557502 65.4761509,9.13032619 77.264727,4.38953183 L77.264727,66.6308467 C66.3208626,70.4337404 54.8945205,76.6431984 50.0094338,79.4230817 L50.0094338,18.0779579 C50.0094338,17.4703516 49.6663635,16.9155398 49.1228246,16.6431128 C48.8470157,16.5068993 42.2770146,13.2682113 33.9770078,13.2682113 C19.4900886,13.2682113 8.35233128,16.4026255 7.88413251,16.5371481 C7.19630117,16.7327319 6.72171446,17.3628838 6.72171446,18.0779579 L6.72171446,88.6209705 C6.72171446,89.1227999 6.95900781,89.5973866 7.35825436,89.9004382 C7.64045121,90.1136829 7.98032744,90.2243446 8.32508857,90.2243446 C8.47257494,90.2243446 8.62006131,90.2034898 8.76435371,90.1617803 C8.87501546,90.1313436 19.9614813,87.0177843 33.9770078,87.0177843 C39.8385106,87.0177843 44.847035,88.842294 46.8030613,89.6614539 L46.8030613,93.4307171 L8.32508857,93.4307171 C5.67334,93.4307171 3.51534198,91.2727191 3.51534198,88.6209705 L3.51534198,26.0942648 C3.51534198,25.2093466 2.79707397,24.4910786 1.91215575,24.4910786 C1.02723753,24.4910786 0.308969511,25.2093466 0.308969511,26.0942648 L0.308969511,88.6209705 C0.308969511,93.0410524 3.90500661,96.6372774 8.32527645,96.6372774 L88.4877822,96.6372774 C92.9078642,96.6372774 96.5040892,93.0412403 96.5040892,88.6209705 L96.5040892,26.0942648 C96.5039013,25.2091587 95.7873242,24.4908907 94.900715,24.4908907 Z" id="Shape"></path>
                        <path d="M54.9925943,36.4414201 C55.2762941,36.9962318 55.8406879,37.3167564 56.4242454,37.3167564 C56.6679267,37.3167564 56.9179959,37.26058 57.1505923,37.1420273 C57.2450963,37.0939298 66.6819694,32.3001531 71.3361507,30.8299864 C72.1795473,30.5622564 72.6475582,29.6611804 72.3798282,28.8179717 C72.1136012,27.9745751 71.219101,27.5048733 70.3678135,27.7711003 C65.4650659,29.3214921 56.092448,34.0831412 55.6948924,34.285113 C54.9059812,34.6858626 54.5918447,35.6511937 54.9925943,36.4414201 Z" id="Shape"></path>
                        <path d="M54.9925943,55.6804064 C55.2762941,56.2352182 55.8406879,56.5557427 56.4242454,56.5557427 C56.6679267,56.5557427 56.9179959,56.4995664 57.1505923,56.3810136 C57.2450963,56.3329162 66.6819694,51.5391395 71.3361507,50.0689728 C72.1795473,49.8012427 72.6475582,48.9001668 72.3798282,48.0569581 C72.1136012,47.2135615 71.219101,46.7438597 70.3678135,47.0100867 C65.4650659,48.5604784 56.092448,53.3221275 55.6948924,53.5240993 C54.9059812,53.9248489 54.5918447,54.8901801 54.9925943,55.6804064 Z" id="Shape"></path>
                        <path d="M39.1525581,30.1953253 C29.252559,27.8721801 18.002449,30.8318652 17.5295532,30.9584968 C16.6750717,31.1877113 16.1668543,32.0662416 16.3960688,32.9224141 C16.5884587,33.6389912 17.2360835,34.1103839 17.9432666,34.1103839 C18.081171,34.1103839 18.2205785,34.0927231 18.3601739,34.0558985 C18.4676417,34.0254618 29.2991534,31.1764385 38.4217021,33.3167757 C39.2793776,33.5172444 40.1468229,32.9832874 40.3487947,32.120727 C40.5505786,31.2598575 40.0151185,30.3972971 39.1525581,30.1953253 Z" id="Shape"></path>
                        <path d="M39.1525581,39.8148185 C29.252559,37.4933642 18.002449,40.4513584 17.5295532,40.57799 C16.6750717,40.8072045 16.1668543,41.6859227 16.3960688,42.5419072 C16.5884587,43.2584843 17.2360835,43.7298771 17.9432666,43.7298771 C18.081171,43.7298771 18.2205785,43.7122163 18.3601739,43.6753917 C18.4676417,43.644955 29.2991534,40.7959317 38.4217021,42.9362689 C39.2793776,43.1367376 40.1468229,42.6027806 40.3487947,41.7402202 C40.5505786,40.8793507 40.0151185,40.0167903 39.1525581,39.8148185 Z" id="Shape"></path>
                        <path d="M54.9925943,65.2998996 C55.2762941,65.8547114 55.8406879,66.1752359 56.4242454,66.1752359 C56.6679267,66.1752359 56.9179959,66.1190596 57.1505923,66.0005068 C57.2450963,65.9524094 66.6819694,61.1586326 71.3361507,59.6884659 C72.1795473,59.4207359 72.6475582,58.51966 72.3798282,57.6764513 C72.1136012,56.8332426 71.219101,56.3633529 70.3678135,56.6295798 C65.4650659,58.1799716 56.092448,62.9416207 55.6948924,63.1435925 C54.9059812,63.5443421 54.5918447,64.5096733 54.9925943,65.2998996 Z" id="Shape"></path>
                        <path d="M39.1525581,49.4343117 C29.252559,47.1128574 18.002449,50.0691607 17.5295532,50.1974832 C16.6750717,50.4266977 16.1668543,51.3054158 16.3960688,52.1614004 C16.5884587,52.8779775 17.2360835,53.3510612 17.9432666,53.3510612 C18.081171,53.3510612 18.2205785,53.3318973 18.3601739,53.2948848 C18.4676417,53.2644482 29.2991534,50.4154248 38.4217021,52.5557621 C39.2793776,52.7562308 40.1468229,52.2222738 40.3487947,51.3597134 C40.5505786,50.4988439 40.0151185,49.6362835 39.1525581,49.4343117 Z" id="Shape"></path>
                        <path d="M39.1525581,68.673298 C29.252559,66.3501529 18.002449,69.3098379 17.5295532,69.4364695 C16.6750717,69.665684 16.1668543,70.5444022 16.3960688,71.4003868 C16.5884587,72.1169639 17.2360835,72.5900475 17.9432666,72.5900475 C18.081171,72.5900475 18.2205785,72.5708837 18.3601739,72.5338712 C18.4676417,72.5034345 29.2991534,69.6544112 38.4217021,71.7947484 C39.2793776,71.9935262 40.1468229,71.4612601 40.3487947,70.5986997 C40.5505786,69.7378302 40.0151185,68.8752698 39.1525581,68.673298 Z" id="Shape"></path>
                        <path d="M39.1525581,59.0538049 C29.252559,56.7306597 18.002449,59.6886538 17.5295532,59.8169764 C16.6750717,60.0461909 16.1668543,60.924909 16.3960688,61.7808936 C16.5884587,62.4974707 17.2360835,62.9705544 17.9432666,62.9705544 C18.081171,62.9705544 18.2205785,62.9513905 18.3601739,62.914378 C18.4676417,62.8839413 29.2991534,60.034918 38.4217021,62.1752552 C39.2793776,62.375724 40.1468229,61.8417669 40.3487947,60.9792065 C40.5505786,60.118337 40.0151185,59.2557766 39.1525581,59.0538049 Z" id="Shape"></path>
                    </g>
                </g>
            </g>
        </g>
    </g>
</svg>