<?xml version="1.0" encoding="UTF-8"?>
<svg width="82px" height="51px" viewBox="0 0 82 51" version="1.1" xmlns="http://www.w3.org/2000/svg" xmlns:xlink="http://www.w3.org/1999/xlink">
    <!-- Generator: Sketch 48.2 (47327) - http://www.bohemiancoding.com/sketch -->
    <title>logo-tco</title>
    <desc>Created with Sketch.</desc>
    <defs>
        <polygon id="path-1" points="0.0001 0.969 81.924 0.969 81.924 51.9998 0.0001 51.9998"></polygon>
        <polygon id="path-3" points="0 52.031 81.924 52.031 81.924 1 0 1"></polygon>
    </defs>
    <g id="Escuelas-libres-de-mercurio-v2" stroke="none" stroke-width="1" fill="none" fill-rule="evenodd" transform="translate(-168.000000, -3023.000000)">
        <g id="logo-tco" transform="translate(168.176071, 3022.000000)">
            <g id="Group-3" transform="translate(0.000000, 0.031000)">
                <mask id="mask-2" fill="white">
                    <use xlink:href="#path-1"></use>
                </mask>
                <g id="Clip-2"></g>
                <path d="M45.3771,0.9688 C21.9291,0.9688 2.8971,23.5878 0.0001,26.4858 C2.8971,29.3808 21.9291,51.9998 45.3771,51.9998 C62.7541,51.9998 72.4501,38.6738 81.9241,26.4858 C70.7951,13.0168 62.7541,0.9688 45.3771,0.9688 M47.5541,47.1868 C35.9431,47.1868 26.5331,37.7768 26.5331,26.1668 C26.5331,14.5568 35.9431,5.1458 47.5541,5.1458 C59.1631,5.1458 68.5741,14.5568 68.5741,26.1668 C68.5741,37.7768 59.1631,47.1868 47.5541,47.1868" id="Fill-1" fill="#008D3F" mask="url(#mask-2)"></path>
            </g>
            <polygon id="Fill-4" fill="#283582" points="61.7834 16.7859 60.9584 13.5859 33.9114 13.5859 32.8784 16.7859 38.1434 16.7859 38.1434 32.6819 43.2014 32.6819 43.2014 16.7859"></polygon>
            <path d="M53.6027,32.5799 C52.8517,32.5799 52.2367,31.9519 52.2367,31.1879 L52.2367,19.4719 C52.2367,18.7049 52.8517,18.0789 53.6027,18.0789 L60.4667,18.0789 C61.2177,18.0789 61.8317,18.7049 61.8317,19.4719 L61.8317,31.1879 C61.8317,31.9519 61.2177,32.5799 60.4667,32.5799 L53.6027,32.5799 Z M58.0417,21.9469 C58.0417,21.3989 57.5987,20.9549 57.0487,20.9549 C56.4997,20.9549 56.0567,21.3989 56.0567,21.9469 L56.0567,28.5939 C56.0567,29.1419 56.4997,29.5859 57.0487,29.5859 C57.5987,29.5859 58.0417,29.1419 58.0417,28.5939 L58.0417,21.9469 Z" id="Fill-6" fill="#283582"></path>
            <path d="M49.1359,29.6258 C48.7669,29.6258 48.4669,29.3248 48.4669,28.9568 L48.4669,21.7268 C48.4669,21.3568 48.7669,21.0568 49.1359,21.0568 L50.8399,21.0568 L50.8399,18.0898 L46.3629,18.0898 C45.6109,18.0898 44.9949,18.7168 44.9949,19.4838 L44.9949,31.1998 C44.9949,31.9628 45.6109,32.5918 46.3629,32.5918 L50.8399,32.5918 L50.8399,29.6258 L49.1359,29.6258 Z" id="Fill-8" fill="#283582"></path>
            <path d="M35.4924,36.076 C35.4434,35.997 35.3814,35.928 35.3064,35.867 C35.2314,35.806 35.1464,35.758 35.0524,35.722 C34.9574,35.691 34.8594,35.673 34.7564,35.673 C34.5664,35.673 34.4054,35.711 34.2744,35.782 C34.1424,35.856 34.0364,35.955 33.9544,36.076 C33.8724,36.198 33.8114,36.339 33.7744,36.497 C33.7364,36.653 33.7204,36.815 33.7204,36.982 C33.7204,37.143 33.7364,37.298 33.7744,37.451 C33.8114,37.601 33.8724,37.738 33.9544,37.858 C34.0364,37.981 34.1424,38.078 34.2744,38.149 C34.4054,38.223 34.5664,38.261 34.7564,38.261 C35.0134,38.261 35.2134,38.181 35.3574,38.025 C35.5014,37.868 35.5894,37.662 35.6224,37.404 L36.4324,37.404 C36.4134,37.644 36.3574,37.858 36.2684,38.053 C36.1794,38.245 36.0614,38.409 35.9154,38.544 C35.7694,38.68 35.5974,38.781 35.4014,38.853 C35.2064,38.924 34.9904,38.96 34.7564,38.96 C34.4634,38.96 34.1994,38.911 33.9684,38.806 C33.7334,38.706 33.5364,38.565 33.3784,38.389 C33.2174,38.21 33.0934,38.002 33.0084,37.76 C32.9234,37.519 32.8804,37.262 32.8804,36.982 C32.8804,36.696 32.9234,36.433 33.0084,36.188 C33.0934,35.946 33.2174,35.732 33.3784,35.552 C33.5364,35.37 33.7334,35.226 33.9684,35.123 C34.1994,35.02 34.4634,34.969 34.7564,34.969 C34.9674,34.969 35.1654,34.999 35.3504,35.058 C35.5394,35.12 35.7064,35.208 35.8534,35.322 C36.0024,35.439 36.1254,35.583 36.2214,35.755 C36.3164,35.925 36.3774,36.122 36.4014,36.342 L35.5894,36.342 C35.5744,36.246 35.5434,36.157 35.4924,36.076" id="Fill-10" fill="#283582"></path>
            <polygon id="Fill-12" fill="#283582" points="39.9933 35.0574 39.9933 35.7634 37.9793 35.7634 37.9793 36.5824 39.8293 36.5824 39.8293 37.2354 37.9793 37.2354 37.9793 38.1694 40.0363 38.1694 40.0363 38.8734 37.1393 38.8734 37.1393 35.0574"></polygon>
            <path d="M42.7941,35.0574 C42.9671,35.0574 43.1201,35.0854 43.2551,35.1414 C43.3941,35.1984 43.5121,35.2714 43.6101,35.3694 C43.7081,35.4634 43.7821,35.5784 43.8341,35.7034 C43.8861,35.8294 43.9111,35.9664 43.9111,36.1124 C43.9111,36.3364 43.8631,36.5314 43.7701,36.6944 C43.6751,36.8574 43.5231,36.9844 43.3081,37.0694 L43.3081,37.0794 C43.4101,37.1064 43.4951,37.1514 43.5651,37.2094 C43.6321,37.2674 43.6881,37.3384 43.7311,37.4164 C43.7731,37.4984 43.8051,37.5874 43.8231,37.6834 C43.8441,37.7804 43.8561,37.8754 43.8631,37.9714 C43.8671,38.0334 43.8701,38.1034 43.8741,38.1854 C43.8761,38.2674 43.8851,38.3504 43.8941,38.4354 C43.9011,38.5214 43.9151,38.6024 43.9351,38.6804 C43.9551,38.7554 43.9851,38.8214 44.0241,38.8734 L43.1861,38.8734 C43.1401,38.7544 43.1091,38.6104 43.0991,38.4434 C43.0891,38.2734 43.0711,38.1154 43.0501,37.9604 C43.0231,37.7604 42.9611,37.6164 42.8701,37.5224 C42.7771,37.4294 42.6241,37.3834 42.4141,37.3834 L41.5751,37.3834 L41.5751,38.8734 L40.7351,38.8734 L40.7351,35.0574 L42.7941,35.0574 Z M42.4951,36.7864 C42.6881,36.7864 42.8301,36.7434 42.9291,36.6574 C43.0241,36.5724 43.0711,36.4304 43.0711,36.2414 C43.0711,36.0544 43.0241,35.9204 42.9291,35.8374 C42.8301,35.7524 42.6881,35.7114 42.4951,35.7114 L41.5751,35.7114 L41.5751,36.7864 L42.4951,36.7864 Z" id="Fill-14" fill="#283582"></path>
            <polygon id="Fill-16" fill="#283582" points="44.3342 35.7644 44.3342 35.0584 47.4602 35.0584 47.4602 35.7644 46.3172 35.7644 46.3172 38.8744 45.4782 38.8744 45.4782 35.7644"></polygon>
            <mask id="mask-4" fill="white">
                <use xlink:href="#path-3"></use>
            </mask>
            <g id="Clip-19"></g>
            <polygon id="Fill-18" fill="#283582" mask="url(#mask-4)" points="48.032 38.875 48.872 38.875 48.872 35.059 48.032 35.059"></polygon>
            <polygon id="Fill-20" fill="#283582" mask="url(#mask-4)" points="52.426 35.0574 52.426 35.7634 50.583 35.7634 50.583 36.6454 52.18 36.6454 52.18 37.2984 50.583 37.2984 50.583 38.8734 49.743 38.8734 49.743 35.0574"></polygon>
            <polygon id="Fill-21" fill="#283582" mask="url(#mask-4)" points="53.045 38.875 53.885 38.875 53.885 35.059 53.045 35.059"></polygon>
            <polygon id="Fill-22" fill="#283582" mask="url(#mask-4)" points="57.6105 35.0574 57.6105 35.7634 55.5955 35.7634 55.5955 36.5824 57.4455 36.5824 57.4455 37.2354 55.5955 37.2354 55.5955 38.1694 57.6525 38.1694 57.6525 38.8734 54.7565 38.8734 54.7565 35.0574"></polygon>
            <path d="M59.9992,35.0564 C60.2452,35.0564 60.4752,35.0974 60.6862,35.1764 C60.8972,35.2544 61.0812,35.3714 61.2372,35.5294 C61.3912,35.6874 61.5132,35.8804 61.6012,36.1174 C61.6862,36.3524 61.7312,36.6264 61.7312,36.9454 C61.7312,37.2224 61.6952,37.4794 61.6242,37.7154 C61.5542,37.9504 61.4452,38.1524 61.3002,38.3244 C61.1572,38.4944 60.9772,38.6304 60.7612,38.7274 C60.5462,38.8264 60.2922,38.8744 59.9992,38.8744 L58.3532,38.8744 L58.3532,35.0564 L59.9992,35.0564 Z M59.9402,38.1684 C60.0612,38.1684 60.1792,38.1504 60.2942,38.1134 C60.4092,38.0704 60.5092,38.0064 60.5992,37.9164 C60.6862,37.8244 60.7582,37.7054 60.8112,37.5604 C60.8672,37.4144 60.8922,37.2374 60.8922,37.0264 C60.8922,36.8334 60.8732,36.6604 60.8352,36.5054 C60.7992,36.3484 60.7382,36.2174 60.6512,36.1064 C60.5652,35.9954 60.4532,35.9114 60.3112,35.8524 C60.1712,35.7934 59.9972,35.7634 59.7912,35.7634 L59.1932,35.7634 L59.1932,38.1684 L59.9402,38.1684 Z" id="Fill-23" fill="#283582" mask="url(#mask-4)"></path>
        </g>
    </g>
</svg>